<svg width="94" height="110" viewBox="0 0 94 110" fill="none" xmlns="http://www.w3.org/2000/svg">
<path d="M15.5071 21.6757L20.0714 26.5923L0.375733 26.5957L10.8513 21.0861L15.5071 21.6757Z" fill="#74121D"/>
<path d="M78.3967 86.1884L72.8248 76.5376L73.198 78.1271L73.1977 95.0066L78.3967 86.1884Z" fill="#74121D"/>
<g filter="url(#filter0_d_2598_21215)">
<path d="M32.3699 18.9731L84.4296 67.9722L77.8145 86.3902L10.2694 21.2996L32.3699 18.9731Z" fill="#CF1E32"/>
</g>
<path d="M31.0299 28.105L30.0552 27.1761C30.1575 27.0331 30.2279 26.8864 30.2663 26.7362C30.3062 26.5845 30.3163 26.4328 30.2967 26.281C30.2771 26.1293 30.2286 25.9812 30.1512 25.8366C30.0752 25.6935 29.972 25.5597 29.8415 25.4353C29.6056 25.2105 29.3442 25.0733 29.0575 25.0237C28.7721 24.9726 28.4752 25.0123 28.1667 25.143C27.8596 25.2721 27.5555 25.4947 27.2544 25.8107C26.9447 26.1356 26.7328 26.4546 26.6186 26.7675C26.5058 27.0819 26.4833 27.3789 26.5509 27.6585C26.6185 27.938 26.7673 28.1874 26.9973 28.4065C27.1263 28.5295 27.262 28.6263 27.4043 28.6968C27.5481 28.7687 27.6941 28.813 27.8424 28.8297C27.9921 28.845 28.1403 28.832 28.2872 28.7908C28.4355 28.751 28.5788 28.6808 28.717 28.5804L29.6875 29.5137C29.4629 29.6989 29.2076 29.8405 28.9215 29.9388C28.6383 30.0369 28.3393 30.0818 28.0246 30.0734C27.7127 30.065 27.3979 29.9943 27.0801 29.8613C26.7653 29.7283 26.4617 29.5226 26.1695 29.244C25.7629 28.8567 25.4871 28.4183 25.342 27.9289C25.1983 27.441 25.1999 26.9343 25.3467 26.409C25.4949 25.885 25.8052 25.3753 26.2774 24.8797C26.751 24.3827 27.2474 24.049 27.7666 23.8785C28.2858 23.708 28.7926 23.6842 29.2869 23.8071C29.7827 23.9285 30.2309 24.18 30.6314 24.5618C30.8955 24.8134 31.105 25.0838 31.2598 25.3729C31.4161 25.6634 31.5139 25.9632 31.5532 26.2725C31.594 26.5803 31.5717 26.8888 31.4864 27.1982C31.4026 27.509 31.2504 27.8112 31.0299 28.105ZM35.5714 33.7365C35.0978 34.2335 34.6006 34.5665 34.0799 34.7356C33.5608 34.9061 33.0518 34.9293 32.5531 34.805C32.0572 34.6807 31.6083 34.427 31.2062 34.0438C30.8012 33.6579 30.5254 33.2195 30.3787 32.7287C30.2321 32.238 30.2314 31.7292 30.3768 31.2024C30.5221 30.6756 30.8308 30.1645 31.303 29.6689C31.7767 29.1719 32.2731 28.8382 32.7922 28.6677C33.3114 28.4972 33.8189 28.4741 34.3148 28.5984C34.812 28.7212 35.2632 28.9756 35.6682 29.3616C36.0703 29.7447 36.3446 30.1817 36.4912 30.6724C36.6408 31.1631 36.6429 31.6719 36.4976 32.1987C36.3537 32.7269 36.045 33.2395 35.5714 33.7365ZM34.5944 32.8055C34.9012 32.4835 35.1117 32.1661 35.226 31.8531C35.3417 31.5416 35.3672 31.246 35.3024 30.9663C35.2377 30.6867 35.0889 30.4359 34.856 30.2139C34.623 29.9919 34.3654 29.8554 34.0829 29.8042C33.8005 29.753 33.5057 29.792 33.1986 29.9212C32.893 30.0517 32.5868 30.278 32.28 30.5999C31.9732 30.9219 31.7619 31.2386 31.6462 31.5502C31.532 31.8631 31.5073 32.1594 31.572 32.4391C31.6367 32.7187 31.7855 32.9695 32.0185 33.1915C32.2514 33.4135 32.5091 33.55 32.7915 33.6012C33.074 33.6524 33.368 33.6127 33.6736 33.4821C33.9807 33.353 34.2876 33.1274 34.5944 32.8055ZM38.7701 32.4365L39.9585 33.5689L38.2955 37.8272L38.3489 37.8781L42.5222 36.012L43.7105 37.1444L39.3673 41.7021L38.4326 40.8114L41.2596 37.8449L41.2217 37.8089L37.2366 39.6291L36.6001 39.0226L38.2369 34.9433L38.1991 34.9072L35.3616 37.8848L34.4269 36.9941L38.7701 32.4365ZM45.7814 39.1179L41.4382 43.6755L40.4746 42.7572L44.8178 38.1996L45.7814 39.1179ZM50.6997 43.8047L46.3564 48.3624L45.5241 47.5692L46.2749 42.8111L46.2415 42.7793L43.5079 45.6479L42.5443 44.7296L46.8875 40.172L47.7332 40.9778L46.969 45.7189L47.009 45.757L49.7405 42.8907L50.6997 43.8047ZM53.4273 49.2152C53.4994 49.0772 53.5468 48.9398 53.5696 48.803C53.5938 48.6647 53.5927 48.5277 53.5662 48.3921C53.5427 48.2564 53.4938 48.1235 53.4196 47.9934C53.347 47.8647 53.2483 47.7409 53.1237 47.6222C52.8908 47.4002 52.6309 47.263 52.3441 47.2105C52.0587 47.1593 51.7618 47.1977 51.4532 47.3254C51.146 47.4517 50.8412 47.6736 50.5386 47.991C50.2361 48.3085 50.027 48.6245 49.9113 48.9389C49.7957 49.2534 49.7703 49.5533 49.8352 49.8388C49.9014 50.1227 50.0547 50.3792 50.2951 50.6083C50.5132 50.8161 50.7361 50.955 50.9639 51.0248C51.1946 51.0947 51.4187 51.0972 51.636 51.0326C51.8548 50.9693 52.0568 50.8405 52.242 50.6462L52.4103 50.8617L51.2353 49.742L51.9266 49.0165L53.8338 50.8339L53.2866 51.4081C52.9049 51.8087 52.4923 52.0723 52.0489 52.1989C51.6069 52.3241 51.1634 52.3232 50.7182 52.1962C50.2744 52.0677 49.8612 51.8211 49.4784 51.4564C49.0511 51.0492 48.7655 50.5973 48.6217 50.1007C48.4792 49.6025 48.4836 49.0929 48.6348 48.5718C48.789 48.0506 49.0951 47.5496 49.5532 47.069C49.9052 46.6995 50.2725 46.4211 50.655 46.2336C51.0404 46.046 51.4264 45.9439 51.8131 45.9274C52.1997 45.9108 52.5723 45.9728 52.9308 46.1135C53.2893 46.2542 53.6192 46.468 53.9203 46.755C54.1785 47.001 54.3828 47.2679 54.5332 47.5556C54.6851 47.8419 54.782 48.1352 54.824 48.4357C54.8675 48.7376 54.8544 49.0351 54.7847 49.3282C54.7163 49.6197 54.5903 49.8931 54.4065 50.1483L53.4273 49.2152ZM59.8769 55.0514C60.0302 54.8549 60.0867 54.6426 60.0464 54.4146C60.0061 54.1865 59.8703 53.9622 59.6388 53.7416C59.4816 53.5918 59.3276 53.4875 59.1769 53.4288C59.0275 53.3686 58.8872 53.3495 58.7558 53.3715C58.6259 53.395 58.5143 53.4556 58.421 53.5535C58.3403 53.6323 58.2895 53.7198 58.2686 53.816C58.2492 53.9135 58.2517 54.0164 58.2761 54.1245C58.3018 54.2312 58.3429 54.3425 58.3993 54.4586C58.4572 54.5731 58.5252 54.6889 58.6034 54.8059L58.9196 55.294C59.0759 55.528 59.2019 55.7612 59.2974 55.9938C59.3928 56.2263 59.4498 56.4547 59.4682 56.6789C59.4867 56.9031 59.4593 57.1205 59.3861 57.331C59.3144 57.5429 59.1888 57.7445 59.0093 57.9358C58.742 58.2133 58.4403 58.3873 58.1043 58.4577C57.7711 58.5281 57.4188 58.4938 57.0473 58.3549C56.6786 58.2159 56.3089 57.9697 55.938 57.6163C55.57 57.2657 55.3033 56.9039 55.1378 56.531C54.9737 56.1595 54.9206 55.7904 54.9785 55.4238C55.0392 55.057 55.2221 54.7062 55.5271 54.3712L56.4596 55.2598C56.3243 55.4225 56.2465 55.5918 56.2261 55.7677C56.2086 55.9435 56.2404 56.1196 56.3215 56.2959C56.4054 56.4722 56.5305 56.6395 56.6967 56.7979C56.8599 56.9534 57.0242 57.0647 57.1896 57.1317C57.3565 57.2002 57.5136 57.2239 57.661 57.203C57.8083 57.182 57.9343 57.1167 58.0389 57.0069C58.1365 56.9045 58.188 56.7895 58.1937 56.6618C58.2008 56.5355 58.1698 56.3927 58.1007 56.2335C58.0331 56.0757 57.9354 55.8976 57.8074 55.6992L57.4299 55.1016C57.1347 54.642 56.9705 54.2067 56.9374 53.7958C56.9044 53.385 57.049 53.0118 57.3714 52.6765C57.6329 52.3991 57.9361 52.228 58.281 52.1632C58.6273 52.0997 58.9862 52.1346 59.3576 52.2677C59.729 52.4008 60.0809 52.6257 60.4132 52.9424C60.7515 53.2647 60.9916 53.604 61.1335 53.96C61.2769 54.3175 61.3208 54.6665 61.2653 55.007C61.2097 55.3476 61.0548 55.6557 60.8005 55.9315L59.8769 55.0514ZM65.09 61.8663C64.6164 62.3633 64.1192 62.6964 63.5986 62.8655C63.0794 63.036 62.5704 63.0591 62.0717 62.9349C61.5758 62.8106 61.1269 62.5568 60.7248 62.1737C60.3198 61.7877 60.044 61.3494 59.8974 60.8586C59.7507 60.3678 59.7501 59.8591 59.8954 59.3323C60.0407 58.8055 60.3494 58.2943 60.8217 57.7988C61.2953 57.3018 61.7917 56.968 62.3109 56.7975C62.83 56.627 63.3376 56.6039 63.8334 56.7282C64.3306 56.8511 64.7818 57.1055 65.1868 57.4914C65.5889 57.8746 65.8632 58.3115 66.0098 58.8023C66.1594 59.293 66.1615 59.8017 66.0162 60.3285C65.8723 60.8567 65.5636 61.3693 65.09 61.8663ZM64.113 60.9353C64.4198 60.6134 64.6303 60.2959 64.7446 59.983C64.8603 59.6714 64.8858 59.3758 64.821 59.0962C64.7563 58.8165 64.6075 58.5657 64.3746 58.3438C64.1417 58.1218 63.884 57.9852 63.6015 57.934C63.3191 57.8829 63.0243 57.9219 62.7172 58.051C62.4116 58.1816 62.1054 58.4078 61.7986 58.7298C61.4918 59.0517 61.2806 59.3685 61.1649 59.68C61.0506 59.993 61.0259 60.2893 61.0906 60.5689C61.1553 60.8486 61.3041 61.0994 61.5371 61.3214C61.77 61.5433 62.0277 61.6799 62.3101 61.7311C62.5926 61.7823 62.8866 61.7426 63.1922 61.612C63.4993 61.4828 63.8062 61.2573 64.113 60.9353ZM70.3054 66.8363C69.8317 67.3333 69.3346 67.6664 68.8139 67.8355C68.2947 68.006 67.7858 68.0291 67.287 67.9049C66.7912 67.7806 66.3423 67.5268 65.9402 67.1437C65.5352 66.7577 65.2593 66.3193 65.1127 65.8286C64.9661 65.3378 64.9654 64.829 65.1107 64.3023C65.256 63.7755 65.5648 63.2643 66.037 62.7688C66.5106 62.2718 67.007 61.938 67.5262 61.7675C68.0454 61.597 68.5529 61.5739 69.0488 61.6982C69.546 61.8211 69.9971 62.0754 70.4022 62.4614C70.8042 62.8446 71.0786 63.2815 71.2252 63.7723C71.3747 64.263 71.3768 64.7717 71.2315 65.2985C71.0877 65.8267 70.779 66.3393 70.3054 66.8363ZM69.3284 65.9053C69.6352 65.5834 69.8457 65.2659 69.9599 64.953C70.0756 64.6414 70.1011 64.3458 70.0364 64.0662C69.9717 63.7865 69.8229 63.5357 69.5899 63.3138C69.357 63.0918 69.0993 62.9552 68.8169 62.904C68.5344 62.8529 68.2397 62.8918 67.9326 63.021C67.627 63.1516 67.3208 63.3778 67.014 63.6998C66.7072 64.0217 66.4959 64.3385 66.3802 64.65C66.266 64.963 66.2412 65.2593 66.306 65.5389C66.3707 65.8186 66.5195 66.0694 66.7524 66.2913C66.9854 66.5133 67.243 66.6499 67.5255 66.7011C67.8079 66.7522 68.102 66.7125 68.4076 66.582C68.7147 66.4528 69.0216 66.2273 69.3284 65.9053ZM77.3162 69.1691L72.973 73.7267L72.1407 72.9336L72.8915 68.1755L72.8581 68.1437L70.1245 71.0122L69.1609 70.0939L73.5041 65.5363L74.3498 66.3422L73.5855 71.0832L73.6256 71.1214L76.3571 68.2551L77.3162 69.1691Z" fill="white"/>
<defs>
<filter id="filter0_d_2598_21215" x="6.80666" y="18.9727" width="81.0856" height="74.3432" filterUnits="userSpaceOnUse" color-interpolation-filters="sRGB">
<feFlood flood-opacity="0" result="BackgroundImageFix"/>
<feColorMatrix in="SourceAlpha" type="matrix" values="0 0 0 0 0 0 0 0 0 0 0 0 0 0 0 0 0 0 127 0" result="hardAlpha"/>
<feOffset dy="3.46262"/>
<feGaussianBlur stdDeviation="1.73131"/>
<feComposite in2="hardAlpha" operator="out"/>
<feColorMatrix type="matrix" values="0 0 0 0 0 0 0 0 0 0 0 0 0 0 0 0 0 0 0.25 0"/>
<feBlend mode="normal" in2="BackgroundImageFix" result="effect1_dropShadow_2598_21215"/>
<feBlend mode="normal" in="SourceGraphic" in2="effect1_dropShadow_2598_21215" result="shape"/>
</filter>
</defs>
</svg>
