<svg width="20" height="20" viewBox="0 0 20 20" fill="none" xmlns="http://www.w3.org/2000/svg">
<path d="M3.28197 6.71973C2.64869 6.71942 2.13541 7.23395 2.13525 7.86676L2.13604 12.6693C2.13597 12.8199 2.1656 12.9691 2.22323 13.1084C2.28086 13.2476 2.36536 13.3741 2.47189 13.4806C2.57843 13.5872 2.70492 13.6717 2.84413 13.7293C2.98334 13.787 3.13255 13.8166 3.28322 13.8166C3.43389 13.8168 3.58311 13.7872 3.72233 13.7296C3.86155 13.672 3.98804 13.5875 4.09455 13.4809C4.20106 13.3744 4.2855 13.2478 4.34302 13.1086C4.40055 12.9693 4.43003 12.8201 4.42979 12.6694V7.86614C4.42945 7.56195 4.30837 7.27033 4.09315 7.05537C3.87792 6.84041 3.58616 6.71969 3.28197 6.71973ZM12.5309 2.40692L13.3313 0.945198C13.3517 0.908117 13.3566 0.864463 13.3448 0.823808C13.3331 0.783154 13.3057 0.748815 13.2687 0.728322C13.2316 0.708175 13.1881 0.703555 13.1476 0.715477C13.1071 0.727398 13.073 0.754888 13.0528 0.791916L12.2442 2.26895C11.5638 1.96614 10.8024 1.79645 9.99682 1.79723C9.19338 1.79645 8.43229 1.96567 7.75479 2.26676L6.94525 0.793479C6.93537 0.775089 6.92194 0.758842 6.90573 0.745681C6.88953 0.732519 6.87087 0.722704 6.85084 0.716803C6.83082 0.710903 6.80982 0.709035 6.78907 0.711307C6.76831 0.71358 6.74822 0.719947 6.72994 0.730041C6.71149 0.739903 6.69519 0.753345 6.682 0.769581C6.66881 0.785817 6.65898 0.804522 6.6531 0.8246C6.64723 0.844678 6.64541 0.865726 6.64777 0.886514C6.65012 0.907302 6.6566 0.927411 6.66682 0.945666L7.4676 2.40645C5.89416 3.21785 4.83103 4.76317 4.83197 6.53739L15.1629 6.53614C15.1632 4.76254 14.102 3.22035 12.5309 2.40692ZM7.64713 4.66582C7.53224 4.66576 7.42207 4.62006 7.34088 4.53877C7.25968 4.45749 7.2141 4.34728 7.21416 4.23239C7.21422 4.11749 7.25992 4.00733 7.34121 3.92613C7.42249 3.84494 7.5327 3.79935 7.6476 3.79942C7.7625 3.79962 7.87265 3.84535 7.95391 3.92659C8.03518 4.00782 8.08094 4.11795 8.08119 4.23285C8.08098 4.34781 8.03515 4.45798 7.95376 4.53917C7.87237 4.62035 7.76209 4.66591 7.64713 4.66582ZM12.3512 4.66504C12.2943 4.66508 12.238 4.65391 12.1854 4.63217C12.1329 4.61043 12.0851 4.57854 12.0449 4.53833C12.0047 4.49812 11.9728 4.45037 11.951 4.39782C11.9292 4.34527 11.918 4.28895 11.9181 4.23207C11.9187 4.11728 11.9645 4.00734 12.0456 3.9261C12.1267 3.84485 12.2366 3.79883 12.3513 3.79801C12.466 3.79895 12.5757 3.84507 12.6567 3.92635C12.7376 4.00763 12.7832 4.11753 12.7837 4.23223C12.7838 4.28906 12.7726 4.34534 12.7509 4.39786C12.7292 4.45038 12.6973 4.4981 12.6572 4.5383C12.617 4.5785 12.5693 4.61038 12.5168 4.63213C12.4643 4.65388 12.408 4.66506 12.3512 4.66504ZM4.87416 6.93645L4.87588 14.3794C4.87565 14.5402 4.90715 14.6994 4.96857 14.848C5.02999 14.9965 5.12013 15.1315 5.23381 15.2452C5.34749 15.3589 5.48249 15.449 5.63106 15.5104C5.77964 15.5718 5.93887 15.6033 6.09963 15.603L6.93291 15.6033L6.93385 18.1446C6.93369 18.7774 7.44807 19.2918 8.07994 19.2918C8.71369 19.2918 9.22713 18.7769 9.22729 18.1438L9.22666 15.6032L10.7749 15.6027L10.7756 18.1438C10.7756 18.7761 11.2901 19.2916 11.9221 19.2904C12.5559 19.2908 13.0696 18.776 13.0695 18.1429L13.0687 15.6024L13.9049 15.6018C14.0657 15.6018 14.2249 15.5701 14.3734 15.5086C14.522 15.4471 14.6569 15.357 14.7706 15.2433C14.8843 15.1296 14.9745 14.9947 15.0361 14.8462C15.0976 14.6977 15.1293 14.5385 15.1293 14.3777L15.1279 6.93473L4.87416 6.93645ZM17.8638 7.86504C17.8638 7.71443 17.8341 7.5653 17.7765 7.42616C17.7188 7.28703 17.6343 7.16061 17.5278 7.05412C17.4213 6.94764 17.2949 6.86318 17.1557 6.80556C17.0166 6.74795 16.8674 6.7183 16.7168 6.71832C16.0835 6.7177 15.5704 7.23192 15.5704 7.86551L15.5713 12.6683C15.5712 12.8189 15.6008 12.9681 15.6584 13.1073C15.716 13.2464 15.8005 13.3729 15.907 13.4794C16.0135 13.5859 16.1399 13.6704 16.2791 13.728C16.4183 13.7856 16.5674 13.8151 16.7181 13.815C16.8687 13.8151 17.0179 13.7854 17.157 13.7277C17.2962 13.6701 17.4226 13.5855 17.5291 13.479C17.6356 13.3724 17.7201 13.2459 17.7776 13.1067C17.8352 12.9675 17.8648 12.8183 17.8646 12.6677L17.8638 7.86504Z" fill="white"/>
</svg>
