<svg width="20" height="20" viewBox="0 0 20 20" fill="none" xmlns="http://www.w3.org/2000/svg">
<path d="M3.28149 6.71973C2.64821 6.71942 2.13493 7.23395 2.13477 7.86676L2.13556 12.6693C2.13549 12.8199 2.16512 12.9691 2.22275 13.1084C2.28038 13.2476 2.36488 13.3741 2.47141 13.4806C2.57795 13.5872 2.70444 13.6717 2.84365 13.7293C2.98286 13.787 3.13207 13.8166 3.28274 13.8166C3.43341 13.8168 3.58263 13.7872 3.72185 13.7296C3.86107 13.672 3.98756 13.5875 4.09407 13.4809C4.20058 13.3744 4.28502 13.2478 4.34254 13.1086C4.40007 12.9693 4.42955 12.8201 4.42931 12.6694V7.86614C4.42897 7.56195 4.30789 7.27033 4.09267 7.05537C3.87744 6.84041 3.58568 6.71969 3.28149 6.71973ZM12.5304 2.40692L13.3308 0.945198C13.3512 0.908117 13.3561 0.864463 13.3443 0.823808C13.3326 0.783154 13.3052 0.748815 13.2682 0.728322C13.2311 0.708175 13.1876 0.703555 13.1471 0.715477C13.1066 0.727398 13.0725 0.754888 13.0523 0.791916L12.2437 2.26895C11.5633 1.96614 10.8019 1.79645 9.99634 1.79723C9.1929 1.79645 8.43181 1.96567 7.75431 2.26676L6.94477 0.793479C6.93489 0.775089 6.92146 0.758842 6.90525 0.745681C6.88905 0.732519 6.87039 0.722704 6.85036 0.716803C6.83034 0.710903 6.80934 0.709035 6.78859 0.711307C6.76783 0.71358 6.74774 0.719947 6.72946 0.730041C6.71101 0.739903 6.69471 0.753345 6.68152 0.769581C6.66833 0.785817 6.6585 0.804522 6.65262 0.8246C6.64675 0.844678 6.64493 0.865726 6.64729 0.886514C6.64964 0.907302 6.65612 0.927411 6.66634 0.945666L7.46712 2.40645C5.89368 3.21785 4.83055 4.76317 4.83149 6.53739L15.1624 6.53614C15.1627 4.76254 14.1015 3.22035 12.5304 2.40692ZM7.64665 4.66582C7.53176 4.66576 7.42159 4.62006 7.3404 4.53877C7.2592 4.45749 7.21362 4.34728 7.21368 4.23239C7.21374 4.11749 7.25944 4.00733 7.34073 3.92613C7.42201 3.84494 7.53222 3.79935 7.64712 3.79942C7.76202 3.79962 7.87217 3.84535 7.95343 3.92659C8.0347 4.00782 8.08046 4.11795 8.08071 4.23285C8.0805 4.34781 8.03467 4.45798 7.95328 4.53917C7.87189 4.62035 7.76161 4.66591 7.64665 4.66582ZM12.3507 4.66504C12.2938 4.66508 12.2375 4.65391 12.1849 4.63217C12.1324 4.61043 12.0846 4.57854 12.0444 4.53833C12.0042 4.49812 11.9723 4.45037 11.9505 4.39782C11.9287 4.34527 11.9175 4.28895 11.9176 4.23207C11.9182 4.11728 11.964 4.00734 12.0451 3.9261C12.1262 3.84485 12.2361 3.79883 12.3508 3.79801C12.4655 3.79895 12.5752 3.84507 12.6562 3.92635C12.7371 4.00763 12.7827 4.11753 12.7832 4.23223C12.7833 4.28906 12.7721 4.34534 12.7504 4.39786C12.7287 4.45038 12.6968 4.4981 12.6567 4.5383C12.6165 4.5785 12.5688 4.61038 12.5163 4.63213C12.4638 4.65388 12.4075 4.66506 12.3507 4.66504ZM4.87368 6.93645L4.8754 14.3794C4.87517 14.5402 4.90667 14.6994 4.96809 14.848C5.02951 14.9965 5.11965 15.1315 5.23333 15.2452C5.34701 15.3589 5.48201 15.449 5.63058 15.5104C5.77916 15.5718 5.93839 15.6033 6.09915 15.603L6.93243 15.6033L6.93337 18.1446C6.93321 18.7774 7.44759 19.2918 8.07946 19.2918C8.71321 19.2918 9.22665 18.7769 9.22681 18.1438L9.22618 15.6032L10.7744 15.6027L10.7751 18.1438C10.7751 18.7761 11.2896 19.2916 11.9216 19.2904C12.5554 19.2908 13.0691 18.776 13.069 18.1429L13.0682 15.6024L13.9044 15.6018C14.0652 15.6018 14.2244 15.5701 14.3729 15.5086C14.5215 15.4471 14.6564 15.357 14.7701 15.2433C14.8838 15.1296 14.974 14.9947 15.0356 14.8462C15.0971 14.6977 15.1288 14.5385 15.1288 14.3777L15.1274 6.93473L4.87368 6.93645ZM17.8633 7.86504C17.8633 7.71443 17.8336 7.5653 17.776 7.42616C17.7183 7.28703 17.6338 7.16061 17.5273 7.05412C17.4208 6.94764 17.2944 6.86318 17.1552 6.80556C17.0161 6.74795 16.8669 6.7183 16.7163 6.71832C16.083 6.7177 15.5699 7.23192 15.5699 7.86551L15.5708 12.6683C15.5707 12.8189 15.6003 12.9681 15.6579 13.1073C15.7155 13.2464 15.8 13.3729 15.9065 13.4794C16.013 13.5859 16.1394 13.6704 16.2786 13.728C16.4178 13.7856 16.5669 13.8151 16.7176 13.815C16.8682 13.8151 17.0174 13.7854 17.1565 13.7277C17.2957 13.6701 17.4221 13.5855 17.5286 13.479C17.6351 13.3724 17.7196 13.2459 17.7771 13.1067C17.8347 12.9675 17.8643 12.8183 17.8641 12.6677L17.8633 7.86504Z" fill="#596184"/>
</svg>
