<svg width="9" height="18" viewBox="0 0 9 18" fill="none" xmlns="http://www.w3.org/2000/svg">
<path d="M8.78073 15.9698C8.85041 16.0395 8.90568 16.1222 8.9434 16.2132C8.98111 16.3043 9.00052 16.4019 9.00052 16.5004C9.00052 16.599 8.98111 16.6965 8.9434 16.7876C8.90568 16.8786 8.85041 16.9614 8.78073 17.031C8.71104 17.1007 8.62832 17.156 8.53727 17.1937C8.44623 17.2314 8.34865 17.2508 8.2501 17.2508C8.15156 17.2508 8.05397 17.2314 7.96293 17.1937C7.87188 17.156 7.78916 17.1007 7.71948 17.031L0.219476 9.53104C0.149744 9.46139 0.0944253 9.37867 0.0566821 9.28762C0.0189389 9.19657 -0.000488281 9.09898 -0.000488281 9.00042C-0.000488281 8.90186 0.0189389 8.80426 0.0566821 8.71321C0.0944253 8.62216 0.149744 8.53945 0.219476 8.46979L7.71948 0.969792C7.86021 0.829062 8.05108 0.75 8.2501 0.75C8.44912 0.75 8.64 0.829062 8.78073 0.969792C8.92146 1.11052 9.00052 1.30139 9.00052 1.50042C9.00052 1.69944 8.92146 1.89031 8.78073 2.03104L1.81041 9.00042L8.78073 15.9698Z" fill="white"/>
</svg>
