<svg width="20" height="20" viewBox="0 0 20 20" fill="none" xmlns="http://www.w3.org/2000/svg">
<g clip-path="url(#clip0_1064_2827)">
<path d="M9.99969 4.06C12.3209 4.06 14.4072 4.86125 15.8122 6.3025C16.9679 6.45428 18.0581 6.92622 18.9597 7.665C17.3834 4.3525 14.1184 2.5 9.99969 2.5C5.93719 2.5 2.64969 4.35 1.05469 7.6525C1.88123 6.97939 2.86619 6.52887 3.91594 6.34375C5.29469 4.84 7.46719 4.06 9.99969 4.06Z" fill="#596184"/>
<path d="M14.9998 17.5C13.6995 17.4999 12.4503 16.9933 11.5173 16.0875L11.5148 16.085C11.4071 16.004 11.2915 15.934 11.1698 15.8763C10.803 15.7076 10.4035 15.6219 9.99981 15.625C9.4823 15.625 9.08856 15.7537 8.83106 15.8763C8.70888 15.934 8.59287 16.0039 8.48481 16.085L8.48231 16.0875C7.89458 16.6581 7.17566 17.0755 6.38878 17.3031C5.6019 17.5307 4.77116 17.5615 3.96959 17.3928C3.16802 17.224 2.42018 16.861 1.79183 16.3355C1.16347 15.81 0.673855 15.1381 0.36602 14.379C0.0581843 13.6199 -0.0584382 12.7968 0.0264065 11.9821C0.111251 11.1674 0.394964 10.386 0.8526 9.70659C1.31024 9.02722 1.92778 8.47068 2.65092 8.08592C3.37407 7.70115 4.18067 7.49995 4.99981 7.5H14.9998C16.3259 7.5 17.5977 8.02678 18.5353 8.96447C19.473 9.90215 19.9998 11.1739 19.9998 12.5C19.9998 13.8261 19.473 15.0979 18.5353 16.0355C17.5977 16.9732 16.3259 17.5 14.9998 17.5Z" fill="#596184"/>
</g>
<defs>
<clipPath id="clip0_1064_2827">
<rect width="20" height="20" fill="white"/>
</clipPath>
</defs>
</svg>
