<svg width="25" height="25" viewBox="0 0 25 25" fill="none" xmlns="http://www.w3.org/2000/svg">
<g clip-path="url(#clip0_780_23054)">
<path d="M6.80186 14.0937L3.09124 17.0937V5.09375C3.09124 4.89484 3.17025 4.70407 3.31091 4.56342C3.45156 4.42277 3.64232 4.34375 3.84124 4.34375H15.8412C16.0401 4.34375 16.2309 4.42277 16.3716 4.56342C16.5122 4.70407 16.5912 4.89484 16.5912 5.09375V13.3437C16.5912 13.5427 16.5122 13.7334 16.3716 13.8741C16.2309 14.0147 16.0401 14.0937 15.8412 14.0937H6.80186Z" stroke="white" stroke-width="1.41273" stroke-linecap="round" stroke-linejoin="round"/>
<path d="M7.59118 14.0937V17.8437C7.59118 18.0427 7.6702 18.2334 7.81085 18.3741C7.95151 18.5147 8.14227 18.5937 8.34118 18.5937H17.3806L21.0912 21.5937V9.59375C21.0912 9.39484 21.0122 9.20407 20.8715 9.06342C20.7309 8.92277 20.5401 8.84375 20.3412 8.84375H16.5912" stroke="white" stroke-width="1.41273" stroke-linecap="round" stroke-linejoin="round"/>
</g>
<defs>
<clipPath id="clip0_780_23054">
<rect width="24" height="24" fill="white" transform="translate(0.0910883 0.59375)"/>
</clipPath>
</defs>
</svg>
