<svg width="32" height="32" viewBox="0 0 32 32" fill="none" xmlns="http://www.w3.org/2000/svg">
<g clip-path="url(#clip0_779_22416)">
<path d="M28.1212 0H3.87879C1.73659 0 0 1.73659 0 3.87879V28.1212C0 30.2634 1.73659 32 3.87879 32H28.1212C30.2634 32 32 30.2634 32 28.1212V3.87879C32 1.73659 30.2634 0 28.1212 0Z" fill="#08D7D7"/>
<path d="M7.75781 11.1518V12.6064C7.75781 13.1427 8.19114 13.5761 8.72751 13.5761H9.21236H10.6669V11.1518C10.6669 10.3488 10.0154 9.69727 9.21236 9.69727C8.40933 9.69727 7.75781 10.3488 7.75781 11.1518ZM11.1518 9.69727C11.4548 10.1033 11.6366 10.6064 11.6366 11.1518V20.3639C11.6366 21.4336 12.5063 22.3033 13.576 22.3033C14.6457 22.3033 15.5154 21.4336 15.5154 20.3639V20.2034C15.5154 19.2215 16.3124 18.4245 17.2942 18.4245H22.3033V12.6064C22.3033 11.0003 21.0002 9.69727 19.3942 9.69727H11.1518ZM21.8184 23.273C23.6942 23.273 25.2124 21.7549 25.2124 19.8791C25.2124 19.6124 24.9942 19.3942 24.7275 19.3942H17.2942C16.8487 19.3942 16.4851 19.7549 16.4851 20.2034V20.3639C16.4851 21.9699 15.182 23.273 13.576 23.273H18.9093H21.8184Z" fill="white"/>
</g>
<defs>
<clipPath id="clip0_779_22416">
<rect width="32" height="32" rx="10" fill="white"/>
</clipPath>
</defs>
</svg>
