<svg width="20" height="20" viewBox="0 0 20 20" fill="none" xmlns="http://www.w3.org/2000/svg">
<path fill-rule="evenodd" clip-rule="evenodd" d="M19.4441 9.36142C18.5621 4.43542 16.5901 2.98242 15.5411 2.98242C13.9041 2.98242 13.4841 4.19942 10.0001 4.24042C6.51612 4.19942 6.09612 2.98242 4.45912 2.98242C3.41012 2.98242 1.43712 4.43542 0.555116 9.36142C0.0521157 12.1734 -0.493884 16.3714 0.807116 16.8754C2.42612 17.5024 2.97512 15.9344 4.75312 14.6094C6.55812 13.2664 7.42412 12.9504 10.0001 12.9504C12.5761 12.9504 13.4421 13.2664 15.2471 14.6094C17.0251 15.9334 17.5741 17.5024 19.1931 16.8754C20.4941 16.3714 19.9481 12.1744 19.4441 9.36142ZM6.00012 10.0004C5.46968 10.0004 4.96097 9.78971 4.5859 9.41463C4.21083 9.03956 4.00012 8.53085 4.00012 8.00042C4.00012 7.46999 4.21083 6.96128 4.5859 6.58621C4.96097 6.21114 5.46968 6.00042 6.00012 6.00042C6.53055 6.00042 7.03926 6.21114 7.41433 6.58621C7.7894 6.96128 8.00012 7.46999 8.00012 8.00042C8.00012 8.53085 7.7894 9.03956 7.41433 9.41463C7.03926 9.78971 6.53055 10.0004 6.00012 10.0004ZM13.0001 10.0004C12.7349 10.0004 12.4805 9.89506 12.293 9.70753C12.1055 9.51999 12.0001 9.26564 12.0001 9.00042C12.0001 8.73521 12.1055 8.48085 12.293 8.29331C12.4805 8.10578 12.7349 8.00042 13.0001 8.00042C13.2653 8.00042 13.5197 8.10578 13.7072 8.29331C13.8948 8.48085 14.0001 8.73521 14.0001 9.00042C14.0001 9.26564 13.8948 9.51999 13.7072 9.70753C13.5197 9.89506 13.2653 10.0004 13.0001 10.0004ZM15.0001 8.00042C14.7349 8.00042 14.4805 7.89506 14.293 7.70753C14.1055 7.51999 14.0001 7.26564 14.0001 7.00042C14.0001 6.73521 14.1055 6.48085 14.293 6.29332C14.4805 6.10578 14.7349 6.00042 15.0001 6.00042C15.2653 6.00042 15.5197 6.10578 15.7072 6.29332C15.8948 6.48085 16.0001 6.73521 16.0001 7.00042C16.0001 7.26564 15.8948 7.51999 15.7072 7.70753C15.5197 7.89506 15.2653 8.00042 15.0001 8.00042Z" fill="#596184"/>
</svg>
