<svg width="32" height="32" viewBox="0 0 32 32" fill="none" xmlns="http://www.w3.org/2000/svg">
<g clip-path="url(#clip0_779_22405)">
<path d="M27.871 0H4.12903C1.84863 0 0 1.84863 0 4.12903V27.871C0 30.1514 1.84863 32 4.12903 32H27.871C30.1514 32 32 30.1514 32 27.871V4.12903C32 1.84863 30.1514 0 27.871 0Z" fill="#7288D5"/>
<path d="M13.6669 8.25781C11.8764 8.35816 10.1586 9 8.74097 10.0983C7.12393 13.2683 6.25255 16.7658 6.19336 20.3239C6.80603 21.1761 7.6182 21.8652 8.5588 22.3309C9.49941 22.7966 10.5398 23.0248 11.589 22.9954C11.589 22.9954 12.2434 22.217 12.774 21.5502C11.5342 21.2405 10.4399 20.511 9.67723 19.4857C9.67723 19.4857 9.85375 19.6096 10.1727 19.7861C10.1903 19.7861 10.2078 19.8036 10.2439 19.8212C10.2966 19.8563 10.3472 19.8738 10.4029 19.9099C10.819 20.1399 11.2505 20.341 11.6943 20.5117C12.5332 20.8521 13.4044 21.107 14.2945 21.2725C15.8075 21.5632 17.3615 21.5691 18.8767 21.2901C19.7562 21.1276 20.616 20.8726 21.4419 20.5293C22.1573 20.2594 22.8399 19.9093 23.4765 19.4857C22.6869 20.5344 21.5545 21.2731 20.2765 21.5729C20.807 22.2274 21.4439 22.9881 21.4439 22.9881C22.4915 23.013 23.5295 22.7836 24.469 22.3196C25.4085 21.8556 26.2216 21.1708 26.8385 20.3239C26.7793 16.7658 25.908 13.2683 24.2909 10.0983C22.8695 8.98775 21.1389 8.34477 19.3371 8.25781L19.0894 8.54065C20.7003 8.95938 22.2024 9.71942 23.494 10.7693C21.8421 9.87436 20.034 9.30425 18.1676 9.08981C16.9802 8.95899 15.7815 8.97078 14.597 9.12491C14.496 9.12788 14.3955 9.13962 14.2966 9.16001C12.9096 9.32714 11.5558 9.703 10.2811 10.2748C9.62665 10.5577 9.23749 10.7703 9.23749 10.7703C10.5894 9.66487 12.1733 8.87872 13.8713 8.47046L13.6937 8.25781H13.6669ZM13.2127 14.7858C13.4602 14.7921 13.7039 14.8478 13.9295 14.9496C14.1551 15.0514 14.3582 15.1973 14.5266 15.3787C14.6951 15.56 14.8257 15.7732 14.9106 16.0057C14.9955 16.2383 15.0331 16.4854 15.0212 16.7327C15.0316 16.9795 14.9929 17.2259 14.9074 17.4577C14.8219 17.6895 14.6912 17.902 14.523 18.083C14.3548 18.2639 14.1524 18.4097 13.9275 18.5119C13.7026 18.6142 13.4596 18.6708 13.2127 18.6785C12.7165 18.6575 12.2488 18.4412 11.9115 18.0766C11.5742 17.7121 11.3948 17.229 11.4125 16.7327C11.402 16.4864 11.4403 16.2405 11.5252 16.0091C11.6101 15.7778 11.74 15.5655 11.9074 15.3845C12.0747 15.2036 12.2762 15.0575 12.5002 14.9547C12.7243 14.852 12.9664 14.7946 13.2127 14.7858ZM19.6695 14.7858C20.1673 14.8046 20.6373 15.0202 20.9764 15.3852C21.3155 15.7502 21.4959 16.2348 21.478 16.7327C21.4884 16.9792 21.4498 17.2253 21.3645 17.4568C21.2793 17.6883 21.149 17.9006 20.9813 18.0815C20.8135 18.2624 20.6116 18.4083 20.3871 18.5108C20.1627 18.6132 19.9202 18.6702 19.6736 18.6785C19.1767 18.6586 18.7079 18.4427 18.3697 18.078C18.0316 17.7134 17.8516 17.2296 17.8692 16.7327C17.8587 16.4861 17.8972 16.2398 17.9824 16.0082C18.0676 15.7766 18.1978 15.5641 18.3656 15.3831C18.5334 15.2021 18.7353 15.0561 18.9598 14.9536C19.1844 14.8511 19.4269 14.794 19.6736 14.7858H19.6695Z" fill="#F5F7FA"/>
</g>
<defs>
<clipPath id="clip0_779_22405">
<rect width="32" height="32" rx="10" fill="white"/>
</clipPath>
</defs>
</svg>
