<svg width="20" height="19" viewBox="0 0 20 19" fill="none" xmlns="http://www.w3.org/2000/svg">
<path d="M10.8369 11.9218L13.1494 9.49305C13.2104 9.42594 13.2847 9.37231 13.3675 9.33562C13.4504 9.29892 13.54 9.27997 13.6307 9.27997C13.7213 9.27997 13.811 9.29892 13.8938 9.33562C13.9767 9.37231 14.051 9.42594 14.1119 9.49305C14.3794 9.77805 14.3794 10.243 14.1119 10.5293L11.6744 13.0918C11.4927 13.2949 11.2702 13.4573 11.0214 13.5685C10.7726 13.6797 10.5032 13.7372 10.2307 13.7372C9.95818 13.7372 9.68874 13.6797 9.43996 13.5685C9.19118 13.4573 8.96866 13.2949 8.78693 13.0918L6.34943 10.5293C6.22075 10.3874 6.14947 10.2027 6.14947 10.0112C6.14947 9.81962 6.22075 9.63493 6.34943 9.49305C6.41036 9.42594 6.48465 9.37231 6.56753 9.33562C6.65041 9.29892 6.74004 9.27997 6.83068 9.27997C6.92132 9.27997 7.01096 9.29892 7.09384 9.33562C7.17672 9.37231 7.25101 9.42594 7.31193 9.49305L9.58693 11.8818V1.2243C9.58693 0.840547 9.86693 0.529297 10.2119 0.529297C10.5569 0.529297 10.8369 0.840547 10.8369 1.2243V11.9218ZM4.81193 6.7793C4.52415 6.7794 4.2454 6.87981 4.02365 7.06323C3.80189 7.24666 3.651 7.50164 3.59693 7.7843L2.11068 15.2843C2.09485 15.3643 2.08693 15.446 2.08693 15.5293C2.08693 16.2193 2.64193 16.7793 3.32443 16.7793H17.0994C17.1811 16.7793 17.2619 16.771 17.3419 16.7543C17.6653 16.6874 17.9492 16.4953 18.1314 16.2199C18.3136 15.9444 18.3794 15.6081 18.3144 15.2843L16.8269 7.7843C16.773 7.50206 16.6224 7.24741 16.4012 7.06403C16.1799 6.88065 15.9018 6.77998 15.6144 6.7793H4.81193ZM7.08693 5.5293V6.7793H13.3369V5.5293H15.6182C16.8007 5.5293 17.8182 6.37055 18.0507 7.5393L19.5382 15.0393C19.6104 15.4003 19.6019 15.7728 19.5134 16.1302C19.425 16.4875 19.2586 16.821 19.0264 17.1066C18.7941 17.3922 18.5016 17.6231 18.1698 17.7826C17.838 17.9421 17.4751 18.0263 17.1069 18.0293H3.31693C2.9482 18.0281 2.58434 17.945 2.25163 17.7861C1.91892 17.6272 1.62566 17.3963 1.39303 17.1102C1.1604 16.8241 0.99422 16.4899 0.906481 16.1318C0.818741 15.7737 0.811637 15.4005 0.885681 15.0393L2.37318 7.5393C2.60443 6.37055 3.62318 5.5293 4.80443 5.5293H7.08693Z" fill="white"/>
</svg>
