<svg width="18" height="18" viewBox="0 0 18 18" fill="none" xmlns="http://www.w3.org/2000/svg">
<g clip-path="url(#clip0_3_6604)">
<path d="M9 12.9375L9.5183 12.0823L9 11.7682L8.4817 12.0823L9 12.9375ZM4.35938 15.75L3.38553 15.5228L2.8456 17.8368L4.87768 16.6052L4.35938 15.75ZM5.58984 10.4766L6.56368 10.7038L6.70046 10.1176L6.24651 9.72238L5.58984 10.4766ZM1.51172 6.92578L1.42706 5.92937L-0.92591 6.1293L0.855057 7.67997L1.51172 6.92578ZM6.89062 6.46875L6.97529 7.46516L7.57508 7.4142L7.81078 6.86031L6.89062 6.46875ZM9 1.51172L9.92015 1.12016L9 -1.0422L8.07985 1.12016L9 1.51172ZM11.1094 6.46875L10.1892 6.86031L10.4249 7.4142L11.0247 7.46516L11.1094 6.46875ZM16.4883 6.92578L17.1449 7.67997L18.9259 6.1293L16.5729 5.92937L16.4883 6.92578ZM12.4102 10.4766L11.7535 9.72238L11.2995 10.1176L11.4363 10.7038L12.4102 10.4766ZM13.6406 15.75L13.1223 16.6052L15.1544 17.8368L14.6145 15.5228L13.6406 15.75ZM8.4817 12.0823L3.84107 14.8948L4.87768 16.6052L9.5183 13.7927L8.4817 12.0823ZM5.33322 15.9772L6.56368 10.7038L4.616 10.2493L3.38553 15.5228L5.33322 15.9772ZM6.24651 9.72238L2.16838 6.1716L0.855057 7.67997L4.93318 11.2307L6.24651 9.72238ZM1.59638 7.92219L6.97529 7.46516L6.80596 5.47234L1.42706 5.92937L1.59638 7.92219ZM7.81078 6.86031L9.92015 1.90327L8.07985 1.12016L5.97047 6.07719L7.81078 6.86031ZM8.07985 1.90327L10.1892 6.86031L12.0295 6.07719L9.92015 1.12016L8.07985 1.90327ZM11.0247 7.46516L16.4036 7.92219L16.5729 5.92937L11.194 5.47234L11.0247 7.46516ZM15.8316 6.1716L11.7535 9.72238L13.0668 11.2307L17.1449 7.67997L15.8316 6.1716ZM11.4363 10.7038L12.6668 15.9772L14.6145 15.5228L13.384 10.2493L11.4363 10.7038ZM14.1589 14.8948L9.5183 12.0823L8.4817 13.7927L13.1223 16.6052L14.1589 14.8948Z" fill="#00ADFF"/>
</g>
<defs>
<clipPath id="clip0_3_6604">
<rect width="18" height="18" fill="white"/>
</clipPath>
</defs>
</svg>
