<svg width="32" height="32" viewBox="0 0 32 32" fill="none" xmlns="http://www.w3.org/2000/svg">
<g clip-path="url(#clip0_779_22339)">
<path d="M27.871 0H4.12903C1.84863 0 0 1.84863 0 4.12903V27.871C0 30.1514 1.84863 32 4.12903 32H27.871C30.1514 32 32 30.1514 32 27.871V4.12903C32 1.84863 30.1514 0 27.871 0Z" fill="#2F2D2E"/>
<path fill-rule="evenodd" clip-rule="evenodd" d="M23.1754 6.76758H9.16356C8.02808 6.76758 7.60894 7.18048 7.60894 8.30255V21.8385C7.60828 21.9568 7.61378 22.075 7.62545 22.1926C7.62159 22.4663 7.71408 22.7327 7.88666 22.9451C7.90834 22.972 8.14473 23.1454 8.14473 23.1454C8.27066 23.2073 8.35734 23.2486 8.50082 23.3085L15.3994 26.1627C15.6339 26.3001 15.8998 26.375 16.1716 26.3805C16.4421 26.3738 16.7064 26.2981 16.9395 26.1606L23.8381 23.3064C23.9806 23.2496 24.0673 23.2032 24.1942 23.1433C24.1942 23.1433 24.4296 22.9699 24.4523 22.9431C24.6249 22.7306 24.7173 22.4642 24.7135 22.1905C24.725 22.0729 24.7305 21.9547 24.73 21.8365V8.30255C24.73 7.18151 24.3171 6.76758 23.1816 6.76758" fill="white"/>
<path d="M22.2381 20.3721V20.4371L22.2319 20.4681L22.2226 20.4991L22.2164 20.528L22.2071 20.559L22.1937 20.5879L22.1813 20.6126L22.1679 20.6405L22.1524 20.6653L22.1369 20.6901L22.1183 20.7148L22.1029 20.7396L22.0843 20.7613L22.0626 20.783L22.044 20.8015L22.0193 20.8232L21.9976 20.8418L21.9728 20.8604L21.948 20.8759L21.9232 20.8944L21.8944 20.9099L21.8654 20.9223L21.8366 20.9378L21.8056 20.9502L21.7746 20.9626L21.7436 20.9719L21.7127 20.9811L21.6838 20.9904L21.6528 20.9966L21.6239 21.0028L21.595 21.009L21.564 21.0152H21.1109L21.0799 21.009H21.0489L21.018 21.0028L20.987 20.9966L20.956 20.9904L20.925 20.9842L20.8941 20.975L20.8652 20.9688L20.8342 20.9595L20.8033 20.9502L20.7743 20.9378L20.7434 20.9285L20.7145 20.9192L20.6835 20.9068L20.6546 20.8944L20.6257 20.8821L20.5968 20.8666L20.5679 20.8542L20.539 20.8387L20.5142 20.8232L20.4853 20.8077L20.4605 20.7922L20.4358 20.7768L20.411 20.7582L20.3862 20.7396L20.3614 20.721L20.3367 20.7024L20.315 20.6839L20.2902 20.6622L20.3098 20.6374L20.3315 20.6157L20.3511 20.591L20.3728 20.5662L20.3924 20.5445L20.411 20.5197L20.4327 20.495L20.4513 20.4733L20.4729 20.4485L20.4915 20.4268L20.5132 20.4021L20.5318 20.3773L20.5514 20.3556L20.5731 20.3308L20.5927 20.306L20.6143 20.2844L20.634 20.2596L20.6587 20.2782L20.6876 20.2968L20.7124 20.3153L20.7413 20.3339L20.7661 20.3494L20.795 20.368L20.8198 20.3835L20.8487 20.3959L20.8734 20.4113L20.9024 20.4237L20.9312 20.4361L20.9602 20.4485L20.9891 20.4578L21.018 20.4702L21.0489 20.4795L21.0799 20.4888L21.1088 20.4981L21.1398 20.5042L21.1707 20.5104L21.2017 20.5166H21.2368L21.2678 20.5228H21.4381L21.469 20.5166L21.498 20.5104L21.5269 20.5042L21.5516 20.495L21.5733 20.4826L21.5981 20.464L21.6167 20.4423L21.6301 20.4175L21.6394 20.3897V20.3133L21.626 20.2823L21.6105 20.2606L21.5888 20.242L21.564 20.2235L21.5392 20.2111L21.5103 20.1987L21.4794 20.1863L21.4412 20.1708L21.4195 20.1646L21.3947 20.1584L21.3658 20.1491L21.3369 20.143L21.306 20.1337L21.275 20.1275L21.2399 20.1182L21.2089 20.112L21.1738 20.1027L21.1429 20.0965L21.1119 20.0872L21.0809 20.081L21.0499 20.0717L21.0211 20.0624L20.9901 20.0562L20.9612 20.047L20.9323 20.0377L20.9034 20.0284L20.8683 20.016L20.8373 20.0036L20.8063 19.9912L20.7754 19.9788L20.7465 19.9633L20.7155 19.9479L20.6907 19.9324L20.6618 19.9169L20.637 19.8983L20.6123 19.8828L20.5906 19.8642L20.5689 19.8426L20.5472 19.8209L20.5276 19.7992L20.5091 19.7775L20.4936 19.7559L20.4781 19.7311L20.4626 19.7032L20.4492 19.6815L20.4399 19.6568L20.4306 19.6279L20.4213 19.6031L20.4151 19.5721L20.4089 19.5432V19.2831L20.4151 19.2552L20.4213 19.2263L20.4306 19.1974L20.4368 19.1695L20.4502 19.1406L20.4636 19.1128L20.4771 19.0849L20.4925 19.056L20.508 19.0281L20.5266 19.0033L20.5462 18.9786L20.5679 18.9538L20.5896 18.9321L20.6112 18.9073L20.636 18.8857L20.6577 18.8702L20.6825 18.8516L20.7072 18.833L20.732 18.8175L20.7609 18.802L20.7898 18.7897L20.8187 18.7742L20.8476 18.7618L20.8786 18.7525L20.9096 18.7401L20.9385 18.7308L20.9633 18.7246L20.9921 18.7184L21.0211 18.7122L21.052 18.706L21.0809 18.6999H21.4773L21.5083 18.706H21.5434L21.5744 18.7122L21.6032 18.7184L21.6342 18.7246L21.6652 18.7308L21.6941 18.737L21.7251 18.7463L21.754 18.7556L21.7829 18.7618L21.8138 18.7742L21.8427 18.7835L21.8716 18.7959L21.9005 18.8082L21.9315 18.8206L21.9604 18.8361L21.9852 18.8485L22.0141 18.864L22.043 18.8795L22.0678 18.895L22.0967 18.9135L22.1215 18.929L22.1462 18.9476L22.171 18.9662L22.1958 18.9848L22.1772 19.0095L22.1617 19.0343L22.1421 19.0591L22.1225 19.0839L22.1039 19.1117L22.0884 19.1365L22.0688 19.1613L22.0492 19.1861L22.0337 19.2108L22.0141 19.2356L21.9945 19.2604L21.979 19.2851L21.9604 19.3141L21.9408 19.3388L21.9222 19.3636L21.9067 19.3884L21.8882 19.4131L21.8634 19.3946L21.8345 19.3791L21.8097 19.3636L21.7839 19.345L21.755 19.3326L21.7292 19.3171L21.7003 19.3048L21.6755 19.2924L21.6466 19.28L21.6218 19.2676L21.5929 19.2583L21.5682 19.2459L21.5331 19.2366L21.5021 19.2273L21.4711 19.218L21.4402 19.2119L21.4092 19.2057L21.3782 19.1995H21.2182L21.1831 19.2057L21.1521 19.2119L21.1233 19.218L21.0985 19.2304L21.0768 19.2428L21.0479 19.2676L21.0283 19.2965L21.0149 19.3254V19.4039L21.0304 19.4379L21.0438 19.4565L21.0654 19.4782L21.0943 19.4937L21.1191 19.5091L21.1501 19.5215L21.1852 19.5339L21.2224 19.5463L21.2471 19.5525L21.2719 19.5618L21.3008 19.568L21.3297 19.5773L21.3607 19.5835L21.3958 19.5928L21.4309 19.6021L21.466 19.6113L21.5011 19.6175L21.532 19.6268L21.5671 19.6361L21.5981 19.6423L21.629 19.6516L21.66 19.6609L21.6889 19.6702L21.7199 19.6795L21.7488 19.6888L21.7777 19.698L21.8128 19.7104L21.8438 19.7259L21.8747 19.7383L21.9057 19.7538L21.9346 19.7693L21.9635 19.7848L21.9883 19.8002L22.0131 19.8188L22.0378 19.8343L22.0626 19.856L22.0874 19.8777L22.109 19.9024L22.1307 19.9241L22.1493 19.9489L22.1689 19.9768L22.1844 20.0015L22.1999 20.0304L22.2123 20.0552L22.2216 20.0831L22.2309 20.112L22.2371 20.1409L22.2432 20.1719L22.2494 20.2028V20.3432L22.2381 20.3721ZM20.028 20.9915H18.2247V18.7205H20.0445V19.2366H18.8265V19.6051H19.9217V20.0882H18.8265V20.4753H20.0652V20.9915H20.028ZM17.7261 20.9915H17.1501V19.6495L17.1346 19.6743L17.116 19.7032L17.1005 19.728L17.082 19.7528L17.0665 19.7806L17.0469 19.8054L17.0314 19.8302L17.0159 19.8591L16.9973 19.8839L16.9818 19.9086L16.9622 19.9334L16.9467 19.9623L16.9271 19.9871L16.9116 20.0119L16.8962 20.0408L16.8765 20.0655L16.8611 20.0903L16.8414 20.1182L16.826 20.143L16.8063 20.1677L16.7909 20.1966L16.7754 20.2214L16.7558 20.2462L16.7403 20.2751L16.7207 20.2999L16.7052 20.3246L16.6856 20.3494L16.6701 20.3773L16.6546 20.4021L16.635 20.4268L16.6195 20.4557L16.5999 20.4805L16.5844 20.5053L16.5658 20.5342L16.5504 20.559H16.5369L16.5173 20.53L16.5018 20.5053L16.4833 20.4764L16.4678 20.4516L16.4492 20.4237L16.4337 20.399L16.4151 20.3701L16.3997 20.3453L16.38 20.3174L16.3645 20.2926L16.3449 20.2637L16.3294 20.239L16.3098 20.2101L16.2943 20.1853L16.2758 20.1564L16.2603 20.1316L16.2417 20.1027L16.2221 20.0779L16.2066 20.049L16.188 20.0242L16.1726 19.9953L16.154 19.9706L16.1385 19.9417L16.1199 19.9169L16.1044 19.888L16.0848 19.8632L16.0693 19.8343L16.0497 19.8095L16.0342 19.7817L16.0146 19.7569L15.9991 19.728L15.9805 19.7032L15.965 19.6743L15.9465 19.6495V20.9915H15.3478V18.7205H15.9919L16.0074 18.7453L16.0229 18.7731L16.0414 18.7979L16.0569 18.8268L16.0724 18.8516L16.0879 18.8805L16.1034 18.9053L16.122 18.9342L16.1374 18.959L16.1529 18.9837L16.1684 19.0116L16.1839 19.0364L16.2025 19.0642L16.2179 19.089L16.2334 19.1169L16.2489 19.1417L16.2685 19.1664L16.284 19.1943L16.2995 19.2191L16.315 19.248L16.3305 19.2728L16.3501 19.3006L16.3656 19.3254L16.3811 19.3533L16.3965 19.378L16.412 19.4028L16.4316 19.4317L16.4471 19.4565L16.4626 19.4854L16.4781 19.5102L16.4936 19.5391L16.5132 19.5639L16.5287 19.5917L16.5441 19.6165L16.5596 19.5917L16.5751 19.5639L16.5937 19.5391L16.6092 19.5102L16.6247 19.4854L16.6401 19.4565L16.6598 19.4317L16.6753 19.4028L16.6907 19.378L16.7062 19.3533L16.7258 19.3254L16.7413 19.3006L16.7568 19.2728L16.7723 19.248L16.7919 19.2191L16.8074 19.1943L16.8228 19.1664L16.8383 19.1417L16.8538 19.1169L16.8724 19.089L16.8879 19.0642L16.9034 19.0364L16.9189 19.0116L16.9385 18.9837L16.954 18.959L16.9694 18.9342L16.9849 18.9053L17.0035 18.8805L17.019 18.8516L17.0345 18.8268L17.0499 18.7979L17.0696 18.7731L17.085 18.7453L17.1005 18.7205H17.7447V20.9915H17.7261ZM14.074 20.0552L14.0647 20.0263L14.0523 19.9953L14.0389 19.9664L14.0296 19.9375L14.0161 19.9086L14.0038 19.8777L13.9945 19.8488L13.9821 19.8199L13.9697 19.792L13.9604 19.7631L13.948 19.7321L13.9387 19.7032L13.9253 19.6743L13.9119 19.6454L13.9026 19.6165L13.8892 19.5855L13.8758 19.5566L13.8665 19.5288L13.8531 19.4999L13.8407 19.4689L13.8314 19.44L13.818 19.4111L13.8056 19.44L13.7963 19.4689L13.7839 19.4999L13.7705 19.5288L13.7612 19.5566L13.7478 19.5855L13.7344 19.6165L13.7219 19.6454L13.7127 19.6743L13.7003 19.7032L13.6869 19.7321L13.6776 19.7631L13.6641 19.792L13.6507 19.8199L13.6414 19.8488L13.628 19.8777L13.6156 19.9086L13.6022 19.9375L13.5929 19.9664L13.5795 19.9953L13.5661 20.0263L13.5568 20.0552L13.5444 20.0841H14.0771L14.074 20.0552ZM15.0629 20.9915H14.4435L14.4311 20.9626L14.4218 20.9337L14.4084 20.9048L14.396 20.8738L14.3867 20.8459L14.3744 20.8181L14.3609 20.7891L14.3516 20.7602L14.3382 20.7313L14.3248 20.7024L14.3155 20.6735L14.3031 20.6426L14.2897 20.6137L14.2804 20.5848L14.267 20.5559H13.3638L13.3514 20.5848L13.3421 20.6137L13.3287 20.6426L13.3163 20.6735L13.307 20.7024L13.2946 20.7313L13.2812 20.7602L13.2719 20.7891L13.2585 20.8181L13.2451 20.8459L13.2358 20.8738L13.2234 20.9048L13.2099 20.9337L13.2007 20.9626L13.1873 20.9915H12.5514L12.5648 20.9626L12.5782 20.9337L12.5906 20.9048L12.604 20.8738L12.6133 20.8459L12.6267 20.8181L12.6401 20.7891L12.6525 20.7602L12.666 20.7313L12.6794 20.7004L12.6918 20.6715L12.7041 20.6436L12.7134 20.6147L12.7258 20.5858L12.7382 20.5569L12.7516 20.5259L12.765 20.497L12.7785 20.4681L12.7909 20.4402L12.8043 20.4113L12.8136 20.3824L12.826 20.3515L12.8394 20.3236L12.8528 20.2947L12.8652 20.2658L12.8786 20.2369L12.892 20.208L12.9044 20.177L12.9137 20.1491L12.9261 20.1202L12.9395 20.0913L12.9529 20.0624L12.9663 20.0335L12.9787 20.0026L12.9921 19.9737L13.0056 19.9448L13.0149 19.9159L13.0283 19.888L13.0407 19.8591L13.0541 19.8281L13.0675 19.7992L13.0799 19.7703L13.0933 19.7414L13.1067 19.7135L13.116 19.6846L13.1295 19.6568L13.1429 19.6258L13.1553 19.5979L13.1687 19.569L13.1821 19.5411L13.1945 19.5133L13.2079 19.4844L13.2172 19.4534L13.2306 19.4255L13.244 19.3966L13.2564 19.3677L13.2698 19.3388L13.2833 19.3099L13.2967 19.279L13.3091 19.2511L13.3183 19.2222L13.3318 19.1933L13.3452 19.1644L13.3586 19.1355L13.371 19.1045L13.3834 19.0756L13.3968 19.0467L13.4102 19.0178L13.4195 18.9899L13.4329 18.961L13.4453 18.93L13.4587 18.9022L13.4721 18.8733L13.4845 18.8444L13.498 18.8155L13.5114 18.7876L13.5207 18.7566L13.5341 18.7277L13.5475 18.6988L13.5599 18.6699H14.1431L14.1565 18.6988L14.1689 18.7277L14.1823 18.7566L14.1958 18.7876L14.2051 18.8155L14.2185 18.8444L14.2309 18.8733L14.2443 18.9022L14.2577 18.93L14.2711 18.961L14.2835 18.9899L14.2969 19.0178L14.3062 19.0467L14.3196 19.0756L14.3331 19.1045L14.3454 19.1355L14.3578 19.1644L14.3712 19.1933L14.3847 19.2222L14.3971 19.2511L14.4064 19.279L14.4198 19.3099L14.4322 19.3388L14.4456 19.3677L14.459 19.3966L14.4714 19.4255L14.4848 19.4534L14.4982 19.4844L14.5075 19.5133L14.5199 19.5411L14.5333 19.569L14.5467 19.5979L14.5591 19.6258L14.5725 19.6568L14.586 19.6846L14.5983 19.7135L14.6076 19.7414L14.62 19.7703L14.6334 19.7992L14.6468 19.8281L14.6593 19.8591L14.6727 19.888L14.6861 19.9159L14.6985 19.9448L14.7078 19.9737L14.7212 20.0026L14.7346 20.0335L14.747 20.0624L14.7604 20.0913L14.7738 20.1202L14.7862 20.1491L14.7996 20.177L14.8089 20.208L14.8213 20.2369L14.8347 20.2658L14.8481 20.2947L14.8605 20.3236L14.8729 20.3515L14.8864 20.3824L14.8998 20.4113L14.9091 20.4402L14.9225 20.4681L14.9349 20.497L14.9483 20.5259L14.9617 20.5569L14.9751 20.5858L14.9875 20.6147L15.0009 20.6436L15.0102 20.6715L15.0236 20.7004L15.036 20.7313L15.0494 20.7602L15.0618 20.7891L15.0752 20.8181L15.0887 20.8459L15.101 20.8738L15.1103 20.9048L15.1227 20.9337L15.1351 20.9626L15.1485 20.9915H15.0629ZM12.3005 20.7014L12.2758 20.72L12.2541 20.7355L12.2283 20.7541L12.2035 20.7695L12.1787 20.7881L12.1529 20.8036L12.1282 20.8191L12.0992 20.8346L12.0704 20.8501L12.0414 20.8655L12.0126 20.8779L11.9836 20.8934L11.9527 20.9058L11.9237 20.9182L11.8928 20.9306L11.8639 20.943L11.835 20.9522L11.8061 20.9615L11.7772 20.9708L11.7462 20.9801L11.7173 20.9894L11.6864 20.9956L11.6574 21.0018L11.6265 21.008L11.5955 21.0142H11.101L11.0701 21.008L11.0391 21.0018L11.0102 20.9956L10.9793 20.9894L10.9503 20.9801L10.9194 20.9739L10.8905 20.9646L10.8616 20.9522L10.8327 20.943L10.8017 20.9306L10.7728 20.9182L10.7439 20.9058L10.715 20.8934L10.6861 20.8779L10.6613 20.8624L10.6324 20.847L10.6076 20.8315L10.5829 20.816L10.5571 20.7974L10.5323 20.7788L10.5075 20.7602L10.4858 20.7417L10.4642 20.7231L10.4425 20.7014L10.4208 20.6828L10.3991 20.6611L10.3774 20.6395L10.3578 20.6178L10.3393 20.593L10.3196 20.5713L10.3042 20.5466L10.2856 20.5218L10.2701 20.497L10.2546 20.4722L10.2391 20.4433L10.2236 20.4186L10.2112 20.3897L10.1978 20.3608L10.1854 20.3319L10.172 20.304L10.1627 20.2792L10.1493 20.2503L10.1431 20.2214L10.1338 20.1935L10.1276 20.1626L10.1183 20.1337L10.1122 20.1027V20.0738L10.106 20.0428V19.6939L10.1122 19.663V19.632L10.1183 19.6031L10.1276 19.5721L10.1338 19.5411L10.1431 19.5122L10.1524 19.4813L10.1617 19.4524L10.1741 19.4214L10.1875 19.3935L10.2009 19.3646L10.2133 19.3357L10.2257 19.3068L10.2412 19.2779L10.2567 19.2532L10.2722 19.2284L10.2876 19.2036L10.3031 19.1788L10.3217 19.1541L10.3413 19.1293L10.3599 19.1045L10.3795 19.0828L10.4012 19.0611L10.4208 19.0395L10.4425 19.0178L10.4642 18.9961L10.4858 18.9775L10.5106 18.9559L10.5323 18.9373L10.5571 18.9187L10.5818 18.9032L10.6066 18.8846L10.6314 18.8691L10.6561 18.8537L10.6851 18.8382L10.7139 18.8227L10.7429 18.8072L10.7718 18.7948L10.8007 18.7824L10.8316 18.767L10.8564 18.7577L10.8874 18.7484L10.9163 18.736L10.9452 18.7298L10.9741 18.7205L11.0051 18.7143L11.0339 18.705L11.0649 18.6988H11.0959L11.1269 18.6926H11.5201L11.5552 18.6988H11.5842L11.6151 18.705L11.6461 18.7112L11.675 18.7174L11.7039 18.7236L11.7328 18.7298L11.7617 18.7391L11.7906 18.7453L11.8154 18.7546L11.8443 18.7639L11.8732 18.7762L11.9021 18.7886L11.931 18.801L11.9599 18.8165L11.9888 18.8289L12.0136 18.8444L12.0425 18.8599L12.0672 18.8753L12.0962 18.8908L12.1209 18.9094L12.1457 18.9249L12.1705 18.9435L12.1952 18.962L12.22 18.9837L12.2448 19.0023L12.2252 19.0271L12.2035 19.0488L12.1839 19.0735L12.1622 19.0983L12.1426 19.1231L12.124 19.1448L12.1023 19.1695L12.0838 19.1943L12.0642 19.216L12.0425 19.2408L12.0229 19.2655L12.0012 19.2903L11.9816 19.312L11.963 19.3368L11.9413 19.3615L11.9227 19.3863L11.9011 19.408L11.8825 19.4328L11.8577 19.4142L11.8329 19.3925L11.8081 19.377L11.7834 19.3584L11.7586 19.343L11.7338 19.3275L11.7091 19.312L11.6801 19.2965L11.6543 19.2841L11.6296 19.2717L11.6048 19.2624L11.5759 19.2532L11.547 19.2439L11.5181 19.2377L11.4871 19.2315L11.4562 19.2253H11.2291L11.1981 19.2315L11.1692 19.2377L11.1403 19.247L11.1114 19.2562L11.0825 19.2686L11.0536 19.281L11.0288 19.2965L11.004 19.312L10.9782 19.3275L10.9565 19.346L10.9349 19.3646L10.9132 19.3832L10.8936 19.4049L10.8719 19.4266L10.8523 19.4513L10.8368 19.473L10.8213 19.4978L10.8058 19.5267L10.7903 19.5515L10.7769 19.5804L10.7676 19.6093L10.7542 19.6382L10.7449 19.6691L10.7387 19.7001L10.7325 19.728L10.7264 19.762V19.9881L10.7325 20.016L10.7387 20.0449L10.7449 20.0728L10.7542 20.1017L10.7635 20.1264L10.7769 20.1574L10.7903 20.1863L10.8058 20.2152L10.8213 20.24L10.8368 20.2648L10.8554 20.2895L10.875 20.3112L10.8967 20.3329L10.9163 20.3546L10.938 20.3731L10.9638 20.3917L10.9885 20.4103L11.0133 20.4258L11.0391 20.4413L11.068 20.4537L11.0969 20.4661L11.1258 20.4784L11.1568 20.4877L11.1878 20.497L11.2187 20.5032L11.2497 20.5094H11.4902L11.5212 20.5032L11.5522 20.497L11.5831 20.4877L11.612 20.4815L11.6409 20.4691L11.6657 20.4568L11.6946 20.4444L11.7163 20.432L11.7534 20.4155V20.1316H11.293V19.6784H12.3315V20.6911L12.3005 20.7014Z" fill="white"/>
<path d="M11.295 13.5827H12.6597V12.5391H11.295V10.4126H12.7154V9.37109H10.1348V16.889H12.734V15.8475H11.295V13.5827Z" fill="white"/>
<path d="M21.0664 13.8089V15.5059C21.0664 15.8073 20.926 15.9456 20.6339 15.9456H20.4171C20.3569 15.9557 20.2952 15.9513 20.2371 15.9328C20.1789 15.9144 20.1259 15.8823 20.0826 15.8394C20.0392 15.7964 20.0067 15.7438 19.9877 15.6858C19.9687 15.6278 19.9637 15.5662 19.9732 15.5059V10.7575C19.9732 10.4561 20.1136 10.3177 20.4171 10.3177H20.6122C20.6718 10.3088 20.7326 10.3141 20.7897 10.3331C20.8468 10.3522 20.8986 10.3844 20.9409 10.4273C20.9831 10.4702 21.0147 10.5224 21.0329 10.5798C21.0511 10.6372 21.0555 10.6981 21.0458 10.7575V12.2305H22.1812V10.6945C22.2085 10.5055 22.1911 10.3127 22.1303 10.1316C22.0695 9.95053 21.9671 9.78625 21.8313 9.65194C21.6955 9.51755 21.53 9.41691 21.3482 9.3581C21.1665 9.2993 20.9734 9.28397 20.7846 9.31336H20.221C20.0306 9.28499 19.8362 9.30138 19.6533 9.36122C19.4703 9.42107 19.3039 9.52273 19.1671 9.65813C19.0304 9.79374 18.9273 9.95933 18.8659 10.1417C18.8044 10.3241 18.7863 10.5183 18.813 10.709V15.5606C18.7863 15.7512 18.8044 15.9454 18.8659 16.1278C18.9273 16.3102 19.0304 16.4758 19.1671 16.6114C19.3039 16.7468 19.4703 16.8485 19.6533 16.9083C19.8362 16.9682 20.0306 16.9846 20.221 16.9562H20.7949C20.9853 16.9846 21.1797 16.9682 21.3626 16.9083C21.5456 16.8485 21.7121 16.7468 21.8489 16.6114C21.9855 16.4758 22.0886 16.3102 22.15 16.1278C22.2115 15.9454 22.2296 15.7512 22.2029 15.5606V13.8109L21.0664 13.8089Z" fill="white"/>
<path d="M17.0437 16.893H18.2029V9.375H17.0437V16.893Z" fill="white"/>
<path d="M15.3631 12.7096C15.3631 13.011 15.2227 13.1493 14.9306 13.1493H14.4537V10.3788H14.9306C15.2237 10.3788 15.3631 10.5192 15.3631 10.8185V12.7096ZM15.1133 9.36922H13.2944V16.8871H14.4537V14.1589H15.1143C15.3047 14.1873 15.4991 14.1709 15.682 14.111C15.8649 14.0512 16.0314 13.9495 16.1682 13.8141C16.3048 13.6785 16.408 13.5129 16.4694 13.3305C16.5309 13.1481 16.549 12.9539 16.5223 12.7633V10.7648C16.5497 10.5736 16.5319 10.3785 16.4704 10.1953C16.4089 10.0122 16.3054 9.84591 16.1682 9.70986C16.0314 9.57446 15.8649 9.4728 15.682 9.41296C15.4991 9.35311 15.3047 9.33672 15.1143 9.36509" fill="white"/>
<path fill-rule="evenodd" clip-rule="evenodd" d="M12.8691 23.6875H19.4983L16.1166 24.792L12.8691 23.6875Z" fill="white"/>
<path fill-rule="evenodd" clip-rule="evenodd" d="M22.2205 8.07617H10.1193C9.13864 8.07617 8.77737 8.43849 8.77737 9.41811V21.2581C8.77697 21.3615 8.78177 21.4649 8.79179 21.5678C8.7886 21.8069 8.8685 22.0396 9.01785 22.2264C9.03747 22.2491 9.24082 22.4008 9.24082 22.4008C9.35024 22.4545 9.42455 22.4927 9.55049 22.5433L15.5097 25.0393C15.7107 25.1594 15.9394 25.2255 16.1735 25.2313C16.4076 25.2255 16.6362 25.1594 16.8372 25.0393L22.7965 22.5433C22.9203 22.4937 22.9946 22.4514 23.1061 22.4008C23.1061 22.4008 23.3126 22.2501 23.3291 22.2264C23.4784 22.0396 23.5583 21.8069 23.5552 21.5678C23.5652 21.4649 23.57 21.3615 23.5696 21.2581V9.41811C23.5696 8.43643 23.2073 8.07617 22.2277 8.07617" fill="#2F2D2E"/>
<path d="M21.4123 19.9795V20.0373L21.4072 20.0651L21.3989 20.093L21.3938 20.1178L21.3855 20.1456L21.3742 20.1704L21.3628 20.1921L21.3515 20.2169L21.338 20.2385L21.3246 20.2602L21.3081 20.2819L21.2947 20.3036L21.2781 20.3232L21.2586 20.3428L21.242 20.3593L21.2203 20.3789L21.2007 20.3955L21.1791 20.412L21.1574 20.4254L21.1357 20.4419L21.1109 20.4553L21.0862 20.4667L21.0624 20.4801L21.0345 20.4915L21.0077 20.5028L20.9798 20.5111L20.953 20.5193L20.9282 20.5276L20.9014 20.5327L20.8766 20.5379L20.8529 20.5431L20.825 20.5482H20.4338L20.4059 20.5431H20.379L20.3512 20.5379L20.3244 20.5327L20.2975 20.5276L20.2707 20.5224L20.2428 20.5142L20.218 20.509L20.1912 20.5007L20.1633 20.4925L20.1386 20.4811L20.1117 20.4729L20.0869 20.4646L20.0591 20.4533L20.0343 20.4419L20.0105 20.4305L19.9858 20.4171L19.961 20.4058L19.9362 20.3924L19.9146 20.3789L19.8898 20.3655L19.8681 20.3521L19.8464 20.3387L19.8247 20.3222L19.8031 20.3056L19.7814 20.2891L19.7597 20.2726L19.7401 20.2561L19.7184 20.2365L19.7349 20.2148L19.7546 20.1952L19.7711 20.1735L19.7907 20.1518L19.8072 20.1322L19.8237 20.1105L19.8433 20.0889L19.8598 20.0693L19.8795 20.0476L19.896 20.028L19.9156 20.0063L19.9321 19.9846L19.9486 19.965L19.9682 19.9433L19.9847 19.9216L20.0044 19.902L20.0209 19.8804L20.0425 19.8969L20.0673 19.9134L20.089 19.9299L20.1138 19.9464L20.1354 19.9598L20.1602 19.9764L20.1819 19.9898L20.2067 20.0011L20.2283 20.0145L20.2531 20.0259L20.2779 20.0373L20.3016 20.0486L20.3264 20.0569L20.3512 20.0682L20.378 20.0765L20.4059 20.0847L20.4296 20.093L20.4575 20.0982L20.4844 20.1033L20.5112 20.1085H20.5411L20.569 20.1136H20.7156L20.7435 20.1085L20.7672 20.1033L20.792 20.0982L20.8136 20.0899L20.8332 20.0785L20.8549 20.062L20.8715 20.0424L20.8828 20.0207L20.8911 19.996V19.9278L20.8797 19.9L20.8663 19.8804L20.8467 19.8638L20.825 19.8473L20.8033 19.836L20.7796 19.8246L20.7517 19.8133L20.7197 19.7998L20.7001 19.7947L20.6784 19.7895L20.6537 19.7813L20.6289 19.7761L20.602 19.7678L20.5742 19.7627L20.5442 19.7544L20.5164 19.7493L20.4864 19.741L20.4596 19.7358L20.4317 19.7276L20.4049 19.7224L20.377 19.7142L20.3522 19.7059L20.3254 19.7007L20.3006 19.6925L20.2769 19.6842L20.2521 19.676L20.2222 19.6646L20.1953 19.6533L20.1674 19.6419L20.1396 19.6305L20.1158 19.6171L20.088 19.6037L20.0663 19.5903L20.0415 19.5769L20.0198 19.5604L19.9982 19.5469L19.9785 19.5304L19.9589 19.5108L19.9393 19.4912L19.9228 19.4716L19.9063 19.452L19.8929 19.4324L19.8795 19.4107L19.866 19.3859L19.8547 19.3663L19.8464 19.3446L19.8382 19.3198L19.8299 19.2982L19.8247 19.2703L19.8196 19.2455V19.0174L19.8247 18.9926L19.8299 18.9678L19.8382 18.9431L19.8433 18.9183L19.8547 18.8935L19.866 18.8687L19.8774 18.844L19.8908 18.8192L19.9042 18.7944L19.9207 18.7727L19.9373 18.7511L19.9569 18.7294L19.9765 18.7098L19.9961 18.6881L20.0178 18.6685L20.0374 18.6551L20.0591 18.6385L20.0808 18.622L20.1024 18.6086L20.1272 18.5952L20.152 18.5838L20.1757 18.5704L20.2005 18.5591L20.2273 18.5508L20.2542 18.5394L20.2789 18.5312L20.3006 18.526L20.3254 18.5209L20.3502 18.5157L20.377 18.5105L20.4018 18.5054H20.7424L20.7703 18.5105H20.8002L20.8281 18.5157L20.8529 18.5209L20.8797 18.526L20.9065 18.5312L20.9313 18.5364L20.9592 18.5446L20.9829 18.5529L21.0077 18.558L21.0356 18.5694L21.0603 18.5776L21.0841 18.589L21.1089 18.6004L21.1367 18.6117L21.1605 18.6251L21.1822 18.6365L21.2069 18.6499L21.2317 18.6633L21.2534 18.6767L21.2781 18.6933L21.2999 18.7067L21.3215 18.7232L21.3432 18.7397L21.3649 18.7562L21.3484 18.7779L21.3349 18.7996L21.3184 18.8213L21.3019 18.8429L21.2854 18.8677L21.272 18.8894L21.2555 18.9111L21.2389 18.9327L21.2255 18.9544L21.209 18.9761L21.1925 18.9978L21.1791 19.0195L21.1625 19.0442L21.146 19.0659L21.1295 19.0876L21.1161 19.1093L21.0996 19.1309L21.0779 19.1144L21.0542 19.101L21.0325 19.0876L21.0108 19.0711L20.986 19.0597L20.9644 19.0463L20.9406 19.0349L20.9189 19.0236L20.8942 19.0122L20.8725 19.0009L20.8487 18.9926L20.8271 18.9813L20.7971 18.973L20.7703 18.9647L20.7435 18.9565L20.7156 18.9513L20.6887 18.9462L20.6619 18.941H20.5236L20.4937 18.9462L20.4658 18.9513L20.442 18.9565L20.4203 18.9678L20.4008 18.9792L20.376 19.0009L20.3595 19.0256L20.3481 19.0504V19.1196L20.3615 19.1495L20.3729 19.166L20.3925 19.1856L20.4173 19.1991L20.4389 19.2125L20.4658 19.2238L20.4957 19.2352L20.5277 19.2466L20.5494 19.2517L20.5711 19.26L20.5958 19.2651L20.6196 19.2734L20.6474 19.2785L20.6774 19.2868L20.7073 19.2951L20.7373 19.3033L20.7672 19.3085L20.7951 19.3167L20.825 19.325L20.8529 19.3302L20.8797 19.3384L20.9065 19.3467L20.9303 19.3549L20.9581 19.3632L20.9829 19.3715L21.0067 19.3797L21.0366 19.3911L21.0635 19.4045L21.0903 19.4158L21.1181 19.4293L21.1429 19.4427L21.1677 19.4561L21.1894 19.4695L21.211 19.486L21.2328 19.4995L21.2544 19.5191L21.2761 19.5387L21.2957 19.5604L21.3153 19.58L21.3318 19.6016L21.3484 19.6264L21.3618 19.6481L21.3752 19.6729L21.3865 19.6945L21.3948 19.7193L21.4031 19.7441L21.4082 19.7689L21.4134 19.7967L21.4186 19.8246V19.9485L21.4123 19.9795ZM19.5058 20.5255H17.9429V18.5374H19.5151V18.9885H18.4622V19.3136H19.4088V19.7369H18.4622V20.0755H19.5285V20.5255H19.5058ZM17.5187 20.5255H17.0211V19.3498L17.0077 19.3715L16.9912 19.3962L16.9778 19.4179L16.9613 19.4396L16.9478 19.4644L16.9313 19.486L16.9179 19.5077L16.9045 19.5325L16.888 19.5542L16.8745 19.5758L16.858 19.5975L16.8446 19.6223L16.8281 19.644L16.8147 19.6656L16.8013 19.6904L16.7847 19.7121L16.7713 19.7338L16.7548 19.7585L16.7414 19.7802L16.7249 19.8019L16.7115 19.8267L16.698 19.8484L16.6815 19.87L16.6681 19.8948L16.6516 19.9165L16.6382 19.9382L16.6216 19.9598L16.6082 19.9846L16.5948 20.0063L16.5783 20.028L16.5649 20.0527L16.5483 20.0744L16.5349 20.0961L16.5184 20.1209L16.505 20.1425H16.4937L16.4771 20.1178L16.4637 20.0961L16.4472 20.0713L16.4338 20.0496L16.4173 20.0249L16.4038 20.0032L16.3873 19.9784L16.3739 19.9567L16.3574 19.932L16.344 19.9103L16.3274 19.8855L16.314 19.8638L16.2975 19.8391L16.2841 19.8174L16.2676 19.7926L16.2542 19.7709L16.2376 19.7462L16.2211 19.7245L16.2077 19.6997L16.1912 19.678L16.1778 19.6533L16.1612 19.6316L16.1478 19.6068L16.1313 19.5851L16.1179 19.5604L16.1014 19.5387L16.088 19.5139L16.0715 19.4922L16.058 19.4675L16.0415 19.4458L16.0281 19.421L16.0116 19.3993L15.9982 19.3745L15.9816 19.3529V20.5234H15.4655V18.5353H16.0229L16.0364 18.557L16.0498 18.5818L16.0663 18.6035L16.0797 18.6282L16.0931 18.6499L16.1066 18.6747L16.12 18.6964L16.1365 18.7211L16.1499 18.7428L16.1633 18.7645L16.1767 18.7893L16.1902 18.8109L16.2067 18.8357L16.2201 18.8574L16.2335 18.8822L16.2469 18.9038L16.2634 18.9255L16.2769 18.9503L16.2903 18.972L16.3037 18.9967L16.3171 19.0184L16.3337 19.0432L16.3471 19.0649L16.3605 19.0896L16.3739 19.1113L16.3873 19.133L16.4038 19.1578L16.4173 19.1795L16.4307 19.2042L16.4441 19.2259L16.4575 19.2507L16.474 19.2724L16.4874 19.2961L16.5009 19.3178L16.5143 19.2961L16.5277 19.2724L16.5442 19.2507L16.5576 19.2259L16.5711 19.2042L16.5845 19.1795L16.601 19.1578L16.6144 19.133L16.6279 19.1113L16.6413 19.0896L16.6578 19.0649L16.6712 19.0432L16.6846 19.0184L16.698 18.9967L16.7145 18.972L16.728 18.9503L16.7414 18.9255L16.7548 18.9038L16.7682 18.8822L16.7847 18.8574L16.7982 18.8357L16.8116 18.8109L16.825 18.7893L16.8415 18.7645L16.8549 18.7428L16.8684 18.7211L16.8818 18.6964L16.8983 18.6747L16.9117 18.6499L16.9251 18.6282L16.9386 18.6035L16.9551 18.5818L16.9685 18.557L16.9819 18.5353H17.5393V20.5234L17.5187 20.5255ZM14.3631 19.7059L14.3548 19.6811L14.3435 19.6533L14.3321 19.6285L14.3238 19.6037L14.3125 19.5789L14.3011 19.5511L14.2929 19.5263L14.2815 19.5015L14.2701 19.4767L14.2619 19.452L14.2506 19.4241L14.2423 19.3993L14.2309 19.3745L14.2196 19.3498L14.2113 19.325L14.2 19.2971L14.1886 19.2724L14.1804 19.2476L14.169 19.2228L14.1577 19.1949L14.1494 19.1702L14.138 19.1454L14.1267 19.1702L14.1184 19.1949L14.1071 19.2228L14.0957 19.2476L14.0875 19.2724L14.0761 19.2971L14.0648 19.325L14.0534 19.3498L14.0451 19.3745L14.0338 19.3993L14.0224 19.4241L14.0142 19.452L14.0028 19.4767L13.9914 19.5015L13.9832 19.5263L13.9719 19.5511L13.9605 19.5789L13.9491 19.6037L13.9409 19.6285L13.9295 19.6533L13.9182 19.6811L13.9099 19.7059L13.8985 19.7307H14.3589L14.3631 19.7059ZM15.2167 20.5255H14.6841L14.6727 20.5007L14.6645 20.476L14.6531 20.4512L14.6418 20.4233L14.6335 20.3985L14.6221 20.3738L14.6108 20.349L14.6026 20.3242L14.5912 20.2995L14.5798 20.2747L14.5716 20.2499L14.5602 20.222L14.5489 20.1973L14.5406 20.1725L14.5292 20.1477H13.7489L13.7375 20.1725L13.7293 20.1973L13.7179 20.222L13.7065 20.2499L13.6983 20.2747L13.6869 20.2995L13.6756 20.3242L13.6673 20.349L13.656 20.3738L13.6446 20.3985L13.6364 20.4233L13.625 20.4512L13.6136 20.476L13.6054 20.5007L13.594 20.5255H13.0418L13.0531 20.5007L13.0645 20.476L13.0758 20.4512L13.0872 20.4233L13.0954 20.3985L13.1068 20.3738L13.1181 20.349L13.1295 20.3242L13.1409 20.2995L13.1522 20.2716L13.1636 20.2468L13.1749 20.222L13.1832 20.1973L13.1945 20.1725L13.2059 20.1477L13.2173 20.1198L13.2286 20.0951L13.24 20.0703L13.2513 20.0455L13.2627 20.0207L13.2709 19.996L13.2823 19.9681L13.2936 19.9433L13.305 19.9185L13.3164 19.8938L13.3277 19.869L13.3391 19.8442L13.3504 19.8164L13.3587 19.7916L13.37 19.7668L13.3814 19.742L13.3928 19.7173L13.4041 19.6925L13.4155 19.6646L13.4268 19.6398L13.4381 19.6151L13.4464 19.5903L13.4578 19.5655L13.4691 19.5407L13.4805 19.5129L13.4918 19.4881L13.5032 19.4633L13.5145 19.4385L13.5259 19.4138L13.5342 19.389L13.5455 19.3653L13.5569 19.3374L13.5682 19.3126L13.5796 19.2878L13.5909 19.2631L13.6023 19.2383L13.6136 19.2135L13.6219 19.1856L13.6333 19.1609L13.6446 19.1361L13.656 19.1113L13.6673 19.0866L13.6787 19.0618L13.69 19.0339L13.7014 19.0091L13.7096 18.9844L13.721 18.9596L13.7323 18.9348L13.7437 18.91L13.7551 18.8822L13.7664 18.8574L13.7778 18.8326L13.7891 18.8078L13.7974 18.7831L13.8087 18.7583L13.8201 18.7304L13.8314 18.7056L13.8428 18.6809L13.8542 18.6561L13.8655 18.6313L13.8769 18.6065L13.8851 18.5787L13.8965 18.5539L13.9078 18.5291L13.9192 18.5044H14.4219L14.4333 18.5291L14.4446 18.5539L14.456 18.5787L14.4673 18.6065L14.4756 18.6313L14.4869 18.6561L14.4983 18.6809L14.5097 18.7056L14.521 18.7304L14.5324 18.7583L14.5437 18.7831L14.555 18.8078L14.5633 18.8326L14.5747 18.8574L14.586 18.8822L14.5974 18.91L14.6087 18.9348L14.6201 18.9596L14.6314 18.9844L14.6428 19.0091L14.6511 19.0339L14.6624 19.0618L14.6738 19.0866L14.6851 19.1113L14.6965 19.1361L14.7078 19.1609L14.7192 19.1856L14.7305 19.2135L14.7388 19.2383L14.7502 19.2631L14.7615 19.2878L14.7729 19.3126L14.7842 19.3374L14.7956 19.3653L14.8069 19.389L14.8183 19.4138L14.8265 19.4385L14.8379 19.4633L14.8492 19.4881L14.8606 19.5129L14.872 19.5407L14.8833 19.5655L14.8947 19.5903L14.906 19.6151L14.9143 19.6398L14.9256 19.6646L14.937 19.6925L14.9484 19.7173L14.9597 19.742L14.9711 19.7668L14.9824 19.7916L14.9938 19.8164L15.002 19.8442L15.0134 19.869L15.0247 19.8938L15.0361 19.9185L15.0475 19.9433L15.0588 19.9681L15.0702 19.996L15.0815 20.0207L15.0898 20.0455L15.1011 20.0703L15.1125 20.0951L15.1238 20.1198L15.1352 20.1477L15.1465 20.1725L15.1579 20.1973L15.1692 20.222L15.1775 20.2468L15.1889 20.2716L15.2002 20.2995L15.2116 20.3242L15.2229 20.349L15.2343 20.3738L15.2456 20.3985L15.257 20.4233L15.2653 20.4512L15.2766 20.476L15.288 20.5007L15.2993 20.5255H15.2167ZM12.8353 20.2716L12.8136 20.2881L12.794 20.3015L12.7724 20.318L12.7507 20.3315L12.729 20.348L12.7073 20.3614L12.6857 20.3748L12.6609 20.3882L12.6361 20.4016L12.6124 20.4151L12.5876 20.4264L12.5638 20.4398L12.537 20.4512L12.5132 20.4625L12.4854 20.4739L12.4616 20.4853L12.4369 20.4935L12.4121 20.5018L12.3873 20.51L12.3605 20.5183L12.3367 20.5265L12.3089 20.5317L12.2841 20.5369L12.2573 20.542L12.2294 20.5472H11.8031L11.7752 20.542L11.7483 20.5369L11.7236 20.5317L11.6957 20.5265L11.6709 20.5183L11.6441 20.5131L11.6193 20.5049L11.5946 20.4935L11.5698 20.4853L11.5429 20.4739L11.5182 20.4625L11.4934 20.4512L11.4696 20.4398L11.4449 20.4264L11.4232 20.413L11.3984 20.3996L11.3767 20.3862L11.3551 20.3727L11.3334 20.3562L11.3117 20.3397L11.29 20.3232L11.2704 20.3067L11.2508 20.2902L11.2312 20.2705L11.2116 20.254L11.192 20.2344L11.1724 20.2148L11.1558 20.1952L11.1393 20.1735L11.1228 20.1539L11.1094 20.1322L11.0929 20.1105L11.0795 20.0889L11.066 20.0672L11.0526 20.0424L11.0392 20.0207L11.0278 19.996L11.0165 19.9712L11.0051 19.9464L10.9938 19.9216L10.9855 19.9L10.9742 19.8752L10.969 19.8504L10.9607 19.8256L10.9556 19.7978L10.9473 19.773L10.9421 19.7451V19.7214L10.937 19.6935V19.3776L10.9421 19.3508V19.3229L10.9473 19.2982L10.9556 19.2703L10.9607 19.2424L10.969 19.2176L10.9773 19.1898L10.9855 19.165L10.9969 19.1371L11.0082 19.1124L11.0196 19.0876L11.0309 19.0628L11.0423 19.038L11.0557 19.0133L11.0691 18.9916L11.0826 18.9699L11.096 18.9482L11.1094 18.9265L11.1259 18.9049L11.1424 18.8832L11.1589 18.8615L11.1755 18.8419L11.1951 18.8223L11.2116 18.8027L11.2312 18.7831L11.2508 18.7635L11.2704 18.7469L11.2921 18.7273L11.3117 18.7108L11.3334 18.6943L11.3551 18.6809L11.3767 18.6644L11.3984 18.6509L11.4201 18.6375L11.4449 18.6241L11.4696 18.6107L11.4944 18.5973L11.5182 18.5859L11.5429 18.5745L11.5708 18.5611L11.5925 18.5529L11.6193 18.5446L11.6441 18.5333L11.6678 18.5281L11.6916 18.5198L11.7195 18.5147L11.7442 18.5064L11.7711 18.5013H11.7979L11.8258 18.4961H12.1654L12.1953 18.5013H12.2201L12.2469 18.5064L12.2748 18.5116L12.2996 18.5167L12.3244 18.5219L12.3491 18.5271L12.3739 18.5353L12.3976 18.5405L12.4193 18.5487L12.4441 18.557L12.4689 18.5684L12.4937 18.5797L12.5184 18.5911L12.5432 18.6045L12.5669 18.6158L12.5886 18.6293L12.6124 18.6427L12.634 18.6561L12.6588 18.6695L12.6805 18.686L12.7022 18.6995L12.7238 18.716L12.7455 18.7325L12.7672 18.7521L12.7889 18.7686L12.7724 18.7903L12.7527 18.8099L12.7362 18.8316L12.7166 18.8533L12.7001 18.8749L12.6836 18.8945L12.664 18.9162L12.6474 18.9379L12.6309 18.9575L12.6113 18.9792L12.5948 19.0009L12.5752 19.0225L12.5587 19.0422L12.5422 19.0638L12.5225 19.0855L12.506 19.1072L12.4864 19.1268L12.4699 19.1485L12.4482 19.132L12.4266 19.1124L12.4049 19.0989L12.3832 19.0824L12.3615 19.069L12.3398 19.0556L12.3182 19.0422L12.2934 19.0287L12.2717 19.0174L12.25 19.006L12.2283 18.9978L12.2036 18.9895L12.1798 18.9813L12.1551 18.9761L12.1282 18.9709L12.1003 18.9658H11.9053L11.8784 18.9709L11.8537 18.9761L11.8289 18.9844L11.8051 18.9926L11.7804 19.004L11.7556 19.0153L11.7339 19.0287L11.7122 19.0422L11.6905 19.0556L11.6709 19.0721L11.6513 19.0886L11.6317 19.1051L11.6152 19.1247L11.5956 19.1444L11.5791 19.166L11.5656 19.1856L11.5522 19.2073L11.5388 19.2321L11.5254 19.2538L11.514 19.2785L11.5058 19.3033L11.4944 19.3281L11.4862 19.356L11.481 19.3838L11.4758 19.4086L11.4707 19.4385V19.6367L11.4758 19.6615L11.481 19.6863L11.4862 19.7111L11.4944 19.7358L11.5027 19.7575L11.514 19.7854L11.5254 19.8102L11.5388 19.8349L11.5522 19.8566L11.5656 19.8783L11.5822 19.9L11.5987 19.9196L11.6183 19.9392L11.6348 19.9588L11.6544 19.9753L11.6761 19.9918L11.6978 20.0084L11.7195 20.0218L11.7411 20.0352L11.7659 20.0465L11.7896 20.0579L11.8144 20.0693L11.8423 20.0775L11.8691 20.0858L11.897 20.0909L11.9238 20.0961H12.1303L12.1582 20.0909L12.186 20.0858L12.2129 20.0775L12.2366 20.0724L12.2614 20.061L12.2831 20.0496L12.3068 20.0383L12.3264 20.0269L12.3481 20.0135V19.7647H11.9517V19.3663H12.8498V20.254L12.8353 20.2716Z" fill="white"/>
<path d="M11.9598 14.0424H13.1386V13.1309H11.9598V11.2728H13.1851V10.3613H10.9585V16.9399H13.2037V16.0284H11.9598V14.0424Z" fill="white"/>
<path d="M20.4015 14.2405V15.7259C20.4015 15.9892 20.2797 16.111 20.0278 16.111H19.8461C19.7938 16.1193 19.7402 16.1152 19.6898 16.0988C19.6394 16.0825 19.5936 16.0545 19.5561 16.017C19.5185 15.9794 19.4903 15.9334 19.474 15.8828C19.4577 15.8322 19.4536 15.7784 19.4621 15.7259V11.5721C19.4536 11.5196 19.4577 11.4659 19.474 11.4153C19.4903 11.3646 19.5185 11.3186 19.5561 11.281C19.5936 11.2436 19.6394 11.2155 19.6898 11.1992C19.7402 11.1829 19.7938 11.1787 19.8461 11.1871H20.0144C20.2663 11.1871 20.3881 11.3099 20.3881 11.5721V12.8614H21.3708V11.5195C21.3964 11.355 21.3829 11.1867 21.3314 11.0284C21.28 10.87 21.1919 10.726 21.0745 10.608C20.9572 10.49 20.8137 10.4012 20.6558 10.3488C20.4978 10.2965 20.3297 10.282 20.1651 10.3066H19.6789C19.5129 10.2833 19.3437 10.2991 19.1849 10.3529C19.0261 10.4067 18.882 10.4969 18.7643 10.6163C18.6461 10.735 18.5573 10.8797 18.5049 11.0389C18.4526 11.198 18.4382 11.3672 18.4629 11.5329V15.7806C18.4382 15.9464 18.4526 16.1155 18.5049 16.2747C18.5573 16.4339 18.6461 16.5786 18.7643 16.6973C18.882 16.8167 19.0261 16.9069 19.1849 16.9606C19.3437 17.0144 19.5129 17.0303 19.6789 17.007H20.1744C20.3404 17.0303 20.5096 17.0144 20.6684 16.9606C20.8272 16.9069 20.9713 16.8167 21.089 16.6973C21.2072 16.5786 21.296 16.4339 21.3484 16.2747C21.4007 16.1155 21.4151 15.9464 21.3904 15.7806V14.2488L20.4015 14.2405Z" fill="white"/>
<path d="M16.925 16.936H17.9263V10.3574H16.925V16.936Z" fill="white"/>
<path d="M15.4724 13.2791C15.4724 13.5424 15.3506 13.6652 15.0988 13.6652H14.6859V11.2404H15.0988C15.3506 11.2404 15.4724 11.3633 15.4724 11.6255V13.2791ZM15.2567 10.3558H13.6846V16.9344H14.6838V14.5467H15.2546C15.4207 14.5701 15.5899 14.5542 15.7487 14.5004C15.9075 14.4466 16.0515 14.3565 16.1692 14.2371C16.2874 14.1184 16.3763 13.9736 16.4286 13.8145C16.4809 13.6553 16.4953 13.4861 16.4706 13.3204V11.5707C16.4953 11.405 16.4809 11.2358 16.4286 11.0767C16.3763 10.9175 16.2874 10.7728 16.1692 10.6541C16.0515 10.5347 15.9075 10.4445 15.7487 10.3908C15.5899 10.337 15.4207 10.3211 15.2546 10.3444" fill="white"/>
<path fill-rule="evenodd" clip-rule="evenodd" d="M13.3203 22.8848H19.0493L16.125 23.8489L13.3203 22.8848Z" fill="white"/>
</g>
<defs>
<clipPath id="clip0_779_22339">
<rect width="32" height="32" rx="10" fill="white"/>
</clipPath>
</defs>
</svg>
