<svg width="20" height="20" viewBox="0 0 20 20" fill="none" xmlns="http://www.w3.org/2000/svg">
<path d="M11.6667 2.29297C13.2559 2.29297 14.3851 2.29464 15.2417 2.40964C16.0792 2.52214 16.5626 2.7338 16.9151 3.0863C17.3209 3.49214 17.4984 3.80714 17.5959 4.36797C17.7059 5.00047 17.7084 5.9013 17.7084 7.5013C17.7084 7.66706 17.7743 7.82603 17.8915 7.94324C18.0087 8.06045 18.1677 8.1263 18.3334 8.1263C18.4992 8.1263 18.6581 8.06045 18.7754 7.94324C18.8926 7.82603 18.9584 7.66706 18.9584 7.5013V7.4213C18.9584 5.9213 18.9584 4.9063 18.8267 4.15297C18.6809 3.31547 18.3692 2.77297 17.7992 2.20297C17.1751 1.57797 16.3842 1.30214 15.4076 1.17047C14.4576 1.04297 13.2451 1.04297 11.7134 1.04297H11.6667C11.501 1.04297 11.342 1.10882 11.2248 1.22603C11.1076 1.34324 11.0417 1.50221 11.0417 1.66797C11.0417 1.83373 11.1076 1.9927 11.2248 2.10991C11.342 2.22712 11.501 2.29297 11.6667 2.29297ZM1.66675 11.8763C1.83251 11.8763 1.99148 11.9422 2.10869 12.0594C2.2259 12.1766 2.29175 12.3355 2.29175 12.5013C2.29175 14.1013 2.29425 15.0021 2.40425 15.6346C2.50258 16.1955 2.67925 16.5105 3.08508 16.9163C3.43758 17.2688 3.92091 17.4805 4.75925 17.593C5.61591 17.708 6.74425 17.7096 8.33341 17.7096C8.49917 17.7096 8.65815 17.7755 8.77536 17.8927C8.89257 18.0099 8.95841 18.1689 8.95841 18.3346C8.95841 18.5004 8.89257 18.6594 8.77536 18.7766C8.65815 18.8938 8.49917 18.9596 8.33341 18.9596H8.28675C6.75508 18.9596 5.54175 18.9596 4.59258 18.8321C3.61591 18.7005 2.82508 18.4238 2.20091 17.8005C1.63091 17.2296 1.31925 16.6871 1.17341 15.8496C1.04175 15.0963 1.04175 14.0805 1.04175 12.5813V12.5013C1.04175 12.3355 1.1076 12.1766 1.22481 12.0594C1.34202 11.9422 1.50099 11.8763 1.66675 11.8763ZM18.3334 11.8763C18.4992 11.8763 18.6581 11.9422 18.7754 12.0594C18.8926 12.1766 18.9584 12.3355 18.9584 12.5013V12.5813C18.9584 14.0813 18.9584 15.0963 18.8267 15.8496C18.6809 16.6871 18.3692 17.2296 17.7992 17.7996C17.1751 18.4246 16.3842 18.7005 15.4076 18.8321C14.4576 18.9596 13.2451 18.9596 11.7134 18.9596H11.6667C11.501 18.9596 11.342 18.8938 11.2248 18.7766C11.1076 18.6594 11.0417 18.5004 11.0417 18.3346C11.0417 18.1689 11.1076 18.0099 11.2248 17.8927C11.342 17.7755 11.501 17.7096 11.6667 17.7096C13.2559 17.7096 14.3851 17.708 15.2417 17.593C16.0792 17.4805 16.5626 17.2688 16.9151 16.9163C17.3209 16.5105 17.4984 16.1955 17.5959 15.6346C17.7059 15.0021 17.7084 14.1013 17.7084 12.5013C17.7084 12.3355 17.7743 12.1766 17.8915 12.0594C18.0087 11.9422 18.1677 11.8763 18.3334 11.8763ZM8.28675 1.04297H8.33341C8.49917 1.04297 8.65815 1.10882 8.77536 1.22603C8.89257 1.34324 8.95841 1.50221 8.95841 1.66797C8.95841 1.83373 8.89257 1.9927 8.77536 2.10991C8.65815 2.22712 8.49917 2.29297 8.33341 2.29297C6.74425 2.29297 5.61591 2.29464 4.75841 2.40964C3.92091 2.52214 3.43758 2.7338 3.08508 3.0863C2.67925 3.49214 2.50175 3.80714 2.40425 4.36797C2.29425 5.00047 2.29175 5.9013 2.29175 7.5013C2.29175 7.66706 2.2259 7.82603 2.10869 7.94324C1.99148 8.06045 1.83251 8.1263 1.66675 8.1263C1.50099 8.1263 1.34202 8.06045 1.22481 7.94324C1.1076 7.82603 1.04175 7.66706 1.04175 7.5013V7.4213C1.04175 5.9213 1.04175 4.9063 1.17341 4.15297C1.31925 3.31547 1.63091 2.77297 2.20091 2.20297C2.82508 1.57797 3.61591 1.30214 4.59258 1.17047C5.54258 1.04297 6.75508 1.04297 8.28675 1.04297ZM10.0001 8.95964C9.72381 8.95964 9.45886 9.06938 9.26351 9.26473C9.06816 9.46008 8.95841 9.72503 8.95841 10.0013C8.95841 10.2776 9.06816 10.5425 9.26351 10.7379C9.45886 10.9332 9.72381 11.043 10.0001 11.043C10.2763 11.043 10.5413 10.9332 10.7367 10.7379C10.932 10.5425 11.0417 10.2776 11.0417 10.0013C11.0417 9.72503 10.932 9.46008 10.7367 9.26473C10.5413 9.06938 10.2763 8.95964 10.0001 8.95964Z" fill="white"/>
<path fill-rule="evenodd" clip-rule="evenodd" d="M4.91008 11.7154C4.41425 11.1404 4.16675 10.8529 4.16675 9.9987C4.16675 9.14453 4.41425 8.85703 4.91008 8.28203C5.90008 7.1337 7.56008 5.83203 10.0001 5.83203C12.4401 5.83203 14.1001 7.1337 15.0901 8.28203C15.5859 8.85703 15.8334 9.14453 15.8334 9.9987C15.8334 10.8529 15.5859 11.1404 15.0901 11.7154C14.1001 12.8637 12.4401 14.1654 10.0001 14.1654C7.56008 14.1654 5.90008 12.8637 4.91008 11.7154ZM7.70841 9.9987C7.70841 9.39091 7.94986 8.80802 8.37963 8.37824C8.8094 7.94847 9.39229 7.70703 10.0001 7.70703C10.6079 7.70703 11.1908 7.94847 11.6205 8.37824C12.0503 8.80802 12.2917 9.39091 12.2917 9.9987C12.2917 10.6065 12.0503 11.1894 11.6205 11.6192C11.1908 12.0489 10.6079 12.2904 10.0001 12.2904C9.39229 12.2904 8.8094 12.0489 8.37963 11.6192C7.94986 11.1894 7.70841 10.6065 7.70841 9.9987Z" fill="white"/>
</svg>
