<svg width="24" height="24" viewBox="0 0 24 24" fill="none" xmlns="http://www.w3.org/2000/svg">
<g clip-path="url(#clip0_162_174)">
<path d="M4.5 3.75L19.5 20.25" stroke="white" stroke-width="1.5" stroke-linecap="round" stroke-linejoin="round"/>
<path d="M14.5229 14.7751C13.787 15.4442 12.8153 15.7935 11.8218 15.7462C10.8283 15.6989 9.89421 15.2589 9.22512 14.5229C8.55603 13.7869 8.20671 12.8153 8.254 11.8218C8.3013 10.8282 8.74133 9.89419 9.47731 9.2251" stroke="white" stroke-width="1.5" stroke-linecap="round" stroke-linejoin="round"/>
<path d="M12.7061 8.31665C13.5033 8.46932 14.2295 8.87657 14.7755 9.4772C15.3216 10.0778 15.658 10.8394 15.7342 11.6476" stroke="white" stroke-width="1.5" stroke-linecap="round" stroke-linejoin="round"/>
<path d="M19.5572 15.8531C21.601 14.0231 22.5 12 22.5 12C22.5 12 19.5 5.25001 12 5.25001C11.3505 5.24912 10.7021 5.3018 10.0613 5.40751" stroke="white" stroke-width="1.5" stroke-linecap="round" stroke-linejoin="round"/>
<path d="M6.9375 6.43115C3.11531 8.36615 1.5 11.9999 1.5 11.9999C1.5 11.9999 4.5 18.7499 12 18.7499C13.7574 18.7637 15.4927 18.3588 17.0625 17.5687" stroke="white" stroke-width="1.5" stroke-linecap="round" stroke-linejoin="round"/>
</g>
<defs>
<clipPath id="clip0_162_174">
<rect width="24" height="24" fill="white"/>
</clipPath>
</defs>
</svg>
