<svg width="32" height="32" viewBox="0 0 32 32" fill="none" xmlns="http://www.w3.org/2000/svg">
<g clip-path="url(#clip0_779_22386)">
<path d="M27.871 0H4.12903C1.84863 0 0 1.84863 0 4.12903V27.871C0 30.1514 1.84863 32 4.12903 32H27.871C30.1514 32 32 30.1514 32 27.871V4.12903C32 1.84863 30.1514 0 27.871 0Z" fill="#3F5B94"/>
<path d="M10.6508 17.189H12.9218V26.5051C12.9218 26.5936 12.9569 26.6784 13.0194 26.7409C13.0819 26.8034 13.1668 26.8386 13.2552 26.8386H17.0921C17.1805 26.8386 17.2653 26.8034 17.3279 26.7409C17.3904 26.6784 17.4255 26.5936 17.4255 26.5051V17.2334H20.0268C20.1085 17.2332 20.1872 17.203 20.2481 17.1486C20.309 17.0942 20.3478 17.0193 20.3571 16.9382L20.7525 13.508C20.7577 13.4614 20.7531 13.4143 20.7388 13.3697C20.7246 13.3251 20.7012 13.2839 20.67 13.249C20.6389 13.214 20.6007 13.186 20.558 13.1668C20.5153 13.1476 20.469 13.1375 20.4222 13.1374H17.4286V10.9872C17.4286 10.3389 17.7775 10.0107 18.4609 10.0107H20.4222C20.5106 10.0107 20.5954 9.97556 20.6579 9.91303C20.7204 9.85051 20.7556 9.7657 20.7556 9.67727V6.52888C20.756 6.48454 20.7475 6.44055 20.7307 6.39953C20.7138 6.3585 20.689 6.32126 20.6575 6.28999C20.6261 6.25873 20.5887 6.23408 20.5475 6.21749C20.5064 6.2009 20.4624 6.19271 20.418 6.1934H17.5938C16.3491 6.19791 15.1478 6.65088 14.21 7.46927C13.7666 7.85553 13.4262 8.34595 13.2193 8.89642C13.0125 9.44689 12.9457 10.0401 13.025 10.6228V13.1374H10.6508C10.5624 13.1374 10.4776 13.1725 10.415 13.2351C10.3525 13.2976 10.3174 13.3824 10.3174 13.4708V16.8566C10.3177 16.9449 10.3529 17.0294 10.4154 17.0917C10.4779 17.154 10.5626 17.189 10.6508 17.189Z" fill="#F5F7FA"/>
</g>
<defs>
<clipPath id="clip0_779_22386">
<rect width="32" height="32" rx="10" fill="white"/>
</clipPath>
</defs>
</svg>
