<svg width="25" height="25" viewBox="0 0 25 25" fill="white" xmlns="http://www.w3.org/2000/svg">
<path d="M22.1942 5.3135V16.5635C22.1936 16.6703 22.1702 16.7757 22.1256 16.8727C22.0809 16.9697 22.0161 17.0561 21.9354 17.126C20.5029 18.3663 19.1332 18.8135 17.8273 18.8135C16.0545 18.8135 14.3989 17.9941 12.8586 17.2338C10.3695 16.001 8.20575 14.9332 5.69418 16.9169V21.0635C5.69418 21.2624 5.61517 21.4532 5.47451 21.5938C5.33386 21.7345 5.1431 21.8135 4.94418 21.8135C4.74527 21.8135 4.55451 21.7345 4.41385 21.5938C4.2732 21.4532 4.19418 21.2624 4.19418 21.0635V5.3135C4.1949 5.20665 4.21844 5.10119 4.26323 5.00418C4.30802 4.90717 4.37301 4.82085 4.45387 4.751C7.82887 1.82787 10.8579 3.32506 13.5279 4.646C16.1004 5.91912 18.3307 7.01975 20.9529 4.751C21.0613 4.65705 21.1944 4.59614 21.3363 4.57551C21.4782 4.55487 21.6231 4.57538 21.7538 4.63458C21.8844 4.69378 21.9953 4.78921 22.0734 4.90954C22.1515 5.02987 22.1934 5.17007 22.1942 5.3135Z" fill="blue"/>
</svg>
