<svg width="20" height="20" viewBox="0 0 20 20" fill="none" xmlns="http://www.w3.org/2000/svg">
<path d="M18.3332 11.668H11.6665V18.3346H18.3332V11.668ZM5.4165 1.66797L9.1665 8.33464H1.6665L5.4165 1.66797ZM14.9998 8.33464C15.8839 8.33464 16.7317 7.98345 17.3569 7.35832C17.982 6.7332 18.3332 5.88536 18.3332 5.0013C18.3332 4.11725 17.982 3.2694 17.3569 2.64428C16.7317 2.01916 15.8839 1.66797 14.9998 1.66797C14.1158 1.66797 13.2679 2.01916 12.6428 2.64428C12.0177 3.2694 11.6665 4.11725 11.6665 5.0013C11.6665 5.88536 12.0177 6.7332 12.6428 7.35832C13.2679 7.98345 14.1158 8.33464 14.9998 8.33464Z" stroke="white" stroke-width="1.66667" stroke-linejoin="round"/>
<path d="M1.6665 11.668L8.33317 18.3346M8.33317 11.668L1.6665 18.3346" stroke="white" stroke-width="1.66667" stroke-linecap="round" stroke-linejoin="round"/>
</svg>
