<svg width="21" height="20" viewBox="0 0 21 20" fill="none" xmlns="http://www.w3.org/2000/svg">
<g clip-path="url(#clip0_3294_16774)">
<path d="M17.4688 12.3858C17.3797 12.3296 17.2778 12.2969 17.1726 12.2906C17.0674 12.2843 16.9624 12.3047 16.8672 12.3499C16.6291 12.4625 16.3663 12.5131 16.1033 12.497C15.8404 12.4808 15.5858 12.3984 15.3632 12.2575C15.1407 12.1165 14.9574 11.9216 14.8303 11.6908C14.7033 11.46 14.6367 11.2009 14.6367 10.9374C14.6367 10.674 14.7033 10.4148 14.8303 10.184C14.9574 9.95321 15.1407 9.75828 15.3632 9.61734C15.5858 9.47639 15.8404 9.39401 16.1033 9.37785C16.3663 9.36169 16.6291 9.41228 16.8672 9.52491C16.9625 9.57013 17.0677 9.5905 17.1729 9.58413C17.2782 9.57776 17.3802 9.54485 17.4693 9.48847C17.5584 9.43209 17.6318 9.35407 17.6827 9.26168C17.7336 9.16929 17.7602 9.06553 17.7602 8.96007V5.62491C17.7602 5.29339 17.6285 4.97545 17.3941 4.74103C17.1596 4.50661 16.8417 4.37491 16.5102 4.37491H13.6805C13.6921 4.27115 13.6979 4.16682 13.6977 4.06241C13.6971 3.67829 13.6181 3.29833 13.4655 2.94582C13.3129 2.59332 13.0899 2.27569 12.8102 2.01241C12.4229 1.64867 11.9405 1.40207 11.4188 1.30118C10.8972 1.20028 10.3576 1.24921 9.86263 1.4423C9.36764 1.63539 8.93747 1.96475 8.62193 2.39223C8.30639 2.8197 8.11839 3.32781 8.07971 3.85772C8.0677 4.0301 8.07136 4.2032 8.09065 4.37491H5.26018C4.92866 4.37491 4.61071 4.50661 4.37629 4.74103C4.14187 4.97545 4.01018 5.29339 4.01018 5.62491V8.1421C3.90642 8.13047 3.80209 8.12473 3.69768 8.12491C3.31356 8.12553 2.93362 8.20456 2.58112 8.35717C2.22862 8.50978 1.91099 8.73274 1.64768 9.01241C1.38248 9.29254 1.17828 9.62464 1.04797 9.98772C0.91767 10.3508 0.864099 10.7369 0.890646 11.1218C0.935433 11.7994 1.22336 12.4381 1.70148 12.9204C2.1796 13.4027 2.81577 13.6961 3.49299 13.7468C3.66535 13.7592 3.83849 13.7555 4.01018 13.7358V16.2499C4.01018 16.5814 4.14187 16.8994 4.37629 17.1338C4.61071 17.3682 4.92866 17.4999 5.26018 17.4999H16.5102C16.8417 17.4999 17.1596 17.3682 17.3941 17.1338C17.6285 16.8994 17.7602 16.5814 17.7602 16.2499V12.9148C17.7602 12.8092 17.7335 12.7053 17.6826 12.6128C17.6316 12.5203 17.5581 12.4422 17.4688 12.3858ZM16.5102 16.2499H5.26018V12.9148C5.26021 12.8093 5.23356 12.7055 5.1827 12.6131C5.13183 12.5207 5.05842 12.4427 4.96929 12.3864C4.88016 12.33 4.77821 12.2971 4.67294 12.2907C4.56766 12.2843 4.46249 12.3047 4.36721 12.3499C4.12906 12.4625 3.86629 12.5131 3.60335 12.497C3.3404 12.4808 3.08581 12.3984 2.86324 12.2575C2.64067 12.1165 2.45735 11.9216 2.33032 11.6908C2.2033 11.46 2.13669 11.2009 2.13669 10.9374C2.13669 10.674 2.2033 10.4148 2.33032 10.184C2.45735 9.95321 2.64067 9.75828 2.86324 9.61734C3.08581 9.47639 3.3404 9.39401 3.60335 9.37785C3.86629 9.36169 4.12906 9.41228 4.36721 9.52491C4.46249 9.57013 4.56766 9.5905 4.67294 9.58413C4.77821 9.57776 4.88016 9.54485 4.96929 9.48847C5.05842 9.43209 5.13183 9.35407 5.1827 9.26168C5.23356 9.16929 5.26021 9.06553 5.26018 8.96007V5.62491H8.90783C9.0133 5.62495 9.11706 5.59829 9.20945 5.54743C9.30184 5.49657 9.37986 5.42315 9.43624 5.33402C9.49262 5.24489 9.52552 5.14294 9.5319 5.03767C9.53827 4.9324 9.5179 4.82722 9.47268 4.73194C9.36005 4.49379 9.30946 4.23103 9.32562 3.96808C9.34178 3.70513 9.42416 3.45054 9.5651 3.22797C9.70605 3.00541 9.90098 2.82209 10.1318 2.69506C10.3626 2.56803 10.6217 2.50142 10.8852 2.50142C11.1486 2.50142 11.4078 2.56803 11.6386 2.69506C11.8694 2.82209 12.0643 3.00541 12.2053 3.22797C12.3462 3.45054 12.4286 3.70513 12.4447 3.96808C12.4609 4.23103 12.4103 4.49379 12.2977 4.73194C12.2525 4.82722 12.2321 4.9324 12.2385 5.03767C12.2448 5.14294 12.2777 5.24489 12.3341 5.33402C12.3905 5.42315 12.4685 5.49657 12.5609 5.54743C12.6533 5.59829 12.7571 5.62495 12.8625 5.62491H16.5102V8.14288C16.3385 8.12321 16.1654 8.11955 15.993 8.13194C15.2656 8.18345 14.5866 8.51548 14.0993 9.05799C13.612 9.6005 13.3545 10.3111 13.381 11.0398C13.4076 11.7686 13.7161 12.4585 14.2416 12.9641C14.7671 13.4697 15.4684 13.7515 16.1977 13.7499C16.3021 13.7501 16.4064 13.7444 16.5102 13.7327V16.2499Z" fill="white"/>
</g>
<defs>
<clipPath id="clip0_3294_16774">
<rect width="20" height="20" fill="white" transform="translate(0.260254)"/>
</clipPath>
</defs>
</svg>
