<svg width="26" height="20" viewBox="0 0 26 20" fill="none" xmlns="http://www.w3.org/2000/svg">
<path d="M9.63281 0C10.7704 0.21164 11.855 0.502647 12.9661 0.820107C13.6011 1.00529 14.236 1.19048 14.8445 1.40212C15.8233 1.71958 16.8021 2.06349 17.7016 2.59259C18.0984 2.83069 18.4688 3.09524 18.8127 3.43915C19.1566 3.78307 19.4476 4.20635 19.6593 4.62963C20.0561 5.44973 20.1884 6.34921 20.2148 7.22222C20.2413 7.80423 20.2413 8.38624 20.1355 8.96826C20.0561 9.4709 19.8974 9.94709 19.6064 10.3968C19.3683 10.7672 19.0508 11.1111 18.654 11.3228C18.2836 11.5344 17.8339 11.6138 17.4106 11.6138C16.7492 11.6138 16.1143 11.4021 15.5323 11.1376C15.5323 9.17989 15.5323 7.22222 15.5323 5.291C15.5323 4.94709 15.5587 4.57672 15.4794 4.2328C15.4265 3.96825 15.3206 3.7037 15.109 3.51852C14.9767 3.38624 14.7915 3.33334 14.6064 3.28043C14.4212 3.25397 14.236 3.33333 14.1037 3.46561C13.9185 3.7037 13.8656 4.02116 13.8656 4.31217C13.8656 9.55026 13.8656 14.7619 13.8656 20C12.4635 19.5503 11.0614 19.1005 9.65927 18.6508C9.63281 12.4339 9.63281 6.21693 9.63281 0Z" fill="white"/>
<path d="M3.31054 13.2272C5.13594 12.5658 6.96133 11.9309 8.81318 11.2695C8.81318 11.9838 8.81318 12.6981 8.81318 13.4388C8.81318 13.5447 8.81318 13.624 8.81318 13.7298C7.35816 14.2325 5.92959 14.7616 4.47456 15.2907C4.26292 15.3701 4.07774 15.4494 3.91901 15.6082C3.83964 15.6875 3.78673 15.7933 3.83964 15.8992C3.89255 16.0314 4.02483 16.0843 4.13065 16.1373C4.44811 16.2695 4.79202 16.296 5.13594 16.296C5.50631 16.296 5.90313 16.2695 6.2735 16.1902C6.5116 16.1373 6.77615 16.0579 7.01424 15.9785C7.62271 15.7669 8.25763 15.5288 8.86609 15.3171C8.86609 15.9256 8.86609 16.5341 8.86609 17.1425C8.86609 17.2748 8.86609 17.3806 8.86609 17.5129C8.0989 17.6452 7.3317 17.751 6.56451 17.751C5.00366 17.7775 3.44281 17.5394 1.96133 17.0632C1.48514 16.9309 0.982498 16.7457 0.585673 16.4283C0.374033 16.2431 0.162393 16.0314 0.0565726 15.7669C-0.0227924 15.5288 -0.0227928 15.2907 0.0830273 15.0526C0.188847 14.841 0.374033 14.6558 0.559218 14.5235C1.00895 14.206 1.5116 13.9679 2.01424 13.7563C2.41107 13.5447 2.8608 13.3859 3.31054 13.2272Z" fill="white"/>
<path d="M18.072 12.4075C18.4952 12.3546 18.9185 12.3546 19.3154 12.3281C20.691 12.3281 22.0667 12.5133 23.3894 12.9101C23.654 12.9895 23.8921 13.0953 24.1566 13.1747C24.6064 13.3334 25.0825 13.5451 25.4529 13.8625C25.6646 14.0742 25.8762 14.3387 25.8762 14.6562C25.8762 14.9207 25.7704 15.1588 25.6116 15.344C25.2942 15.6879 24.8974 15.926 24.4741 16.1376C24.0243 16.3493 23.5746 16.508 23.0984 16.6667C20.2942 17.672 17.49 18.6773 14.6593 19.6826C14.6593 18.889 14.6593 18.1218 14.6593 17.3281C14.6593 17.3017 14.6593 17.2488 14.6857 17.2223C16.8286 16.4551 18.9714 15.6879 21.0878 14.9472C21.3788 14.8414 21.6963 14.762 21.9344 14.5768C22.0402 14.4974 22.146 14.3652 22.0931 14.2329C22.0402 14.1271 21.9079 14.0477 21.8021 13.9948C21.4847 13.8625 21.1407 13.8361 20.7968 13.8361C20.2677 13.8361 19.7386 13.9154 19.2095 14.0742C17.6751 14.6033 16.1672 15.1588 14.6328 15.6879C14.6328 14.8414 14.6328 13.9948 14.6328 13.1482C15.7439 12.7779 16.9079 12.5398 18.072 12.4075Z" fill="white"/>
</svg>
