<svg width="19" height="19" viewBox="0 0 19 19" fill="none" xmlns="http://www.w3.org/2000/svg">
<path d="M1.271 7.73667C1.271 7.11535 1.77468 6.61167 2.396 6.61167C3.01732 6.61167 3.521 7.11535 3.521 7.73667V14.4867C3.521 15.108 3.01732 15.6117 2.396 15.6117C1.77468 15.6117 1.271 15.108 1.271 14.4867V7.73667Z" fill="#00ADFF"/>
<path d="M10.271 3.01167V1.84181C10.271 1.60086 10.3968 1.36833 10.6264 1.29551C10.7982 1.24105 10.9812 1.21167 11.171 1.21167C12.1651 1.21167 12.971 2.01756 12.971 3.01167C12.971 3.9072 12.8075 4.76455 12.5087 5.55549C12.325 6.04181 12.6582 6.61167 13.178 6.61167H15.446C16.5644 6.61167 17.481 7.52028 17.3776 8.63387C17.2038 10.5056 16.7912 12.3081 16.1705 14.0105C15.8091 15.0019 14.8361 15.6117 13.7809 15.6117H10.9084C10.4892 15.6117 10.0758 15.5141 9.7009 15.3266L7.24109 14.0967C6.86618 13.9093 6.45277 13.8117 6.03361 13.8117H4.871V7.51167H5.73788C6.35386 7.51167 6.86994 7.0774 7.18886 6.55041C7.62848 5.82399 8.31766 5.26548 9.13754 4.99373C9.52705 4.86463 9.90579 4.64603 10.0482 4.2612C10.1923 3.87195 10.271 3.451 10.271 3.01167Z" fill="#00ADFF"/>
</svg>
