<svg xmlns="http://www.w3.org/2000/svg" width="31" height="31" viewBox="0 0 31 31">
  <g transform="translate(-7147 -5911)">
    <rect width="31" height="31" rx="4" transform="translate(7147 5911)" fill="#d1d1d1"/>
    <g transform="translate(7126.125 5917)">
      <path d="M28.719,74.889c-1.691,2.888-.616,7.272,1.254,9.93.933,1.329,1.878,2.522,3.172,2.522h.074a3.966,3.966,0,0,0,1.472-.386,4.083,4.083,0,0,1,1.744-.407,3.84,3.84,0,0,1,1.66.394,3.562,3.562,0,0,0,1.59.375c1.458-.027,2.353-1.314,3.143-2.449a10.783,10.783,0,0,0,1.377-2.776l.006-.017a.161.161,0,0,0-.087-.2l-.012,0A4.122,4.122,0,0,1,41.58,78.1a4.228,4.228,0,0,1,2.033-3.54l.016-.01a.161.161,0,0,0,.072-.1.159.159,0,0,0-.025-.123,4.755,4.755,0,0,0-3.721-1.989c-.106-.01-.215-.016-.325-.016A6.568,6.568,0,0,0,37.3,72.9a3.8,3.8,0,0,1-1.119.329,3.7,3.7,0,0,1-1.157-.333,5.678,5.678,0,0,0-2.039-.51h-.052a5.012,5.012,0,0,0-4.209,2.507Z" transform="translate(0 -67.34)"/>
      <path d="M153.54,0a4.8,4.8,0,0,0-3.165,1.624,4.492,4.492,0,0,0-1.137,3.331.172.172,0,0,0,.157.149c.073.006.148.009.223.009a4.056,4.056,0,0,0,2.988-1.532A4.736,4.736,0,0,0,153.718.153.173.173,0,0,0,153.54,0Z" transform="translate(-113.521)"/>
    </g>
  </g>
</svg>
