<svg width="12" height="11" viewBox="0 0 12 11" fill="none" xmlns="http://www.w3.org/2000/svg">
<path d="M1.03151 7.73683C0.81663 7.48301 0.706055 7.18626 0.706055 6.84776C0.706283 6.21598 0.706207 5.58419 0.706131 4.95241C0.706017 4.00476 0.705903 3.05713 0.706815 2.10957C0.707385 1.52269 1.07521 1.00105 1.63873 0.768591C1.9467 0.641388 2.2676 0.631095 2.59154 0.64566C2.70344 0.650709 2.77146 0.738878 2.76576 0.847827C2.76025 0.950172 2.68691 1.01814 2.57653 1.02611C2.51141 1.03078 2.44562 1.0328 2.37981 1.03483C2.22944 1.03945 2.07899 1.04409 1.93625 1.08029C1.51124 1.18807 1.21238 1.45588 1.1039 1.90643C1.08296 1.99317 1.0828 2.08626 1.08264 2.17675C1.08263 2.17987 1.08263 2.18298 1.08262 2.18609L1.13262 2.18612C1.13226 2.66875 1.13294 3.15151 1.13363 3.63434C1.13511 4.67926 1.13659 5.72449 1.12749 6.76935C1.12222 7.37838 1.56499 7.7467 1.97378 7.83656C2.09574 7.8633 2.22323 7.87599 2.3488 7.87618H2.34882C3.81475 7.8789 5.28066 7.87929 6.74656 7.87618C6.94095 7.87577 7.10615 7.93236 7.25921 8.05517C7.71523 8.42093 8.17339 8.78366 8.63173 9.14653C8.77896 9.26309 8.92621 9.37967 9.07341 9.49637L9.07344 9.4964C9.08051 9.50201 9.08756 9.5074 9.09513 9.51305L1.13262 2.18619C1.13262 2.18392 1.13263 2.18166 1.13263 2.1794C1.13281 2.0869 1.13298 1.99905 1.1525 1.91817L1.15251 1.91814C1.25624 1.48732 1.53977 1.23242 1.94855 1.12875L1.94855 1.12875C2.04628 1.10396 2.14893 1.09445 2.25549 1.08938C2.29572 1.08746 2.33733 1.08617 2.37942 1.08487C2.44629 1.0828 2.51438 1.08069 2.58011 1.07598L2.58013 1.07598C2.64467 1.07132 2.70208 1.04878 2.74468 1.00883C2.78761 0.96857 2.8123 0.913549 2.81569 0.850514L2.81569 0.850439C2.81912 0.784948 2.80046 0.722867 2.76114 0.675749C2.72146 0.628186 2.66312 0.598839 2.59379 0.595711L2.59378 0.59571C2.268 0.581062 1.93807 0.590864 1.61966 0.72237L1.63873 0.768588L1.61964 0.722378C1.03886 0.961971 0.657406 1.50091 0.656815 2.10952C0.655903 3.05709 0.656017 4.00478 0.656131 4.95247C0.656207 5.58424 0.656283 6.21601 0.656055 6.84775V6.84776C0.656055 7.19817 0.770876 7.50634 0.99335 7.76914M1.03151 7.73683L0.993328 7.76911C0.993335 7.76912 0.993343 7.76913 0.99335 7.76914M1.03151 7.73683L0.99335 7.76914M1.03151 7.73683C1.36989 8.13709 1.80763 8.31187 2.3189 8.31187C2.70703 8.31182 3.09517 8.31184 3.4833 8.31185C4.57065 8.3119 5.65799 8.31194 6.74534 8.31051M0.99335 7.76914C1.34235 8.18195 1.79477 8.36187 2.3189 8.36187C2.70703 8.36182 3.09516 8.36184 3.48329 8.36185C4.57064 8.3619 5.65803 8.36194 6.74541 8.36051M6.74541 8.36051C6.74539 8.36051 6.74536 8.36051 6.74534 8.36051V8.31051M6.74541 8.36051L6.74534 8.31051M6.74541 8.36051C6.83156 8.36052 6.89954 8.38334 6.96659 8.43756C7.20057 8.62674 7.43641 8.81358 7.67209 9.00028C7.75165 9.06331 7.83119 9.12632 7.91063 9.18941L7.91064 9.18941C8.04477 9.29587 8.1789 9.40228 8.31301 9.50867C8.56645 9.70974 8.81985 9.91077 9.07318 10.1121L9.07319 10.1121C9.11968 10.149 9.17091 10.1765 9.22706 10.1865C9.28406 10.1967 9.34249 10.1881 9.40115 10.1585M6.74534 8.31051C6.84243 8.31051 6.92165 8.33692 6.99803 8.39868C7.2318 8.58769 7.46738 8.77432 7.70301 8.96099C7.7826 9.02404 7.86219 9.08709 7.94172 9.15025M9.40115 10.1585C9.40113 10.1585 9.40112 10.1585 9.40111 10.1586L9.37863 10.1139L9.40115 10.1585Z" fill="#C1C9ED" stroke="#C1C9ED" stroke-width="0.1"/>
<path d="M7.22845 6.00521C7.39966 6.18171 7.57781 6.35201 7.76142 6.51557L7.72814 6.55289C7.72815 6.55289 7.72816 6.5529 7.72816 6.55291C7.98941 6.78586 8.26454 7.01364 8.59951 7.15496M8.59951 7.15496C8.59951 7.15496 8.59951 7.15496 8.59951 7.15496L8.61895 7.10889L8.59951 7.15496Z" fill="#C1C9ED" stroke="#C1C9ED" stroke-width="0.1"/>
<path d="M3.57063 1.14445C3.36339 1.14025 3.20124 0.970099 3.20616 0.762098C3.21109 0.555628 3.38385 0.389304 3.58806 0.394657C3.78999 0.40001 3.96124 0.579334 3.95593 0.780069C3.95063 0.985393 3.77787 1.14866 3.57063 1.14445Z" fill="#C1C9ED"/>
<path d="M5.25467 4.12474L5.25425 4.14603C5.25301 4.20795 5.23073 4.26351 5.1889 4.30444C5.14727 4.34516 5.08988 4.36791 5.02425 4.37146L5.02424 4.37146C4.93873 4.37606 4.85045 4.37838 4.76254 4.37138C4.74475 4.36997 4.73357 4.37104 4.72689 4.37271C4.72374 4.37349 4.72199 4.37432 4.72115 4.37479C4.72039 4.37522 4.72013 4.3755 4.72002 4.37563C4.71917 4.37657 4.7129 4.38566 4.71551 4.42287L4.71552 4.42292L5.25467 4.12474ZM5.25467 4.12474L5.2534 4.12347M5.25467 4.12474L5.2534 4.12347M5.2534 4.12347C5.24602 4.00863 5.16318 3.91965 5.04159 3.91349L5.04144 3.91348C4.95372 3.90929 4.86161 3.90562 4.77049 3.91361L4.77486 3.96342M5.2534 4.12347L4.25626 3.61635L4.25627 3.61584L4.25628 3.61576C4.25849 3.54589 4.28079 3.48428 4.32269 3.43975C4.36502 3.39476 4.42356 3.37132 4.48938 3.37188L4.48947 3.37189C4.55518 3.37256 4.61282 3.3969 4.65389 3.44302C4.69437 3.48848 4.71482 3.55064 4.71617 3.62076L4.66618 3.62172M4.77486 3.96342C4.68332 3.97126 4.65798 3.9348 4.66527 3.84946C4.67053 3.78738 4.66885 3.72444 4.66718 3.66175C4.66683 3.64839 4.66647 3.63505 4.66618 3.62172M4.77486 3.96342L4.77059 3.9136C4.72861 3.9172 4.72063 3.90844 4.72022 3.908C4.71834 3.9059 4.71159 3.89467 4.71509 3.85372L4.71509 3.85368C4.72061 3.78856 4.71883 3.72225 4.71715 3.6595C4.7168 3.64638 4.71645 3.63341 4.71617 3.62064L4.66618 3.62172M4.77486 3.96342C4.86219 3.95576 4.95117 3.95923 5.03906 3.96342L4.48895 3.42188M4.66618 3.62172C4.66381 3.49919 4.59525 3.42298 4.48895 3.42188M4.48895 3.42188C4.38247 3.42097 4.31008 3.49664 4.30625 3.61735L4.48895 3.42188ZM4.25691 3.85756C4.25809 3.87545 4.25756 3.8883 4.25592 3.89737C4.25433 3.90624 4.25212 3.9091 4.25166 3.90963C4.25166 3.90963 4.25166 3.90963 4.25166 3.90964C4.25156 3.90977 4.25037 3.91137 4.24453 3.9128C4.23769 3.91448 4.22595 3.91549 4.20697 3.91351L4.20696 3.91351C4.14742 3.90729 4.08584 3.90898 4.02828 3.91056C4.00951 3.91107 3.99116 3.91157 3.97346 3.91178C3.9014 3.91262 3.83708 3.93343 3.78992 3.97396C3.74203 4.01512 3.71562 4.07353 3.71562 4.14047C3.71562 4.2072 3.74242 4.2657 3.79002 4.3073C3.837 4.34836 3.9012 4.37046 3.97331 4.37224C3.97723 4.37234 3.98116 4.37244 3.98509 4.37254C4.05981 4.37446 4.13723 4.37645 4.21456 4.37161L4.25691 3.85756ZM4.48431 4.91051C4.61606 4.91218 4.71131 4.80969 4.71597 4.67413L4.25318 4.37523C4.25405 4.37647 4.25839 4.38425 4.25688 4.41077L4.3068 4.41361L4.25688 4.4107C4.25164 4.50072 4.25279 4.59122 4.25723 4.6803C4.26371 4.81204 4.35823 4.9091 4.48438 4.91051L4.48494 4.86052L4.48431 4.91051Z" fill="#C1C9ED" stroke="#C1C9ED" stroke-width="0.1"/>
<path d="M6.63019 4.14169C6.63152 4.29482 6.75659 4.41626 6.90985 4.41315L6.90402 3.86406C6.75113 3.86429 6.62885 3.9889 6.63019 4.14169ZM6.90985 4.41315C7.06373 4.41003 7.18286 4.28432 7.17798 4.13039C7.17798 4.13038 7.17798 4.13037 7.17798 4.13037L7.128 4.13195L6.90985 4.41315Z" fill="#C1C9ED" stroke="#C1C9ED" stroke-width="0.1"/>
<path d="M7.64095 3.67886C7.64207 3.52528 7.51909 3.40246 7.36555 3.40313C7.21242 3.4038 7.09104 3.52742 7.09259 3.68083L7.09259 3.68084C7.09416 3.83025 7.21275 3.94811 7.36235 3.95057M7.64095 3.67886L7.59095 3.67849L7.64095 3.67886ZM7.64095 3.67886C7.63984 3.83322 7.51687 3.95324 7.36235 3.95057M7.36235 3.95057L7.36322 3.90058L7.3624 3.95057C7.36239 3.95057 7.36237 3.95057 7.36235 3.95057Z" fill="#C1C9ED" stroke="#C1C9ED" stroke-width="0.1"/>
<path d="M7.35851 4.87616L7.35851 4.87616C7.20463 4.87171 7.08672 4.74622 7.09228 4.59208L7.09228 4.59208C7.09764 4.44348 7.21942 4.32803 7.36845 4.32891L7.35851 4.87616ZM7.35851 4.87616C7.5127 4.8806 7.63793 4.76171 7.6406 4.6077M7.35851 4.87616L7.6406 4.6077M7.6406 4.6077C7.64327 4.45428 7.52178 4.32981 7.36846 4.32891L7.6406 4.6077Z" fill="#C1C9ED" stroke="#C1C9ED" stroke-width="0.1"/>
<path d="M8.10178 4.14056L8.10178 4.14056C8.10237 4.00372 8.0066 3.89131 7.87751 3.86848V3.86377L7.82721 3.86406C7.6747 3.86496 7.55273 3.99019 7.55451 4.14275C7.5563 4.29555 7.68238 4.41707 7.83524 4.41351L7.83526 4.41351C7.98528 4.40994 8.10111 4.29082 8.10178 4.14056Z" fill="#C1C9ED" stroke="#C1C9ED" stroke-width="0.1"/>
</svg>
