<svg width="19" height="20" viewBox="0 0 19 20" fill="none" xmlns="http://www.w3.org/2000/svg">
<path d="M10.2528 2.67857C10.4555 1.91135 10.9134 1.23179 11.5544 0.746869C12.1955 0.261949 12.9833 -0.000793779 13.7939 1.80144e-06H13.8852C14.079 1.80144e-06 14.2648 0.0752566 14.4019 0.209211C14.5389 0.343166 14.6159 0.524847 14.6159 0.714287C14.6159 0.903727 14.5389 1.08541 14.4019 1.21936C14.2648 1.35332 14.079 1.42857 13.8852 1.42857H13.7939C13.3079 1.42853 12.8356 1.58638 12.4514 1.87729C12.0672 2.16821 11.7928 2.57571 11.6713 3.03571C11.6228 3.21923 11.5018 3.37642 11.3348 3.4727C11.1678 3.56898 10.9685 3.59647 10.7807 3.54911C10.593 3.50175 10.4322 3.38342 10.3337 3.22017C10.2352 3.05691 10.2071 2.86209 10.2556 2.67857H10.2528ZM18.936 15.142C18.8812 15.0195 18.7927 14.9144 18.6803 14.8384C17.1303 13.7973 16.8079 12.0214 16.8079 10.7143C16.8079 9.1366 18.0382 7.7625 18.7716 7.08303C18.8438 7.01628 18.9012 6.93585 18.9405 6.84666C18.9797 6.75747 19 6.66138 19 6.56428C19 6.46718 18.9797 6.3711 18.9405 6.2819C18.9012 6.19271 18.8438 6.11228 18.7716 6.04553C17.6135 4.97678 15.6955 4.28571 13.8852 4.28571C12.5848 4.28685 11.3138 4.66364 10.2318 5.36875C8.96969 4.54139 7.45209 4.16982 5.94003 4.31795C4.42797 4.46607 3.01596 5.12463 1.94686 6.18035C1.30773 6.8182 0.806257 7.57511 0.472218 8.40612C0.13818 9.23713 -0.0216087 10.1253 0.00234463 11.0178C0.0381997 12.5244 0.380884 14.0089 1.01037 15.3845C1.63985 16.76 2.54351 17.9992 3.66852 19.0294C4.34604 19.6552 5.24356 20.0027 6.17565 20H14.1839C14.6822 20.0009 15.1754 19.9018 15.6329 19.7087C16.0904 19.5157 16.5025 19.2328 16.8435 18.8777C17.4754 18.2129 18.0219 17.4753 18.4711 16.6812C19.1123 15.5357 19.0301 15.3571 18.936 15.142Z" fill="white"/>
</svg>
