<svg width="27" height="26" viewBox="0 0 27 26" fill="none" xmlns="http://www.w3.org/2000/svg">
<path d="M19.7695 13.6453C19.039 12.7923 18.7071 12.0531 18.7071 10.7972V10.3701C18.7071 8.73354 18.3304 7.67907 17.5115 6.62459C16.2493 4.98699 14.1244 4 12.0442 4H11.9558C9.91935 4 7.86106 4.94167 6.577 6.5128C5.71333 7.58842 5.29293 8.68822 5.29293 10.3701V10.7972C5.29293 12.0531 4.98284 12.7923 4.23049 13.6453C3.67691 14.2738 3.5 15.0815 3.5 15.9557C3.5 16.8309 3.78723 17.6598 4.36367 18.3336C5.11602 19.1413 6.17846 19.6569 7.26375 19.7466C8.83505 19.9258 10.4063 19.9933 12.0005 19.9933C13.5937 19.9933 15.165 19.8805 16.7372 19.7466C17.8215 19.6569 18.884 19.1413 19.6363 18.3336C20.2118 17.6598 20.5 16.8309 20.5 15.9557C20.5 15.0815 20.3231 14.2738 19.7695 13.6453Z" fill="#596184"/>
<path opacity="0.4" d="M14.0058 21.2285C13.5059 21.1217 10.4597 21.1217 9.95982 21.2285C9.53246 21.3272 9.07031 21.5568 9.07031 22.0604C9.09516 22.5408 9.37642 22.9648 9.76602 23.2337L9.76502 23.2347C10.2689 23.6275 10.8603 23.8773 11.4794 23.9669C11.8094 24.0122 12.1453 24.0102 12.4872 23.9669C13.1054 23.8773 13.6967 23.6275 14.2006 23.2347L14.1996 23.2337C14.5892 22.9648 14.8705 22.5408 14.8953 22.0604C14.8953 21.5568 14.4332 21.3272 14.0058 21.2285Z" fill="#596184"/>
<circle cx="23" cy="4" r="4" fill="#00ADFF"/>
</svg>
