<svg width="27" height="20" viewBox="0 0 27 20" fill="none" xmlns="http://www.w3.org/2000/svg">
<path d="M13.3334 2.08C16.4284 2.08 19.2101 3.14833 21.0834 5.07C22.6243 5.27237 24.078 5.90162 25.2801 6.88667C23.1784 2.47 18.8251 0 13.3334 0C7.91674 0 3.53341 2.46667 1.40674 6.87C2.50879 5.97252 3.82207 5.37182 5.22174 5.125C7.06007 3.12 9.95674 2.08 13.3334 2.08Z" fill="white"/>
<path d="M20.0004 20.0013C18.2666 20.0012 16.6011 19.3257 15.3571 18.118L15.3537 18.1146C15.2102 18.0066 15.056 17.9133 14.8937 17.8363C14.4046 17.6115 13.872 17.4971 13.3337 17.5013C12.6437 17.5013 12.1187 17.673 11.7754 17.8363C11.6125 17.9132 11.4578 18.0065 11.3137 18.1146L11.3104 18.118C10.5268 18.8787 9.5682 19.4353 8.51903 19.7388C7.46986 20.0423 6.36219 20.0833 5.29343 19.8583C4.22467 19.6334 3.22756 19.1493 2.38975 18.4486C1.55195 17.7479 0.899125 16.8521 0.488677 15.84C0.0782301 14.8279 -0.0772666 13.7304 0.0358597 12.6441C0.148986 11.5578 0.52727 10.5159 1.13745 9.6101C1.74763 8.70426 2.57102 7.96221 3.53521 7.44919C4.49941 6.93618 5.57488 6.6679 6.66706 6.66797H20.0004C21.7685 6.66797 23.4642 7.37035 24.7144 8.62059C25.9647 9.87083 26.6671 11.5665 26.6671 13.3346C26.6671 15.1027 25.9647 16.7984 24.7144 18.0487C23.4642 19.2989 21.7685 20.0013 20.0004 20.0013Z" fill="white"/>
</svg>
