<svg width="32" height="32" viewBox="0 0 32 32" fill="none" xmlns="http://www.w3.org/2000/svg">
<g clip-path="url(#clip0_779_22409)">
<path d="M3.008 0H28.992C30.6581 0 32 1.73626 32 3.87923V28.1208C32 30.2637 30.6581 32 28.992 32H3.008C1.34194 32 0 30.2637 0 28.1208V3.87923C0 1.73626 1.34194 0 3.008 0Z" fill="#9146FF"/>
<path d="M22.1155 17.8569H21.3289C21.2764 17.8549 21.2241 17.8637 21.1752 17.8828C21.1264 17.902 21.082 17.931 21.0448 17.9682C21.0077 18.0053 20.9787 18.0497 20.9595 18.0986C20.9404 18.1475 20.9315 18.1998 20.9335 18.2522V22.2037C20.9314 22.7273 20.722 23.2287 20.3512 23.5984C19.9804 23.968 19.4783 24.1758 18.9547 24.1764H8.67858C8.41866 24.1801 8.16073 24.1306 7.92069 24.0308C7.68066 23.9311 7.46362 23.7832 7.28297 23.5962C7.09605 23.4156 6.94814 23.1986 6.84837 22.9585C6.74859 22.7185 6.69906 22.4605 6.70284 22.2006V11.9286C6.69906 11.6687 6.74859 11.4108 6.84837 11.1707C6.94814 10.9307 7.09605 10.7137 7.28297 10.533C7.46362 10.3461 7.68066 10.1982 7.92069 10.0984C8.16073 9.99863 8.41866 9.94911 8.67858 9.95288H17.3723C17.4248 9.95507 17.4771 9.94634 17.5261 9.92725C17.5751 9.90816 17.6195 9.87911 17.6567 9.84195C17.6938 9.80479 17.7229 9.76033 17.742 9.71137C17.7611 9.66242 17.7698 9.61003 17.7676 9.55753V8.76682C17.7698 8.71431 17.7611 8.66193 17.742 8.61297C17.7229 8.56401 17.6938 8.51955 17.6567 8.48239C17.6195 8.44524 17.5751 8.4162 17.5261 8.3971C17.4771 8.37801 17.4248 8.36927 17.3723 8.37146H8.67858C8.21072 8.36462 7.74641 8.45369 7.31429 8.63318C6.88217 8.81267 6.4914 9.07877 6.16606 9.41507C5.82963 9.74053 5.56346 10.1315 5.38396 10.5638C5.20447 10.9961 5.11547 11.4606 5.12245 11.9286V22.2037C5.11555 22.6716 5.20459 23.1359 5.38408 23.568C5.56358 24.0002 5.82971 24.3909 6.16606 24.7162C6.49152 25.0527 6.88246 25.3189 7.31477 25.4983C7.74707 25.6778 8.21158 25.7668 8.67961 25.7598H18.9547C19.8974 25.7582 20.8011 25.3831 21.4678 24.7165C22.1345 24.05 22.51 23.1465 22.5119 22.2037V18.2522C22.5139 18.1998 22.5051 18.1475 22.4859 18.0986C22.4668 18.0497 22.4377 18.0053 22.4006 17.9682C22.3635 17.931 22.3191 17.902 22.2702 17.8828C22.2213 17.8637 22.1679 17.8549 22.1155 17.8569Z" fill="#F9F9F9"/>
<path d="M27.0179 7.02732C26.9462 6.95244 26.86 6.89302 26.7645 6.85272C26.669 6.81243 26.5662 6.7921 26.4626 6.793H20.14C19.9844 6.79284 19.8323 6.83886 19.703 6.92523C19.5736 7.0116 19.4728 7.13443 19.4133 7.27816C19.3538 7.42188 19.3384 7.58003 19.3689 7.73256C19.3994 7.88508 19.4744 8.02513 19.5846 8.13493L21.7586 10.3089L13.7069 18.3605C13.668 18.3968 13.6369 18.4407 13.6157 18.4896C13.5945 18.5384 13.5835 18.5911 13.5835 18.6444C13.5835 18.6976 13.5945 18.7503 13.6157 18.7991C13.6369 18.848 13.668 18.8919 13.7069 18.9282L15.1149 20.3362C15.1513 20.375 15.1953 20.406 15.2441 20.4271C15.293 20.4483 15.3456 20.4592 15.3988 20.4592C15.452 20.4592 15.5047 20.4483 15.5535 20.4271C15.6023 20.406 15.6463 20.375 15.6827 20.3362L23.7343 12.2846L25.9082 14.4585C26.019 14.5663 26.1588 14.6392 26.3105 14.6683C26.4623 14.6974 26.6192 14.6814 26.7619 14.6223C26.9046 14.5633 27.0269 14.4637 27.1137 14.3359C27.2005 14.2081 27.2479 14.0577 27.2502 13.9032V7.58371C27.2515 7.48002 27.2315 7.37717 27.1916 7.28149C27.1517 7.1858 27.0925 7.0993 27.0179 7.02732Z" fill="#F9F9F9"/>
</g>
<defs>
<clipPath id="clip0_779_22409">
<rect width="32" height="32" rx="10" fill="white"/>
</clipPath>
</defs>
</svg>
