<svg width="21" height="20" viewBox="0 0 21 20" fill="none" xmlns="http://www.w3.org/2000/svg">
<path d="M10.6666 10.8334C11.1268 10.8334 11.4999 10.4603 11.4999 10C11.4999 9.5398 11.1268 9.16671 10.6666 9.16671C10.2063 9.16671 9.83325 9.5398 9.83325 10C9.83325 10.4603 10.2063 10.8334 10.6666 10.8334Z" stroke="#98A2B3" stroke-width="1.66667" stroke-linecap="round" stroke-linejoin="round"/>
<path d="M10.6666 5.00004C11.1268 5.00004 11.4999 4.62694 11.4999 4.16671C11.4999 3.70647 11.1268 3.33337 10.6666 3.33337C10.2063 3.33337 9.83325 3.70647 9.83325 4.16671C9.83325 4.62694 10.2063 5.00004 10.6666 5.00004Z" stroke="#98A2B3" stroke-width="1.66667" stroke-linecap="round" stroke-linejoin="round"/>
<path d="M10.6666 16.6667C11.1268 16.6667 11.4999 16.2936 11.4999 15.8334C11.4999 15.3731 11.1268 15 10.6666 15C10.2063 15 9.83325 15.3731 9.83325 15.8334C9.83325 16.2936 10.2063 16.6667 10.6666 16.6667Z" stroke="#98A2B3" stroke-width="1.66667" stroke-linecap="round" stroke-linejoin="round"/>
</svg>
