<svg width="24" height="24" viewBox="0 0 24 24" fill="none" xmlns="http://www.w3.org/2000/svg">
<path fill-rule="evenodd" clip-rule="evenodd" d="M2 12.1C2 10.9402 2.9402 10 4.1 10C5.2598 10 6.2 10.9402 6.2 12.1C6.2 13.2598 5.2598 14.2 4.1 14.2C2.9402 14.2 2 13.2598 2 12.1ZM10.4 12.1C10.4 10.9402 11.3402 10 12.5 10C13.6598 10 14.6 10.9402 14.6 12.1C14.6 13.2598 13.6598 14.2 12.5 14.2C11.3402 14.2 10.4 13.2598 10.4 12.1ZM18.8 12.1C18.8 10.9402 19.7402 10 20.9 10C22.0598 10 23 10.9402 23 12.1C23 13.2598 22.0598 14.2 20.9 14.2C19.7402 14.2 18.8 13.2598 18.8 12.1Z" fill="white"/>
</svg>
