<svg width="60" height="60" viewBox="0 0 60 60" fill="none" xmlns="http://www.w3.org/2000/svg">
<path d="M32.5108 35.7654L39.4483 28.4791C39.6311 28.2778 39.854 28.1169 40.1026 28.0069C40.3512 27.8968 40.6201 27.8399 40.8921 27.8399C41.164 27.8399 41.4329 27.8968 41.6815 28.0069C41.9302 28.1169 42.153 28.2778 42.3358 28.4791C43.1383 29.3341 43.1383 30.7291 42.3358 31.5879L35.0233 39.2754C34.4781 39.8846 33.8106 40.3719 33.0642 40.7055C32.3179 41.0392 31.5096 41.2116 30.6921 41.2116C29.8745 41.2116 29.0662 41.0392 28.3199 40.7055C27.5736 40.3719 26.906 39.8846 26.3608 39.2754L19.0483 31.5879C18.6623 31.1622 18.4484 30.6082 18.4484 30.0335C18.4484 29.4589 18.6623 28.9048 19.0483 28.4791C19.2311 28.2778 19.4539 28.1169 19.7026 28.0069C19.9512 27.8968 20.2201 27.8399 20.4921 27.8399C20.764 27.8399 21.0329 27.8968 21.2815 28.0069C21.5302 28.1169 21.753 28.2778 21.9358 28.4791L28.7608 35.6454V3.67289C28.7608 2.52164 29.6008 1.58789 30.6358 1.58789C31.6708 1.58789 32.5108 2.52164 32.5108 3.67289V35.7654ZM14.4358 20.3379C13.5724 20.3382 12.7362 20.6394 12.0709 21.1897C11.4057 21.74 10.953 22.5049 10.7908 23.3529L6.33204 45.8529C6.28454 46.0929 6.26079 46.3379 6.26079 46.5879C6.26079 48.6579 7.92579 50.3379 9.9733 50.3379H51.2983C51.5433 50.3379 51.7858 50.3129 52.0258 50.2629C52.996 50.0623 53.8475 49.4859 54.3941 48.6596C54.9408 47.8333 55.1382 46.8243 54.9433 45.8529L50.4808 23.3529C50.3189 22.5062 49.8673 21.7422 49.2036 21.1921C48.5398 20.642 47.7054 20.34 46.8433 20.3379H14.4358ZM21.2608 16.5879V20.3379H40.0108V16.5879H46.8546C50.4021 16.5879 53.4546 19.1116 54.1521 22.6179L58.6146 45.1179C58.8311 46.2009 58.8057 47.3184 58.5403 48.3905C58.2749 49.4626 57.7759 50.4629 57.0792 51.3198C56.3824 52.1767 55.5049 52.8692 54.5095 53.3477C53.5141 53.8262 52.4252 54.0789 51.3208 54.0879H9.9508C8.84461 54.0843 7.75303 53.8351 6.75489 53.3583C5.75675 52.8815 4.87697 52.1889 4.17909 51.3306C3.48121 50.4724 2.98266 49.4698 2.71944 48.3954C2.45622 47.321 2.43491 46.2015 2.65704 45.1179L7.11954 22.6179C7.81329 19.1116 10.8695 16.5879 14.4133 16.5879H21.2608Z" fill="#00ADFF"/>
</svg>
