<svg width="24" height="24" viewBox="0 0 24 24" fill="none" xmlns="http://www.w3.org/2000/svg">
<path fill-rule="evenodd" clip-rule="evenodd" d="M11.9754 1.00155C14.3031 0.996638 14.3375 0.996638 14.6174 1.10958C14.7746 1.16851 15.0054 1.29619 15.133 1.38949C15.2558 1.4828 15.4375 1.66449 15.5357 1.79217C15.629 1.91985 15.7518 2.1261 15.8058 2.25869C15.8942 2.47967 15.904 2.64664 15.9286 4.85155C15.9531 7.027 15.958 7.22342 16.0464 7.38057C16.0955 7.47387 16.1938 7.61628 16.2674 7.68994C16.3362 7.76851 16.4835 7.88146 16.5915 7.93548C16.783 8.0386 16.8469 8.04351 19.1451 8.06807C21.35 8.09262 21.517 8.10244 21.7379 8.19083C21.8705 8.24485 22.0768 8.36762 22.2045 8.46092C22.3272 8.55423 22.5089 8.73592 22.6071 8.8636C22.7004 8.98637 22.8281 9.23191 22.892 9.40378C23 9.70825 23 9.75244 23 11.9868C23 14.1377 22.9951 14.2703 22.9018 14.5649C22.8429 14.7319 22.7152 14.9824 22.617 15.1149C22.5138 15.2524 22.3272 15.439 22.2045 15.5324C22.0768 15.6257 21.8705 15.7484 21.7379 15.8024C21.517 15.8908 21.35 15.9007 19.1451 15.9252C16.9696 15.9498 16.7732 15.9547 16.6161 16.0431C16.5228 16.0922 16.3804 16.1904 16.3067 16.264C16.2281 16.3328 16.1152 16.4801 16.0612 16.5882C15.958 16.7797 15.9531 16.8435 15.9286 19.1417C15.904 21.3466 15.8942 21.5136 15.8058 21.7346C15.7518 21.8672 15.629 22.0734 15.5357 22.2011C15.4375 22.3288 15.2558 22.5105 15.133 22.6038C15.0054 22.6971 14.7746 22.8248 14.6174 22.8837C14.3375 22.9966 14.2982 22.9966 12 22.9966C9.70179 22.9966 9.6625 22.9966 9.38259 22.8837C9.22545 22.8248 8.99464 22.6971 8.86696 22.6038C8.73929 22.5056 8.55759 22.3239 8.46429 22.2011C8.37098 22.0734 8.24821 21.8672 8.1942 21.7346C8.1058 21.5136 8.09598 21.3466 8.07143 19.1417C8.04688 16.8435 8.04196 16.7797 7.93884 16.5882C7.88482 16.4801 7.77188 16.3328 7.6933 16.264C7.61964 16.1904 7.47723 16.0922 7.38393 16.0431C7.22679 15.9547 7.03036 15.9498 4.85491 15.9252C2.65 15.9007 2.48304 15.8908 2.26205 15.8024C2.12946 15.7484 1.92321 15.6257 1.79554 15.5324C1.67277 15.439 1.49107 15.2574 1.39286 15.1297C1.29955 15.0069 1.17188 14.7614 1.10804 14.5895C1 14.285 1 14.2408 1 12.0114C1 9.85557 1.00491 9.72298 1.09821 9.43325C1.16205 9.24664 1.27991 9.02566 1.40268 8.87833C1.51562 8.74575 1.70223 8.55914 1.81518 8.46092C1.93304 8.36762 2.12946 8.24485 2.26205 8.19083C2.48304 8.10244 2.65 8.09262 4.85491 8.06807C7.03036 8.04351 7.22679 8.0386 7.38393 7.95021C7.47723 7.9011 7.61964 7.80289 7.6933 7.72923C7.77188 7.66048 7.88482 7.51316 7.93884 7.40512C8.04196 7.2136 8.04688 7.14976 8.07143 4.85155C8.09598 2.64664 8.1058 2.47967 8.1942 2.25869C8.24821 2.1261 8.37098 1.91985 8.46429 1.79217C8.5625 1.66449 8.73929 1.48771 8.85714 1.39932C8.97991 1.30601 9.20089 1.18324 9.34821 1.11941C9.6183 1.00646 9.62321 1.00646 11.9754 1.00155ZM9.46116 1.94441C9.3875 1.98369 9.26473 2.08191 9.19598 2.16048C9.12232 2.23414 9.02411 2.37655 8.975 2.46985C8.88661 2.62699 8.8817 2.82342 8.85714 4.99887C8.83259 7.20378 8.82277 7.37075 8.73438 7.59173C8.68036 7.72432 8.55759 7.93057 8.46429 8.05825C8.36607 8.18592 8.18438 8.36762 8.06161 8.46092C7.93393 8.55423 7.72768 8.677 7.59509 8.73101C7.37411 8.81941 7.20714 8.82923 5.00223 8.85378C2.70402 8.87833 2.64018 8.88324 2.44866 8.98637C2.34063 9.04039 2.1933 9.15333 2.12455 9.23191C2.05089 9.30557 1.95268 9.44798 1.90357 9.54128C1.81518 9.70333 1.81027 9.86048 1.81027 11.9966C1.81027 14.2408 1.81027 14.285 1.9183 14.4765C1.97232 14.5846 2.08527 14.7319 2.16384 14.8007C2.2375 14.8743 2.37991 14.9725 2.47321 15.0216C2.63036 15.11 2.82679 15.1149 5.00223 15.1395C7.20714 15.164 7.37411 15.1739 7.59509 15.2623C7.72768 15.3163 7.93393 15.439 8.06161 15.5324C8.18438 15.6257 8.36607 15.8074 8.46429 15.935C8.55759 16.0627 8.68036 16.269 8.73438 16.4015C8.82277 16.6225 8.83259 16.7895 8.85714 18.9944C8.8817 21.2926 8.88661 21.3565 8.98973 21.548C9.04375 21.656 9.1567 21.8033 9.23527 21.8721C9.30893 21.9457 9.45134 22.044 9.54464 22.0931C9.7067 22.1815 9.86384 22.1864 12 22.1864C14.1362 22.1864 14.2933 22.1815 14.4554 22.0931C14.5487 22.044 14.6911 21.9457 14.7647 21.8721C14.8433 21.8033 14.9562 21.656 15.0103 21.548C15.1134 21.3565 15.1183 21.2926 15.1429 18.9944C15.1674 16.7895 15.1772 16.6225 15.2656 16.4015C15.3196 16.269 15.4424 16.0627 15.5357 15.935C15.6339 15.8074 15.8156 15.6257 15.9384 15.5324C16.0661 15.439 16.2723 15.3163 16.4049 15.2623C16.6259 15.1739 16.7929 15.164 18.9978 15.1395C21.1732 15.1149 21.3696 15.11 21.5268 15.0216C21.6201 14.9725 21.7625 14.8743 21.8362 14.8007C21.9147 14.7319 22.0277 14.5846 22.0817 14.4765C22.1897 14.285 22.1897 14.2408 22.1897 11.9966C22.1897 9.75244 22.1897 9.70825 22.0817 9.51673C22.0277 9.40869 21.9147 9.26137 21.8362 9.19262C21.7625 9.11896 21.6201 9.02075 21.5268 8.97164C21.3696 8.88324 21.1732 8.87833 18.9978 8.85378C16.7929 8.82923 16.6259 8.81941 16.4049 8.73101C16.2723 8.677 16.0661 8.55423 15.9384 8.46092C15.8156 8.36762 15.6339 8.18592 15.5357 8.05825C15.4424 7.93057 15.3196 7.72432 15.2656 7.59173C15.1772 7.37075 15.1674 7.20378 15.1429 4.99887C15.1183 2.82342 15.1134 2.62699 15.025 2.46985C14.9759 2.37655 14.8777 2.23414 14.804 2.16048C14.7353 2.08191 14.5879 1.96896 14.4799 1.91494C14.2884 1.80691 14.2344 1.80691 12.0737 1.79708C10.8558 1.79217 9.80491 1.80691 9.73125 1.82655C9.65759 1.84619 9.53482 1.90021 9.46116 1.94441ZM12.0049 2.56807C12.0835 2.56807 12.1964 2.61717 12.2652 2.68101C12.329 2.73994 12.825 3.32432 13.3701 3.97744C14.1705 4.94485 14.3571 5.20021 14.3571 5.31807C14.3571 5.40646 14.3129 5.51449 14.1165 5.71092H9.88839L9.76562 5.58816C9.68705 5.50958 9.64286 5.41137 9.64286 5.31807C9.64286 5.20021 9.82947 4.94485 10.6299 3.97744C11.175 3.32432 11.671 2.73994 11.7397 2.68101C11.8036 2.61717 11.9214 2.56807 12.0049 2.56807ZM5.32143 9.63949C5.41473 9.63949 5.51786 9.6886 5.71429 9.88503V14.1082L5.59152 14.231C5.51786 14.3096 5.41964 14.3538 5.32143 14.3538C5.19866 14.3538 4.9433 14.1623 3.89241 13.2832C2.99866 12.5417 2.6058 12.1783 2.58616 12.0949C2.57143 12.0261 2.57143 11.9279 2.58616 11.8739C2.60089 11.8199 3.19018 11.2944 3.89732 10.7051C4.93348 9.84575 5.20357 9.63949 5.32143 9.63949ZM11.9754 9.64441C12.1375 9.6395 12.4027 9.67387 12.5647 9.71807C12.7268 9.75735 12.9871 9.86539 13.1491 9.94887C13.3062 10.0373 13.5567 10.2337 13.6991 10.3859C13.9004 10.602 13.9643 10.71 13.9643 10.8181C13.9643 10.9065 13.9201 11.0145 13.8415 11.0882C13.7679 11.1667 13.6696 11.2109 13.5714 11.2109C13.4585 11.2109 13.3652 11.152 13.1638 10.9556C13.0263 10.8181 12.7857 10.6462 12.6384 10.5774C12.4223 10.4743 12.2897 10.4498 12 10.4498C11.7103 10.4498 11.5777 10.4743 11.3616 10.5774C11.2143 10.6462 11.0031 10.7886 10.9 10.8966C10.792 10.9998 10.6496 11.2109 10.5808 11.3582C10.4777 11.5743 10.4531 11.7069 10.4531 11.9966C10.4531 12.2864 10.4777 12.419 10.5808 12.635C10.6496 12.7824 10.792 12.9935 10.9 13.0966C11.0031 13.2047 11.2143 13.3471 11.3616 13.4158C11.5777 13.519 11.7103 13.5435 12 13.5435C12.2897 13.5435 12.4223 13.519 12.6384 13.4158C12.7857 13.3471 12.9969 13.2047 13.1 13.0966C13.208 12.9935 13.3455 12.7922 13.4094 12.6596C13.4683 12.5221 13.542 12.2716 13.5665 12.0949C13.6009 11.8493 13.6353 11.756 13.7237 11.6873C13.7875 11.6382 13.9004 11.5989 13.9741 11.6038C14.0527 11.6038 14.1656 11.6578 14.2344 11.7265C14.3277 11.8199 14.3571 11.9033 14.3571 12.0556C14.3571 12.1734 14.3228 12.3944 14.2835 12.5466C14.2442 12.7038 14.1509 12.9493 14.0772 13.0868C14.0085 13.2292 13.8317 13.4699 13.6942 13.6172C13.5518 13.7645 13.3062 13.956 13.1491 14.0444C12.9871 14.1279 12.7268 14.2359 12.5647 14.2752C12.4027 14.3194 12.1473 14.3538 12 14.3538C11.8527 14.3538 11.6022 14.3194 11.4451 14.2801C11.2929 14.2408 11.0473 14.1475 10.9098 14.0739C10.7674 14.0051 10.5268 13.8283 10.3795 13.6908C10.2321 13.5484 10.0406 13.3029 9.95223 13.1457C9.86875 12.9837 9.76071 12.7234 9.72143 12.5614C9.67723 12.3993 9.64286 12.144 9.64286 11.9966C9.64286 11.8493 9.67723 11.5989 9.71652 11.4417C9.7558 11.2895 9.84911 11.044 9.92277 10.9015C9.99152 10.764 10.1683 10.5234 10.3058 10.3761C10.4482 10.2288 10.6938 10.0373 10.8509 9.94887C11.0129 9.86539 11.2634 9.75735 11.4107 9.71807C11.558 9.67878 11.8134 9.64441 11.9754 9.64441ZM18.6786 9.63949C18.8013 9.63949 19.0567 9.83101 20.1076 10.7051C20.8098 11.2944 21.3991 11.8199 21.4138 11.8739C21.4286 11.9279 21.4286 12.0261 21.4138 12.0949C21.3942 12.1783 21.0013 12.5417 20.1076 13.2832C19.0616 14.1574 18.7964 14.3538 18.6786 14.3538C18.5853 14.3538 18.4871 14.3096 18.2857 14.1082L18.2906 9.88012L18.4085 9.76226C18.4821 9.68369 18.5804 9.63949 18.6786 9.63949ZM9.88348 18.2824H14.1116L14.2344 18.4051C14.3129 18.4837 14.3571 18.5819 14.3571 18.6752C14.3571 18.7931 14.1607 19.0582 13.2866 20.1042C12.5451 20.998 12.1817 21.3908 12.0982 21.4105C12.0295 21.4252 11.9313 21.4252 11.8772 21.4105C11.8232 21.3957 11.2978 20.8065 10.7085 20.1042C9.82455 19.0386 9.64286 18.798 9.64286 18.6752C9.64777 18.5819 9.69688 18.4739 9.76562 18.4051L9.88348 18.2824Z" fill="white"/>
</svg>
