<svg width="20" height="20" viewBox="0 0 20 20" fill="none" xmlns="http://www.w3.org/2000/svg">
<g clip-path="url(#clip0_780_23024)">
<path d="M10.0001 18.3327C14.6025 18.3327 18.3334 14.6017 18.3334 9.99935C18.3334 5.39698 14.6025 1.66602 10.0001 1.66602C5.39771 1.66602 1.66675 5.39698 1.66675 9.99935C1.66675 14.6017 5.39771 18.3327 10.0001 18.3327Z" stroke="#00ADFF" stroke-width="1.66667" stroke-linecap="round" stroke-linejoin="round"/>
<path d="M7.91675 7.47046C7.91675 7.07272 7.91675 6.87385 7.99987 6.76283C8.0723 6.66608 8.18318 6.60555 8.30373 6.59694C8.44207 6.58705 8.60935 6.69459 8.94392 6.90967L12.8777 9.43856C13.1681 9.6252 13.3132 9.71852 13.3634 9.83717C13.4072 9.94085 13.4072 10.0578 13.3634 10.1615C13.3132 10.2802 13.1681 10.3735 12.8777 10.5601L8.94392 13.089C8.60935 13.3041 8.44207 13.4116 8.30373 13.4018C8.18318 13.3932 8.0723 13.3326 7.99987 13.2359C7.91675 13.1248 7.91675 12.926 7.91675 12.5282V7.47046Z" stroke="#00ADFF" stroke-width="1.66667" stroke-linecap="round" stroke-linejoin="round"/>
</g>
<defs>
<clipPath id="clip0_780_23024">
<rect width="20" height="20" fill="white"/>
</clipPath>
</defs>
</svg>
