<svg xmlns="http://www.w3.org/2000/svg" xmlns:xlink="http://www.w3.org/1999/xlink" width="31" height="31" viewBox="0 0 31 31">
  <defs>
    <linearGradient id="linear-gradient" y1="0.5" x2="1" y2="0.5" gradientUnits="objectBoundingBox">
      <stop offset="0" stop-color="#63be6b"/>
      <stop offset="0.506" stop-color="#5bbc6a"/>
      <stop offset="1" stop-color="#4ab96a"/>
    </linearGradient>
    <linearGradient id="linear-gradient-2" y1="0.5" x2="0.999" y2="0.5" gradientUnits="objectBoundingBox">
      <stop offset="0" stop-color="#3ec6f2"/>
      <stop offset="1" stop-color="#45afe3"/>
    </linearGradient>
    <linearGradient id="linear-gradient-3" y1="0.5" x2="1" y2="0.5" gradientUnits="objectBoundingBox">
      <stop offset="0" stop-color="#faa51a"/>
      <stop offset="0.387" stop-color="#fab716"/>
      <stop offset="0.741" stop-color="#fac412"/>
      <stop offset="1" stop-color="#fac80f"/>
    </linearGradient>
    <linearGradient id="linear-gradient-4" y1="0.5" x2="1" y2="0.5" gradientUnits="objectBoundingBox">
      <stop offset="0" stop-color="#ec3b50"/>
      <stop offset="1" stop-color="#e7515b"/>
    </linearGradient>
  </defs>
  <g id="PlayStore" transform="translate(-7109 -5911)">
    <rect id="Rectangle_2387" data-name="Rectangle 2387" width="31" height="31" rx="4" transform="translate(7109 5911)"/>
    <g id="google-play-store" transform="translate(7116.605 5916.338)">
      <path id="Path_1030" data-name="Path 1030" d="M11.03,6,.632.054a.419.419,0,0,0-.421,0A.416.416,0,0,0,0,.42S0,.968.008,1.87L7.582,9.444Z" transform="translate(0 0)" fill="url(#linear-gradient)"/>
      <path id="Path_1031" data-name="Path 1031" d="M.2,44.4c.013,3.254.051,11.152.067,15.085l7.511-7.511Z" transform="translate(-0.192 -42.53)" fill="url(#linear-gradient-2)"/>
      <path id="Path_1032" data-name="Path 1032" d="M189.2,145.7l-5.951-3.4-3.452,3.448,3.894,3.894,5.513-3.212a.421.421,0,0,0,.211-.362A.427.427,0,0,0,189.2,145.7Z" transform="translate(-172.222 -136.303)" fill="url(#linear-gradient-3)"/>
      <path id="Path_1033" data-name="Path 1033" d="M1.7,231.707c.008,1.4.013,2.3.013,2.3a.411.411,0,0,0,.211.362.419.419,0,0,0,.421,0l10.76-6.276L9.211,224.2Z" transform="translate(-1.628 -214.751)" fill="url(#linear-gradient-4)"/>
    </g>
  </g>
</svg>
