<svg width="20" height="20" viewBox="0 0 20 20" fill="none" xmlns="http://www.w3.org/2000/svg">
<path d="M7.44531 1.81836C8.32454 1.98194 9.16287 2.20686 10.0217 2.45222C10.5124 2.59535 11.0031 2.73848 11.4734 2.90206C12.2299 3.14742 12.9865 3.41324 13.6817 3.82218C13.9884 4.0062 14.2747 4.21067 14.5405 4.47649C14.8063 4.7423 15.0312 5.06945 15.1948 5.39661C15.5015 6.03047 15.6037 6.72567 15.6242 7.40043C15.6446 7.85027 15.6446 8.3001 15.5628 8.74994C15.5015 9.13844 15.3788 9.50648 15.1539 9.85408C14.9699 10.1403 14.7245 10.4062 14.4178 10.5697C14.1315 10.7333 13.7839 10.7947 13.4568 10.7947C12.9456 10.7947 12.4549 10.6311 12.005 10.4266C12.005 8.91352 12.005 7.40043 12.005 5.90779C12.005 5.64197 12.0255 5.35571 11.9641 5.0899C11.9232 4.88543 11.8414 4.68096 11.6779 4.53783C11.5756 4.43559 11.4325 4.3947 11.2894 4.35381C11.1462 4.33336 11.0031 4.3947 10.9009 4.49694C10.7577 4.68096 10.7169 4.92632 10.7169 5.15124C10.7169 9.19978 10.7169 13.2279 10.7169 17.2764C9.63316 16.9288 8.54946 16.5812 7.46576 16.2336C7.44531 11.4285 7.44531 6.62344 7.44531 1.81836Z" fill="#596184"/>
<path d="M2.55872 12.0424C3.96957 11.5312 5.38043 11.0405 6.81173 10.5293C6.81173 11.0814 6.81173 11.6334 6.81173 12.206C6.81173 12.2878 6.81173 12.3491 6.81173 12.4309C5.68714 12.8194 4.58299 13.2283 3.4584 13.6373C3.29482 13.6986 3.15169 13.7599 3.02901 13.8826C2.96767 13.944 2.92677 14.0258 2.96766 14.1075C3.00856 14.2098 3.1108 14.2507 3.19258 14.2916C3.43795 14.3938 3.70376 14.4143 3.96958 14.4143C4.25584 14.4143 4.56254 14.3938 4.8488 14.3325C5.03283 14.2916 5.2373 14.2302 5.42132 14.1689C5.89161 14.0053 6.38234 13.8213 6.85262 13.6577C6.85262 14.128 6.85262 14.5983 6.85262 15.0686C6.85262 15.1708 6.85262 15.2526 6.85262 15.3548C6.25965 15.4571 5.66669 15.5388 5.07372 15.5388C3.86734 15.5593 2.66096 15.3753 1.51592 15.0072C1.14787 14.905 0.759375 14.7619 0.452668 14.5165C0.289091 14.3734 0.125514 14.2098 0.0437251 14.0053C-0.0176163 13.8213 -0.0176166 13.6373 0.0641719 13.4532C0.14596 13.2897 0.289091 13.1465 0.432221 13.0443C0.779822 12.7989 1.16832 12.6149 1.55681 12.4513C1.86352 12.2877 2.21112 12.1651 2.55872 12.0424Z" fill="#596184"/>
<path d="M13.9679 11.407C14.2951 11.3661 14.6222 11.3662 14.929 11.3457C15.9922 11.3457 17.0555 11.4888 18.0778 11.7955C18.2823 11.8569 18.4663 11.9387 18.6708 12C19.0184 12.1227 19.3864 12.2863 19.6727 12.5316C19.8363 12.6952 19.9998 12.8997 19.9998 13.145C19.9998 13.3495 19.9181 13.5335 19.7954 13.6767C19.55 13.9425 19.2433 14.1265 18.9161 14.2901C18.5685 14.4537 18.2209 14.5763 17.8529 14.699C15.6855 15.476 13.5181 16.253 11.3303 17.03C11.3303 16.4166 11.3303 15.8236 11.3303 15.2102C11.3303 15.1898 11.3303 15.1489 11.3507 15.1284C13.0069 14.5355 14.6631 13.9425 16.2989 13.37C16.5238 13.2882 16.7692 13.2268 16.9532 13.0837C17.035 13.0224 17.1168 12.9201 17.0759 12.8179C17.035 12.7361 16.9328 12.6748 16.851 12.6339C16.6056 12.5316 16.3398 12.5112 16.074 12.5112C15.6651 12.5112 15.2561 12.5725 14.8472 12.6952C13.6612 13.1042 12.4957 13.5335 11.3098 13.9425C11.3098 13.2882 11.3098 12.6339 11.3098 11.9796C12.1686 11.6933 13.0683 11.5093 13.9679 11.407Z" fill="#596184"/>
</svg>
