<svg width="20" height="20" viewBox="0 0 20 20" fill="none" xmlns="http://www.w3.org/2000/svg">
<path d="M8.33352 17.3119C7.6084 17.1467 6.91189 16.8746 6.26685 16.5044M11.6668 2.68359C13.3236 3.06199 14.8029 3.99167 15.8624 5.32043C16.9219 6.64919 17.4989 8.2983 17.4989 9.99776C17.4989 11.6972 16.9219 13.3463 15.8624 14.6751C14.8029 16.0039 13.3236 16.9335 11.6668 17.3119M3.81602 14.2419C3.36193 13.5812 3.01671 12.8519 2.79352 12.0819M2.60352 8.74776C2.73685 7.95609 2.99352 7.20609 3.35352 6.51859L3.49435 6.26443M5.75602 3.81359C6.53618 3.27766 7.41074 2.89424 8.33352 2.68359" stroke="white" stroke-width="1.66667" stroke-linecap="round" stroke-linejoin="round"/>
<path d="M7.5 9.9987L9.16667 11.6654L12.5 8.33203" stroke="white" stroke-width="1.66667" stroke-linecap="round" stroke-linejoin="round"/>
</svg>
