<svg width="32" height="32" viewBox="0 0 32 32" fill="none" xmlns="http://www.w3.org/2000/svg">
<g clip-path="url(#clip0_779_22398)">
<path d="M27.871 0H4.12903C1.84863 0 0 1.84863 0 4.12903V27.871C0 30.1514 1.84863 32 4.12903 32H27.871C30.1514 32 32 30.1514 32 27.871V4.12903C32 1.84863 30.1514 0 27.871 0Z" fill="#FE4A22"/>
<path d="M26.8388 14.9334C26.8374 14.2526 26.5662 13.6001 26.0846 13.1189C25.603 12.6377 24.9503 12.367 24.2695 12.3662C23.7106 12.363 23.1663 12.5444 22.7211 12.8823C21.1343 11.8468 19.3031 11.2469 17.4112 11.143L18.4888 8.61495L21.6248 9.34682C21.6733 9.79635 21.879 10.2143 22.2057 10.5269C22.5323 10.8395 22.9589 11.0267 23.4101 11.0553C23.8614 11.084 24.3082 10.9523 24.6718 10.6836C25.0354 10.4148 25.2923 10.0263 25.3973 9.58647C25.5022 9.14669 25.4484 8.68396 25.2454 8.27998C25.0424 7.876 24.7031 7.55674 24.2876 7.37855C23.872 7.20037 23.4069 7.17471 22.9743 7.30612C22.5417 7.43753 22.1694 7.71756 21.9232 8.09676L18.2576 7.23998C18.1101 7.20501 17.955 7.22334 17.8198 7.29173C17.6845 7.36012 17.5778 7.47416 17.5185 7.61366L16.0331 11.1099C13.9874 11.1435 11.9914 11.7462 10.269 12.8503C9.83203 12.5312 9.30391 12.3615 8.7629 12.3662C8.08209 12.367 7.42937 12.6377 6.94777 13.1189C6.46617 13.6001 6.19497 14.2526 6.19361 14.9334C6.19274 15.386 6.31262 15.8307 6.54089 16.2215C6.76915 16.6124 7.09754 16.9353 7.49219 17.1569C7.48187 17.2704 7.47774 17.386 7.47774 17.5027C7.47774 21.0444 11.5118 23.9264 16.4708 23.9264C21.4297 23.9264 25.4638 21.0444 25.4638 17.5027C25.4656 17.4031 25.4621 17.3036 25.4535 17.2044C25.8714 16.9905 26.222 16.6651 26.4665 16.2643C26.711 15.8635 26.8398 15.4029 26.8388 14.9334ZM23.5355 8.50966C23.6625 8.50966 23.7867 8.54732 23.8923 8.61787C23.9978 8.68842 24.0801 8.7887 24.1287 8.90602C24.1773 9.02334 24.19 9.15244 24.1653 9.27699C24.1405 9.40153 24.0793 9.51594 23.9896 9.60573C23.8998 9.69553 23.7854 9.75668 23.6608 9.78146C23.5363 9.80623 23.4072 9.79351 23.2898 9.74492C23.1725 9.69632 23.0722 9.61403 23.0017 9.50844C22.9311 9.40285 22.8935 9.27871 22.8935 9.15173C22.8935 8.98144 22.9611 8.81813 23.0815 8.69772C23.2019 8.57731 23.3653 8.50966 23.5355 8.50966ZM11.9743 16.8606C11.9745 16.6065 12.05 16.3581 12.1913 16.1469C12.3327 15.9357 12.5335 15.7711 12.7683 15.674C13.0032 15.5769 13.2615 15.5516 13.5108 15.6013C13.76 15.651 13.9889 15.7735 14.1685 15.9533C14.3482 16.1331 14.4705 16.362 14.52 16.6113C14.5695 16.8606 14.544 17.1189 14.4467 17.3537C14.3493 17.5885 14.1846 17.7891 13.9733 17.9303C13.762 18.0715 13.5136 18.1468 13.2594 18.1468C13.0906 18.1468 12.9234 18.1135 12.7674 18.0489C12.6114 17.9842 12.4697 17.8895 12.3503 17.77C12.231 17.6506 12.1363 17.5088 12.0718 17.3528C12.0073 17.1967 11.9741 17.0295 11.9743 16.8606ZM19.4375 21.1218C18.5746 21.7465 17.5365 22.0828 16.4713 22.0828C15.406 22.0828 14.368 21.7465 13.5051 21.1218C13.4364 21.0725 13.378 21.0102 13.3334 20.9384C13.2889 20.8665 13.2589 20.7865 13.2453 20.7031C13.2317 20.6196 13.2347 20.5343 13.2542 20.452C13.2737 20.3697 13.3092 20.2921 13.3588 20.2236C13.4083 20.1551 13.4709 20.097 13.543 20.0528C13.615 20.0085 13.6951 19.9789 13.7786 19.9657C13.8621 19.9525 13.9474 19.9559 14.0296 19.9757C14.1118 19.9955 14.1893 20.0314 14.2576 20.0813C14.9011 20.5485 15.676 20.8002 16.4713 20.8002C17.2666 20.8002 18.0414 20.5485 18.685 20.0813C18.7533 20.0314 18.8307 19.9955 18.9129 19.9757C18.9951 19.9559 19.0804 19.9525 19.164 19.9657C19.2475 19.9789 19.3276 20.0085 19.3996 20.0528C19.4717 20.097 19.5343 20.1551 19.5838 20.2236C19.6334 20.2921 19.6689 20.3697 19.6884 20.452C19.7078 20.5343 19.7109 20.6196 19.6973 20.7031C19.6837 20.7865 19.6537 20.8665 19.6091 20.9384C19.5646 21.0102 19.5062 21.0725 19.4375 21.1218ZM19.6832 18.1448C19.3867 18.1439 19.0996 18.0403 18.8709 17.8516C18.6422 17.6629 18.486 17.4008 18.4288 17.1099C18.3716 16.8189 18.4171 16.5172 18.5574 16.256C18.6977 15.9948 18.9243 15.7903 19.1984 15.6773C19.4725 15.5644 19.7774 15.5499 20.061 15.6364C20.3446 15.723 20.5894 15.9051 20.7538 16.1519C20.9182 16.3986 20.992 16.6948 20.9626 16.9898C20.9332 17.2848 20.8024 17.5606 20.5926 17.77C20.3511 18.0106 20.024 18.1454 19.6832 18.1448Z" fill="white"/>
</g>
<defs>
<clipPath id="clip0_779_22398">
<rect width="32" height="32" rx="10" fill="white"/>
</clipPath>
</defs>
</svg>
