<svg width="31" height="27" viewBox="0 0 31 27" fill="none" xmlns="http://www.w3.org/2000/svg">
<path d="M15.1819 22.7907C16.2222 22.7907 17.0655 21.9474 17.0655 20.9071C17.0655 19.8668 16.2222 19.0234 15.1819 19.0234C14.1416 19.0234 13.2982 19.8668 13.2982 20.9071C13.2982 21.9474 14.1416 22.7907 15.1819 22.7907Z" fill="white"/>
<path d="M15.1819 14.6911C16.2222 14.6911 17.0655 13.8478 17.0655 12.8075C17.0655 11.7672 16.2222 10.9238 15.1819 10.9238C14.1416 10.9238 13.2982 11.7672 13.2982 12.8075C13.2982 13.8478 14.1416 14.6911 15.1819 14.6911Z" fill="white"/>
<path d="M15.1819 6.59151C16.2222 6.59151 17.0655 5.74817 17.0655 4.70786C17.0655 3.66756 16.2222 2.82422 15.1819 2.82422C14.1416 2.82422 13.2982 3.66756 13.2982 4.70786C13.2982 5.74817 14.1416 6.59151 15.1819 6.59151Z" fill="white"/>
</svg>
