<svg width="18" height="18" viewBox="0 0 18 18" fill="none" xmlns="http://www.w3.org/2000/svg">
<g clip-path="url(#clip0_1372_1821)">
<path d="M1.6875 3.9375V7.3125H5.0625" stroke="white" stroke-width="1.5" stroke-linecap="round" stroke-linejoin="round"/>
<path d="M4.75242 13.4999C5.63686 14.3346 6.74767 14.8902 7.94605 15.0972C9.14443 15.3042 10.3772 15.1535 11.4905 14.6639C12.6037 14.1742 13.5479 13.3674 14.2052 12.3442C14.8625 11.321 15.2037 10.1268 15.1861 8.9108C15.1686 7.6948 14.7931 6.51092 14.1066 5.5071C13.4201 4.50328 12.453 3.72401 11.3261 3.26668C10.1993 2.80935 8.96262 2.69423 7.77071 2.9357C6.57879 3.17717 5.48446 3.76453 4.62445 4.62438L1.6875 7.31243" stroke="white" stroke-width="1.5" stroke-linecap="round" stroke-linejoin="round"/>
</g>
<defs>
<clipPath id="clip0_1372_1821">
<rect width="18" height="18" fill="white"/>
</clipPath>
</defs>
</svg>
