<svg width="25" height="24" viewBox="0 0 25 24" fill="none" xmlns="http://www.w3.org/2000/svg">
<path d="M20.0449 3H5.04492C4.6471 3 4.26557 3.15804 3.98426 3.43934C3.70296 3.72064 3.54492 4.10218 3.54492 4.5V19.5C3.54492 19.8978 3.70296 20.2794 3.98426 20.5607C4.26557 20.842 4.6471 21 5.04492 21H20.0449C20.4427 21 20.8243 20.842 21.1056 20.5607C21.3869 20.2794 21.5449 19.8978 21.5449 19.5V4.5C21.5449 4.10218 21.3869 3.72064 21.1056 3.43934C20.8243 3.15804 20.4427 3 20.0449 3ZM7.29492 6.75H16.2949C16.4938 6.75 16.6846 6.82902 16.8253 6.96967C16.9659 7.11032 17.0449 7.30109 17.0449 7.5C17.0449 7.69891 16.9659 7.88968 16.8253 8.03033C16.6846 8.17098 16.4938 8.25 16.2949 8.25H7.29492C7.09601 8.25 6.90524 8.17098 6.76459 8.03033C6.62394 7.88968 6.54492 7.69891 6.54492 7.5C6.54492 7.30109 6.62394 7.11032 6.76459 6.96967C6.90524 6.82902 7.09601 6.75 7.29492 6.75ZM11.0449 17.25H7.29492C7.09601 17.25 6.90524 17.171 6.76459 17.0303C6.62394 16.8897 6.54492 16.6989 6.54492 16.5C6.54492 16.3011 6.62394 16.1103 6.76459 15.9697C6.90524 15.829 7.09601 15.75 7.29492 15.75H11.0449C11.2438 15.75 11.4346 15.829 11.5753 15.9697C11.7159 16.1103 11.7949 16.3011 11.7949 16.5C11.7949 16.6989 11.7159 16.8897 11.5753 17.0303C11.4346 17.171 11.2438 17.25 11.0449 17.25ZM11.7949 12.75H7.29492C7.09601 12.75 6.90524 12.671 6.76459 12.5303C6.62394 12.3897 6.54492 12.1989 6.54492 12C6.54492 11.8011 6.62394 11.6103 6.76459 11.4697C6.90524 11.329 7.09601 11.25 7.29492 11.25H11.7949C11.9938 11.25 12.1846 11.329 12.3253 11.4697C12.4659 11.6103 12.5449 11.8011 12.5449 12C12.5449 12.1989 12.4659 12.3897 12.3253 12.5303C12.1846 12.671 11.9938 12.75 11.7949 12.75ZM19.0755 15.5306L16.8255 17.7806C16.7559 17.8504 16.6732 17.9057 16.5821 17.9434C16.4911 17.9812 16.3935 18.0006 16.2949 18.0006C16.1964 18.0006 16.0988 17.9812 16.0077 17.9434C15.9167 17.9057 15.834 17.8504 15.7643 17.7806L13.5143 15.5306C13.3736 15.3899 13.2945 15.199 13.2945 15C13.2945 14.801 13.3736 14.6101 13.5143 14.4694C13.655 14.3286 13.8459 14.2496 14.0449 14.2496C14.2439 14.2496 14.4348 14.3286 14.5755 14.4694L15.5449 15.4397V11.25C15.5449 11.0511 15.6239 10.8603 15.7646 10.7197C15.9052 10.579 16.096 10.5 16.2949 10.5C16.4938 10.5 16.6846 10.579 16.8253 10.7197C16.9659 10.8603 17.0449 11.0511 17.0449 11.25V15.4397L18.0143 14.4694C18.155 14.3286 18.3459 14.2496 18.5449 14.2496C18.7439 14.2496 18.9348 14.3286 19.0755 14.4694C19.2163 14.6101 19.2953 14.801 19.2953 15C19.2953 15.199 19.2163 15.3899 19.0755 15.5306Z" fill="white"/>
</svg>
