<svg width="25" height="23" viewBox="0 0 25 23" fill="none" xmlns="http://www.w3.org/2000/svg">
<path d="M22.0371 7.91211L15.9407 7.02331L13.2159 1.49859C12.7277 0.51382 11.3131 0.501301 10.8207 1.49859L8.09594 7.02331L1.99955 7.91211C0.906294 8.07067 0.468155 9.41847 1.26098 10.1904L5.67157 14.4884L4.62839 20.5597C4.44061 21.6571 5.59647 22.4792 6.56454 21.9659L12.0183 19.0992L17.4721 21.9659C18.4402 22.475 19.596 21.6571 19.4083 20.5597L18.3651 14.4884L22.7757 10.1904C23.5685 9.41847 23.1304 8.07067 22.0371 7.91211ZM16.2161 13.7873L17.2051 19.5624L12.0183 16.8376L6.8316 19.5624L7.82054 13.7873L3.62275 9.69804L9.42288 8.85515L12.0183 3.59748L14.6138 8.85515L20.4139 9.69804L16.2161 13.7873Z" fill="#8D96B0"/>
</svg>
