<svg width="18" height="15" viewBox="0 0 18 15" fill="none" xmlns="http://www.w3.org/2000/svg">
<path d="M17.8125 8.0625V14.0625C17.8125 14.2117 17.7532 14.3548 17.6477 14.4602C17.5423 14.5657 17.3992 14.625 17.25 14.625H0.75C0.600816 14.625 0.457742 14.5657 0.352252 14.4602C0.246763 14.3548 0.1875 14.2117 0.1875 14.0625V8.0625C0.1875 7.91332 0.246763 7.77024 0.352252 7.66475C0.457742 7.55926 0.600816 7.5 0.75 7.5C0.899184 7.5 1.04226 7.55926 1.14775 7.66475C1.25324 7.77024 1.3125 7.91332 1.3125 8.0625V13.5H16.6875V8.0625C16.6875 7.91332 16.7468 7.77024 16.8523 7.66475C16.9577 7.55926 17.1008 7.5 17.25 7.5C17.3992 7.5 17.5423 7.55926 17.6477 7.66475C17.7532 7.77024 17.8125 7.91332 17.8125 8.0625ZM8.6025 11.46C8.70797 11.5653 8.85094 11.6245 9 11.6245C9.14906 11.6245 9.29203 11.5653 9.3975 11.46L13.1475 7.71C13.2469 7.60337 13.301 7.46233 13.2984 7.31661C13.2958 7.17088 13.2368 7.03184 13.1337 6.92878C13.0307 6.82572 12.8916 6.76669 12.7459 6.76412C12.6002 6.76155 12.4591 6.81564 12.3525 6.915L9.5625 9.70406V0.5625C9.5625 0.413316 9.50324 0.270242 9.39775 0.164752C9.29226 0.0592632 9.14918 0 9 0C8.85082 0 8.70774 0.0592632 8.60225 0.164752C8.49676 0.270242 8.4375 0.413316 8.4375 0.5625V9.70406L5.6475 6.915C5.54087 6.81564 5.39983 6.76155 5.25411 6.76412C5.10838 6.76669 4.96934 6.82572 4.86628 6.92878C4.76322 7.03184 4.70419 7.17088 4.70162 7.31661C4.69905 7.46233 4.75314 7.60337 4.8525 7.71L8.6025 11.46Z" fill="#00ADFF"/>
</svg>
