<svg width="32" height="32" viewBox="0 0 32 32" fill="none" xmlns="http://www.w3.org/2000/svg">
<g clip-path="url(#clip0_779_22334)">
<path d="M27.871 0H4.12903C1.84863 0 0 1.84863 0 4.12903V27.871C0 30.1514 1.84863 32 4.12903 32H27.871C30.1514 32 32 30.1514 32 27.871V4.12903C32 1.84863 30.1514 0 27.871 0Z" fill="black"/>
<path d="M25.2906 13.7715C25.2924 14.1499 25.1818 14.5204 24.9728 14.8359C24.7638 15.1515 24.4658 15.3978 24.1166 15.5437C23.7674 15.6897 23.3827 15.7286 23.0113 15.6556C22.64 15.5826 22.2986 15.4009 22.0307 15.1337C21.7627 14.8664 21.5801 14.5256 21.5061 14.1544C21.4321 13.7832 21.47 13.3985 21.6149 13.0489C21.7599 12.6993 22.0054 12.4006 22.3204 12.1907C22.6353 11.9808 23.0055 11.8692 23.384 11.87C23.8884 11.8711 24.372 12.0716 24.7291 12.4278C25.0863 12.7841 25.2881 13.267 25.2906 13.7715ZM24.5205 16.988L22.2072 18.9596C22.3354 19.7425 22.1533 20.5446 21.6994 21.1953C21.2456 21.846 20.5558 22.2941 19.7768 22.4442C18.9978 22.5944 18.1909 22.4348 17.5277 21.9994C16.8645 21.564 16.3973 20.8871 16.2253 20.1126L10.5066 18.1792C10.0448 18.5289 9.4822 18.7197 8.90295 18.7233C8.32369 18.7268 7.75884 18.5429 7.29276 18.1989C6.82669 17.8549 6.48441 17.3694 6.31707 16.8148C6.14973 16.2602 6.1663 15.6664 6.36431 15.122C6.56232 14.5777 6.93114 14.112 7.41567 13.7945C7.9002 13.4771 8.47444 13.3249 9.05259 13.3607C9.63075 13.3966 10.1818 13.6185 10.6234 13.9934C11.065 14.3683 11.3735 14.876 11.5027 15.4406L17.0325 17.308C17.5895 16.7454 18.3437 16.4218 19.1352 16.4058L19.961 13.8995C19.961 13.8499 19.9538 13.7962 19.9538 13.7508C19.951 13.1182 20.1226 12.497 20.4497 11.9555C20.7768 11.414 21.2469 10.9731 21.8082 10.6812C22.3695 10.3893 23.0003 10.2578 23.6315 10.301C24.2627 10.3442 24.8697 10.5605 25.386 10.9262C25.9023 11.2918 26.3078 11.7927 26.5581 12.3737C26.8084 12.9547 26.8937 13.5935 26.8047 14.2199C26.7157 14.8462 26.4558 15.4359 26.0536 15.9243C25.6514 16.4126 25.1224 16.7806 24.5247 16.988H24.5205ZM10.5737 15.1299C10.402 14.8193 10.1458 14.5637 9.83483 14.3926C9.52385 14.2216 9.17078 14.1421 8.8165 14.1635C8.46222 14.1848 8.12124 14.306 7.83303 14.5132C7.54482 14.7203 7.32118 15.0048 7.188 15.3338C7.05483 15.6628 7.01757 16.0228 7.08053 16.3721C7.1435 16.7214 7.30412 17.0457 7.54379 17.3074C7.78346 17.5692 8.09238 17.7577 8.43478 17.8512C8.77717 17.9446 9.13903 17.9392 9.47846 17.8355L8.58246 17.533C8.23737 17.3474 7.98015 17.0323 7.86739 16.657C7.75462 16.2818 7.79555 15.8771 7.98117 15.532C8.16679 15.1869 8.48189 14.9297 8.85715 14.8169C9.23242 14.7041 9.63711 14.7451 9.9822 14.9307L10.5737 15.1299ZM20.7074 13.7622C20.7055 14.2913 20.8608 14.8092 21.1534 15.25C21.4461 15.6909 21.863 16.035 22.3513 16.2388C22.8397 16.4426 23.3775 16.4969 23.8968 16.3948C24.416 16.2927 24.8933 16.0388 25.2681 15.6652C25.6429 15.2917 25.8985 14.8153 26.0024 14.2965C26.1063 13.7776 26.0539 13.2396 25.8518 12.7505C25.6497 12.2614 25.3071 11.8433 24.8672 11.5491C24.4274 11.255 23.9101 11.0979 23.3809 11.0979C22.6734 11.0979 21.9948 11.3783 21.4937 11.8777C20.9926 12.3771 20.7098 13.0547 20.7074 13.7622ZM20.76 19.7049C20.7595 19.4381 20.7064 19.174 20.6038 18.9278C20.5012 18.6815 20.3511 18.4579 20.1621 18.2696C19.9731 18.0814 19.7488 17.9322 19.5021 17.8306C19.2554 17.729 18.9912 17.677 18.7244 17.6775C18.5704 17.6782 18.417 17.6963 18.2671 17.7312L19.4026 18.1152C19.7477 18.3008 20.0049 18.6159 20.1177 18.9912C20.2304 19.3665 20.1895 19.7712 20.0039 20.1162C19.8183 20.4613 19.5032 20.7186 19.1279 20.8313C18.7526 20.9441 18.3479 20.9031 18.0028 20.7175L16.7765 20.3046C16.9216 20.7684 17.2277 21.1651 17.6397 21.4229C18.0516 21.6808 18.5421 21.7828 19.0227 21.7107C19.5033 21.6385 19.9422 21.3969 20.2603 21.0294C20.5783 20.662 20.7544 20.1929 20.7569 19.707L20.76 19.7049Z" fill="white"/>
</g>
<defs>
<clipPath id="clip0_779_22334">
<rect width="32" height="32" rx="10" fill="white"/>
</clipPath>
</defs>
</svg>
