<svg width="20" height="20" viewBox="0 0 20 20" fill="none" xmlns="http://www.w3.org/2000/svg">
<path d="M11.8133 20H14.875C17.6883 20 20 17.6883 20 14.875V5.125C20 2.3125 17.6883 0 14.875 0H11.75C11.6883 0 11.625 0.0616667 11.625 0.125V19.875C11.6242 19.9383 11.6875 20 11.8133 20ZM15.625 9.00083C16.7508 9.00083 17.6242 9.93833 17.6242 10.9992C17.6242 12.1258 16.6867 12.9992 15.625 12.9992C14.5 12.9992 13.625 12.125 13.625 10.9992C13.5625 9.875 14.5 9.00083 15.625 9.00083ZM9.5 0H5.125C2.3125 0 0 2.3125 0 5.125V14.875C0 17.6883 2.3125 20 5.125 20H9.5C9.56167 20 9.625 19.9383 9.625 19.8758V0.125C9.62583 0.0616667 9.5625 0 9.5 0ZM8.06333 18.3758H5.125C3.18667 18.3758 1.62417 16.8133 1.62417 14.875V5.125C1.62417 3.18667 3.18667 1.62417 5.125 1.62417H8L8.06333 18.3758ZM3.125 5.99917C3.125 7.06167 3.9375 7.87417 5 7.87417C6.0625 7.87417 6.875 7.06167 6.875 5.99917C6.875 4.93833 6.0625 4.12417 5 4.12417C3.9375 4.12417 3.125 4.93833 3.125 5.99917Z" fill="#596184"/>
</svg>
