<svg width="25" height="25" viewBox="0 0 25 25" fill="none" xmlns="http://www.w3.org/2000/svg">
<g clip-path="url(#clip0_780_23048)">
<path d="M3.30186 5.12305H7.80186V14.873H3.30186C3.10295 14.873 2.91219 14.794 2.77153 14.6534C2.63088 14.5127 2.55186 14.322 2.55186 14.123V5.87305C2.55186 5.67413 2.63088 5.48337 2.77153 5.34272C2.91219 5.20206 3.10295 5.12305 3.30186 5.12305Z" stroke="#00ADFF" stroke-width="1.5" stroke-linecap="round" stroke-linejoin="round"/>
<path d="M7.80186 14.873L11.5519 22.373C12.3475 22.373 13.1106 22.057 13.6732 21.4944C14.2358 20.9318 14.5519 20.1687 14.5519 19.373V17.123H20.5519C20.7646 17.123 20.975 17.0777 21.1689 16.9901C21.3628 16.9025 21.5359 16.7746 21.6766 16.615C21.8173 16.4554 21.9224 16.2677 21.9851 16.0644C22.0477 15.861 22.0663 15.6467 22.0397 15.4355L20.9147 6.43555C20.869 6.07313 20.6927 5.73983 20.4188 5.49819C20.1448 5.25654 19.7921 5.12315 19.4269 5.12305H7.80186" stroke="#00ADFF" stroke-width="1.5" stroke-linecap="round" stroke-linejoin="round"/>
</g>
<defs>
<clipPath id="clip0_780_23048">
<rect width="24" height="24" fill="white" transform="translate(0.301865 0.623047)"/>
</clipPath>
</defs>
</svg>
