<svg width="15" height="14" viewBox="0 0 15 14" fill="none" xmlns="http://www.w3.org/2000/svg">
<path d="M8.5376 3.62502V6.68151L11.0773 8.20518C11.2052 8.28201 11.2974 8.40651 11.3335 8.55129C11.3696 8.69608 11.3468 8.84928 11.2699 8.97721C11.1931 9.10513 11.0686 9.1973 10.9238 9.23343C10.779 9.26956 10.6258 9.24669 10.4979 9.16986L7.68541 7.48236C7.60217 7.43235 7.53329 7.36164 7.48549 7.27712C7.43768 7.19259 7.41257 7.09713 7.4126 7.00002V3.62502C7.4126 3.47584 7.47186 3.33276 7.57735 3.22727C7.68284 3.12178 7.82591 3.06252 7.9751 3.06252C8.12428 3.06252 8.26736 3.12178 8.37285 3.22727C8.47833 3.33276 8.5376 3.47584 8.5376 3.62502ZM7.9751 0.250021C7.08775 0.247811 6.20878 0.421607 5.38904 0.761352C4.56931 1.1011 3.8251 1.60004 3.19947 2.22932C2.6883 2.74682 2.23408 3.24463 1.7876 3.76565V2.50002C1.7876 2.35084 1.72833 2.20776 1.62285 2.10227C1.51736 1.99678 1.37428 1.93752 1.2251 1.93752C1.07591 1.93752 0.932839 1.99678 0.82735 2.10227C0.721861 2.20776 0.662598 2.35084 0.662598 2.50002V5.31252C0.662598 5.46171 0.721861 5.60478 0.82735 5.71027C0.932839 5.81576 1.07591 5.87502 1.2251 5.87502H4.0376C4.18678 5.87502 4.32986 5.81576 4.43535 5.71027C4.54083 5.60478 4.6001 5.46171 4.6001 5.31252C4.6001 5.16334 4.54083 5.02026 4.43535 4.91477C4.32986 4.80928 4.18678 4.75002 4.0376 4.75002H2.42041C2.92314 4.15799 3.42377 3.60041 3.99471 3.02244C4.77648 2.24067 5.7713 1.70662 6.85486 1.48701C7.93842 1.26741 9.06267 1.37198 10.0871 1.78767C11.1116 2.20337 11.9908 2.91175 12.615 3.82429C13.2392 4.73684 13.5806 5.81309 13.5966 6.91856C13.6126 8.02404 13.3024 9.10971 12.7049 10.0399C12.1074 10.9702 11.249 11.7037 10.237 12.1488C9.22501 12.594 8.10425 12.731 7.01479 12.5429C5.92533 12.3547 4.91548 11.8496 4.11143 11.0908C4.05769 11.04 3.99447 11.0003 3.92539 10.974C3.8563 10.9476 3.78271 10.9351 3.7088 10.9372C3.63489 10.9393 3.56211 10.9559 3.49463 10.9861C3.42715 11.0164 3.36627 11.0596 3.31549 11.1133C3.2647 11.167 3.225 11.2303 3.19865 11.2993C3.17229 11.3684 3.1598 11.442 3.16189 11.5159C3.16398 11.5898 3.18061 11.6626 3.21082 11.7301C3.24104 11.7976 3.28425 11.8585 3.33799 11.9092C4.13916 12.6653 5.1132 13.2138 6.1751 13.5068C7.237 13.7998 8.35448 13.8285 9.43001 13.5904C10.5055 13.3522 11.5064 12.8545 12.3454 12.1405C13.1843 11.4266 13.8357 10.5182 14.2428 9.49458C14.6499 8.47097 14.8003 7.36329 14.6809 6.2682C14.5615 5.1731 14.1758 4.12388 13.5577 3.2121C12.9395 2.30032 12.1075 1.55369 11.1345 1.03737C10.1614 0.521051 9.07668 0.250738 7.9751 0.250021Z" fill="white"/>
</svg>
