<svg width="12" height="14" viewBox="0 0 12 14" fill="none" xmlns="http://www.w3.org/2000/svg">
<path d="M9.5013 11.9997H2.5013C2.4571 11.9997 2.41471 11.9821 2.38345 11.9509C2.35219 11.9196 2.33464 11.8772 2.33464 11.833V11.433C2.33793 11.084 2.42578 10.7409 2.59065 10.4332C2.75552 10.1255 2.9925 9.86241 3.2813 9.66634L4.66797 8.67967C4.94832 8.49434 5.18125 8.24577 5.34799 7.95397C5.51473 7.66217 5.61063 7.3353 5.62797 6.99967H6.37464C6.39197 7.3353 6.48787 7.66217 6.65461 7.95397C6.82136 8.24577 7.05428 8.49434 7.33464 8.67967L8.7213 9.66634C9.0101 9.86241 9.24709 10.1255 9.41196 10.4332C9.57683 10.7409 9.66467 11.084 9.66797 11.433V11.833C9.66797 11.8772 9.65041 11.9196 9.61915 11.9509C9.5879 11.9821 9.54551 11.9997 9.5013 11.9997ZM2.5013 0.333008C2.01507 0.333008 1.54876 0.526162 1.20494 0.869979C0.861123 1.2138 0.667969 1.68011 0.667969 2.16634V2.44634C0.66806 3.10826 0.839547 3.75887 1.16573 4.33484C1.49192 4.91081 1.96169 5.39249 2.5293 5.73301L3.73597 6.45701C3.80791 6.5002 3.86782 6.56079 3.91019 6.63322C3.95255 6.70564 3.97601 6.78757 3.9784 6.87144C3.98079 6.95531 3.96204 7.03844 3.92387 7.11316C3.88569 7.18788 3.82933 7.25179 3.75997 7.29901L2.34597 8.26101C1.82899 8.61251 1.40582 9.08512 1.11334 9.63765C0.820872 10.1902 0.667971 10.8058 0.667969 11.431V11.833C0.667969 12.3192 0.861123 12.7856 1.20494 13.1294C1.54876 13.4732 2.01507 13.6663 2.5013 13.6663H9.5013C9.74206 13.6663 9.98046 13.6189 10.2029 13.5268C10.4253 13.4347 10.6274 13.2996 10.7977 13.1294C10.9679 12.9591 11.1029 12.757 11.1951 12.5346C11.2872 12.3122 11.3346 12.0738 11.3346 11.833V11.4303C11.3345 10.8053 11.1816 10.1898 10.8891 9.63735C10.5966 9.08495 10.1735 8.61245 9.65664 8.26101L8.24264 7.29901C8.17327 7.25179 8.11691 7.18788 8.07874 7.11316C8.04057 7.03844 8.02181 6.95531 8.0242 6.87144C8.02659 6.78757 8.05005 6.70564 8.09242 6.63322C8.13479 6.56079 8.1947 6.5002 8.26664 6.45701L9.4733 5.73301C10.0409 5.39249 10.5107 4.91081 10.8369 4.33484C11.1631 3.75887 11.3345 3.10826 11.3346 2.44634V2.16634C11.3346 1.92558 11.2872 1.68719 11.1951 1.46475C11.1029 1.24232 10.9679 1.04022 10.7977 0.869979C10.6274 0.699738 10.4253 0.564696 10.2029 0.472562C9.98046 0.380428 9.74206 0.333008 9.5013 0.333008H2.5013ZM1.66797 2.16634C1.66797 1.70634 2.0413 1.33301 2.5013 1.33301H9.5013C9.9613 1.33301 10.3346 1.70634 10.3346 2.16634V2.44634C10.3345 2.93544 10.2078 3.41618 9.96676 3.84177C9.72575 4.26736 9.37867 4.62332 8.9593 4.87501L7.75264 5.59967C6.81264 6.16301 6.77464 7.51034 7.68064 8.12634L9.09397 9.08767C9.4762 9.34746 9.78908 9.69681 10.0053 10.1053C10.2216 10.5137 10.3346 10.9688 10.3346 11.431V11.833C10.3346 12.293 9.9613 12.6663 9.5013 12.6663H2.5013C2.0413 12.6663 1.66797 12.293 1.66797 11.833V11.4303C1.668 10.9684 1.78101 10.5134 1.99713 10.1051C2.21326 9.69675 2.52595 9.34747 2.90797 9.08767L4.32197 8.12634C5.22797 7.51034 5.18997 6.16301 4.25064 5.59967L3.04397 4.87501C2.62447 4.62341 2.27726 4.26748 2.03613 3.84188C1.795 3.41628 1.66817 2.9355 1.66797 2.44634V2.16634Z" fill="#596184"/>
</svg>
