<svg width="32" height="32" viewBox="0 0 32 32" fill="none" xmlns="http://www.w3.org/2000/svg">
<g clip-path="url(#clip0_779_22390)">
<path d="M27.871 0H4.12903C1.84863 0 0 1.84863 0 4.12903V27.871C0 30.1514 1.84863 32 4.12903 32H27.871C30.1514 32 32 30.1514 32 27.871V4.12903C32 1.84863 30.1514 0 27.871 0Z" fill="#59AAEA"/>
<path d="M26.5105 9.22306C26.0518 9.42641 25.5753 9.58708 25.087 9.70306C25.6281 9.18961 26.031 8.5481 26.2586 7.83777C26.2735 7.79271 26.2742 7.74419 26.2606 7.69873C26.247 7.65327 26.2199 7.61305 26.1828 7.58348C26.1457 7.55392 26.1004 7.53642 26.0531 7.53335C26.0058 7.53027 25.9586 7.54177 25.918 7.56628C25.2396 7.96893 24.5067 8.27174 23.742 8.46538C23.6974 8.47651 23.6517 8.48206 23.6057 8.4819C23.4653 8.48136 23.3299 8.42961 23.2248 8.33635C22.4113 7.61942 21.3641 7.2241 20.2798 7.22461C19.8015 7.22594 19.3261 7.29936 18.8697 7.44241C18.1581 7.66487 17.5163 8.06807 17.007 8.61264C16.4977 9.15722 16.1383 9.82456 15.9639 10.5495C15.8346 11.0858 15.7996 11.6405 15.8607 12.1887C15.8633 12.2112 15.861 12.234 15.8541 12.2555C15.8471 12.2771 15.8357 12.2969 15.8204 12.3136C15.8051 12.3311 15.7861 12.345 15.765 12.3546C15.7438 12.3642 15.7209 12.3693 15.6976 12.3694H15.6801C14.1242 12.2283 12.6125 11.7762 11.2345 11.04C9.85663 10.3037 8.64054 9.29837 7.65839 8.08345C7.63469 8.0541 7.6042 8.03096 7.56955 8.01604C7.5349 8.00112 7.49714 7.99486 7.45953 7.99781C7.42192 8.00075 7.3856 8.01282 7.3537 8.03296C7.3218 8.05309 7.29529 8.0807 7.27645 8.11338C6.78012 8.96767 6.58175 9.96268 6.71255 10.942C6.84335 11.9213 7.29589 12.8294 7.99903 13.5234C7.64441 13.4393 7.303 13.307 6.98432 13.1302C6.94915 13.1104 6.90945 13.1002 6.86913 13.1005C6.82881 13.1008 6.78926 13.1116 6.75437 13.1318C6.71948 13.152 6.69045 13.1809 6.67013 13.2157C6.64982 13.2506 6.63892 13.2901 6.63852 13.3304C6.62801 14.1928 6.86801 15.0398 7.32938 15.7685C7.79076 16.4972 8.45368 17.0763 9.23774 17.4357H9.14484C8.89335 17.4355 8.64243 17.4117 8.39542 17.3645C8.35577 17.3568 8.31481 17.3596 8.27656 17.3725C8.23832 17.3855 8.20412 17.4082 8.17733 17.4384C8.15055 17.4687 8.1321 17.5053 8.12383 17.5449C8.11555 17.5844 8.11772 17.6254 8.13013 17.6638C8.38164 18.4446 8.84357 19.1408 9.46513 19.6761C10.0867 20.2113 10.8438 20.5648 11.6532 20.6976C10.2939 21.6135 8.69156 22.1017 7.05245 22.0994H6.53632C6.45998 22.0987 6.38562 22.1237 6.32515 22.1703C6.26469 22.2169 6.22164 22.2825 6.2029 22.3565C6.18502 22.4308 6.19176 22.5089 6.22211 22.5791C6.25245 22.6493 6.30476 22.7077 6.37116 22.7456C8.23584 23.8283 10.3538 24.3981 12.51 24.3973C14.3185 24.414 16.1087 24.0345 17.7549 23.2855C19.2208 22.6051 20.5281 21.6255 21.5928 20.4096C22.6121 19.2527 23.4105 17.9186 23.9485 16.4736C24.4676 15.0964 24.7381 13.6379 24.7474 12.166V12.0979C24.7477 11.9847 24.7733 11.873 24.8225 11.771C24.8716 11.669 24.9429 11.5793 25.0313 11.5085C25.715 10.9531 26.3114 10.2983 26.8006 9.56577C26.8289 9.52388 26.8427 9.47391 26.84 9.42344C26.8373 9.37297 26.8182 9.32476 26.7857 9.28611C26.7531 9.24747 26.7088 9.2205 26.6595 9.20931C26.6102 9.19812 26.5586 9.20331 26.5126 9.22409L26.5105 9.22306Z" fill="white"/>
</g>
<defs>
<clipPath id="clip0_779_22390">
<rect width="32" height="32" rx="10" fill="white"/>
</clipPath>
</defs>
</svg>
