<svg width="32" height="32" viewBox="0 0 32 32" fill="none" xmlns="http://www.w3.org/2000/svg">
<g clip-path="url(#clip0_779_22374)">
<path d="M4.12903 0H27.871C28.9661 0 30.0163 0.435022 30.7906 1.20937C31.565 1.98371 32 3.03394 32 4.12903V27.871C32 28.9661 31.565 30.0163 30.7906 30.7906C30.0163 31.565 28.9661 32 27.871 32H4.12903C3.03394 32 1.98371 31.565 1.20937 30.7906C0.435022 30.0163 0 28.9661 0 27.871V4.12903C0 3.03394 0.435022 1.98371 1.20937 1.20937C1.98371 0.435022 3.03394 0 4.12903 0Z" fill="#9146FF"/>
<path fill-rule="evenodd" clip-rule="evenodd" d="M23.4216 15.9524L20.4993 18.8757H17.5739L15.0159 21.4347V18.8757H11.7251V7.91211H23.4216V15.9524Z" fill="#9146FF"/>
<path fill-rule="evenodd" clip-rule="evenodd" d="M24.8825 6.45117V16.6839L18.3049 23.2615H15.3816L11.7274 26.9157V23.2615H7.34131V10.1054L10.9955 6.45117H24.8825ZM23.4208 7.91285H11.7263V18.8765H15.0151V21.4344L17.573 18.8765H20.4964L23.4208 15.9479V7.91285ZM21.2283 10.4708V14.8558H19.7666V10.4708H21.2283ZM17.2087 10.4708V14.8558H15.747V10.4708H17.2087Z" fill="white"/>
</g>
<defs>
<clipPath id="clip0_779_22374">
<rect width="32" height="32" rx="10" fill="white"/>
</clipPath>
</defs>
</svg>
