<svg width="139" height="153" viewBox="0 0 139 153" fill="none" xmlns="http://www.w3.org/2000/svg">
<g clip-path="url(#clip0_2100_7947)">
<path d="M58.9 1.29914C56.4 1.89914 52.5 3.79914 50.1 5.49914C47.7 7.09914 43.6 10.6991 41.1 13.4991C38.2 16.4991 35.4 20.8991 34 24.4991C32.2 28.9991 31.6 32.3991 31.6 38.4991C31.6 44.4991 32.2 47.9991 34 52.4991C35.7 56.9991 38 60.1991 42.9 64.9991C48 69.9991 51 72.0991 56 73.9991C61 75.8991 64.3 76.4991 70 76.3991C75.1 76.2991 79.3 75.5991 83 74.1991C86.2 72.9991 91 69.7991 94.4 66.7991C98.6 62.8991 101.2 59.4991 103.9 54.0991C107.1 47.4991 107.5 45.6991 107.5 39.0991C107.5 33.4991 106.9 29.7991 105.1 24.9991C103.2 19.9991 101.1 16.9991 96.1 11.7991C92.1 7.79914 87.5 4.29914 84.5 2.89914C81.1 1.39914 77 0.59914 71.5 0.39914C67 0.19914 61.5 0.59914 58.9 1.29914ZM29.5 69.6991C28.4 69.8991 25.9 70.5991 24 71.1991C22.1 71.7991 18.3 74.3991 15.7 76.8991C13 79.3991 10 82.7991 9 84.4991C7.9 86.0991 6.1 90.1991 5 93.4991C3.8 96.7991 2.2 103.099 1.4 107.499C0.6 111.899 0 118.799 0 122.699C0 126.699 0.5 132.099 1 134.699C1.8 138.399 3.1 140.599 6.8 144.099C9.9 147.199 13.4 149.399 17 150.599C22.1 152.399 26.3 152.499 70.5 152.499C108.3 152.499 119.5 152.199 123 151.099C126 150.199 128.9 148.299 131.8 145.099C134.6 142.099 136.6 138.699 137.7 134.999C138.9 130.699 139.2 126.899 138.7 117.499C138.3 108.699 137.5 103.399 135.6 97.4991C134.2 93.0991 131.8 87.4991 130.2 84.9991C128.6 82.4991 125.2 78.5991 122.7 76.1991C119.5 73.2991 116.3 71.4991 112.5 70.4991C109.5 69.6991 106 69.2991 104.7 69.5991C103.5 69.9991 101.4 71.0991 100 71.9991C98.6 72.9991 93.7 75.6991 89 77.9991C82 81.3991 79.1 82.1991 72.5 82.6991C66 83.1991 63.2 82.8991 57.5 81.1991C53.6 79.9991 47.3 77.0991 43.5 74.5991C39.6 72.1991 35.4 69.8991 34 69.6991C32.6 69.3991 30.6 69.3991 29.5 69.6991Z" fill="white"/>
</g>
<defs>
<clipPath id="clip0_2100_7947">
<rect width="139" height="153" fill="white"/>
</clipPath>
</defs>
</svg>
