<svg width="20" height="20" viewBox="0 0 20 20" fill="none" xmlns="http://www.w3.org/2000/svg">
<g clip-path="url(#clip0_863_5395)">
<path d="M9.99984 18.3327C14.6022 18.3327 18.3332 14.6017 18.3332 9.99935C18.3332 5.39698 14.6022 1.66602 9.99984 1.66602C5.39746 1.66602 1.6665 5.39698 1.6665 9.99935C1.6665 14.6017 5.39746 18.3327 9.99984 18.3327Z" stroke="#00ADFF" stroke-width="1.66667" stroke-linecap="round" stroke-linejoin="round"/>
<path d="M7.9165 7.47046C7.9165 7.07272 7.9165 6.87385 7.99962 6.76283C8.07206 6.66608 8.18293 6.60555 8.30349 6.59694C8.44182 6.58705 8.60911 6.69459 8.94368 6.90967L12.8775 9.43856C13.1678 9.6252 13.313 9.71852 13.3631 9.83717C13.4069 9.94085 13.4069 10.0578 13.3631 10.1615C13.313 10.2802 13.1678 10.3735 12.8775 10.5601L8.94368 13.089C8.60911 13.3041 8.44182 13.4116 8.30349 13.4018C8.18293 13.3932 8.07206 13.3326 7.99962 13.2359C7.9165 13.1248 7.9165 12.926 7.9165 12.5282V7.47046Z" stroke="#00ADFF" stroke-width="1.66667" stroke-linecap="round" stroke-linejoin="round"/>
</g>
<defs>
<clipPath id="clip0_863_5395">
<rect width="20" height="20" fill="white"/>
</clipPath>
</defs>
</svg>
