<svg width="32" height="32" viewBox="0 0 32 32" fill="none" xmlns="http://www.w3.org/2000/svg">
<g clip-path="url(#clip0_779_22382)">
<path d="M27.871 0H4.12903C1.84863 0 0 1.84863 0 4.12903V27.871C0 30.1514 1.84863 32 4.12903 32H27.871C30.1514 32 32 30.1514 32 27.871V4.12903C32 1.84863 30.1514 0 27.871 0Z" fill="black"/>
<path d="M16.5934 16.8029C15.7882 18.4648 14.6868 20.7151 14.1386 21.7298C13.6091 22.6589 13.1694 22.5309 12.8205 21.7546C11.6117 18.8984 9.12807 13.8888 7.96059 11.08C7.84627 10.7237 7.66709 10.3916 7.43207 10.1004C7.13875 9.9333 6.80418 9.85243 6.46691 9.86713C6.28213 9.84649 6.19336 9.80313 6.19336 9.73087V9.33965L6.23775 9.30455H10.8829L10.9273 9.34274V9.71745C10.9273 9.82068 10.8633 9.86919 10.7343 9.86919L10.2491 9.89603C9.8362 9.92081 9.62355 10.0375 9.62355 10.2707C9.63945 10.45 9.68771 10.6249 9.766 10.7869C10.695 13.0578 13.9105 19.8377 13.9105 19.8377L14.0272 19.8769L16.103 15.7355L15.6901 14.8168L14.2615 12.0091C14.2615 12.0091 13.9879 11.4465 13.893 11.2586C13.2664 10.0199 13.2808 9.95281 12.6481 9.86713C12.4695 9.84752 12.3786 9.82378 12.3786 9.73913V9.33655L12.4303 9.29732H16.1227L16.2197 9.32932V9.71745C16.2197 9.80829 16.1546 9.84649 16.0246 9.84649L15.7593 9.88674C15.078 9.93939 15.1905 10.215 15.6426 11.11L17.0032 13.9074L18.5154 10.8932C18.7673 10.343 18.7157 10.2036 18.6114 10.0787C18.4123 9.92523 18.1631 9.85161 17.9126 9.87229L17.7392 9.85474C17.6936 9.85489 17.6495 9.8392 17.6143 9.81036C17.5959 9.79823 17.581 9.78163 17.5709 9.76212C17.5608 9.74261 17.5558 9.72084 17.5565 9.69887V9.33345L17.6091 9.29423C18.6816 9.287 21.0868 9.29423 21.0868 9.29423L21.1374 9.33345V9.70816C21.1374 9.81139 21.0868 9.86094 20.9712 9.86094C20.4158 9.88674 20.2981 9.94249 20.0906 10.2387C19.9874 10.3987 19.7686 10.7456 19.5353 11.1327L17.5575 14.8085L17.5017 14.9252L19.9038 19.8387L20.0504 19.88L23.8316 10.8994C23.9637 10.536 23.943 10.28 23.7768 10.1293C23.6783 10.0382 23.5619 9.96853 23.435 9.92482C23.3082 9.8811 23.1736 9.86427 23.0398 9.87539L22.6785 9.86197C22.6319 9.86355 22.5859 9.85016 22.5474 9.82378C22.5296 9.81277 22.5147 9.79765 22.5039 9.77969C22.4931 9.76173 22.4868 9.74145 22.4855 9.72055V9.34687L22.5361 9.30868H26.8034L26.8385 9.34687V9.71745C26.8385 9.82068 26.7745 9.87229 26.6589 9.87229C26.2191 9.86681 25.7877 9.99299 25.4202 10.2346C25.1339 10.481 24.9159 10.7971 24.7874 11.1523C24.7874 11.1523 21.3097 19.1162 20.1196 21.767C19.6685 22.6331 19.2143 22.5556 18.8261 21.7402C18.3348 20.7327 17.3015 18.4834 16.5552 16.8287L16.6006 16.7977L16.5934 16.8029Z" fill="white"/>
</g>
<defs>
<clipPath id="clip0_779_22382">
<rect width="32" height="32" rx="10" fill="white"/>
</clipPath>
</defs>
</svg>
