<svg width="20" height="20" viewBox="0 0 20 20" fill="none" xmlns="http://www.w3.org/2000/svg">
<path d="M7.75167 1.18057C6.765 1.19724 5.59167 1.44724 4.13417 2.05057L2.23167 8.67474C3.77 8.04057 4.99083 7.7464 6.0125 7.75807C7.33534 7.80889 8.60895 8.27316 9.65417 9.08557L11.5675 2.48557C10.5175 1.77307 9.395 1.15307 7.75083 1.18057H7.75167ZM12.5433 3.18974L10.6633 9.8139C12.3433 10.9531 14.3633 11.8922 18.0858 10.2247L20 3.61224H19.965C16.0892 5.2214 14.21 4.31724 12.5425 3.18974H12.5433ZM5.51417 8.9764C4.5275 8.9914 3.355 9.2389 1.90167 9.83807L0 16.4839C3.875 14.8756 5.71917 15.8147 7.39833 16.9422L9.33667 10.2839C8.28667 9.5714 7.15917 8.95057 5.515 8.97557L5.51417 8.9764ZM10.3342 10.9297L10.3433 10.9364L10.3458 10.9297H10.3342ZM10.3433 10.9364L8.43167 17.5181C10.1108 18.6572 11.9783 19.5622 15.8533 17.9531L17.7675 11.3531C13.9 12.9589 12.0325 12.0614 10.3433 10.9364Z" fill="#596184"/>
</svg>
