<svg width="20" height="20" viewBox="0 0 20 20" fill="none" xmlns="http://www.w3.org/2000/svg">
<path d="M7.18559 5.61196C6.28739 4.47763 4.79039 3.0448 3.17363 2.74629H3.11375C1.1976 4.59704 0 7.1642 0 9.97017C0 12.2985 0.838318 14.4478 2.15568 16.1791C1.73652 12.597 6.04787 7.46271 7.30535 5.85077C7.24547 5.79107 7.24547 5.73136 7.18559 5.61196Z" fill="#596184"/>
<path d="M11.1376 9.01493C10.7783 8.71642 10.419 8.41792 10.0597 8.05971C9.64058 8.41792 9.2813 8.71642 8.98191 9.01493C6.46695 11.3433 3.11367 14.3881 3.17355 17.194V17.2537C4.96995 18.9254 7.36515 20 10.0597 20C12.7543 20 15.1495 18.9254 16.9459 17.2537C16.9459 14.3881 13.6525 11.3433 11.1376 9.01493Z" fill="#596184"/>
<path d="M9.99994 0C8.0239 0 6.16762 0.597014 4.61074 1.55224H4.7305C6.88618 1.49254 8.74246 2.44776 9.99994 3.16418C11.1975 2.44776 13.1137 1.49254 15.2694 1.55224H15.3891C13.8322 0.597014 11.976 0 9.99994 0Z" fill="#596184"/>
<path d="M16.8862 2.74629C15.2695 3.0448 13.7126 4.47763 12.8743 5.61196C12.8144 5.67166 12.8144 5.73137 12.7545 5.85077C14.012 7.46271 18.2635 12.597 17.8443 16.1791C19.2216 14.5075 20 12.3582 20 10.0299C20 7.1642 18.8024 4.59704 16.8862 2.74629Z" fill="#596184"/>
</svg>
