<svg width="32" height="32" viewBox="0 0 32 32" fill="none" xmlns="http://www.w3.org/2000/svg">
<g clip-path="url(#clip0_779_22394)">
<path d="M27.871 0H4.12903C1.84863 0 0 1.84863 0 4.12903V27.871C0 30.1514 1.84863 32 4.12903 32H27.871C30.1514 32 32 30.1514 32 27.871V4.12903C32 1.84863 30.1514 0 27.871 0Z" fill="#FF0000"/>
<path d="M22.5505 8.25781H10.4814C9.34411 8.25781 8.25344 8.70959 7.44929 9.51374C6.64513 10.3179 6.19336 11.4086 6.19336 12.5458L6.19336 18.5794C6.19336 19.7166 6.64513 20.8073 7.44929 21.6114C8.25344 22.4156 9.34411 22.8674 10.4814 22.8674H22.5505C23.6878 22.8674 24.7784 22.4156 25.5826 21.6114C26.3867 20.8073 26.8385 19.7166 26.8385 18.5794V12.5458C26.8385 11.9827 26.7276 11.4251 26.5121 10.9049C26.2966 10.3846 25.9808 9.91192 25.5826 9.51374C25.1844 9.11557 24.7117 8.79971 24.1915 8.58422C23.6712 8.36873 23.1136 8.25781 22.5505 8.25781ZM19.6509 15.8563L14.0055 18.5484C13.9708 18.5648 13.9325 18.5721 13.8942 18.5697C13.8559 18.5673 13.8188 18.5552 13.7865 18.5346C13.7541 18.514 13.7275 18.4855 13.7091 18.4518C13.6907 18.4181 13.6812 18.3803 13.6814 18.3419V12.7884C13.6807 12.7493 13.6902 12.7107 13.7088 12.6764C13.7275 12.642 13.7547 12.6131 13.7878 12.5923C13.8209 12.5716 13.8588 12.5597 13.8979 12.5579C13.9369 12.5561 13.9757 12.5644 14.0106 12.5819L19.6561 15.4423C19.6956 15.4604 19.7291 15.4895 19.7526 15.5261C19.7761 15.5627 19.7886 15.6053 19.7886 15.6488C19.7886 15.6923 19.7761 15.7348 19.7526 15.7714C19.7291 15.808 19.6956 15.8371 19.6561 15.8552L19.6509 15.8563Z" fill="white"/>
</g>
<defs>
<clipPath id="clip0_779_22394">
<rect width="32" height="32" rx="10" fill="white"/>
</clipPath>
</defs>
</svg>
