<svg width="24" height="26" viewBox="0 0 24 26" fill="none" xmlns="http://www.w3.org/2000/svg">
<path d="M19.6523 7.41576C22.1369 11.0689 23.364 15.1894 22.9053 19.9332C22.9034 19.9533 22.8929 19.9717 22.8764 19.9838C20.9949 21.3654 19.1719 22.2039 17.3745 22.7599C17.3605 22.7642 17.3455 22.7639 17.3317 22.7592C17.3178 22.7546 17.3058 22.7457 17.2972 22.7338C16.882 22.156 16.5047 21.5469 16.1741 20.9072C16.1551 20.8696 16.1725 20.8242 16.2115 20.8093C16.8107 20.5836 17.3805 20.313 17.9286 19.9926C17.9718 19.9673 17.9745 19.9054 17.9347 19.8757C17.8183 19.7894 17.7031 19.6986 17.5928 19.6079C17.5722 19.5911 17.5444 19.5878 17.5211 19.5991C13.9628 21.2422 10.065 21.2422 6.46471 19.5991C6.44133 19.5886 6.41356 19.5922 6.39348 19.6087C6.28348 19.6994 6.16798 19.7894 6.05276 19.8757C6.01288 19.9054 6.01618 19.9673 6.05963 19.9926C6.60771 20.3069 7.17751 20.5836 7.77591 20.8104C7.81468 20.8253 7.83311 20.8696 7.81386 20.9072C7.49046 21.5477 7.11316 22.1568 6.69021 22.7346C6.67178 22.758 6.64153 22.7687 6.61293 22.7599C4.82406 22.2039 3.00109 21.3654 1.11954 19.9838C1.10387 19.9717 1.09259 19.9524 1.09094 19.9324C0.707594 15.8291 1.48887 11.6744 4.34089 7.41493C4.34776 7.40366 4.35821 7.39486 4.37031 7.38963C5.77363 6.74558 7.27706 6.27176 8.8484 6.00116C8.87701 5.99676 8.9056 6.00996 8.92045 6.03526C9.1146 6.37901 9.33653 6.81983 9.48668 7.18008C11.143 6.92708 12.8252 6.92708 14.5161 7.18008C14.6663 6.82753 14.8805 6.37901 15.0738 6.03526C15.0807 6.02271 15.0914 6.01265 15.1043 6.00653C15.1173 6.00041 15.1318 5.99853 15.1459 6.00116C16.7181 6.27258 18.2215 6.74641 19.6237 7.38963C19.6361 7.39486 19.6463 7.40366 19.6523 7.41576ZM10.3287 15.2175C10.3461 14.0045 9.46165 13.0007 8.35148 13.0007C7.25038 13.0007 6.37451 13.9957 6.37451 15.2175C6.37451 16.439 7.26771 17.434 8.35148 17.434C9.45285 17.434 10.3287 16.439 10.3287 15.2175ZM17.6388 15.2175C17.6561 14.0045 16.7717 13.0007 15.6618 13.0007C14.5604 13.0007 13.6845 13.9957 13.6845 15.2175C13.6845 16.439 14.5777 17.434 15.6618 17.434C16.7717 17.434 17.6388 16.439 17.6388 15.2175Z" fill="white" fill-opacity="0.85"/>
</svg>
