<svg width="24" height="26" viewBox="0 0 24 26" fill="none" xmlns="http://www.w3.org/2000/svg">
<g clip-path="url(#clip0_101_28614)">
<path fill-rule="evenodd" clip-rule="evenodd" d="M11.5397 24.351C11.57 24.3685 11.5937 24.3821 11.6105 24.3915L11.6384 24.4071C11.8613 24.5294 12.1378 24.5285 12.3608 24.4075L12.3895 24.3915C12.4063 24.3821 12.43 24.3685 12.4603 24.351C12.5207 24.316 12.607 24.265 12.7155 24.1982C12.9325 24.0646 13.2388 23.8676 13.6046 23.6091C14.3351 23.0931 15.3097 22.3274 16.2865 21.3273C18.2307 19.3368 20.25 16.3462 20.25 12.5C20.25 7.94365 16.5563 4.25 12 4.25C7.44365 4.25 3.75 7.94365 3.75 12.5C3.75 16.3462 5.76932 19.3368 7.71346 21.3273C8.69025 22.3274 9.66491 23.0931 10.3954 23.6091C10.7612 23.8676 11.0675 24.0646 11.2845 24.1982C11.393 24.265 11.4793 24.316 11.5397 24.351ZM12 15.5C13.6569 15.5 15 14.1569 15 12.5C15 10.8431 13.6569 9.5 12 9.5C10.3431 9.5 9 10.8431 9 12.5C9 14.1569 10.3431 15.5 12 15.5Z" fill="white" fill-opacity="0.85"/>
</g>
<defs>
<clipPath id="clip0_101_28614">
<rect width="24" height="24" fill="white" transform="translate(0 2)"/>
</clipPath>
</defs>
</svg>
