<svg width="24" height="26" viewBox="0 0 24 26" fill="none" xmlns="http://www.w3.org/2000/svg">
<g clip-path="url(#clip0_101_28625)">
<path fill-rule="evenodd" clip-rule="evenodd" d="M1.5 6.5C1.5 4.84315 2.84315 3.5 4.5 3.5H5.87163C6.732 3.5 7.48197 4.08556 7.69064 4.92025L8.79644 9.34343C8.97941 10.0753 8.70594 10.8455 8.10242 11.2982L6.8088 12.2684C6.67447 12.3691 6.64527 12.5167 6.683 12.6197C7.81851 15.7195 10.2805 18.1815 13.3803 19.317C13.4833 19.3547 13.6309 19.3255 13.7316 19.1912L14.7018 17.8976C15.1545 17.2941 15.9247 17.0206 16.6566 17.2036L21.0798 18.3094C21.9144 18.518 22.5 19.268 22.5 20.1284V21.5C22.5 23.1569 21.1569 24.5 19.5 24.5H17.25C8.55151 24.5 1.5 17.4485 1.5 8.75V6.5Z" fill="white" fill-opacity="0.85"/>
</g>
<defs>
<clipPath id="clip0_101_28625">
<rect width="24" height="24" fill="white" transform="translate(0 2)"/>
</clipPath>
</defs>
</svg>
