<svg width="25" height="25" viewBox="0 0 25 25" fill="none" xmlns="http://www.w3.org/2000/svg">
<g clip-path="url(#clip0_5_72746)">
<path d="M11.9372 2.30893C12.1436 1.81275 12.8465 1.81275 13.0528 2.30893L15.5493 8.31108C15.6363 8.52026 15.833 8.66318 16.0588 8.68128L22.5386 9.20077C23.0743 9.24371 23.2915 9.9122 22.8834 10.2618L17.9465 14.4908C17.7744 14.6382 17.6993 14.8695 17.7518 15.0898L19.2601 21.413C19.3848 21.9357 18.8162 22.3489 18.3576 22.0688L12.8099 18.6803C12.6166 18.5622 12.3734 18.5622 12.1801 18.6803L6.63248 22.0688C6.17388 22.3489 5.60522 21.9357 5.72991 21.413L7.23823 15.0898C7.29079 14.8694 7.21565 14.6382 7.0436 14.4908L2.10666 10.2618C1.69854 9.9122 1.91574 9.24371 2.45141 9.20077L8.93123 8.68128C9.15706 8.66318 9.35377 8.52026 9.44077 8.31108L11.9372 2.30893Z" fill="#F2F4F7"/>
<g clip-path="url(#clip1_5_72746)">
<path d="M11.9372 2.30893C12.1436 1.81275 12.8465 1.81275 13.0528 2.30893L15.5493 8.31108C15.6363 8.52026 15.833 8.66318 16.0588 8.68128L22.5386 9.20077C23.0743 9.24371 23.2915 9.9122 22.8834 10.2618L17.9465 14.4908C17.7744 14.6382 17.6993 14.8695 17.7518 15.0898L19.2601 21.413C19.3848 21.9357 18.8162 22.3489 18.3576 22.0688L12.8099 18.6803C12.6166 18.5622 12.3734 18.5622 12.1801 18.6803L6.63248 22.0688C6.17388 22.3489 5.60522 21.9357 5.72991 21.413L7.23823 15.0898C7.29079 14.8694 7.21565 14.6382 7.0436 14.4908L2.10666 10.2618C1.69854 9.9122 1.91574 9.24371 2.45141 9.20077L8.93123 8.68128C9.15706 8.66318 9.35377 8.52026 9.44077 8.31108L11.9372 2.30893Z" fill="#00ADFF"/>
</g>
</g>
<defs>
<clipPath id="clip0_5_72746">
<rect width="24.1658" height="24.1658" fill="white" transform="translate(0.41214 0.363525)"/>
</clipPath>
<clipPath id="clip1_5_72746">
<rect width="24.1658" height="24.1658" fill="white" transform="translate(0.41214 0.363525)"/>
</clipPath>
</defs>
</svg>
