<svg width="17" height="15" viewBox="0 0 17 15" fill="none" xmlns="http://www.w3.org/2000/svg">
<path fill-rule="evenodd" clip-rule="evenodd" d="M0.909058 1.43188C0.909058 1.01767 1.24484 0.681885 1.65906 0.681885H16.1591C16.5733 0.681885 16.9091 1.01767 16.9091 1.43188C16.9091 1.8461 16.5733 2.18188 16.1591 2.18188H1.65906C1.24484 2.18188 0.909058 1.8461 0.909058 1.43188ZM0.909058 5.59855C0.909058 5.18434 1.24484 4.84855 1.65906 4.84855H16.1591C16.5733 4.84855 16.9091 5.18434 16.9091 5.59855C16.9091 6.01276 16.5733 6.34855 16.1591 6.34855H1.65906C1.24484 6.34855 0.909058 6.01276 0.909058 5.59855ZM0.909058 9.76522C0.909058 9.351 1.24484 9.01522 1.65906 9.01522H16.1591C16.5733 9.01522 16.9091 9.351 16.9091 9.76522C16.9091 10.1794 16.5733 10.5152 16.1591 10.5152H1.65906C1.24484 10.5152 0.909058 10.1794 0.909058 9.76522ZM0.909058 13.9319C0.909058 13.5177 1.24484 13.1819 1.65906 13.1819H16.1591C16.5733 13.1819 16.9091 13.5177 16.9091 13.9319C16.9091 14.3461 16.5733 14.6819 16.1591 14.6819H1.65906C1.24484 14.6819 0.909058 14.3461 0.909058 13.9319Z" fill="white"/>
</svg>
