<svg width="357" height="393" viewBox="0 0 357 393" fill="none" xmlns="http://www.w3.org/2000/svg">
<g clip-path="url(#clip0_5_73837)">
<path d="M356.358 316.908C355.73 312.83 352.29 309.704 348.176 309.474L337.959 308.902C301.335 306.842 283.26 262.45 278.595 248.894C273.661 234.563 265.457 225.212 258.289 219.373C267.101 213.53 274.928 206.726 281.639 199.075C283.167 200.251 285.035 200.891 286.983 200.891C287.909 200.891 288.825 200.745 289.709 200.458C292.767 199.454 295.029 196.868 295.61 193.703L296.329 189.798C296.559 188.54 301.849 158.563 290.487 120.296C283.828 97.8788 272.817 77.1637 257.759 58.7312C239.103 35.8897 214.2 16.5641 183.744 1.29318L183.299 1.07037C182.09 0.459839 180.721 0.133514 179.358 0.133514H177.93C176.572 0.133514 175.216 0.456329 173.998 1.06161L173.537 1.29498C143.079 16.5642 118.181 35.8897 99.5261 58.7312C84.4657 77.169 73.4563 97.8823 66.7963 120.296C55.4379 158.538 60.7224 188.531 60.9557 189.789L61.675 193.703C62.254 196.868 64.5155 199.456 67.5718 200.456C68.4596 200.745 69.3737 200.891 70.3 200.891C72.2493 200.891 74.116 200.251 75.6442 199.075C82.5428 206.944 90.6239 213.916 99.7419 219.869C92.7819 225.689 84.8183 234.923 80.0111 248.894C75.3441 262.45 57.2713 306.842 20.6435 308.902L10.4279 309.474C6.31573 309.704 2.87257 312.83 2.24903 316.906C1.62813 320.983 3.97597 324.994 7.83459 326.443L17.4088 330.045C25.4025 333.052 37.3727 337.558 39.3425 339.428C40.1717 343.014 42.3551 345.941 45.5282 347.707C47.5227 348.816 49.7706 349.378 52.2103 349.378C55.2151 349.378 58.152 348.525 61.182 347.444C60.9697 347.839 60.7732 348.202 60.5995 348.521C55.9449 357.129 49.5883 368.893 57.1029 378.562C63.8681 387.257 80.9971 392.657 101.809 392.657C112.016 392.657 122.31 391.322 132.401 388.688C158.959 381.76 175.26 380.898 176.6 380.837L181.96 380.835C183.309 380.897 199.628 381.756 226.204 388.688C236.289 391.32 246.574 392.653 256.774 392.653C277.602 392.653 294.74 387.253 301.499 378.562C309.017 368.893 302.657 357.132 298.015 348.542C297.84 348.214 297.638 347.846 297.426 347.442C300.45 348.523 303.391 349.378 306.393 349.378C308.833 349.378 311.077 348.816 313.069 347.713C316.246 345.946 318.432 343.014 319.264 339.426C321.237 337.556 333.208 333.052 341.198 330.045L350.772 326.443C354.627 324.994 356.978 320.983 356.358 316.908Z" fill="#285DA2"/>
<path d="M79.3464 124.025C71.2039 151.446 72.3531 174.363 73.2953 183.355L77.2358 179.637L78.6657 181.7C83.9905 189.388 90.2751 195.992 97.1491 201.649C82.9273 183.913 79.9745 161.873 79.9745 161.873C79.9745 161.873 79.1727 166.333 78.0762 169.622C77.1849 126.831 95.4771 89.6342 107.374 70.0753C92.4769 89.1552 84.0607 108.146 79.3464 124.025Z" fill="#99DEEE"/>
<path d="M111.355 143.042C111.347 142.834 111.334 142.626 111.327 142.42C111.232 142.371 111.12 142.315 111.027 142.264C111.136 142.533 111.247 142.778 111.355 143.042Z" fill="#6ACFEF"/>
<path d="M119.025 195.299C126.373 206.479 136.642 215.225 149.664 221.493C149.711 221.488 149.757 221.486 149.804 221.479C149.565 221.279 149.339 221.078 149.109 220.878C124.076 207.173 115.229 178.391 112.374 155.009C110.051 150.93 107.872 146.23 105.849 140.877C105.197 154.269 106.535 176.289 119.025 195.299Z" fill="#6ACFEF"/>
<path d="M107.101 129.148C106.936 130.053 106.623 131.934 106.339 134.58L108.048 135.655C108.097 135.685 109.183 136.35 111.16 137.42C111.027 130.027 111.376 124.325 111.603 121.553C110.088 124 108.58 126.523 107.101 129.148Z" fill="#6ACFEF"/>
<path d="M93.1336 265.097C94.7372 259.002 97.3338 253.616 100.343 248.947C106.196 237.368 116.723 230.673 120.217 228.69C120.307 228.63 120.391 228.574 120.474 228.516C119.782 226.244 119.363 224.334 119.135 223.037C112.761 225.953 98.9041 234.238 92.3879 253.156C89.0685 262.804 81.5435 281.273 68.4569 296.606C57.1897 309.805 44.312 317.931 30.0774 320.849C34.7789 322.656 38.5482 324.188 41.5569 325.642C70.5395 315.661 86.8491 288.984 93.1336 265.097Z" fill="#99DEEE"/>
<path d="M107.109 286.598C99.5019 318.805 66.9529 360.863 72.9567 367.295C74.5147 368.963 77.3517 370.235 80.8027 370.993C74.3497 359.333 101.604 319.38 107.109 286.598Z" fill="#99DEEE"/>
<path d="M126.478 308.799C123.174 316.623 109.119 348.214 97.0831 349.751C90.4529 350.596 92.6022 335.666 96.6006 319.979C87.3282 342.58 76.4733 363.164 80.8033 370.992C78.6681 370.524 76.7698 369.859 75.2627 369.022C83.9228 373.827 105.527 373.038 110.679 361.153C112.942 361.153 110.924 372.745 106.627 379.396C113.761 379.077 121.383 378.036 129.101 376.022C140.01 373.176 149.17 371.313 156.451 370.087C104.057 371.646 122.384 319.109 126.478 308.799Z" fill="#223C6F"/>
<path d="M247.738 284.395C258.302 310.679 276.278 324.086 289.318 330.68C283.612 325.078 270.875 295.995 260.541 271.966C253.97 256.7 247.294 247.493 240.445 242.007C240.333 247.939 240.326 263.501 243.14 269.482C241.824 265.534 223.841 253.692 216.823 258.955C209.805 264.218 220.77 288.342 220.77 288.342C220.77 288.342 207.278 270.952 194.35 266.824C186.749 268.04 177.568 267.655 166.504 264.741C165.485 264.615 164.452 264.469 163.406 264.297C151.628 262.369 143.014 257.965 136.733 252.886C142.589 260.931 154.13 270.65 176.47 274.307C208.635 279.57 217.556 300.038 226.911 332.204C234.271 357.509 226.423 369.955 205.657 370.701C212.308 371.913 220.286 373.617 229.508 376.022C236.015 377.721 242.454 378.726 248.587 379.193C244.38 372.512 242.426 361.153 244.668 361.153C247.538 367.78 255.526 370.955 263.537 371.636C255.476 363.037 230.673 335.201 224.574 312.028C217.261 284.247 231.297 308.228 234.806 320.214C233.052 297.992 223.697 280.447 233.346 281.325C242.12 282.123 260.095 352.84 278.457 369.796C280.115 369.111 281.473 368.271 282.389 367.294C288.53 360.714 254.318 316.853 247.738 284.395Z" fill="#223C6F"/>
<path d="M178.946 252.155V252.164C178.822 252.164 178.706 252.159 178.585 252.157C178.465 252.159 178.346 252.164 178.227 252.164V252.155C171.311 252.101 165.221 251.28 159.88 249.975C156.063 251.369 148.071 252.436 135.223 245.745C141.314 252.113 150.436 257.798 164.109 260.038C180.381 262.703 194.91 259.712 207.458 251.155C195.554 255.792 182.118 255.968 172.181 255.257C191.463 255.257 204.249 249.443 211.479 244.688C203.621 248.79 192.977 252.045 178.946 252.155Z" fill="#223C6F"/>
<path d="M194.093 233.338C190.198 233.812 186.315 234.123 182.487 234.252C182.447 234.259 182.408 234.268 182.368 234.279L182.361 234.252C181.44 234.282 180.517 234.307 179.603 234.316L179.52 234.354L178.485 234.335C183.522 235.979 188.014 238.272 181.88 240.097C182.134 243.374 191.065 244.913 185.657 247.523C192.381 246.932 198.14 245.562 203.085 243.739C202.595 242.47 201.707 240.7 198.841 238.926C221.689 233.463 200.884 233.272 194.093 233.338Z" fill="#223C6F"/>
<path d="M156.582 237.767C151.336 235.511 148.089 232.183 146.577 230.313C142.362 229.295 138.178 228.111 134.086 226.726C136.643 229.358 143.099 234.476 156.582 237.767Z" fill="#99DEEE"/>
<path d="M146.7 237.959C142.977 236.635 139.204 234.724 135.435 232.01C139.67 236.273 145.814 240.782 154.459 243.891C150.097 241.763 147.816 239.431 146.7 237.959Z" fill="#99DEEE"/>
<path d="M262.652 154.966C260.653 150.092 258.562 145.434 256.397 141.002L255.792 140.101C256.588 153.996 255.332 177.164 241.893 197.64C238.173 203.305 233.71 208.33 228.624 212.804C249.851 200.018 259.902 165.942 262.652 154.966Z" fill="#223C6F"/>
<path d="M138.65 170.055C145.469 170.055 153.031 166.415 161.16 159.22C136.676 154.433 119.236 146.542 111.027 142.264C118.524 160.713 127.8 170.055 138.65 170.055Z" fill="white"/>
<path d="M129 167.355C132.06 169.152 135.278 170.055 138.65 170.055C145.469 170.055 153.031 166.415 161.16 159.22C136.676 154.433 119.236 146.542 111.027 142.264C111.136 142.54 111.252 142.792 111.366 143.063C115.282 146.17 129.832 156.458 155.277 160.411C144.745 167.897 137.739 169.76 129 167.355Z" fill="#B1B1B0"/>
<path d="M218.626 170.055C211.803 170.055 204.243 166.415 196.116 159.22C220.6 154.433 238.034 146.542 246.248 142.264C238.75 160.713 229.47 170.055 218.626 170.055Z" fill="white"/>
<path d="M228.276 167.355C225.214 169.152 221.995 170.055 218.626 170.055C211.803 170.055 204.243 166.415 196.116 159.22C220.6 154.433 238.034 146.542 246.248 142.264C246.136 142.54 246.022 142.792 245.91 143.063C241.992 146.17 227.442 156.458 201.999 160.411C212.526 167.897 219.538 169.76 228.276 167.355Z" fill="#B1B1B0"/>
<path d="M306.396 340.605C306.108 340.605 305.806 340.586 305.497 340.552C305.859 340.591 306.201 340.598 306.536 340.591C306.488 340.591 306.443 340.605 306.396 340.605ZM282.393 367.292C276.252 373.871 250.373 374.31 244.671 361.152C242.429 361.152 244.384 372.51 248.591 379.191C242.457 378.724 236.018 377.719 229.511 376.021C199.815 368.275 182.942 367.764 182.184 367.747H176.373C175.666 367.764 158.797 368.275 129.102 376.021C121.384 378.035 113.763 379.075 106.629 379.395C110.926 372.743 112.944 361.152 110.68 361.152C104.978 374.31 79.0997 373.871 72.9591 367.292C66.8184 360.713 101.031 316.851 107.61 284.393C91.9583 323.33 60.0391 334.022 52.0213 336.143C50.5477 329.524 44.9759 326.571 30.0793 320.846C44.3139 317.928 57.1916 309.802 68.4588 296.603C81.5455 281.27 89.0704 262.801 92.3899 253.153C98.906 234.235 112.763 225.95 119.137 223.034C119.365 224.336 119.788 226.253 120.483 228.538C117.232 230.348 106.105 237.214 100.153 249.304C113.751 237.461 124.277 231.759 117.04 255.444C121.381 248.779 124.07 242.567 125.278 239.489C125.425 239.738 125.548 239.982 125.699 240.233C131.171 249.29 142.157 260.815 163.409 264.296C164.455 264.468 165.488 264.613 166.508 264.74C177.571 267.654 186.753 268.038 194.353 266.822C207.282 270.95 220.774 288.341 220.774 288.341C220.774 288.341 209.808 264.217 216.826 258.953C223.844 253.69 241.827 265.533 243.143 269.48C240.329 263.499 240.336 247.937 240.448 242.005C247.298 247.491 253.974 256.699 260.544 271.965C270.878 295.994 283.615 325.076 289.321 330.678C276.282 324.085 258.305 310.677 247.742 284.393C254.321 316.851 288.533 360.713 282.393 367.292ZM101.811 383.884C101.625 383.884 101.448 383.874 101.262 383.874C101.52 383.877 101.771 383.881 102.027 383.881C101.955 383.881 101.883 383.884 101.811 383.884ZM52.2131 340.605C52.1652 340.605 52.1241 340.591 52.0761 340.591C52.7642 340.605 53.5107 340.521 54.3125 340.354C53.5669 340.508 52.8651 340.605 52.2131 340.605ZM78.6681 181.699L77.2382 179.635L73.2977 183.353C72.3555 174.361 71.2064 151.444 79.3489 124.024C88.9985 91.5308 114.061 46.0197 178.645 13.3795C178.675 13.3953 178.703 13.4111 178.735 13.4233L178.645 13.8216V13.3795C178.645 13.3795 104.978 64.2066 91.8197 122.982C117.698 85.6989 135.243 76.9266 135.243 76.9266C135.243 76.9266 121.556 95.6257 110.038 115.962C107.661 119.65 105.303 123.531 102.999 127.638L102.992 127.636C102.992 127.641 102.99 127.652 102.99 127.657C96.7147 138.847 90.8144 151.609 85.7913 166.1L84.4544 169.956L88.3932 168.893C89.0231 168.722 89.6073 168.584 90.1214 168.475C91.1986 173.142 94.6075 184.623 104.027 196.899C110.635 205.512 121.083 215.483 137.171 223.139C115.361 216.037 93.3882 202.947 78.6681 181.699ZM138.648 174.372C142.208 174.372 145.9 173.544 149.696 171.923C147.684 173.979 144.624 176.49 140.515 178.179C151.453 176.328 159.142 170.221 163.948 164.936C161.172 170.286 151.103 185.869 129.687 181.609C129.397 183.657 134.66 186.581 134.66 186.581C134.66 186.581 131.637 206.437 150.045 221.69C136.841 215.407 126.45 206.591 119.026 195.299C106.536 176.289 105.198 154.269 105.85 140.877C114.245 163.105 125.274 174.372 138.648 174.372ZM161.158 159.218C153.03 166.414 145.468 170.054 138.648 170.054C127.799 170.054 118.523 160.712 111.026 142.263C119.235 146.541 136.675 154.432 161.158 159.218ZM118.667 141.154C111.886 138.023 108.14 135.71 108.05 135.654L106.341 134.579C106.626 131.933 106.938 130.052 107.103 129.147C119.921 106.451 134.269 90.4763 145.696 80.0215C161.881 65.2207 175.438 58.3625 178.645 56.8484C178.645 56.8484 124.348 90.2255 118.667 141.154ZM179.522 234.35L179.605 234.312C180.519 234.303 181.442 234.278 182.363 234.249L182.37 234.275C182.41 234.264 182.449 234.256 182.489 234.249C186.317 234.119 190.2 233.808 194.095 233.335C200.887 233.268 221.691 233.459 198.843 238.923C201.709 240.696 202.597 242.467 203.087 243.735C196.486 246.167 188.435 247.797 178.585 247.837C156.155 247.748 142.873 239.494 135.438 232.012C147.819 240.924 160.239 241.266 170.883 240.144C147.335 237.821 137.424 230.157 134.09 226.724C147.286 231.185 161.36 233.798 174.801 234.249C174.841 234.256 174.882 234.264 174.919 234.275L174.926 234.249C175.859 234.28 176.794 234.305 177.721 234.312L177.722 234.315L179.522 234.35ZM245.912 143.062C240.28 156.615 233.664 165.11 226.146 168.436C225.937 168.528 225.728 168.603 225.518 168.687C224.997 168.896 224.47 169.086 223.939 169.245C223.695 169.321 223.449 169.389 223.198 169.454C222.674 169.591 222.144 169.698 221.609 169.786C221.379 169.824 221.149 169.872 220.919 169.9C220.163 169.994 219.398 170.054 218.628 170.054C211.805 170.054 204.245 166.414 196.118 159.218C220.602 154.432 238.036 146.541 246.25 142.263C246.138 142.539 246.024 142.791 245.912 143.062ZM255.774 139.691C259.463 147.127 262.958 155.176 266.132 163.894C265.892 163.857 265.751 163.838 265.734 163.838L263.641 163.575L263.328 165.661C263.307 165.8 261.167 179.504 249.835 194.273C244.65 201.026 236.967 208.658 225.812 215.228C232.115 210.193 237.497 204.335 241.896 197.636C255.461 176.965 256.619 153.537 255.774 139.691ZM207.459 251.155C194.911 259.711 180.382 262.703 164.109 260.038C131.49 254.692 124.716 229.778 123.434 222.616C123.456 222.625 123.484 222.637 123.509 222.648C124.574 224.934 127.816 230.999 134.611 237.075C142.233 243.884 155.963 251.981 178.228 252.155V252.164C178.347 252.164 178.466 252.158 178.585 252.157C178.707 252.158 178.822 252.164 178.947 252.164V252.155C192.977 252.044 203.622 248.79 211.48 244.688C204.25 249.442 191.463 255.257 172.182 255.257C182.119 255.967 195.555 255.792 207.459 251.155ZM270.483 143.011C268.729 127.22 263.465 114.939 263.465 114.939C263.465 114.939 278.671 134.824 277.794 170.791C260.249 194.915 242.562 216.423 220.117 223.139C236.209 215.483 246.654 205.512 253.261 196.899C262.681 184.623 266.09 173.142 267.167 168.475C267.681 168.584 268.267 168.722 268.897 168.893L272.834 169.956L271.497 166.1C266.474 151.611 260.574 138.849 254.303 127.659C254.3 127.652 254.3 127.643 254.296 127.636L254.289 127.638C241.066 104.054 226.181 87.4903 214.347 76.6897C205.39 68.5191 197.323 62.7679 191.207 58.9204C210.98 69.9999 248.426 95.9802 270.483 143.011ZM352.889 317.437C352.512 314.977 350.468 313.118 347.982 312.979L337.767 312.405C298.957 310.224 280.126 264.115 275.278 250.034C269.825 234.199 260.258 224.681 252.11 219.136C263.518 212.23 273.304 203.815 281.329 194.015L283.372 195.945C284.366 196.882 285.665 197.382 286.986 197.382C287.535 197.382 288.088 197.296 288.623 197.122C290.454 196.522 291.816 194.966 292.161 193.069L292.881 189.162C293.107 187.93 298.234 158.701 287.128 121.295C280.603 99.3259 269.809 79.0231 255.042 60.9503C236.702 38.4948 212.189 19.478 182.175 4.43167L181.73 4.20529C180.996 3.83508 180.182 3.64215 179.361 3.64215H177.933C177.11 3.64215 176.305 3.83514 175.571 4.20007L175.112 4.43167C145.1 19.478 120.586 38.4948 102.247 60.9503C87.4809 79.0266 76.6873 99.3294 70.1624 121.295C59.0548 158.697 64.1814 187.93 64.4078 189.155L65.1271 193.069C65.4745 194.966 66.8342 196.522 68.6676 197.122C69.2027 197.296 69.7536 197.382 70.3028 197.382C71.6239 197.382 72.924 196.882 73.9188 195.945L75.961 194.015C84.1526 204.024 94.183 212.586 105.896 219.571C97.9621 225.132 88.6564 234.571 83.3298 250.034C78.4857 264.115 59.6514 310.224 20.845 312.405L10.6294 312.979C8.14559 313.118 6.09655 314.977 5.71951 317.437C5.34546 319.897 6.74078 322.283 9.0709 323.158L18.6479 326.76C36.5695 333.506 42.2277 335.982 42.6965 338.328C43.2448 341.073 44.8554 343.316 47.2335 344.638C48.7041 345.454 50.3765 345.868 52.2131 345.868C55.4477 345.868 58.7601 344.621 62.6024 343.179C63.9148 342.684 66.1412 341.847 68.0062 341.31C67.0061 344.054 64.878 347.993 63.6814 350.202C59.2619 358.378 53.7651 368.547 59.8777 376.407C65.8991 384.146 82.3578 389.148 101.811 389.148C111.721 389.148 121.716 387.849 131.516 385.291C158.828 378.168 175.355 377.377 176.524 377.328L182.033 377.326C183.216 377.375 199.722 378.152 227.091 385.291C236.892 387.849 246.88 389.144 256.777 389.144C276.254 389.144 292.714 384.146 298.734 376.407C304.846 368.547 299.348 358.378 294.93 350.209C293.735 347.995 291.605 344.061 290.605 341.317C292.483 341.852 294.697 342.686 296.005 343.177C299.848 344.621 303.16 345.868 306.396 345.868C308.232 345.868 309.904 345.454 311.368 344.644C313.754 343.316 315.364 341.073 315.915 338.324C316.38 335.982 322.038 333.506 339.964 326.76L349.538 323.158C351.868 322.283 353.266 319.897 352.889 317.437Z" fill="#100F0D"/>
</g>
<defs>
<clipPath id="clip0_5_73837">
<rect width="355.908" height="393" fill="white" transform="translate(0.54541)"/>
</clipPath>
</defs>
</svg>
