<svg width="473" height="87" viewBox="0 0 473 87" fill="none" xmlns="http://www.w3.org/2000/svg">
<path d="M20.8681 86.6021H0L16.9369 17.2296H6.7621L10.8681 0.176888H52.9537L48.6752 17.2296H37.9796L20.8681 86.6021Z" fill="white"/>
<path d="M78.6809 17.5735L73.9401 34.7431H79.8363L83.9987 17.5735H78.6809ZM39.8894 86.7151L61.4543 0.115303H94.0585C98.2975 0.19323 101.42 1.09804 103.424 2.8326C105.695 4.6451 106.99 7.74623 107.296 12.1389L99.3764 41.3927C98.9141 43.2413 98.1058 44.8604 96.9469 46.2472C95.9469 47.367 94.8273 48.3281 93.5962 49.1391C92.3617 49.9097 91.1859 50.5836 90.0675 51.1609C88.9142 51.5101 87.9502 51.8564 87.1814 52.2013L92.9593 86.7151H71.9165L67.9277 59.4296L61.3944 86.7151H39.8894Z" fill="white"/>
<path d="M168.806 0.176888L146.896 86.6021H113.714C107.739 86.6021 104.097 85.234 102.786 82.4965C101.515 79.8009 101.515 75.7531 102.786 70.356L120.187 0.176888H141.809L124.12 69.3156H130.418L146.896 0.176888H168.806Z" fill="white"/>
<path d="M158.747 71.5723L174.356 10.3517C175.356 6.42079 176.763 3.78143 178.575 2.43216C180.5 1.08289 183.738 0.408981 188.287 0.408981H214.88C219.274 0.408981 222.665 1.40903 225.055 3.41344C227.518 5.45683 228.254 9.00243 227.25 14.0517L224.244 28.1H203.49L206.093 17.6363H194.183L181.292 69.5477H192.682L194.877 61.6281H187.941L192.853 43.5335H219.909L211.816 75.7933C211.044 78.5293 210.195 80.629 209.272 82.0937C208.347 83.5598 207.288 84.619 206.093 85.2727C204.82 85.9669 203.394 86.4301 201.816 86.661C200.233 86.7764 198.364 86.7764 196.208 86.661H169.269C162.947 86.7764 159.265 85.4661 158.225 82.7315C157.378 80.033 157.552 76.3128 158.747 71.5723Z" fill="white"/>
<path d="M251.239 34.687H256.499L260.778 17.402H254.997L251.239 34.687ZM216.034 86.6012L235.284 11.7956C236.44 8.05666 237.827 5.14745 239.446 3.0651C241.065 1.06213 244.34 0.0591888 249.275 0.0591888H272.338C275.309 0.0591888 277.601 0.272774 279.219 0.695587C281.031 1.15881 282.341 1.94817 283.151 3.0651C283.923 4.41582 284.249 6.30334 284.135 8.73058C283.903 10.8894 283.266 13.7799 282.226 17.402L264.941 86.7744H243.089L252.164 52.2029H246.208L237.654 86.7744L216.034 86.6012Z" fill="white"/>
<path d="M300.726 86.7744L317.954 17.5174H310.668L293.675 86.7744H272.864L293.963 0.291527H355.068C360.155 0.368011 363.756 1.60182 365.876 3.99154C367.765 6.34229 367.92 10.8519 366.338 17.5174L349.981 86.7744H329.052L346.223 17.5174H338.419L321.48 86.7744H300.726Z" fill="white"/>
<path d="M356.916 86.7151L379 -0.000137329H420.911L415.996 17.3412H396.112L391.891 34.6277H411.547L407.269 52.0873H387.383L382.758 69.4301H402.934L398.711 86.7151H356.916Z" fill="white"/>
<path d="M444.384 17.5735L439.645 34.7431H445.539L449.702 17.5735H444.384ZM405.592 86.7151L427.157 0.115303H459.762C464.003 0.19323 467.123 1.09804 469.127 2.8326C471.401 4.6451 472.689 7.74623 472.999 12.1389L465.079 41.3927C464.617 43.2413 463.808 44.8604 462.653 46.2472C461.649 47.367 460.534 48.3281 459.298 49.1391C458.065 49.9097 456.888 50.5836 455.773 51.1609C454.617 51.5101 453.653 51.8564 452.881 52.2013L458.665 86.7151H437.619L433.631 59.4296L427.098 86.7151H405.592Z" fill="white"/>
</svg>
