<svg width="66" height="65" viewBox="0 0 66 65" fill="none" xmlns="http://www.w3.org/2000/svg">
<rect x="0.718384" width="64.479" height="64.479" rx="13.3405" fill="#596184"/>
<path d="M43.5829 16.802C41.857 16.802 40.4579 18.1312 40.4579 19.7708V44.7083C40.4579 46.3479 41.857 47.677 43.5829 47.677H44.8329C46.5588 47.677 47.9579 46.3479 47.9579 44.7083V19.7708C47.9579 18.1312 46.5588 16.802 44.8329 16.802H43.5829Z" fill="white"/>
<path d="M29.2079 26.8958C29.2079 25.2562 30.607 23.927 32.3329 23.927H33.5829C35.3088 23.927 36.7079 25.2562 36.7079 26.8958V44.7083C36.7079 46.3479 35.3088 47.677 33.5829 47.677H32.3329C30.607 47.677 29.2079 46.3479 29.2079 44.7083V26.8958Z" fill="white"/>
<path d="M17.9579 34.0208C17.9579 32.3812 19.357 31.052 21.0829 31.052H22.3329C24.0588 31.052 25.4579 32.3812 25.4579 34.0208V44.7083C25.4579 46.3478 24.0588 47.677 22.3329 47.677H21.0829C19.357 47.677 17.9579 46.3478 17.9579 44.7083V34.0208Z" fill="white"/>
</svg>
