<svg width="130" height="20" viewBox="0 0 130 20" fill="none" xmlns="http://www.w3.org/2000/svg">
<path d="M129.809 5.44578C130.014 5.00237 129.82 4.47722 129.377 4.27283L122.151 0.942083C121.707 0.737691 121.182 0.931455 120.978 1.37487C120.773 1.81828 120.967 2.34343 121.411 2.54782L127.834 5.50848L124.873 11.9314C124.669 12.3748 124.862 12.9 125.306 13.1044C125.749 13.3088 126.274 13.115 126.479 12.6716L129.809 5.44578ZM0.780581 1.6614C14.6649 13.9756 59.5729 31.637 129.313 5.9051L128.701 4.2463C59.409 29.8128 15.2327 12.1159 1.95379 0.338599L0.780581 1.6614Z" fill="white" fill-opacity="0.25"/>
</svg>
