<svg width="64" height="64" viewBox="0 0 64 64" fill="none" xmlns="http://www.w3.org/2000/svg">
<rect x="0.344971" width="63.3945" height="63.3945" rx="13.1161" fill="#596184"/>
<path d="M22.4503 18.2687C20.3313 18.2687 18.6135 19.9864 18.6135 22.1054V25.9422C18.6135 28.0611 20.3313 29.7789 22.4503 29.7789H26.287C28.406 29.7789 30.1238 28.0611 30.1238 25.9422V22.1054C30.1238 19.9864 28.406 18.2687 26.287 18.2687H22.4503Z" fill="white"/>
<path d="M22.4503 33.6157C20.3313 33.6157 18.6135 35.3334 18.6135 37.4524V41.2892C18.6135 43.4081 20.3313 45.1259 22.4503 45.1259H26.287C28.406 45.1259 30.1238 43.4081 30.1238 41.2892V37.4524C30.1238 35.3334 28.406 33.6157 26.287 33.6157H22.4503Z" fill="white"/>
<path d="M33.9605 22.1054C33.9605 19.9864 35.6783 18.2687 37.7973 18.2687H41.634C43.753 18.2687 45.4708 19.9864 45.4708 22.1054V25.9422C45.4708 28.0611 43.753 29.7789 41.634 29.7789H37.7973C35.6783 29.7789 33.9605 28.0611 33.9605 25.9422V22.1054Z" fill="white"/>
<path d="M39.7156 33.6157C40.7751 33.6157 41.634 34.4746 41.634 35.534V37.4524H43.5524C44.6119 37.4524 45.4708 38.3113 45.4708 39.3708C45.4708 40.4303 44.6119 41.2892 43.5524 41.2892H41.634V43.2075C41.634 44.267 40.7751 45.1259 39.7156 45.1259C38.6561 45.1259 37.7973 44.267 37.7973 43.2075V41.2892H35.8789C34.8194 41.2892 33.9605 40.4303 33.9605 39.3708C33.9605 38.3113 34.8194 37.4524 35.8789 37.4524H37.7973V35.534C37.7973 34.4746 38.6561 33.6157 39.7156 33.6157Z" fill="white"/>
</svg>
