<svg width="66" height="65" viewBox="0 0 66 65" fill="none" xmlns="http://www.w3.org/2000/svg">
<rect x="0.781616" width="64.4365" height="64.4365" rx="13.3317" fill="#596184"/>
<path d="M34.2499 33.4683C34.2499 34.1586 33.6902 34.7183 32.9999 34.7183C32.3095 34.7183 31.7499 34.1586 31.7499 33.4683C31.7499 32.7779 32.3095 32.2183 32.9999 32.2183C33.6902 32.2183 34.2499 32.7779 34.2499 33.4683Z" fill="white"/>
<path d="M25.4999 38.4683C26.1902 38.4683 26.7499 37.9086 26.7499 37.2183C26.7499 36.5279 26.1902 35.9683 25.4999 35.9683C24.8095 35.9683 24.2499 36.5279 24.2499 37.2183C24.2499 37.9086 24.8095 38.4683 25.4999 38.4683Z" fill="white"/>
<path d="M26.7499 40.9683C26.7499 41.6586 26.1902 42.2183 25.4999 42.2183C24.8095 42.2183 24.2499 41.6586 24.2499 40.9683C24.2499 40.2779 24.8095 39.7183 25.4999 39.7183C26.1902 39.7183 26.7499 40.2779 26.7499 40.9683Z" fill="white"/>
<path d="M29.2499 38.4683C29.9402 38.4683 30.4999 37.9086 30.4999 37.2183C30.4999 36.5279 29.9402 35.9683 29.2499 35.9683C28.5595 35.9683 27.9999 36.5279 27.9999 37.2183C27.9999 37.9086 28.5595 38.4683 29.2499 38.4683Z" fill="white"/>
<path d="M30.4999 40.9683C30.4999 41.6586 29.9402 42.2183 29.2499 42.2183C28.5595 42.2183 27.9999 41.6586 27.9999 40.9683C27.9999 40.2779 28.5595 39.7183 29.2499 39.7183C29.9402 39.7183 30.4999 40.2779 30.4999 40.9683Z" fill="white"/>
<path d="M32.9999 38.4683C33.6902 38.4683 34.2499 37.9086 34.2499 37.2183C34.2499 36.5279 33.6902 35.9683 32.9999 35.9683C32.3095 35.9683 31.7499 36.5279 31.7499 37.2183C31.7499 37.9086 32.3095 38.4683 32.9999 38.4683Z" fill="white"/>
<path d="M34.2499 40.9683C34.2499 41.6586 33.6902 42.2183 32.9999 42.2183C32.3095 42.2183 31.7499 41.6586 31.7499 40.9683C31.7499 40.2779 32.3095 39.7183 32.9999 39.7183C33.6902 39.7183 34.2499 40.2779 34.2499 40.9683Z" fill="white"/>
<path d="M36.7499 38.4683C37.4402 38.4683 37.9999 37.9086 37.9999 37.2183C37.9999 36.5279 37.4402 35.9683 36.7499 35.9683C36.0595 35.9683 35.4999 36.5279 35.4999 37.2183C35.4999 37.9086 36.0595 38.4683 36.7499 38.4683Z" fill="white"/>
<path d="M37.9999 40.9683C37.9999 41.6586 37.4402 42.2183 36.7499 42.2183C36.0595 42.2183 35.4999 41.6586 35.4999 40.9683C35.4999 40.2779 36.0595 39.7183 36.7499 39.7183C37.4402 39.7183 37.9999 40.2779 37.9999 40.9683Z" fill="white"/>
<path d="M40.4999 38.4683C41.1902 38.4683 41.7499 37.9086 41.7499 37.2183C41.7499 36.5279 41.1902 35.9683 40.4999 35.9683C39.8095 35.9683 39.2499 36.5279 39.2499 37.2183C39.2499 37.9086 39.8095 38.4683 40.4999 38.4683Z" fill="white"/>
<path d="M37.9999 33.4683C37.9999 34.1586 37.4402 34.7183 36.7499 34.7183C36.0595 34.7183 35.4999 34.1586 35.4999 33.4683C35.4999 32.7779 36.0595 32.2183 36.7499 32.2183C37.4402 32.2183 37.9999 32.7779 37.9999 33.4683Z" fill="white"/>
<path d="M40.4999 34.7183C41.1902 34.7183 41.7499 34.1586 41.7499 33.4683C41.7499 32.7779 41.1902 32.2183 40.4999 32.2183C39.8095 32.2183 39.2499 32.7779 39.2499 33.4683C39.2499 34.1586 39.8095 34.7183 40.4999 34.7183Z" fill="white"/>
<path fill-rule="evenodd" clip-rule="evenodd" d="M24.2499 15.9683C24.9402 15.9683 25.4999 16.5279 25.4999 17.2183V19.7183H40.4999V17.2183C40.4999 16.5279 41.0595 15.9683 41.7499 15.9683C42.4402 15.9683 42.9999 16.5279 42.9999 17.2183V19.7183H44.2499C47.0113 19.7183 49.2499 21.9568 49.2499 24.7183V43.4683C49.2499 46.2297 47.0113 48.4683 44.2499 48.4683H21.7499C18.9885 48.4683 16.7499 46.2297 16.7499 43.4683V24.7183C16.7499 21.9568 18.9885 19.7183 21.7499 19.7183H22.9999V17.2183C22.9999 16.5279 23.5595 15.9683 24.2499 15.9683ZM46.7499 30.9683C46.7499 29.5876 45.6306 28.4683 44.2499 28.4683H21.7499C20.3692 28.4683 19.2499 29.5876 19.2499 30.9683V43.4683C19.2499 44.849 20.3692 45.9683 21.7499 45.9683H44.2499C45.6306 45.9683 46.7499 44.849 46.7499 43.4683V30.9683Z" fill="white"/>
</svg>
