<svg width="135" height="21" viewBox="0 0 135 21" fill="none" xmlns="http://www.w3.org/2000/svg">
<path d="M134.697 13.0751C134.917 13.511 134.742 14.0426 134.306 14.2626L127.202 17.8472C126.767 18.0671 126.235 17.8921 126.015 17.4562C125.795 17.0203 125.97 16.4886 126.406 16.2687L132.72 13.0824L129.534 6.76832C129.314 6.33242 129.489 5.80074 129.925 5.58077C130.361 5.36081 130.892 5.53585 131.112 5.97174L134.697 13.0751ZM0.415352 19.3369C14.5543 6.87133 60.8681 -11.5039 134.184 12.6336L133.631 14.3131C60.7374 -9.68546 15.1301 8.72087 1.58465 20.6631L0.415352 19.3369Z" fill="white" fill-opacity="0.25"/>
</svg>
