<svg width="182" height="44" viewBox="0 0 182 44" fill="none" xmlns="http://www.w3.org/2000/svg">
<path d="M39.7051 35.5088C39.6347 35.0518 39.249 34.7013 38.7878 34.6756L37.6426 34.6114C33.5372 34.3806 31.5111 29.4045 30.9882 27.8848C30.4351 26.2784 29.5155 25.2302 28.7119 24.5757C29.6998 23.9208 30.5771 23.1581 31.3294 22.3004C31.5007 22.4322 31.7101 22.504 31.9284 22.504C32.0323 22.504 32.1349 22.4876 32.234 22.4554C32.5768 22.3429 32.8303 22.053 32.8954 21.6982L32.9761 21.2604C33.0018 21.1194 33.5948 17.7591 32.3212 13.4696C31.5748 10.9568 30.3405 8.63472 28.6525 6.56852C26.5613 4.00809 23.7698 1.84179 20.3559 0.129993L20.3059 0.105015C20.1704 0.0365753 20.017 0 19.8642 0H19.7041C19.5519 0 19.3999 0.0361824 19.2634 0.104034L19.2117 0.130192C15.7975 1.8418 13.0066 4.00809 10.9154 6.56852C9.2272 8.63531 7.99311 10.9572 7.24656 13.4696C5.97333 17.7564 6.56569 21.1184 6.59185 21.2594L6.67248 21.6982C6.73738 22.053 6.99089 22.3431 7.33348 22.4552C7.433 22.4876 7.53546 22.504 7.6393 22.504C7.8578 22.504 8.06706 22.4322 8.23836 22.3004C9.01166 23.1825 9.91751 23.964 10.9396 24.6313C10.1594 25.2837 9.26673 26.3187 8.72786 27.8848C8.20472 29.4045 6.17884 34.3806 2.07304 34.6114L0.92792 34.6756C0.466969 34.7013 0.0810081 35.0518 0.0111122 35.5087C-0.0584887 35.9657 0.204693 36.4153 0.637226 36.5777L1.71044 36.9815C2.6065 37.3186 3.94831 37.8236 4.16911 38.0333C4.26206 38.4353 4.50681 38.7633 4.8625 38.9614C5.08608 39.0857 5.33805 39.1486 5.61154 39.1486C5.94835 39.1486 6.27757 39.053 6.61722 38.9319C6.59342 38.9761 6.5714 39.0168 6.55193 39.0526C6.03016 40.0175 5.31761 41.3361 6.15996 42.42C6.91832 43.3947 8.83839 44 11.1713 44C12.3155 44 13.4693 43.8503 14.6006 43.5551C17.5775 42.7785 19.4048 42.6819 19.555 42.675L20.1559 42.6748C20.3071 42.6817 22.1363 42.7781 25.1154 43.5551C26.2459 43.8501 27.3988 43.9996 28.5422 43.9996C30.8768 43.9996 32.7979 43.3943 33.5557 42.42C34.3984 41.3361 33.6855 40.0179 33.1651 39.055C33.1454 39.0182 33.1228 38.9769 33.099 38.9317C33.438 39.0528 33.7677 39.1486 34.1042 39.1486C34.3777 39.1486 34.6293 39.0857 34.8525 38.9619C35.2087 38.7639 35.4537 38.4353 35.5469 38.0331C35.7682 37.8234 37.11 37.3186 38.0057 36.9815L39.0789 36.5777C39.511 36.4153 39.7745 35.9657 39.7051 35.5088Z" fill="#285DA2"/>
<path d="M8.65312 13.8882C7.74038 16.9619 7.8692 19.5308 7.97481 20.5387L8.41652 20.122L8.57681 20.3532C9.1737 21.215 9.87816 21.9553 10.6487 22.5894C9.05451 20.6012 8.72352 18.1307 8.72352 18.1307C8.72352 18.1307 8.63365 18.6306 8.51073 18.9994C8.41082 14.2026 10.4613 10.0331 11.7949 7.84061C10.125 9.97938 9.18156 12.1081 8.65312 13.8882Z" fill="#99DEEE"/>
<path d="M12.2404 16.02C12.2394 15.9968 12.238 15.9734 12.2372 15.9504C12.2266 15.9449 12.214 15.9386 12.2036 15.9329C12.2158 15.963 12.2282 15.9905 12.2404 16.02Z" fill="#6ACFEF"/>
<path d="M13.1006 21.8782C13.9242 23.1314 15.0753 24.1118 16.535 24.8145C16.5403 24.8139 16.5454 24.8137 16.5507 24.8129C16.524 24.7905 16.4986 24.7678 16.4729 24.7454C13.6668 23.2092 12.675 19.9829 12.355 17.3619C12.0946 16.9047 11.8504 16.3778 11.6236 15.7777C11.5505 17.2789 11.7005 19.7473 13.1006 21.8782Z" fill="#6ACFEF"/>
<path d="M11.7638 14.4628C11.7453 14.5643 11.7103 14.7752 11.6785 15.0717L11.87 15.1923C11.8755 15.1956 11.9973 15.2702 12.2189 15.3901C12.204 14.5614 12.2431 13.9222 12.2685 13.6115C12.0987 13.8858 11.9296 14.1686 11.7638 14.4628Z" fill="#6ACFEF"/>
<path d="M10.1992 29.7007C10.3789 29.0175 10.67 28.4137 11.0073 27.8904C11.6634 26.5924 12.8434 25.8419 13.2351 25.6197C13.2452 25.613 13.2546 25.6067 13.2638 25.6002C13.1864 25.3455 13.1393 25.1313 13.1138 24.986C12.3993 25.3129 10.846 26.2415 10.1156 28.3622C9.74348 29.4437 8.89997 31.514 7.43302 33.2327C6.17001 34.7122 4.72649 35.6232 3.13086 35.9503C3.65787 36.1528 4.08039 36.3245 4.41766 36.4875C7.66646 35.3687 9.49469 32.3784 10.1992 29.7007Z" fill="#99DEEE"/>
<path d="M11.7642 32.1119C10.9114 35.7222 7.26285 40.4367 7.93585 41.1577C8.11049 41.3447 8.42851 41.4873 8.81535 41.5723C8.09201 40.2652 11.147 35.7867 11.7642 32.1119Z" fill="#99DEEE"/>
<path d="M13.9363 34.6006C13.5659 35.4776 11.9904 39.0188 10.6413 39.1911C9.89807 39.2859 10.139 37.6122 10.5872 35.8538C9.5478 38.3873 8.33102 40.6946 8.81639 41.5721C8.57705 41.5196 8.36425 41.4451 8.19531 41.3513C9.16607 41.8899 11.5878 41.8014 12.1653 40.4692C12.419 40.4692 12.1928 41.7686 11.7112 42.5142C12.5108 42.4784 13.3651 42.3617 14.2303 42.136C15.4532 41.817 16.48 41.6081 17.2961 41.4706C11.423 41.6455 13.4774 35.7562 13.9363 34.6006Z" fill="#223C6F"/>
<path d="M27.5289 31.8648C28.713 34.8111 30.7281 36.3141 32.1897 37.0531C31.5502 36.4252 30.1224 33.1652 28.964 30.4716C28.2275 28.7604 27.4791 27.7283 26.7113 27.1133C26.6988 27.7783 26.698 29.5227 27.0134 30.1932C26.8659 29.7507 24.8501 28.4231 24.0634 29.0131C23.2767 29.6032 24.5059 32.3073 24.5059 32.3073C24.5059 32.3073 22.9935 30.358 21.5443 29.8952C20.6923 30.0315 19.6631 29.9884 18.423 29.6618C18.3087 29.6476 18.1929 29.6313 18.0756 29.612C16.7554 29.3959 15.7898 28.9022 15.0857 28.3329C15.7422 29.2346 17.0359 30.3241 19.54 30.734C23.1456 31.324 24.1456 33.6183 25.1942 37.224C26.0193 40.0606 25.1396 41.4558 22.8118 41.5393C23.5574 41.6752 24.4516 41.8662 25.4853 42.1358C26.2148 42.3262 26.9365 42.4389 27.6241 42.4912C27.1525 41.7423 26.9334 40.4691 27.1847 40.4691C27.5065 41.2119 28.4019 41.5679 29.2999 41.6442C28.3962 40.6803 25.6159 37.56 24.9323 34.9624C24.1126 31.8483 25.6859 34.5364 26.0793 35.88C25.8826 33.389 24.8339 31.4223 25.9156 31.5207C26.8992 31.6101 28.914 39.5373 30.9724 41.4379C31.1582 41.3612 31.3104 41.267 31.4131 41.1574C32.1014 40.4199 28.2664 35.5032 27.5289 31.8648Z" fill="#223C6F"/>
<path d="M19.8172 28.2512V28.2521C19.8032 28.2521 19.7902 28.2515 19.7767 28.2513C19.7633 28.2515 19.7499 28.2521 19.7366 28.2521V28.2512C18.9613 28.2451 18.2787 28.153 17.68 28.0067C17.252 28.163 16.3562 28.2826 14.916 27.5325C15.5988 28.2464 16.6213 28.8836 18.154 29.1348C19.9781 29.4335 21.6067 29.0982 23.0132 28.1391C21.6788 28.6588 20.1728 28.6785 19.0588 28.5989C21.2202 28.5989 22.6535 27.9471 23.464 27.4141C22.5831 27.8739 21.3899 28.2388 19.8172 28.2512Z" fill="#223C6F"/>
<path d="M21.5152 26.1416C21.0786 26.1947 20.6434 26.2295 20.2142 26.2441C20.2097 26.2449 20.2054 26.2459 20.2009 26.247L20.2001 26.2441C20.0968 26.2474 19.9934 26.2502 19.8909 26.2512L19.8817 26.2555L19.7656 26.2533C20.3303 26.4376 20.8337 26.6947 20.1462 26.8992C20.1747 27.2666 21.1757 27.439 20.5696 27.7317C21.3232 27.6654 21.9689 27.5118 22.5231 27.3075C22.4682 27.1653 22.3687 26.9668 22.0474 26.768C24.6086 26.1556 22.2765 26.1342 21.5152 26.1416Z" fill="#223C6F"/>
<path d="M17.3105 26.6379C16.7225 26.385 16.3584 26.0119 16.1889 25.8023C15.7165 25.6882 15.2474 25.5555 14.7888 25.4003C15.0754 25.6953 15.7991 26.269 17.3105 26.6379Z" fill="#99DEEE"/>
<path d="M16.2025 26.6603C15.7852 26.5118 15.3621 26.2976 14.9397 25.9934C15.4145 26.4713 16.1032 26.9767 17.0722 27.3252C16.5833 27.0866 16.3276 26.8253 16.2025 26.6603Z" fill="#99DEEE"/>
<path d="M29.2009 17.3562C28.9769 16.8099 28.7424 16.2877 28.4997 15.791L28.4319 15.6899C28.5212 17.2475 28.3804 19.8445 26.8739 22.1398C26.4569 22.7748 25.9566 23.3381 25.3865 23.8396C27.766 22.4063 28.8927 18.5866 29.2009 17.3562Z" fill="#223C6F"/>
<path d="M15.3 19.0481C16.0644 19.0481 16.912 18.64 17.8232 17.8335C15.0787 17.297 13.1238 16.4123 12.2036 15.9329C13.044 18.0008 14.0838 19.0481 15.3 19.0481Z" fill="white"/>
<path d="M14.2183 18.7454C14.5613 18.9468 14.922 19.0481 15.3 19.0481C16.0644 19.0481 16.912 18.64 17.8232 17.8335C15.0787 17.297 13.1238 16.4123 12.2036 15.9329C12.2158 15.9637 12.2288 15.9921 12.2416 16.0224C12.6805 16.3707 14.3115 17.5239 17.1638 17.967C15.9832 18.8062 15.1979 19.0151 14.2183 18.7454Z" fill="#B1B1B0"/>
<path d="M24.265 19.0481C23.5001 19.0481 22.6527 18.64 21.7417 17.8335C24.4862 17.297 26.4405 16.4123 27.3613 15.9329C26.5207 18.0008 25.4806 19.0481 24.265 19.0481Z" fill="white"/>
<path d="M25.3466 18.7454C25.0034 18.9468 24.6426 19.0481 24.265 19.0481C23.5001 19.0481 22.6527 18.64 21.7417 17.8335C24.4862 17.297 26.4405 16.4123 27.3613 15.9329C27.3487 15.9637 27.3359 15.9921 27.3233 16.0224C26.8842 16.3707 25.2532 17.5239 22.4011 17.967C23.5811 18.8062 24.3672 19.0151 25.3466 18.7454Z" fill="#B1B1B0"/>
<path d="M34.1042 38.165C34.0719 38.165 34.0381 38.1629 34.0035 38.1591C34.044 38.1635 34.0823 38.1642 34.1199 38.1635C34.1146 38.1635 34.1095 38.165 34.1042 38.165ZM31.4135 41.1565C30.7252 41.8941 27.8244 41.9432 27.1852 40.4682C26.9338 40.4682 27.1529 41.7414 27.6245 42.4904C26.937 42.438 26.2152 42.3253 25.4858 42.135C22.157 41.2667 20.2656 41.2095 20.1806 41.2075H19.5293C19.45 41.2095 17.5591 41.2667 14.2304 42.135C13.3653 42.3607 12.511 42.4774 11.7113 42.5132C12.193 41.7676 12.4191 40.4682 12.1654 40.4682C11.5263 41.9432 8.6254 41.8941 7.93706 41.1565C7.24872 40.419 11.0838 35.5023 11.8213 31.864C10.0668 36.2286 6.48879 37.4271 5.59004 37.6649C5.42486 36.9229 4.80028 36.5919 3.13045 35.9501C4.72608 35.6231 6.1696 34.7121 7.43261 33.2326C8.89956 31.5139 9.74307 29.4436 10.1152 28.3621C10.8456 26.2414 12.3989 25.3128 13.1134 24.9859C13.1389 25.1318 13.1863 25.3468 13.2642 25.6028C12.8998 25.8058 11.6525 26.5754 10.9854 27.9306C12.5096 26.6031 13.6896 25.9639 12.8784 28.6189C13.3649 27.8718 13.6664 27.1754 13.8017 26.8304C13.8182 26.8584 13.832 26.8857 13.8489 26.9138C14.4623 27.929 15.6939 29.2209 18.0761 29.6111C18.1933 29.6304 18.3091 29.6467 18.4234 29.6609C19.6636 29.9876 20.6928 30.0306 21.5447 29.8943C22.994 30.3571 24.5064 32.3065 24.5064 32.3065C24.5064 32.3065 23.2772 29.6023 24.0639 29.0123C24.8505 28.4223 26.8664 29.7498 27.0139 30.1923C26.6984 29.5219 26.6992 27.7774 26.7118 27.1125C27.4796 27.7274 28.2279 28.7596 28.9644 30.4708C30.1228 33.1643 31.5506 36.4243 32.1902 37.0523C30.7285 36.3132 28.7135 34.8103 27.5294 31.864C28.2669 35.5023 32.1019 40.419 31.4135 41.1565ZM11.1713 43.0164C11.1504 43.0164 11.1306 43.0153 11.1097 43.0153C11.1386 43.0157 11.1667 43.016 11.1955 43.016C11.1874 43.016 11.1793 43.0164 11.1713 43.0164ZM5.61154 38.165C5.60617 38.165 5.60157 38.1635 5.59618 38.1635C5.67331 38.165 5.75699 38.1556 5.84687 38.1369C5.76329 38.1542 5.68462 38.165 5.61154 38.165ZM8.57702 20.3524L8.41673 20.1211L7.97502 20.5378C7.86941 19.5299 7.74059 16.961 8.65333 13.8873C9.735 10.245 12.5444 5.14344 19.784 1.48462C19.7873 1.48639 19.7905 1.48816 19.794 1.48954L19.784 1.53418V1.48462C19.784 1.48462 11.5263 7.1821 10.0512 13.7705C12.9521 9.59129 14.9188 8.60795 14.9188 8.60795C14.9188 8.60795 13.3846 10.704 12.0934 12.9836C11.827 13.397 11.5626 13.832 11.3044 14.2924L11.3036 14.2922C11.3036 14.2928 11.3034 14.294 11.3034 14.2946C10.5999 15.549 9.93855 16.9795 9.37549 18.6038L9.22563 19.0361L9.66715 18.9169C9.73776 18.8978 9.80325 18.8823 9.86087 18.8701C9.98163 19.3932 10.3638 20.6802 11.4197 22.0563C12.1603 23.0218 13.3315 24.1394 15.1349 24.9977C12.6901 24.2016 10.2271 22.7342 8.57702 20.3524ZM15.3005 19.5311C15.6996 19.5311 16.1133 19.4383 16.5389 19.2566C16.3134 19.487 15.9704 19.7685 15.5098 19.9579C16.7358 19.7504 17.5978 19.0658 18.1365 18.4734C17.8253 19.0731 16.6967 20.8199 14.2959 20.3424C14.2635 20.5719 14.8535 20.8997 14.8535 20.8997C14.8535 20.8997 14.5146 23.1254 16.5781 24.8352C15.0979 24.131 13.9331 23.1427 13.101 21.877C11.7009 19.7461 11.5508 17.2777 11.624 15.7765C12.5651 18.2681 13.8013 19.5311 15.3005 19.5311ZM17.8238 17.8325C16.9126 18.639 16.065 19.0471 15.3005 19.0471C14.0843 19.0471 13.0445 17.9998 12.2042 15.9319C13.1244 16.4114 15.0793 17.296 17.8238 17.8325ZM13.0607 15.8076C12.3005 15.4565 11.8807 15.1973 11.8706 15.191L11.6791 15.0705C11.7109 14.7739 11.7459 14.5631 11.7644 14.4616C13.2013 11.9175 14.8096 10.1268 16.0905 8.95487C17.9048 7.29577 19.4245 6.527 19.784 6.35727C19.784 6.35727 13.6975 10.0987 13.0607 15.8076ZM19.8823 26.2544L19.8915 26.2501C19.994 26.2491 20.0975 26.2463 20.2007 26.243L20.2015 26.2459C20.206 26.2448 20.2103 26.2438 20.2149 26.243C20.644 26.2284 21.0792 26.1936 21.5158 26.1405C22.2771 26.1331 24.6092 26.1545 22.048 26.7669C22.3694 26.9657 22.4689 27.1642 22.5237 27.3064C21.7839 27.579 20.8814 27.7617 19.7773 27.7662C17.2629 27.7562 15.7741 26.831 14.9406 25.9922C16.3285 26.9913 17.7207 27.0297 18.9139 26.9038C16.2742 26.6434 15.1632 25.7844 14.7896 25.3995C16.2687 25.8996 17.8464 26.1924 19.3531 26.243C19.3576 26.2438 19.3621 26.2448 19.3662 26.2459L19.367 26.243C19.4717 26.2465 19.5765 26.2493 19.6803 26.2501L19.6805 26.2505L19.8823 26.2544ZM27.3242 16.0214C26.6929 17.5406 25.9513 18.4929 25.1086 18.8658C25.0852 18.876 25.0618 18.8845 25.0382 18.8939C24.9797 18.9173 24.9207 18.9385 24.8611 18.9564C24.8338 18.9649 24.8063 18.9726 24.7782 18.9798C24.7194 18.9952 24.66 19.0072 24.6 19.017C24.5742 19.0213 24.5484 19.0266 24.5227 19.0298C24.4379 19.0404 24.3522 19.0471 24.2658 19.0471C23.501 19.0471 22.6535 18.639 21.7426 17.8325C24.4871 17.296 26.4414 16.4114 27.3622 15.9319C27.3496 15.9628 27.3368 15.9911 27.3242 16.0214ZM28.4297 15.6436C28.8433 16.477 29.2351 17.3794 29.5908 18.3566C29.5639 18.3525 29.5481 18.3503 29.5462 18.3503L29.3116 18.3208L29.2765 18.5546C29.2742 18.5702 29.0343 20.1064 27.764 21.7619C27.1828 22.5189 26.3216 23.3744 25.0712 24.1109C25.7776 23.5465 26.381 22.8898 26.874 22.1389C28.3947 19.8218 28.5245 17.1957 28.4297 15.6436ZM23.0138 28.1381C21.6073 29.0972 19.9787 29.4326 18.1546 29.1338C14.4981 28.5346 13.7388 25.7419 13.595 24.9391C13.5976 24.9401 13.6007 24.9414 13.6035 24.9426C13.7228 25.1989 14.0863 25.8788 14.848 26.5598C15.7023 27.3231 17.2414 28.2307 19.7372 28.2502V28.2512C19.7505 28.2512 19.7639 28.2506 19.7773 28.2504C19.7908 28.2506 19.8038 28.2512 19.8178 28.2512V28.2502C21.3905 28.2378 22.5837 27.873 23.4646 27.4132C22.6541 27.9461 21.2208 28.5979 19.0594 28.5979C20.1734 28.6776 21.6795 28.6579 23.0138 28.1381ZM30.0786 16.0157C29.8819 14.2456 29.2919 12.869 29.2919 12.869C29.2919 12.869 30.9964 15.098 30.8981 19.1297C28.9314 21.8339 26.9488 24.2448 24.4328 24.9977C26.2366 24.1394 27.4074 23.0218 28.1481 22.0563C29.204 20.6802 29.5861 19.3932 29.7069 18.8701C29.7645 18.8823 29.8302 18.8978 29.9008 18.9169L30.3421 19.0361L30.1922 18.6038C29.6292 16.9797 28.9678 15.5492 28.2649 14.2948C28.2645 14.294 28.2645 14.293 28.2641 14.2922L28.2633 14.2924C26.781 11.6488 25.1125 9.79209 23.786 8.5814C22.782 7.66551 21.8777 7.02083 21.1921 6.58954C23.4086 7.8315 27.606 10.7438 30.0786 16.0157ZM39.3159 35.568C39.2736 35.2923 39.0445 35.0838 38.7658 35.0683L37.6208 35.004C33.2703 34.7595 31.1595 29.5909 30.6161 28.0124C30.0048 26.2375 28.9324 25.1706 28.0191 24.5489C29.2978 23.7748 30.3948 22.8316 31.2944 21.733L31.5233 21.9493C31.6348 22.0544 31.7803 22.1104 31.9284 22.1104C31.99 22.1104 32.0519 22.1008 32.1119 22.0813C32.3172 22.014 32.4698 21.8396 32.5086 21.627L32.5892 21.189C32.6146 21.051 33.1893 17.7745 31.9444 13.5815C31.2129 11.1188 30.003 8.84296 28.3477 6.81708C26.2919 4.29992 23.5441 2.16824 20.1797 0.481613L20.1297 0.456238C20.0475 0.414742 19.9562 0.393112 19.8642 0.393112H19.7041C19.6119 0.393112 19.5216 0.414745 19.4394 0.455654L19.3879 0.481613C16.0237 2.16824 13.2758 4.29992 11.22 6.81708C9.56488 8.84336 8.35498 11.1192 7.62357 13.5815C6.37846 17.7741 6.95313 21.051 6.9785 21.1882L7.05913 21.627C7.09807 21.8396 7.25049 22.014 7.45601 22.0813C7.51599 22.1008 7.57775 22.1104 7.6393 22.1104C7.7874 22.1104 7.93313 22.0544 8.04464 21.9493L8.27356 21.733C9.1918 22.855 10.3162 23.8147 11.6291 24.5977C10.7398 25.2211 9.69665 26.2792 9.09957 28.0124C8.55657 29.5909 6.44533 34.7595 2.09533 35.004L0.950205 35.0683C0.671781 35.0838 0.442093 35.2923 0.399829 35.568C0.3579 35.8437 0.514309 36.1112 0.775504 36.2094L1.84904 36.6131C3.85796 37.3693 4.49222 37.6468 4.54477 37.9098C4.60623 38.2175 4.78677 38.4689 5.05335 38.6172C5.2182 38.7086 5.40567 38.755 5.61154 38.755C5.97412 38.755 6.34543 38.6152 6.77613 38.4535C6.92324 38.3981 7.17281 38.3043 7.38187 38.2441C7.26977 38.5517 7.03121 38.9932 6.89708 39.2408C6.40167 40.1573 5.78551 41.2972 6.4707 42.1782C7.14567 43.0457 8.99061 43.6064 11.1713 43.6064C12.2821 43.6064 13.4025 43.4609 14.5011 43.1742C17.5626 42.3757 19.4152 42.287 19.5462 42.2815L20.1637 42.2813C20.2963 42.2868 22.1465 42.3739 25.2146 43.1742C26.3132 43.4609 27.4328 43.6061 28.5422 43.6061C30.7254 43.6061 32.5705 43.0457 33.2453 42.1782C33.9305 41.2972 33.3142 40.1573 32.8189 39.2416C32.685 38.9934 32.4463 38.5525 32.3342 38.2449C32.5446 38.3049 32.7928 38.3983 32.9395 38.4533C33.3702 38.6152 33.7415 38.755 34.1042 38.755C34.3101 38.755 34.4975 38.7086 34.6615 38.6178C34.929 38.4689 35.1095 38.2175 35.1713 37.9094C35.2234 37.6468 35.8577 37.3693 37.867 36.6131L38.9402 36.2094C39.2014 36.1112 39.3582 35.8437 39.3159 35.568Z" fill="#100F0D"/>
<path d="M55.543 34.0659H49.7163L54.4453 14.6962H51.6044L52.7508 9.93486H64.5017L63.3071 14.6962H60.3207L55.543 34.0659Z" fill="white"/>
<path d="M71.6849 14.7929L70.3612 19.5869H72.0075L73.1697 14.7929H71.6849ZM60.8538 34.0981L66.875 9.91833H75.9785C77.1621 9.94008 78.034 10.1927 78.5934 10.677C79.2277 11.1831 79.589 12.049 79.6747 13.2755L77.4633 21.4435C77.3342 21.9597 77.1086 22.4118 76.785 22.799C76.5057 23.1116 76.1932 23.38 75.8494 23.6064C75.5047 23.8216 75.1764 24.0098 74.8642 24.1709C74.5421 24.2684 74.273 24.3651 74.0583 24.4614L75.6716 34.0981H69.7962L68.6824 26.4797L66.8582 34.0981H60.8538Z" fill="white"/>
<path d="M96.8483 9.93486L90.7308 34.0659H81.4659C79.7976 34.0659 78.7808 33.6839 78.4147 32.9196C78.06 32.1669 78.06 31.0367 78.4147 29.5298L83.2734 9.93486H89.3105L84.3714 29.2393H86.1301L90.7308 9.93486H96.8483Z" fill="white"/>
<path d="M94.0403 29.8691L98.3983 12.7755C98.6775 11.6779 99.0704 10.941 99.5764 10.5642C100.114 10.1875 101.018 9.99932 102.288 9.99932H109.713C110.94 9.99932 111.887 10.2785 112.554 10.8382C113.242 11.4087 113.447 12.3987 113.167 13.8086L112.328 17.731H106.533L107.26 14.8094H103.934L100.335 29.3038H103.515L104.128 27.0925H102.191L103.563 22.0403H111.117L108.858 31.0476C108.642 31.8116 108.405 32.3978 108.147 32.8068C107.889 33.2161 107.593 33.5119 107.26 33.6944C106.904 33.8882 106.506 34.0176 106.066 34.082C105.624 34.1143 105.102 34.1143 104.5 34.082H96.978C95.2128 34.1143 94.1849 33.7484 93.8944 32.9849C93.6579 32.2314 93.7066 31.1927 94.0403 29.8691Z" fill="white"/>
<path d="M119.866 19.5708H121.335L122.529 14.7445H120.915L119.866 19.5708ZM110.036 34.0659L115.411 13.1792C115.734 12.1352 116.121 11.3229 116.573 10.7415C117.025 10.1822 117.94 9.90221 119.318 9.90221H125.757C126.587 9.90221 127.227 9.96185 127.678 10.0799C128.184 10.2092 128.55 10.4296 128.776 10.7415C128.992 11.1186 129.083 11.6457 129.051 12.3234C128.986 12.9261 128.809 13.7332 128.518 14.7445L123.692 34.1143H117.59L120.124 24.4614H118.461L116.073 34.1143L110.036 34.0659Z" fill="white"/>
<path d="M133.683 34.1143L138.493 14.7768H136.459L131.715 34.1143H125.904L131.795 9.96708H148.856C150.276 9.98843 151.282 10.3329 151.874 11.0002C152.401 11.6565 152.445 12.9157 152.003 14.7768L147.436 34.1143H141.592L146.387 14.7768H144.208L139.478 34.1143H133.683Z" fill="white"/>
<path d="M149.372 34.0981L155.538 9.8861H167.24L165.868 14.728H160.316L159.138 19.5546H164.626L163.431 24.4296H157.879L156.588 29.2719H162.221L161.042 34.0981H149.372Z" fill="white"/>
<path d="M173.795 14.7929L172.471 19.5869H174.117L175.279 14.7929H173.795ZM162.963 34.0981L168.984 9.91833H178.088C179.272 9.94008 180.143 10.1927 180.703 10.677C181.338 11.1831 181.697 12.049 181.784 13.2755L179.573 21.4435C179.444 21.9597 179.218 22.4118 178.896 22.799C178.615 23.1116 178.304 23.38 177.959 23.6064C177.614 23.8216 177.286 24.0098 176.974 24.1709C176.652 24.2684 176.382 24.3651 176.167 24.4614L177.782 34.0981H171.906L170.792 26.4797L168.968 34.0981H162.963Z" fill="white"/>
</svg>
