<svg width="473" height="150" viewBox="0 0 473 150" fill="none" xmlns="http://www.w3.org/2000/svg">
    <path
        d="M99.7066 117.593H106.533L113.744 135.184H114.05L121.261 117.593H128.087V143.775H122.718V126.733H122.501L115.725 143.647H112.069L105.293 126.669H105.076V143.775H99.7066V117.593ZM145.161 143.775H139.229L148.267 117.593H155.401L164.426 143.775H158.495L151.936 123.576H151.732L145.161 143.775ZM144.79 133.483H158.801V137.804H144.79V133.483ZM197.477 117.593V143.775H192.696L181.305 127.296H181.113V143.775H175.578V117.593H180.436L191.737 134.059H191.967V117.593H197.477ZM215.586 117.593V143.775H210.05V117.593H215.586ZM228.14 143.775V117.593H245.475V122.157H233.676V128.395H244.325V132.959H233.676V143.775H228.14ZM257.199 143.775V117.593H274.841V122.157H262.734V128.395H273.933V132.959H262.734V139.211H274.892V143.775H257.199ZM301.445 125.123C301.343 124.091 300.904 123.29 300.128 122.719C299.353 122.148 298.3 121.863 296.97 121.863C296.067 121.863 295.304 121.99 294.682 122.246C294.06 122.493 293.583 122.838 293.25 123.282C292.926 123.725 292.764 124.228 292.764 124.79C292.747 125.259 292.845 125.668 293.059 126.017C293.28 126.367 293.583 126.669 293.966 126.925C294.35 127.172 294.793 127.39 295.296 127.577C295.799 127.756 296.336 127.909 296.907 128.037L299.259 128.6C300.401 128.856 301.449 129.196 302.404 129.623C303.358 130.049 304.185 130.573 304.884 131.195C305.583 131.817 306.124 132.55 306.507 133.394C306.899 134.238 307.1 135.205 307.108 136.296C307.1 137.898 306.691 139.287 305.881 140.463C305.08 141.631 303.921 142.539 302.404 143.186C300.895 143.826 299.076 144.145 296.945 144.145C294.831 144.145 292.99 143.821 291.422 143.174C289.862 142.526 288.644 141.567 287.766 140.297C286.897 139.019 286.441 137.438 286.398 135.554H291.755C291.814 136.432 292.066 137.165 292.509 137.753C292.961 138.333 293.561 138.772 294.311 139.07C295.07 139.36 295.926 139.505 296.881 139.505C297.818 139.505 298.632 139.368 299.323 139.096C300.022 138.823 300.563 138.444 300.946 137.958C301.33 137.472 301.522 136.914 301.522 136.283C301.522 135.695 301.347 135.201 300.997 134.8C300.657 134.4 300.154 134.059 299.489 133.777C298.833 133.496 298.027 133.24 297.073 133.01L294.222 132.294C292.014 131.757 290.272 130.918 288.993 129.776C287.715 128.634 287.08 127.096 287.088 125.161C287.08 123.576 287.502 122.191 288.354 121.006C289.215 119.821 290.395 118.897 291.895 118.232C293.395 117.567 295.1 117.235 297.009 117.235C298.952 117.235 300.648 117.567 302.097 118.232C303.554 118.897 304.688 119.821 305.497 121.006C306.307 122.191 306.725 123.563 306.75 125.123H301.445ZM317.834 122.157V117.593H339.337V122.157H331.322V143.775H325.85V122.157H317.834ZM373.743 130.684C373.743 133.539 373.202 135.968 372.119 137.971C371.045 139.973 369.579 141.503 367.722 142.56C365.872 143.608 363.793 144.132 361.483 144.132C359.156 144.132 357.068 143.604 355.219 142.547C353.369 141.49 351.908 139.961 350.834 137.958C349.76 135.955 349.223 133.53 349.223 130.684C349.223 127.829 349.76 125.4 350.834 123.397C351.908 121.394 353.369 119.868 355.219 118.82C357.068 117.763 359.156 117.235 361.483 117.235C363.793 117.235 365.872 117.763 367.722 118.82C369.579 119.868 371.045 121.394 372.119 123.397C373.202 125.4 373.743 127.829 373.743 130.684ZM368.131 130.684C368.131 128.834 367.854 127.275 367.3 126.005C366.754 124.735 365.983 123.772 364.986 123.115C363.989 122.459 362.821 122.131 361.483 122.131C360.145 122.131 358.977 122.459 357.98 123.115C356.983 123.772 356.207 124.735 355.653 126.005C355.108 127.275 354.835 128.834 354.835 130.684C354.835 132.533 355.108 134.093 355.653 135.363C356.207 136.632 356.983 137.596 357.98 138.252C358.977 138.908 360.145 139.236 361.483 139.236C362.821 139.236 363.989 138.908 364.986 138.252C365.983 137.596 366.754 136.632 367.3 135.363C367.854 134.093 368.131 132.533 368.131 130.684Z"
        fill="#00ADFF" />
    <path
        d="M20.8681 86.6021H0L16.9369 17.2296H6.7621L10.8681 0.176888H52.9537L48.6752 17.2296H37.9796L20.8681 86.6021Z"
        fill="white" />
    <path
        d="M78.6808 17.5736L73.94 34.7432H79.8363L83.9986 17.5736H78.6808ZM39.8893 86.7152L61.4542 0.115425H94.0584C98.2974 0.193352 101.42 1.09816 103.424 2.83273C105.695 4.64522 106.99 7.74635 107.296 12.139L99.3764 41.3929C98.914 43.2414 98.1058 44.8605 96.9468 46.2473C95.9468 47.3672 94.8273 48.3282 93.5962 49.1392C92.3616 49.9098 91.1858 50.5837 90.0675 51.161C88.9142 51.5102 87.9502 51.8565 87.1813 52.2014L92.9592 86.7152H71.9164L67.9277 59.4297L61.3943 86.7152H39.8893Z"
        fill="white" />
    <path
        d="M168.806 0.176888L146.896 86.6021H113.714C107.739 86.6021 104.097 85.234 102.786 82.4965C101.515 79.8009 101.515 75.7531 102.786 70.356L120.187 0.176888H141.809L124.12 69.3156H130.418L146.896 0.176888H168.806Z"
        fill="white" />
    <path
        d="M158.747 71.5723L174.356 10.3517C175.356 6.42079 176.763 3.78143 178.575 2.43216C180.5 1.08289 183.738 0.408981 188.287 0.408981H214.88C219.274 0.408981 222.665 1.40903 225.055 3.41344C227.518 5.45683 228.254 9.00243 227.25 14.0517L224.244 28.1H203.49L206.093 17.6363H194.183L181.292 69.5477H192.682L194.877 61.6281H187.941L192.853 43.5335H219.909L211.816 75.7933C211.044 78.5293 210.195 80.629 209.272 82.0937C208.347 83.5598 207.288 84.619 206.093 85.2727C204.82 85.9669 203.394 86.4301 201.816 86.661C200.233 86.7764 198.364 86.7764 196.208 86.661H169.269C162.947 86.7764 159.265 85.4661 158.225 82.7315C157.378 80.033 157.552 76.3128 158.747 71.5723Z"
        fill="white" />
    <path
        d="M251.239 34.6871H256.499L260.778 17.4021H254.997L251.239 34.6871ZM216.034 86.6014L235.284 11.7958C236.44 8.05679 237.827 5.14757 239.446 3.06522C241.065 1.06226 244.34 0.0593109 249.275 0.0593109H272.338C275.309 0.0593109 277.601 0.272896 279.219 0.695709C281.031 1.15894 282.341 1.9483 283.151 3.06522C283.923 4.41594 284.249 6.30346 284.135 8.7307C283.903 10.8895 283.266 13.78 282.226 17.4021L264.941 86.7745H243.089L252.164 52.203H246.208L237.654 86.7745L216.034 86.6014Z"
        fill="white" />
    <path
        d="M300.726 86.7745L317.954 17.5175H310.668L293.675 86.7745H272.864L293.963 0.291649H355.068C360.155 0.368134 363.756 1.60194 365.876 3.99166C367.765 6.34241 367.92 10.852 366.338 17.5175L349.981 86.7745H329.052L346.223 17.5175H338.419L321.48 86.7745H300.726Z"
        fill="white" />
    <path
        d="M356.916 86.7152L379 -1.52588e-05H420.911L415.996 17.3413H396.112L391.891 34.6278H411.547L407.269 52.0874H387.383L382.758 69.4302H402.934L398.711 86.7152H356.916Z"
        fill="white" />
    <path
        d="M444.384 17.5736L439.645 34.7432H445.539L449.702 17.5736H444.384ZM405.592 86.7152L427.157 0.115425H459.762C464.003 0.193352 467.123 1.09816 469.127 2.83273C471.401 4.64522 472.689 7.74635 472.999 12.139L465.079 41.3929C464.617 43.2414 463.808 44.8605 462.653 46.2473C461.649 47.3672 460.534 48.3282 459.298 49.1392C458.065 49.9098 456.888 50.5837 455.773 51.161C454.617 51.5102 453.653 51.8565 452.881 52.2014L458.665 86.7152H437.619L433.631 59.4297L427.098 86.7152H405.592Z"
        fill="white" />
</svg>