<svg width="40" height="44" viewBox="0 0 40 44" fill="none" xmlns="http://www.w3.org/2000/svg">
<path d="M39.7051 35.5088C39.6347 35.0518 39.249 34.7013 38.7878 34.6756L37.6426 34.6114C33.5372 34.3806 31.5111 29.4045 30.9882 27.8848C30.4351 26.2784 29.5155 25.2302 28.7119 24.5757C29.6998 23.9208 30.5771 23.1581 31.3294 22.3004C31.5007 22.4322 31.7101 22.504 31.9284 22.504C32.0323 22.504 32.1349 22.4876 32.234 22.4554C32.5768 22.3429 32.8303 22.053 32.8954 21.6982L32.9761 21.2604C33.0018 21.1194 33.5948 17.7591 32.3212 13.4696C31.5748 10.9568 30.3405 8.63472 28.6525 6.56852C26.5613 4.0081 23.7698 1.84179 20.3559 0.129992L20.3059 0.105017C20.1704 0.0365761 20.017 -1.14076e-06 19.8642 -1.14076e-06H19.7041C19.5519 -1.14076e-06 19.3999 0.0361827 19.2634 0.104033L19.2117 0.130192C15.7975 1.8418 13.0066 4.0081 10.9154 6.56852C9.2272 8.63531 7.99311 10.9572 7.24656 13.4696C5.97333 17.7564 6.56569 21.1184 6.59185 21.2594L6.67248 21.6982C6.73738 22.053 6.99089 22.3431 7.33348 22.4552C7.433 22.4876 7.53546 22.504 7.6393 22.504C7.8578 22.504 8.06706 22.4322 8.23836 22.3004C9.01166 23.1825 9.91751 23.964 10.9396 24.6313C10.1594 25.2837 9.26673 26.3187 8.72786 27.8848C8.20472 29.4045 6.17884 34.3806 2.07304 34.6114L0.92792 34.6756C0.466969 34.7013 0.0810081 35.0518 0.0111122 35.5087C-0.0584887 35.9657 0.204693 36.4153 0.637226 36.5777L1.71044 36.9815C2.6065 37.3186 3.94831 37.8236 4.16911 38.0333C4.26206 38.4353 4.50681 38.7633 4.8625 38.9614C5.08608 39.0857 5.33805 39.1486 5.61154 39.1486C5.94835 39.1486 6.27757 39.053 6.61722 38.9319C6.59342 38.9761 6.5714 39.0168 6.55193 39.0526C6.03016 40.0175 5.31761 41.3361 6.15996 42.42C6.91832 43.3947 8.83839 44 11.1713 44C12.3155 44 13.4693 43.8503 14.6006 43.5551C17.5775 42.7785 19.4048 42.6819 19.555 42.675L20.1559 42.6748C20.3071 42.6817 22.1363 42.7781 25.1154 43.5551C26.2459 43.8501 27.3988 43.9996 28.5422 43.9996C30.8768 43.9996 32.7979 43.3943 33.5557 42.42C34.3984 41.3361 33.6855 40.0179 33.1651 39.055C33.1454 39.0182 33.1228 38.9769 33.099 38.9317C33.438 39.0528 33.7677 39.1486 34.1042 39.1486C34.3777 39.1486 34.6293 39.0857 34.8525 38.9619C35.2087 38.7639 35.4537 38.4353 35.5469 38.0331C35.7682 37.8234 37.11 37.3186 38.0057 36.9815L39.0789 36.5777C39.511 36.4153 39.7745 35.9657 39.7051 35.5088" fill="#285DA2"/>
<path d="M8.65312 13.8883C7.74038 16.962 7.8692 19.5309 7.97481 20.5388L8.41652 20.1221L8.57681 20.3534C9.1737 21.2152 9.87816 21.9554 10.6487 22.5895C9.05451 20.6014 8.72352 18.1308 8.72352 18.1308C8.72352 18.1308 8.63365 18.6307 8.51073 18.9995C8.41082 14.2028 10.4613 10.0332 11.7949 7.84073C10.125 9.9795 9.18156 12.1082 8.65312 13.8883" fill="#99DEEE"/>
<path d="M12.2404 16.0201C12.2395 15.9969 12.2381 15.9735 12.2373 15.9505C12.2267 15.945 12.2141 15.9387 12.2037 15.933C12.2159 15.963 12.2283 15.9906 12.2404 16.0201" fill="#6ACFEF"/>
<path d="M13.1005 21.8782C13.9241 23.1314 15.0752 24.1118 16.5349 24.8145C16.5402 24.8139 16.5453 24.8137 16.5506 24.8129C16.5239 24.7905 16.4985 24.7678 16.4727 24.7454C13.6667 23.2092 12.6749 19.9829 12.3549 17.3619C12.0945 16.9047 11.8502 16.3778 11.6235 15.7777C11.5503 17.2789 11.7004 19.7473 13.1005 21.8782" fill="#6ACFEF"/>
<path d="M11.7637 14.4628C11.7452 14.5643 11.7102 14.7751 11.6783 15.0717L11.8699 15.1922C11.8754 15.1956 11.9971 15.2701 12.2188 15.3901C12.2038 14.5613 12.243 13.9221 12.2683 13.6114C12.0986 13.8858 11.9295 14.1686 11.7637 14.4628" fill="#6ACFEF"/>
<path d="M10.1991 29.7006C10.3789 29.0174 10.6699 28.4136 11.0072 27.8903C11.6633 26.5923 12.8433 25.8418 13.2351 25.6196C13.2451 25.6129 13.2545 25.6066 13.2638 25.6001C13.1863 25.3454 13.1393 25.1312 13.1137 24.9859C12.3992 25.3128 10.8459 26.2414 10.1155 28.3621C9.74342 29.4436 8.89991 31.5139 7.43296 33.2326C6.16995 34.7121 4.72643 35.6231 3.1308 35.9502C3.65781 36.1527 4.08033 36.3244 4.4176 36.4875C7.6664 35.3686 9.49463 32.3783 10.1991 29.7006" fill="#99DEEE"/>
<path d="M11.7643 32.1119C10.9116 35.7222 7.26298 40.4367 7.93597 41.1577C8.11062 41.3447 8.42863 41.4873 8.81547 41.5723C8.09213 40.2652 11.1472 35.7867 11.7643 32.1119Z" fill="#99DEEE"/>
<path d="M13.9361 34.6006C13.5658 35.4775 11.9903 39.0187 10.6412 39.191C9.89794 39.2858 10.1389 37.6121 10.5871 35.8537C9.54768 38.3872 8.33089 40.6945 8.81627 41.5721C8.57693 41.5195 8.36413 41.445 8.19519 41.3512C9.16594 41.8899 11.5877 41.8014 12.1651 40.4691C12.4188 40.4691 12.1927 41.7685 11.711 42.5141C12.5107 42.4783 13.365 42.3617 14.2302 42.1359C15.453 41.8169 16.4798 41.608 17.296 41.4706C11.4229 41.6454 13.4773 35.7562 13.9361 34.6006" fill="#223C6F"/>
<path d="M27.529 31.8649C28.7132 34.8112 30.7282 36.3141 32.1899 37.0532C31.5503 36.4252 30.1225 33.1653 28.9641 30.4717C28.2276 28.7605 27.4793 27.7284 26.7115 27.1134C26.6989 27.7783 26.6981 29.5228 27.0135 30.1932C26.866 29.7507 24.8502 28.4232 24.0635 29.0132C23.2769 29.6032 24.506 32.3074 24.506 32.3074C24.506 32.3074 22.9937 30.358 21.5444 29.8953C20.6924 30.0316 19.6633 29.9885 18.4231 29.6618C18.3088 29.6477 18.193 29.6313 18.0758 29.6121C16.7555 29.3959 15.7899 28.9023 15.0858 28.3329C15.7423 29.2347 17.036 30.3242 19.5402 30.7341C23.1457 31.3241 24.1457 33.6184 25.1944 37.2241C26.0194 40.0606 25.1397 41.4558 22.8119 41.5394C23.5575 41.6753 24.4517 41.8663 25.4854 42.1359C26.2149 42.3263 26.9366 42.439 27.6242 42.4913C27.1526 41.7424 26.9335 40.4691 27.1848 40.4691C27.5066 41.2119 28.402 41.5679 29.3 41.6442C28.3963 40.6804 25.616 37.56 24.9324 34.9624C24.1127 31.8484 25.686 34.5364 26.0794 35.8801C25.8827 33.3891 24.8341 31.4224 25.9157 31.5207C26.8993 31.6102 28.9141 39.5373 30.9725 41.4379C31.1583 41.3612 31.3106 41.267 31.4132 41.1575C32.1016 40.42 28.2665 35.5033 27.529 31.8649" fill="#223C6F"/>
<path d="M19.8172 28.2512V28.2522C19.8033 28.2522 19.7903 28.2516 19.7767 28.2514C19.7634 28.2516 19.75 28.2522 19.7366 28.2522V28.2512C18.9613 28.2451 18.2787 28.153 17.6801 28.0067C17.2521 28.1631 16.3563 28.2826 14.9161 27.5326C15.5989 28.2465 16.6214 28.8837 18.154 29.1348C19.9781 29.4335 21.6067 29.0982 23.0133 28.1391C21.6789 28.6589 20.1728 28.6785 19.0589 28.5989C21.2203 28.5989 22.6536 27.9471 23.4641 27.4142C22.5832 27.874 21.39 28.2388 19.8172 28.2512Z" fill="#223C6F"/>
<path d="M21.5152 26.1417C21.0786 26.1948 20.6434 26.2296 20.2142 26.2442C20.2097 26.2449 20.2054 26.2459 20.2009 26.2471L20.2001 26.2442C20.0968 26.2475 19.9934 26.2503 19.8909 26.2512L19.8817 26.2556L19.7656 26.2534C20.3303 26.4377 20.8337 26.6947 20.1462 26.8993C20.1747 27.2666 21.1757 27.4391 20.5696 27.7318C21.3232 27.6655 21.9689 27.5119 22.5231 27.3075C22.4682 27.1653 22.3687 26.9669 22.0474 26.7681C24.6086 26.1557 22.2765 26.1342 21.5152 26.1417" fill="#223C6F"/>
<path d="M17.3104 26.6379C16.7224 26.385 16.3584 26.0119 16.1888 25.8023C15.7164 25.6882 15.2474 25.5555 14.7888 25.4003C15.0753 25.6953 15.799 26.269 17.3104 26.6379" fill="#99DEEE"/>
<path d="M16.2025 26.6602C15.7852 26.5117 15.3621 26.2976 14.9397 25.9933C15.4145 26.4712 16.1032 26.9767 17.0722 27.3252C16.5833 27.0866 16.3276 26.8252 16.2025 26.6602" fill="#99DEEE"/>
<path d="M29.2009 17.3562C28.9769 16.8099 28.7424 16.2877 28.4997 15.791L28.4319 15.6899C28.5212 17.2475 28.3804 19.8445 26.8739 22.1398C26.4569 22.7748 25.9566 23.3381 25.3865 23.8396C27.766 22.4063 28.8927 18.5866 29.2009 17.3562" fill="#223C6F"/>
<path d="M15.3 19.048C16.0645 19.048 16.9121 18.6399 17.8233 17.8334C15.0788 17.2969 13.1239 16.4123 12.2037 15.9328C13.044 18.0008 14.0838 19.048 15.3 19.048Z" fill="white"/>
<path d="M14.2183 18.7454C14.5613 18.9467 14.922 19.048 15.3 19.048C16.0645 19.048 16.9121 18.6399 17.8233 17.8334C15.0788 17.2969 13.1239 16.4123 12.2037 15.9328C12.2159 15.9637 12.2288 15.992 12.2416 16.0223C12.6806 16.3706 14.3116 17.5239 17.1638 17.9669C15.9832 18.8061 15.1979 19.015 14.2183 18.7454Z" fill="#B1B1B0"/>
<path d="M24.2649 19.048C23.5 19.048 22.6526 18.6399 21.7416 17.8334C24.4861 17.2969 26.4404 16.4123 27.3612 15.9328C26.5207 18.0008 25.4805 19.048 24.2649 19.048Z" fill="white"/>
<path d="M25.3466 18.7454C25.0034 18.9467 24.6425 19.048 24.2649 19.048C23.5 19.048 22.6526 18.6399 21.7416 17.8334C24.4861 17.2969 26.4404 16.4123 27.3612 15.9328C27.3487 15.9637 27.3359 15.992 27.3233 16.0223C26.8841 16.3706 25.2531 17.5239 22.4011 17.9669C23.5811 18.8061 24.3672 19.015 25.3466 18.7454" fill="#B1B1B0"/>
<path d="M34.1043 38.1651C34.072 38.1651 34.0382 38.163 34.0036 38.1592C34.0441 38.1636 34.0825 38.1644 34.12 38.1636C34.1147 38.1636 34.1096 38.1651 34.1043 38.1651ZM31.4137 41.1567C30.7253 41.8942 27.8245 41.9433 27.1853 40.4683C26.934 40.4683 27.153 41.7416 27.6247 42.4905C26.9371 42.4382 26.2153 42.3255 25.4859 42.1351C22.1571 41.2668 20.2657 41.2096 20.1808 41.2076H19.5294C19.4501 41.2096 17.5592 41.2668 14.2306 42.1351C13.3654 42.3609 12.5111 42.4775 11.7114 42.5133C12.1931 41.7677 12.4193 40.4683 12.1656 40.4683C11.5264 41.9433 8.62552 41.8942 7.93718 41.1567C7.24884 40.4192 11.0839 35.5025 11.8214 31.8641C10.0669 36.2288 6.48892 37.4273 5.59016 37.665C5.42498 36.923 4.8004 36.592 3.13057 35.9503C4.7262 35.6232 6.16973 34.7122 7.43273 33.2327C8.89968 31.514 9.74319 29.4437 10.1153 28.3622C10.8457 26.2415 12.399 25.3129 13.1135 24.986C13.1391 25.1319 13.1865 25.3469 13.2643 25.603C12.8999 25.8059 11.6526 26.5755 10.9855 27.9307C12.5097 26.6032 13.6897 25.964 12.8785 28.6191C13.365 27.8719 13.6665 27.1755 13.8018 26.8306C13.8184 26.8585 13.8321 26.8858 13.849 26.914C14.4624 27.9292 15.694 29.2211 18.0762 29.6113C18.1934 29.6305 18.3093 29.6469 18.4235 29.661C19.6637 29.9877 20.6929 30.0308 21.5449 29.8945C22.9941 30.3572 24.5065 32.3066 24.5065 32.3066C24.5065 32.3066 23.2773 29.6024 24.064 29.0124C24.8507 28.4224 26.8665 29.7499 27.014 30.1924C26.6985 29.522 26.6993 27.7775 26.7119 27.1126C27.4797 27.7276 28.228 28.7597 28.9646 30.4709C30.1229 33.1645 31.5507 36.4244 32.1903 37.0524C30.7287 36.3133 28.7136 34.8104 27.5295 31.8641C28.267 35.5025 32.102 40.4192 31.4137 41.1567V41.1567ZM11.1714 43.0166C11.1505 43.0166 11.1307 43.0154 11.1098 43.0154C11.1387 43.0158 11.1669 43.0162 11.1956 43.0162C11.1875 43.0162 11.1795 43.0166 11.1714 43.0166V43.0166ZM5.61166 38.1651C5.60629 38.1651 5.60169 38.1636 5.5963 38.1636C5.67343 38.1651 5.75712 38.1557 5.84699 38.137C5.76341 38.1543 5.68474 38.1651 5.61166 38.1651ZM8.57714 20.3525L8.41686 20.1212L7.97514 20.538C7.86953 19.53 7.74071 16.9612 8.65345 13.8874C9.73513 10.2451 12.5445 5.14356 19.7841 1.48474C19.7874 1.48651 19.7906 1.48828 19.7941 1.48966L19.7841 1.5343V1.48474C19.7841 1.48474 11.5264 7.18222 10.0514 13.7706C12.9522 9.59141 14.9189 8.60807 14.9189 8.60807C14.9189 8.60807 13.3847 10.7042 12.0936 12.9837C11.8271 13.3971 11.5628 13.8322 11.3045 14.2926L11.3038 14.2924C11.3038 14.293 11.3036 14.2941 11.3036 14.2947C10.6001 15.5491 9.93868 16.9796 9.37561 18.6039L9.22575 19.0362L9.66727 18.917C9.73788 18.8979 9.80337 18.8824 9.86099 18.8702C9.98175 19.3934 10.3639 20.6804 11.4198 22.0564C12.1604 23.0219 13.3316 24.1396 15.135 24.9978C12.6903 24.2017 10.2272 22.7344 8.57714 20.3525V20.3525ZM15.3006 19.5312C15.6997 19.5312 16.1135 19.4384 16.5391 19.2567C16.3135 19.4872 15.9705 19.7686 15.5099 19.958C16.7359 19.7505 17.5979 19.0659 18.1366 18.4735C17.8255 19.0732 16.6968 20.82 14.2961 20.3425C14.2636 20.572 14.8536 20.8998 14.8536 20.8998C14.8536 20.8998 14.5148 23.1255 16.5782 24.8354C15.0981 24.1311 13.9332 23.1428 13.1011 21.8771C11.701 19.7462 11.551 17.2778 11.6241 15.7766C12.5652 18.2682 13.8014 19.5312 15.3006 19.5312V19.5312ZM17.8239 17.8326C16.9127 18.6391 16.0651 19.0472 15.3006 19.0472C14.0844 19.0472 13.0447 18 12.2043 15.932C13.1245 16.4115 15.0794 17.2961 17.8239 17.8326ZM13.0608 15.8077C12.3007 15.4566 11.8808 15.1974 11.8707 15.1911L11.6792 15.0706C11.7111 14.774 11.7461 14.5632 11.7645 14.4617C13.2014 11.9176 14.8098 10.1269 16.0907 8.95499C17.9049 7.2959 19.4246 6.52712 19.7841 6.3574C19.7841 6.3574 13.6976 10.0988 13.0608 15.8077V15.8077ZM19.8824 26.2545L19.8917 26.2502C19.9941 26.2492 20.0976 26.2465 20.2008 26.2431L20.2016 26.2461C20.2061 26.2449 20.2105 26.2439 20.215 26.2431C20.6441 26.2286 21.0793 26.1938 21.5159 26.1407C22.2772 26.1332 24.6093 26.1546 22.0481 26.767C22.3695 26.9659 22.469 27.1643 22.5239 27.3065C21.784 27.5791 20.8815 27.7618 19.7774 27.7663C17.263 27.7563 15.7742 26.8312 14.9407 25.9924C16.3286 26.9914 17.7208 27.0298 18.914 26.9039C16.2743 26.6435 15.1634 25.7845 14.7897 25.3996C16.2688 25.8997 17.8465 26.1926 19.3532 26.2431C19.3577 26.2439 19.3622 26.2449 19.3664 26.2461L19.3671 26.2431C19.4718 26.2467 19.5766 26.2494 19.6804 26.2502L19.6806 26.2506L19.8824 26.2545ZM27.3243 16.0215C26.693 17.5407 25.9514 18.493 25.1087 18.8659C25.0853 18.8761 25.0619 18.8846 25.0383 18.894C24.9799 18.9174 24.9209 18.9387 24.8613 18.9566C24.8339 18.965 24.8064 18.9727 24.7783 18.98C24.7195 18.9953 24.6601 19.0073 24.6001 19.0171C24.5743 19.0215 24.5486 19.0268 24.5228 19.0299C24.438 19.0405 24.3523 19.0472 24.266 19.0472C23.5011 19.0472 22.6537 18.6391 21.7427 17.8326C24.4872 17.2961 26.4415 16.4115 27.3623 15.932C27.3497 15.9629 27.3369 15.9912 27.3243 16.0215V16.0215ZM28.4298 15.6437C28.8434 16.4772 29.2352 17.3795 29.5909 18.3567C29.564 18.3526 29.5483 18.3504 29.5463 18.3504L29.3117 18.3209L29.2767 18.5548C29.2743 18.5703 29.0344 20.1065 27.7641 21.762C27.1829 22.519 26.3217 23.3745 25.0713 24.111C25.7777 23.5466 26.3811 22.8899 26.8742 22.139C28.3948 19.8219 28.5246 17.1958 28.4298 15.6437V15.6437ZM23.014 28.1382C21.6074 29.0974 19.9788 29.4327 18.1547 29.1339C14.4982 28.5347 13.7389 25.742 13.5951 24.9392C13.5977 24.9402 13.6008 24.9416 13.6036 24.9427C13.723 25.199 14.0864 25.8789 14.8481 26.56C15.7024 27.3232 17.2416 28.2308 19.7373 28.2503V28.2513C19.7506 28.2513 19.764 28.2507 19.7774 28.2505C19.791 28.2507 19.8039 28.2513 19.8179 28.2513V28.2503C21.3907 28.2379 22.5839 27.8731 23.4647 27.4133C22.6543 27.9463 21.2209 28.598 19.0596 28.598C20.1735 28.6777 21.6796 28.658 23.014 28.1382ZM30.0787 16.0158C29.882 14.2458 29.292 12.8691 29.292 12.8691C29.292 12.8691 30.9965 15.0981 30.8982 19.1298C28.9315 21.834 26.9489 24.245 24.4329 24.9978C26.2368 24.1396 27.4075 23.0219 28.1482 22.0564C29.2041 20.6804 29.5862 19.3934 29.707 18.8702C29.7646 18.8824 29.8303 18.8979 29.9009 18.917L30.3422 19.0362L30.1924 18.6039C29.6293 16.9798 28.9679 15.5493 28.265 14.2949C28.2646 14.2941 28.2646 14.2932 28.2642 14.2924L28.2634 14.2926C26.7811 11.649 25.1126 9.79221 23.7861 8.58152C22.7821 7.66563 21.8778 7.02095 21.1922 6.58966C23.4087 7.83162 27.6062 10.7439 30.0787 16.0158V16.0158ZM39.316 35.5681C39.2737 35.2924 39.0446 35.0839 38.7659 35.0684L37.6209 35.0041C33.2704 34.7596 31.1596 29.591 30.6162 28.0125C30.0049 26.2376 28.9325 25.1707 28.0192 24.549C29.2979 23.7749 30.3949 22.8317 31.2945 21.7331L31.5234 21.9495C31.6349 22.0545 31.7805 22.1105 31.9285 22.1105C31.9901 22.1105 32.0521 22.1009 32.112 22.0814C32.3174 22.0142 32.47 21.8397 32.5087 21.6271L32.5894 21.1891C32.6147 21.0511 33.1894 17.7746 31.9445 13.5816C31.2131 11.1189 30.0032 8.84308 28.3478 6.8172C26.292 4.30005 23.5442 2.16836 20.1798 0.481735L20.1298 0.45636C20.0476 0.414863 19.9564 0.393234 19.8643 0.393234H19.7042C19.612 0.393234 19.5217 0.414869 19.4395 0.455776L19.388 0.481735C16.0238 2.16836 13.2759 4.30005 11.2202 6.8172C9.56501 8.84348 8.3551 11.1193 7.62369 13.5816C6.37859 17.7742 6.95325 21.0511 6.97862 21.1883L7.05926 21.6271C7.0982 21.8397 7.25061 22.0142 7.45613 22.0814C7.51612 22.1009 7.57787 22.1105 7.63943 22.1105C7.78752 22.1105 7.93325 22.0545 8.04476 21.9495L8.27368 21.7331C9.19193 22.8551 10.3163 23.8149 11.6292 24.5978C10.7399 25.2212 9.69677 26.2793 9.09969 28.0125C8.55669 29.591 6.44545 34.7596 2.09545 35.0041L0.950327 35.0684C0.671903 35.0839 0.442215 35.2924 0.399951 35.5681C0.358022 35.8439 0.514431 36.1113 0.775626 36.2095L1.84916 36.6132C3.85809 37.3694 4.49234 37.6469 4.54489 37.9099C4.60635 38.2177 4.78689 38.469 5.05348 38.6173C5.21832 38.7087 5.40579 38.7552 5.61166 38.7552C5.97424 38.7552 6.34555 38.6153 6.77625 38.4537C6.92336 38.3982 7.17293 38.3044 7.38199 38.2442C7.26989 38.5518 7.03133 38.9933 6.8972 39.2409C6.40179 40.1574 5.78563 41.2973 6.47082 42.1784C7.14579 43.0459 8.99074 43.6066 11.1714 43.6066C12.2822 43.6066 13.4026 43.461 14.5012 43.1743C17.5627 42.3758 19.4153 42.2871 19.5463 42.2816L20.1639 42.2814C20.2964 42.2869 22.1467 42.374 25.2147 43.1743C26.3133 43.461 27.4329 43.6062 28.5423 43.6062C30.7255 43.6062 32.5707 43.0459 33.2454 42.1784C33.9306 41.2973 33.3143 40.1574 32.8191 39.2417C32.6851 38.9935 32.4464 38.5526 32.3343 38.245C32.5447 38.305 32.7929 38.3984 32.9396 38.4535C33.3703 38.6153 33.7416 38.7552 34.1043 38.7552C34.3102 38.7552 34.4976 38.7087 34.6616 38.6179C34.9291 38.469 35.1097 38.2177 35.1714 37.9095C35.2235 37.6469 35.8578 37.3694 37.8671 36.6132L38.9404 36.2095C39.2015 36.1113 39.3583 35.8439 39.316 35.5681" fill="#100F0D"/>
</svg>
