<svg width="12" height="13" viewBox="0 0 12 13" fill="none" xmlns="http://www.w3.org/2000/svg">
<path d="M12 4.71875C12 4.85136 11.9473 4.97854 11.8536 5.0723C11.7598 5.16607 11.6326 5.21875 11.5 5.21875C11.3674 5.21875 11.2402 5.16607 11.1464 5.0723C11.0527 4.97854 11 4.85136 11 4.71875V1.92625L6.85437 6.0725C6.76055 6.16632 6.63331 6.21903 6.50062 6.21903C6.36794 6.21903 6.2407 6.16632 6.14688 6.0725C6.05305 5.97868 6.00035 5.85143 6.00035 5.71875C6.00035 5.58607 6.05305 5.45882 6.14688 5.365L10.2925 1.21875H7.5C7.36739 1.21875 7.24021 1.16607 7.14645 1.0723C7.05268 0.978535 7 0.851358 7 0.71875C7 0.586142 7.05268 0.458965 7.14645 0.365197C7.24021 0.271429 7.36739 0.21875 7.5 0.21875H11.5C11.6326 0.21875 11.7598 0.271429 11.8536 0.365197C11.9473 0.458965 12 0.586142 12 0.71875V4.71875ZM9.5 6.21875C9.36739 6.21875 9.24021 6.27143 9.14645 6.3652C9.05268 6.45896 9 6.58614 9 6.71875V11.2188H1V3.21875H5.5C5.63261 3.21875 5.75979 3.16607 5.85355 3.0723C5.94732 2.97854 6 2.85136 6 2.71875C6 2.58614 5.94732 2.45896 5.85355 2.3652C5.75979 2.27143 5.63261 2.21875 5.5 2.21875H1C0.734784 2.21875 0.48043 2.32411 0.292893 2.51164C0.105357 2.69918 0 2.95353 0 3.21875V11.2188C0 11.484 0.105357 11.7383 0.292893 11.9259C0.48043 12.1134 0.734784 12.2188 1 12.2188H9C9.26522 12.2188 9.51957 12.1134 9.70711 11.9259C9.89464 11.7383 10 11.484 10 11.2188V6.71875C10 6.58614 9.94732 6.45896 9.85355 6.3652C9.75979 6.27143 9.63261 6.21875 9.5 6.21875Z" fill="white"/>
</svg>
