<svg width="50" height="42" viewBox="0 0 50 42" fill="none" xmlns="http://www.w3.org/2000/svg">
<path d="M45.625 0.769531H4.375C3.38044 0.769531 2.42661 1.14455 1.72335 1.8121C1.02009 2.47965 0.625 3.38503 0.625 4.32909V39.9246C0.625171 40.228 0.707018 40.5262 0.862773 40.7911C1.01853 41.056 1.24302 41.2787 1.51494 41.4381C1.78685 41.5974 2.09717 41.6882 2.41642 41.7017C2.73568 41.7152 3.05327 41.6511 3.33906 41.5153L10 38.354L16.6609 41.5153C16.9214 41.639 17.2087 41.7035 17.5 41.7035C17.7913 41.7035 18.0786 41.639 18.3391 41.5153L25 38.354L31.6609 41.5153C31.9214 41.639 32.2087 41.7035 32.5 41.7035C32.7913 41.7035 33.0786 41.639 33.3391 41.5153L40 38.354L46.6609 41.5153C46.9467 41.6511 47.2643 41.7152 47.5836 41.7017C47.9028 41.6882 48.2132 41.5974 48.4851 41.4381C48.757 41.2787 48.9815 41.056 49.1372 40.7911C49.293 40.5262 49.3748 40.228 49.375 39.9246V4.32909C49.375 3.38503 48.9799 2.47965 48.2766 1.8121C47.5734 1.14455 46.6196 0.769531 45.625 0.769531ZM45.625 37.0458L40.8391 34.7722C40.5786 34.6484 40.2913 34.584 40 34.584C39.7087 34.584 39.4214 34.6484 39.1609 34.7722L32.5 37.9357L25.8391 34.7722C25.5786 34.6484 25.2913 34.584 25 34.584C24.7087 34.584 24.4214 34.6484 24.1609 34.7722L17.5 37.9357L10.8391 34.7722C10.5786 34.6484 10.2913 34.584 10 34.584C9.70871 34.584 9.42143 34.6484 9.16094 34.7722L4.375 37.0458V4.32909H45.625V37.0458ZM26.875 16.7875C26.875 16.3155 27.0725 15.8628 27.4242 15.529C27.7758 15.1953 28.2527 15.0078 28.75 15.0078H40C40.4973 15.0078 40.9742 15.1953 41.3258 15.529C41.6775 15.8628 41.875 16.3155 41.875 16.7875C41.875 17.2596 41.6775 17.7122 41.3258 18.046C40.9742 18.3798 40.4973 18.5673 40 18.5673H28.75C28.2527 18.5673 27.7758 18.3798 27.4242 18.046C27.0725 17.7122 26.875 17.2596 26.875 16.7875ZM26.875 23.9066C26.875 23.4346 27.0725 22.9819 27.4242 22.6481C27.7758 22.3144 28.2527 22.1269 28.75 22.1269H40C40.4973 22.1269 40.9742 22.3144 41.3258 22.6481C41.6775 22.9819 41.875 23.4346 41.875 23.9066C41.875 24.3787 41.6775 24.8314 41.3258 25.1651C40.9742 25.4989 40.4973 25.6864 40 25.6864H28.75C28.2527 25.6864 27.7758 25.4989 27.4242 25.1651C27.0725 24.8314 26.875 24.3787 26.875 23.9066ZM10 29.246H21.25C21.7473 29.246 22.2242 29.0585 22.5758 28.7247C22.9275 28.3909 23.125 27.9382 23.125 27.4662V13.228C23.125 12.7559 22.9275 12.3033 22.5758 11.9695C22.2242 11.6357 21.7473 11.4482 21.25 11.4482H10C9.50272 11.4482 9.02581 11.6357 8.67418 11.9695C8.32254 12.3033 8.125 12.7559 8.125 13.228V27.4662C8.125 27.9382 8.32254 28.3909 8.67418 28.7247C9.02581 29.0585 9.50272 29.246 10 29.246ZM11.875 15.0078H19.375V25.6864H11.875V15.0078Z" fill="#01ADFE"/>
</svg>
