<svg width="58" height="42" viewBox="0 0 58 42" fill="none" xmlns="http://www.w3.org/2000/svg">
<path d="M40.2508 16.9883H34.6258C34.1285 16.9883 33.6516 16.7907 33.3 16.4391C32.9483 16.0875 32.7508 15.6106 32.7508 15.1133C32.7508 14.616 32.9483 14.1391 33.3 13.7875C33.6516 13.4358 34.1285 13.2383 34.6258 13.2383H40.2508C40.7481 13.2383 41.225 13.4358 41.5766 13.7875C41.9282 14.1391 42.1258 14.616 42.1258 15.1133C42.1258 15.6106 41.9282 16.0875 41.5766 16.4391C41.225 16.7907 40.7481 16.9883 40.2508 16.9883ZM23.3758 13.2383H21.5008V11.3633C21.5008 10.866 21.3032 10.3891 20.9516 10.0375C20.6 9.68583 20.1231 9.48828 19.6258 9.48828C19.1285 9.48828 18.6516 9.68583 18.3 10.0375C17.9483 10.3891 17.7508 10.866 17.7508 11.3633V13.2383H15.8758C15.3785 13.2383 14.9016 13.4358 14.55 13.7875C14.1983 14.1391 14.0008 14.616 14.0008 15.1133C14.0008 15.6106 14.1983 16.0875 14.55 16.4391C14.9016 16.7907 15.3785 16.9883 15.8758 16.9883H17.7508V18.8633C17.7508 19.3606 17.9483 19.8375 18.3 20.1891C18.6516 20.5407 19.1285 20.7383 19.6258 20.7383C20.1231 20.7383 20.6 20.5407 20.9516 20.1891C21.3032 19.8375 21.5008 19.3606 21.5008 18.8633V16.9883H23.3758C23.8731 16.9883 24.35 16.7907 24.7016 16.4391C25.0532 16.0875 25.2508 15.6106 25.2508 15.1133C25.2508 14.616 25.0532 14.1391 24.7016 13.7875C24.35 13.4358 23.8731 13.2383 23.3758 13.2383ZM55.5977 37.7656C54.891 38.7747 53.972 39.6168 52.9051 40.2328C51.8382 40.8488 50.6494 41.2236 49.4222 41.3311C48.195 41.4385 46.9591 41.2759 45.8014 40.8547C44.6437 40.4335 43.5924 39.7639 42.7211 38.893C42.693 38.8648 42.6649 38.8367 42.6391 38.8062L33.332 28.2383H24.6602L15.3625 38.8062L15.2805 38.893C13.6966 40.4734 11.5508 41.3617 9.31329 41.3633C8.0815 41.3628 6.86475 41.0927 5.74852 40.5718C4.63228 40.0509 3.64363 39.292 2.85201 38.3482C2.06039 37.4045 1.485 36.2989 1.16627 35.109C0.847534 33.9192 0.793184 32.674 1.00704 31.4609C1.00591 31.45 1.00591 31.439 1.00704 31.4281L4.84376 11.7195C5.41476 8.46891 7.11311 5.52352 9.64037 3.40089C12.1676 1.27827 15.3621 0.114217 18.6625 0.113281H39.3133C42.6037 0.118531 45.7884 1.27592 48.3144 3.38451C50.8405 5.4931 52.5483 8.41972 53.1414 11.6562C53.1414 11.6703 53.1414 11.6844 53.1414 11.6984L56.9781 31.4258C56.9793 31.4367 56.9793 31.4477 56.9781 31.4586C57.1767 32.5489 57.1569 33.6678 56.92 34.7505C56.683 35.8331 56.2336 36.8579 55.5977 37.7656ZM39.3133 24.4883C42.0483 24.4883 44.6714 23.4018 46.6053 21.4678C48.5393 19.5339 49.6258 16.9108 49.6258 14.1758C49.6258 11.4407 48.5393 8.81771 46.6053 6.88374C44.6714 4.94977 42.0483 3.86328 39.3133 3.86328H18.6625C16.2413 3.86545 13.8984 4.72141 12.046 6.28056C10.1937 7.83971 8.95046 10.0022 8.53516 12.3875V12.418L4.6961 32.1266C4.52641 33.1036 4.67098 34.1094 5.10902 34.9991C5.54706 35.8888 6.25599 36.6167 7.13387 37.0781C8.01174 37.5394 9.01332 37.7104 9.99454 37.5665C10.9758 37.4227 11.8861 36.9713 12.5945 36.2773L22.4195 25.1234C22.5955 24.9239 22.8118 24.764 23.0543 24.6545C23.2968 24.545 23.5597 24.4883 23.8258 24.4883H39.3133ZM53.3055 32.1266L51.257 21.5797C49.9972 23.6141 48.239 25.2933 46.149 26.4585C44.059 27.6237 41.7062 28.2363 39.3133 28.2383H38.3289L45.407 36.2797C45.9407 36.7988 46.5898 37.1839 47.3012 37.4035C48.0125 37.6231 48.7658 37.6709 49.4992 37.543C50.721 37.3273 51.8074 36.6361 52.5205 35.6208C53.2335 34.6055 53.5149 33.349 53.3031 32.1266H53.3055Z" fill="#00ADFF"/>
</svg>
