<svg width="206" height="51" viewBox="0 0 206 51" fill="none" xmlns="http://www.w3.org/2000/svg">
<path d="M0.245117 0.910407C0.245117 0.910407 19.6737 0.600335 33.1041 21.8091C49.211 47.2347 53.9427 50.1029 88.0682 50.1029H117.295C151.42 50.1029 156.176 47.2502 172.259 21.8091C185.689 0.600335 205.118 0.910407 205.118 0.910407H0.245117Z" fill="#00ADFF"/>
<path d="M0.833496 0.9065C0.833496 0.9065 20.1765 0.596429 33.5477 21.8052C49.5835 47.2308 54.2944 50.099 88.2695 50.099H117.367C151.342 50.099 156.077 47.2463 172.089 21.8052C185.46 0.596429 204.803 0.9065 204.803 0.9065H0.833496Z" fill="url(#paint0_linear_2351_7142)"/>
<path d="M45.1375 29V15.9091H47.9053V21.3104H53.5239V15.9091H56.2853V29H53.5239V23.5923H47.9053V29H45.1375ZM62.9522 29.1918C61.9593 29.1918 61.1006 28.9808 60.3762 28.5589C59.656 28.1328 59.0999 27.5405 58.7079 26.782C58.3158 26.0192 58.1198 25.1349 58.1198 24.1293C58.1198 23.1151 58.3158 22.2287 58.7079 21.4702C59.0999 20.7074 59.656 20.1151 60.3762 19.6932C61.1006 19.267 61.9593 19.054 62.9522 19.054C63.9451 19.054 64.8016 19.267 65.5218 19.6932C66.2462 20.1151 66.8044 20.7074 67.1965 21.4702C67.5885 22.2287 67.7846 23.1151 67.7846 24.1293C67.7846 25.1349 67.5885 26.0192 67.1965 26.782C66.8044 27.5405 66.2462 28.1328 65.5218 28.5589C64.8016 28.9808 63.9451 29.1918 62.9522 29.1918ZM62.965 27.0824C63.4167 27.0824 63.7938 26.9545 64.0963 26.6989C64.3989 26.4389 64.6269 26.0852 64.7803 25.6378C64.938 25.1903 65.0168 24.6811 65.0168 24.1101C65.0168 23.5391 64.938 23.0298 64.7803 22.5824C64.6269 22.1349 64.3989 21.7812 64.0963 21.5213C63.7938 21.2614 63.4167 21.1314 62.965 21.1314C62.509 21.1314 62.1255 21.2614 61.8144 21.5213C61.5076 21.7812 61.2753 22.1349 61.1177 22.5824C60.9642 23.0298 60.8875 23.5391 60.8875 24.1101C60.8875 24.6811 60.9642 25.1903 61.1177 25.6378C61.2753 26.0852 61.5076 26.4389 61.8144 26.6989C62.1255 26.9545 62.509 27.0824 62.965 27.0824ZM71.2458 29L68.574 19.1818H71.3289L72.8503 25.7784H72.9397L74.525 19.1818H77.2288L78.8396 25.7401H78.9227L80.4184 19.1818H83.167L80.5015 29H77.6187L75.9312 22.8253H75.8098L74.1223 29H71.2458ZM88.7856 29V19.1818H91.5086V29H88.7856ZM90.1535 17.9162C89.7487 17.9162 89.4014 17.782 89.1116 17.5135C88.8261 17.2408 88.6833 16.9148 88.6833 16.5355C88.6833 16.1605 88.8261 15.8388 89.1116 15.5703C89.4014 15.2976 89.7487 15.1612 90.1535 15.1612C90.5583 15.1612 90.9035 15.2976 91.189 15.5703C91.4788 15.8388 91.6237 16.1605 91.6237 16.5355C91.6237 16.9148 91.4788 17.2408 91.189 17.5135C90.9035 17.782 90.5583 17.9162 90.1535 17.9162ZM98.9122 19.1818V21.2273H92.9996V19.1818H98.9122ZM94.3419 16.8295H97.0649V25.983C97.0649 26.2344 97.1033 26.4304 97.18 26.571C97.2567 26.7074 97.3632 26.8033 97.4996 26.8587C97.6402 26.9141 97.8021 26.9418 97.9854 26.9418C98.1132 26.9418 98.2411 26.9311 98.3689 26.9098C98.4967 26.8842 98.5947 26.8651 98.6629 26.8523L99.0912 28.8786C98.9548 28.9212 98.7631 28.9702 98.5159 29.0256C98.2688 29.0852 97.9683 29.1214 97.6146 29.1342C96.9584 29.1598 96.3831 29.0724 95.8888 28.8722C95.3987 28.6719 95.0173 28.3608 94.7446 27.9389C94.4719 27.517 94.3376 26.9844 94.3419 26.3409V16.8295ZM107.85 29L104.104 15.9091H107.128L109.295 25.005H109.403L111.794 15.9091H114.383L116.767 25.0241H116.882L119.049 15.9091H122.072L118.326 29H115.629L113.136 20.4411H113.034L110.547 29H107.85ZM126.884 29.1918C125.891 29.1918 125.032 28.9808 124.308 28.5589C123.588 28.1328 123.032 27.5405 122.639 26.782C122.247 26.0192 122.051 25.1349 122.051 24.1293C122.051 23.1151 122.247 22.2287 122.639 21.4702C123.032 20.7074 123.588 20.1151 124.308 19.6932C125.032 19.267 125.891 19.054 126.884 19.054C127.877 19.054 128.733 19.267 129.453 19.6932C130.178 20.1151 130.736 20.7074 131.128 21.4702C131.52 22.2287 131.716 23.1151 131.716 24.1293C131.716 25.1349 131.52 26.0192 131.128 26.782C130.736 27.5405 130.178 28.1328 129.453 28.5589C128.733 28.9808 127.877 29.1918 126.884 29.1918ZM126.897 27.0824C127.348 27.0824 127.725 26.9545 128.028 26.6989C128.331 26.4389 128.559 26.0852 128.712 25.6378C128.87 25.1903 128.948 24.6811 128.948 24.1101C128.948 23.5391 128.87 23.0298 128.712 22.5824C128.559 22.1349 128.331 21.7812 128.028 21.5213C127.725 21.2614 127.348 21.1314 126.897 21.1314C126.441 21.1314 126.057 21.2614 125.746 21.5213C125.439 21.7812 125.207 22.1349 125.049 22.5824C124.896 23.0298 124.819 23.5391 124.819 24.1101C124.819 24.6811 124.896 25.1903 125.049 25.6378C125.207 26.0852 125.439 26.4389 125.746 26.6989C126.057 26.9545 126.441 27.0824 126.897 27.0824ZM133.487 29V19.1818H136.127V20.8949H136.229C136.408 20.2855 136.708 19.8253 137.13 19.5142C137.552 19.1989 138.038 19.0412 138.588 19.0412C138.724 19.0412 138.871 19.0497 139.029 19.0668C139.186 19.0838 139.325 19.1072 139.444 19.1371V21.5533C139.316 21.5149 139.139 21.4808 138.914 21.451C138.688 21.4212 138.481 21.4062 138.294 21.4062C137.893 21.4062 137.535 21.4936 137.22 21.6683C136.909 21.8388 136.662 22.0774 136.478 22.3842C136.299 22.6911 136.21 23.0447 136.21 23.4453V29H133.487ZM143.319 26.1747L143.326 22.9084H143.722L146.867 19.1818H149.993L145.768 24.1165H145.122L143.319 26.1747ZM140.852 29V15.9091H143.575V29H140.852ZM146.988 29L144.099 24.7237L145.915 22.7997L150.178 29H146.988ZM159.498 21.9815L157.005 22.1349C156.962 21.9219 156.87 21.7301 156.73 21.5597C156.589 21.3849 156.404 21.2464 156.174 21.1442C155.948 21.0376 155.677 20.9844 155.362 20.9844C154.94 20.9844 154.584 21.0739 154.295 21.2528C154.005 21.4276 153.86 21.6619 153.86 21.956C153.86 22.1903 153.954 22.3885 154.141 22.5504C154.329 22.7124 154.65 22.8423 155.106 22.9403L156.883 23.2983C157.838 23.4943 158.549 23.8097 159.018 24.2443C159.487 24.679 159.721 25.25 159.721 25.9574C159.721 26.6009 159.532 27.1655 159.152 27.6513C158.777 28.1371 158.262 28.5163 157.606 28.7891C156.954 29.0575 156.201 29.1918 155.349 29.1918C154.049 29.1918 153.014 28.9212 152.243 28.38C151.476 27.8345 151.026 27.093 150.894 26.1555L153.572 26.0149C153.653 26.4112 153.849 26.7138 154.16 26.9226C154.471 27.1271 154.87 27.2294 155.356 27.2294C155.833 27.2294 156.216 27.1378 156.506 26.9545C156.8 26.767 156.949 26.5263 156.954 26.2322C156.949 25.9851 156.845 25.7827 156.64 25.625C156.436 25.4631 156.12 25.3395 155.694 25.2543L153.994 24.9155C153.035 24.7237 152.321 24.3913 151.853 23.9183C151.388 23.4453 151.156 22.8423 151.156 22.1094C151.156 21.4787 151.326 20.9354 151.667 20.4794C152.013 20.0234 152.496 19.6719 153.118 19.4247C153.745 19.1776 154.478 19.054 155.317 19.054C156.557 19.054 157.533 19.3161 158.245 19.8402C158.961 20.3643 159.378 21.0781 159.498 21.9815Z" fill="white"/>
<defs>
<linearGradient id="paint0_linear_2351_7142" x1="87.4373" y1="0.906251" x2="124.656" y2="43.9373" gradientUnits="userSpaceOnUse">
<stop stop-color="#00ADFF"/>
<stop offset="1" stop-color="#006899"/>
</linearGradient>
</defs>
</svg>
