<svg width="27" height="25" viewBox="0 0 27 25" fill="none" xmlns="http://www.w3.org/2000/svg">
<path fill-rule="evenodd" clip-rule="evenodd" d="M3.30908 0.736328C1.92837 0.736328 0.809082 1.85562 0.809082 3.23633V20.7363C0.809082 22.9455 2.59994 24.7363 4.80908 24.7363H24.8091C22.5999 24.7363 20.8091 22.9455 20.8091 20.7363V3.23633C20.8091 1.85562 19.6898 0.736328 18.3091 0.736328H3.30908ZM13.8091 9.73633C13.2568 9.73633 12.8091 10.184 12.8091 10.7363C12.8091 11.2886 13.2568 11.7363 13.8091 11.7363H15.8091C16.3614 11.7363 16.8091 11.2886 16.8091 10.7363C16.8091 10.184 16.3614 9.73633 15.8091 9.73633H13.8091ZM12.8091 6.73633C12.8091 6.18404 13.2568 5.73633 13.8091 5.73633H15.8091C16.3614 5.73633 16.8091 6.18404 16.8091 6.73633C16.8091 7.28861 16.3614 7.73633 15.8091 7.73633H13.8091C13.2568 7.73633 12.8091 7.28861 12.8091 6.73633ZM5.80908 13.7363C5.2568 13.7363 4.80908 14.184 4.80908 14.7363C4.80908 15.2886 5.2568 15.7363 5.80908 15.7363H15.8091C16.3614 15.7363 16.8091 15.2886 16.8091 14.7363C16.8091 14.184 16.3614 13.7363 15.8091 13.7363H5.80908ZM4.80908 18.7363C4.80908 18.184 5.2568 17.7363 5.80908 17.7363H15.8091C16.3614 17.7363 16.8091 18.184 16.8091 18.7363C16.8091 19.2886 16.3614 19.7363 15.8091 19.7363H5.80908C5.2568 19.7363 4.80908 19.2886 4.80908 18.7363ZM5.80908 5.73633C5.2568 5.73633 4.80908 6.18404 4.80908 6.73633V10.7363C4.80908 11.2886 5.2568 11.7363 5.80908 11.7363H9.80908C10.3614 11.7363 10.8091 11.2886 10.8091 10.7363V6.73633C10.8091 6.18404 10.3614 5.73633 9.80908 5.73633H5.80908Z" fill="#00ADFF"/>
<path d="M22.8091 5.73633H25.3091C26.1375 5.73633 26.8091 6.4079 26.8091 7.23633V20.7363C26.8091 21.8409 25.9137 22.7363 24.8091 22.7363C23.7045 22.7363 22.8091 21.8409 22.8091 20.7363V5.73633Z" fill="#00ADFF"/>
</svg>
