<svg width="41" height="45" viewBox="0 0 41 45" fill="none" xmlns="http://www.w3.org/2000/svg">
<path fill-rule="evenodd" clip-rule="evenodd" d="M30.8091 2.73682C30.8091 1.63225 29.9137 0.736816 28.8091 0.736816C27.7045 0.736816 26.8091 1.63225 26.8091 2.73682V4.73682H14.8091V2.73682C14.8091 1.63225 13.9137 0.736816 12.8091 0.736816C11.7045 0.736816 10.8091 1.63225 10.8091 2.73682V4.74007C9.85815 4.74661 9.02705 4.76625 8.30543 4.82521C7.18124 4.91706 6.14783 5.11418 5.17716 5.60877C3.67186 6.37575 2.44802 7.5996 1.68103 9.10489C1.18645 10.0756 0.989323 11.109 0.897473 12.2332C0.809039 13.3155 0.809059 14.6443 0.809083 16.2542V33.2194C0.809059 34.8294 0.809039 36.1581 0.897473 37.2405C0.989323 38.3647 1.18645 39.3981 1.68103 40.3687C2.44802 41.874 3.67186 43.0979 5.17716 43.8649C6.14783 44.3595 7.18124 44.5566 8.30543 44.6484C9.38781 44.7369 10.7165 44.7368 12.3264 44.7368H29.2917C30.9016 44.7368 32.2304 44.7369 33.3127 44.6484C34.4369 44.5566 35.4703 44.3595 36.441 43.8649C37.9463 43.0979 39.1701 41.874 39.9371 40.3687C40.4317 39.3981 40.6288 38.3647 40.7207 37.2405C40.8091 36.1581 40.8091 34.8294 40.8091 33.2195V16.2542C40.8091 14.6443 40.8091 13.3155 40.7207 12.2332C40.6288 11.109 40.4317 10.0756 39.9371 9.10489C39.1701 7.5996 37.9463 6.37575 36.441 5.60877C35.4703 5.11418 34.4369 4.91706 33.3127 4.82521C32.5911 4.76625 31.76 4.74661 30.8091 4.74007V2.73682ZM10.8091 10.7368V8.74034C9.91803 8.7466 9.21834 8.76395 8.63116 8.81192C7.75433 8.88356 7.30592 9.01341 6.99312 9.17279C6.24048 9.55629 5.62855 10.1682 5.24506 10.9209C5.08568 11.2337 4.95583 11.6821 4.88419 12.5589C4.81064 13.4591 4.80909 14.6237 4.80909 16.3368V16.7368H36.8091V16.3368C36.8091 14.6237 36.8075 13.4591 36.734 12.5589C36.6623 11.6821 36.5325 11.2337 36.3731 10.9209C35.9896 10.1682 35.3777 9.55629 34.625 9.17279C34.3122 9.01341 33.8638 8.88356 32.987 8.81192C32.3998 8.76395 31.7001 8.7466 30.8091 8.74034V10.7368C30.8091 11.8414 29.9137 12.7368 28.8091 12.7368C27.7045 12.7368 26.8091 11.8414 26.8091 10.7368V8.73682H14.8091V10.7368C14.8091 11.8414 13.9137 12.7368 12.8091 12.7368C11.7045 12.7368 10.8091 11.8414 10.8091 10.7368ZM21.7528 22.9735C22.4031 23.3215 22.8091 23.9992 22.8091 24.7368V32.7368H23.3091C24.4137 32.7368 25.3091 33.6322 25.3091 34.7368C25.3091 35.8414 24.4137 36.7368 23.3091 36.7368H18.3091C17.2045 36.7368 16.3091 35.8414 16.3091 34.7368C16.3091 33.6322 17.2045 32.7368 18.3091 32.7368H18.809V28.469C17.9031 28.9931 16.7337 28.7293 16.145 27.8462C15.5322 26.9272 15.7806 25.6854 16.6997 25.0727L19.6996 23.0727C20.3134 22.6636 21.1025 22.6254 21.7528 22.9735Z" fill="#00ADFF"/>
</svg>
