<svg width="44" height="33" viewBox="0 0 44 33" fill="none" xmlns="http://www.w3.org/2000/svg">
<path fill-rule="evenodd" clip-rule="evenodd" d="M24.9951 0.736084H18.6228C16.0692 0.736069 14.0346 0.736058 12.3854 0.866688C10.6938 1.00068 9.24629 1.28092 7.90223 1.92992C5.72539 2.98104 3.91676 4.66509 2.71322 6.76151C1.9701 8.05592 1.58745 9.47977 1.33327 11.1575C1.08548 12.7932 0.940531 14.8226 0.758606 17.3698L0.26055 24.3426C-0.0634195 28.8782 3.52876 32.7361 8.07588 32.7361C10.4012 32.7361 12.6064 31.7032 14.0951 29.9168L14.8454 29.0165C15.5762 28.1395 15.7959 27.8865 16.0259 27.6907C16.572 27.2256 17.233 26.916 17.9399 26.7942C18.2376 26.7429 18.5725 26.7361 19.7141 26.7361H23.9038C25.0454 26.7361 25.3803 26.7429 25.678 26.7942C26.3849 26.916 27.046 27.2256 27.5921 27.6907C27.8221 27.8865 28.0417 28.1395 28.7725 29.0165L29.5228 29.9168C31.0115 31.7032 33.2167 32.7361 35.542 32.7361C40.0892 32.7361 43.6814 28.8782 43.3574 24.3426L42.8593 17.3697C42.6774 14.8226 42.5325 12.7932 42.2847 11.1575C42.0305 9.47977 41.6478 8.05592 40.9047 6.76151C39.7012 4.66509 37.8925 2.98104 35.7157 1.92992C34.3716 1.28092 32.9241 1.00068 31.2325 0.866688C29.5833 0.736058 27.5487 0.736069 24.9951 0.736084ZM15.8091 10.7361C15.8091 9.63151 14.9137 8.73608 13.8091 8.73608C12.7045 8.73608 11.8091 9.63151 11.8091 10.7361V12.7361H9.80908C8.70451 12.7361 7.80908 13.6315 7.80908 14.7361C7.80908 15.8407 8.70451 16.7361 9.80908 16.7361H11.8091V18.7361C11.8091 19.8407 12.7045 20.7361 13.8091 20.7361C14.9137 20.7361 15.8091 19.8407 15.8091 18.7361V16.7361H17.8091C18.9137 16.7361 19.8091 15.8407 19.8091 14.7361C19.8091 13.6315 18.9137 12.7361 17.8091 12.7361H15.8091V10.7361ZM25.8091 16.7361C25.8091 15.6315 26.7045 14.7361 27.8091 14.7361H27.8291C28.9337 14.7361 29.8291 15.6315 29.8291 16.7361C29.8291 17.8407 28.9337 18.7361 27.8291 18.7361H27.8091C26.7045 18.7361 25.8091 17.8407 25.8091 16.7361ZM31.8091 12.7361C31.8091 11.6315 32.7045 10.7361 33.8091 10.7361H33.8291C34.9337 10.7361 35.8291 11.6315 35.8291 12.7361C35.8291 13.8407 34.9337 14.7361 33.8291 14.7361H33.8091C32.7045 14.7361 31.8091 13.8407 31.8091 12.7361Z" fill="#00ADFF"/>
</svg>
