<svg width="33" height="25" viewBox="0 0 33 25" fill="none" xmlns="http://www.w3.org/2000/svg">
<path d="M27.617 2.76944C31.1713 7.99533 32.9266 13.89 32.2705 20.6761C32.2677 20.7048 32.2528 20.7312 32.2291 20.7485C29.5375 22.7249 26.9297 23.9244 24.3584 24.7199C24.3384 24.7259 24.317 24.7256 24.2972 24.7189C24.2773 24.7122 24.2601 24.6995 24.2479 24.6825C23.6539 23.856 23.1141 22.9846 22.6413 22.0695C22.6141 22.0156 22.6389 21.9507 22.6948 21.9295C23.552 21.6065 24.3671 21.2194 25.1511 20.7611C25.2129 20.7249 25.2168 20.6364 25.1598 20.5939C24.9934 20.4704 24.8286 20.3405 24.6708 20.2107C24.6413 20.1867 24.6016 20.182 24.5681 20.1981C19.4779 22.5487 13.9019 22.5487 8.75156 20.1981C8.71813 20.1832 8.67839 20.1883 8.64967 20.2119C8.49232 20.3417 8.32709 20.4704 8.16226 20.5939C8.10521 20.6364 8.10993 20.7249 8.17209 20.7611C8.95613 21.2107 9.77125 21.6065 10.6273 21.9311C10.6828 21.9523 10.7091 22.0156 10.6816 22.0695C10.2189 22.9858 9.6792 23.8571 9.07415 24.6837C9.04779 24.7171 9.00452 24.7324 8.96361 24.7199C6.40455 23.9244 3.79672 22.7249 1.10509 20.7485C1.08267 20.7312 1.06654 20.7037 1.06418 20.6749C0.515783 14.805 1.63343 8.8616 5.71335 2.76826C5.72319 2.75213 5.73814 2.73954 5.75545 2.73206C7.76296 1.81073 9.91366 1.1329 12.1615 0.745799C12.2024 0.739505 12.2434 0.758388 12.2646 0.79458C12.5423 1.28633 12.8598 1.91694 13.0746 2.4323C15.444 2.07037 17.8505 2.07037 20.2695 2.4323C20.4843 1.92796 20.7907 1.28633 21.0673 0.79458C21.0771 0.776626 21.0924 0.762241 21.1109 0.753481C21.1294 0.74472 21.1502 0.742032 21.1703 0.745799C23.4194 1.13408 25.5701 1.81191 27.576 2.73206C27.5937 2.73954 27.6083 2.75213 27.617 2.76944ZM14.2792 13.9301C14.304 12.1949 13.0388 10.759 11.4507 10.759C9.8755 10.759 8.62253 12.1823 8.62253 13.9301C8.62253 15.6776 9.90029 17.1009 11.4507 17.1009C13.0262 17.1009 14.2792 15.6776 14.2792 13.9301ZM24.7365 13.9301C24.7613 12.1949 23.4961 10.759 21.9084 10.759C20.3328 10.759 19.0798 12.1823 19.0798 13.9301C19.0798 15.6776 20.3576 17.1009 21.9084 17.1009C23.4961 17.1009 24.7365 15.6776 24.7365 13.9301Z" fill="#00ADFF"/>
</svg>
