<svg width="24" height="24" viewBox="0 0 24 24" fill="none" xmlns="http://www.w3.org/2000/svg">
<path fill-rule="evenodd" clip-rule="evenodd" d="M12.0002 2.58333C8.57139 2.58333 5.79183 5.3629 5.79183 8.79166C5.79183 10.8888 6.83161 12.743 8.42376 13.867C10.5787 15.3463 13.4225 15.346 15.5774 13.8664C17.1691 12.7424 18.2085 10.8884 18.2085 8.79166C18.2085 5.3629 15.4289 2.58333 12.0002 2.58333ZM7.12127 14.8671C5.34519 13.439 4.2085 11.2481 4.2085 8.79166C4.2085 4.48845 7.69694 1 12.0002 1C16.3034 1 19.7918 4.48845 19.7918 8.79166C19.7918 11.2477 18.6555 13.4382 16.8799 14.8664L17.785 21.6875C17.8249 21.9889 17.6888 22.2865 17.4348 22.4534C17.1807 22.6202 16.8535 22.6269 16.5929 22.4705L12.0045 19.7175L12.0002 19.7149L11.9959 19.7175L7.40747 22.4705C7.1468 22.6269 6.81959 22.6202 6.56551 22.4533C6.31143 22.2864 6.17536 21.9888 6.21539 21.6874L7.12127 14.8671ZM8.5944 15.8015L8.00118 20.2678L11.1813 18.3598C11.1908 18.3541 11.2012 18.3477 11.2124 18.3409C11.3215 18.2744 11.5087 18.1602 11.7231 18.1132C11.9056 18.0731 12.0947 18.0731 12.2772 18.1132C12.4916 18.1602 12.6788 18.2744 12.7879 18.3409C12.7991 18.3477 12.8095 18.3541 12.8191 18.3598L15.9994 20.268L15.4068 15.8011C14.3777 16.3022 13.2217 16.5833 12.0002 16.5833C10.7789 16.5833 9.62329 16.3024 8.5944 15.8015Z" fill="#97A6B1"/>
<path d="M7 15C5.22392 13.5391 4 11.5127 4 9C4 4.59808 7.69249 1 11.9957 1C11.9943 7.14793 11.9914 19.1376 11.9914 19.7L7.34196 22.5176C7.08129 22.6776 6.75408 22.6707 6.5 22.5C6.24592 22.3293 6.10985 22.0248 6.14988 21.7165L7 15Z" fill="#00ADFF"/>
</svg>
