<svg width="18" height="129" viewBox="0 0 18 129" fill="none" xmlns="http://www.w3.org/2000/svg">
<path fill-rule="evenodd" clip-rule="evenodd" d="M2.734 7.92984C2.9226 7.92292 3.10157 7.84498 3.2351 7.71161L7.98586 2.93833V53.2364C8.01207 53.4166 8.10239 53.5812 8.24013 53.7003C8.37788 53.8193 8.55382 53.8846 8.73586 53.8844C8.93419 53.8836 9.12424 53.8047 9.26467 53.6646C9.40509 53.5246 9.48455 53.3348 9.48586 53.1364V2.95858L14.2251 7.71161L14.3052 7.78461C14.457 7.899 14.6464 7.9515 14.8354 7.93149C15.0245 7.91148 15.1989 7.82044 15.3234 7.67679C15.4478 7.53315 15.5131 7.34759 15.506 7.15766C15.4989 6.96772 15.42 6.78756 15.2851 6.6536L9.26513 0.603611L9.26191 0.600996C9.24519 0.584334 9.22762 0.568407 9.20925 0.553285C9.07413 0.442078 8.90465 0.382069 8.73062 0.382819C8.71095 0.382735 8.69123 0.383421 8.6715 0.384891C8.4916 0.398292 8.32249 0.475917 8.19506 0.603611L2.17516 6.6536L2.1051 6.73761C1.99288 6.88936 1.94216 7.07789 1.96313 7.26545C1.98409 7.45301 2.07518 7.62572 2.21813 7.74894C2.36109 7.87215 2.5454 7.93677 2.734 7.92984Z" fill="#00ADFF"/>
<path d="M6.15288 121.258C5.615 121.318 5.19833 121.568 4.90288 122.008C4.60363 122.447 4.45401 123 4.45401 123.667C4.45401 124.144 4.52977 124.557 4.68128 124.906C4.82901 125.254 5.03356 125.525 5.29492 125.718C5.5525 125.907 5.84606 126.002 6.1756 126.002C6.45212 126.002 6.69075 125.938 6.89151 125.809C7.09227 125.676 7.26083 125.504 7.39719 125.292C7.52977 125.076 7.64151 124.845 7.73242 124.599C7.81954 124.353 7.89151 124.116 7.94833 123.888L8.24379 122.752C8.33469 122.381 8.4578 122 8.6131 121.61C8.76841 121.22 8.97295 120.858 9.22674 120.525C9.48053 120.192 9.79492 119.923 10.1699 119.718C10.5449 119.51 10.9938 119.406 11.5165 119.406C12.1756 119.406 12.7608 119.576 13.2722 119.917C13.7836 120.254 14.187 120.745 14.4824 121.388C14.7779 122.029 14.9256 122.803 14.9256 123.712C14.9256 124.584 14.7873 125.337 14.5108 125.974C14.2343 126.61 13.8423 127.108 13.3347 127.468C12.8233 127.828 12.2173 128.027 11.5165 128.065V126.303C11.937 126.269 12.2873 126.133 12.5676 125.894C12.8442 125.652 13.0506 125.343 13.187 124.968C13.3195 124.589 13.3858 124.174 13.3858 123.724C13.3858 123.228 13.3082 122.786 13.1529 122.4C12.9938 122.01 12.7741 121.703 12.4938 121.479C12.2097 121.256 11.8783 121.144 11.4995 121.144C11.1548 121.144 10.8726 121.243 10.6529 121.44C10.4332 121.633 10.2514 121.896 10.1074 122.229C9.96348 122.559 9.83659 122.932 9.72674 123.349L9.35174 124.724C9.09795 125.656 8.72485 126.394 8.23242 126.94C7.74 127.481 7.08848 127.752 6.27788 127.752C5.60742 127.752 5.02219 127.57 4.52219 127.207C4.02219 126.843 3.63394 126.351 3.35742 125.729C3.07712 125.108 2.93697 124.407 2.93697 123.627C2.93697 122.839 3.07522 122.144 3.35174 121.542C3.62826 120.936 4.00894 120.459 4.49378 120.11C4.97485 119.762 5.52788 119.58 6.15288 119.565V121.258ZM14.9086 113.768C14.9086 114.612 14.7173 115.34 14.3347 115.95C13.9483 116.556 13.4161 117.022 12.7381 117.347C12.0601 117.673 11.2836 117.836 10.4086 117.836C9.52219 117.836 8.74 117.669 8.06197 117.336C7.38015 117.003 6.84795 116.533 6.46538 115.927C6.0828 115.321 5.89151 114.607 5.89151 113.785C5.89151 113.122 6.01462 112.531 6.26083 112.012C6.50325 111.493 6.84416 111.075 7.28356 110.756C7.72295 110.434 8.23621 110.243 8.82333 110.183V111.836C8.41424 111.927 8.06197 112.135 7.76651 112.461C7.47106 112.783 7.32333 113.215 7.32333 113.756C7.32333 114.23 7.44833 114.645 7.69833 115.001C7.94454 115.353 8.29682 115.628 8.75515 115.825C9.20969 116.022 9.74757 116.12 10.3688 116.12C11.0051 116.12 11.5544 116.023 12.0165 115.83C12.4786 115.637 12.8366 115.364 13.0904 115.012C13.3442 114.656 13.4711 114.237 13.4711 113.756C13.4711 113.434 13.4123 113.143 13.2949 112.881C13.1737 112.616 13.0014 112.395 12.7779 112.217C12.5544 112.035 12.2855 111.908 11.9711 111.836V110.183C12.5355 110.243 13.0392 110.427 13.4824 110.734C13.9256 111.04 14.2741 111.451 14.5279 111.967C14.7817 112.478 14.9086 113.078 14.9086 113.768ZM14.7324 108.366H6.00515V106.724H7.39151V106.633C6.92182 106.474 6.5525 106.193 6.28356 105.792C6.01083 105.387 5.87447 104.928 5.87447 104.417C5.87447 104.311 5.87825 104.186 5.88583 104.042C5.89341 103.894 5.90288 103.779 5.91424 103.695H7.53924C7.5203 103.763 7.49947 103.885 7.47674 104.059C7.45022 104.233 7.43697 104.407 7.43697 104.582C7.43697 104.983 7.52219 105.341 7.69265 105.656C7.85932 105.966 8.09227 106.212 8.39151 106.394C8.68697 106.576 9.02409 106.667 9.40288 106.667H14.7324V108.366ZM14.9086 98.8615C14.9086 99.6797 14.7211 100.394 14.3461 101.004C13.9711 101.613 13.4464 102.087 12.7722 102.424C12.098 102.761 11.3101 102.93 10.4086 102.93C9.50325 102.93 8.71159 102.761 8.03356 102.424C7.35553 102.087 6.82901 101.613 6.45401 101.004C6.07901 100.394 5.89151 99.6797 5.89151 98.8615C5.89151 98.0433 6.07901 97.3293 6.45401 96.7195C6.82901 96.1096 7.35553 95.6361 8.03356 95.299C8.71159 94.9619 9.50325 94.7933 10.4086 94.7933C11.3101 94.7933 12.098 94.9619 12.7722 95.299C13.4464 95.6361 13.9711 96.1096 14.3461 96.7195C14.7211 97.3293 14.9086 98.0433 14.9086 98.8615ZM13.4824 98.8558C13.4824 98.3255 13.3423 97.8861 13.062 97.5376C12.7817 97.1892 12.4086 96.9316 11.9426 96.7649C11.4767 96.5945 10.9635 96.5092 10.4029 96.5092C9.84606 96.5092 9.33469 96.5945 8.86879 96.7649C8.39909 96.9316 8.02219 97.1892 7.7381 97.5376C7.45401 97.8861 7.31197 98.3255 7.31197 98.8558C7.31197 99.3899 7.45401 99.8331 7.7381 100.185C8.02219 100.534 8.39909 100.793 8.86879 100.964C9.33469 101.13 9.84606 101.214 10.4029 101.214C10.9635 101.214 11.4767 101.13 11.9426 100.964C12.4086 100.793 12.7817 100.534 13.062 100.185C13.3423 99.8331 13.4824 99.3899 13.4824 98.8558ZM3.09606 91.1982H14.7324V92.897H3.09606V91.1982ZM3.09606 87.2138H14.7324V88.9126H3.09606L3.09606 87.2138ZM11.1131 75.1655H6.00515V73.4609H14.7324V75.1314H13.2211V75.2223C13.687 75.4231 14.0752 75.745 14.3858 76.1882C14.6926 76.6276 14.8461 77.175 14.8461 77.8303C14.8461 78.3909 14.723 78.8871 14.4767 79.3189C14.2267 79.7469 13.8574 80.084 13.3688 80.3303C12.8801 80.5727 12.276 80.6939 11.5563 80.6939H6.00515L6.00515 78.995H11.3517C11.9464 78.995 12.4199 78.8303 12.7722 78.5007C13.1245 78.1712 13.3006 77.7431 13.3006 77.2166C13.3006 76.8984 13.2211 76.5821 13.062 76.2678C12.9029 75.9496 12.6623 75.6863 12.3404 75.478C12.0184 75.2659 11.6093 75.1617 11.1131 75.1655ZM18.0051 71.1783H6.00515V69.5192H7.41992V69.3771C7.2381 69.2786 7.02788 69.1366 6.78924 68.951C6.5506 68.7654 6.34227 68.5078 6.16424 68.1783C5.98242 67.8487 5.89151 67.4131 5.89151 66.8714C5.89151 66.1669 6.06954 65.5381 6.4256 64.9851C6.78166 64.4321 7.29492 63.9983 7.96538 63.6839C8.63583 63.3658 9.44265 63.2067 10.3858 63.2067C11.329 63.2067 12.1377 63.3639 12.812 63.6783C13.4824 63.9927 13.9995 64.4245 14.3631 64.9737C14.723 65.523 14.9029 66.1499 14.9029 66.8544C14.9029 67.3847 14.8139 67.8184 14.6358 68.1555C14.4578 68.4889 14.2495 68.7502 14.0108 68.9396C13.7722 69.129 13.5601 69.2749 13.3745 69.3771V69.4794H18.0051V71.1783ZM10.3688 69.5135C10.9824 69.5135 11.5203 69.4245 11.9824 69.2464C12.4445 69.0684 12.8063 68.8108 13.0676 68.4737C13.3252 68.1366 13.454 67.7237 13.454 67.2351C13.454 66.7275 13.3195 66.3033 13.0506 65.9624C12.7779 65.6214 12.4086 65.3639 11.9426 65.1896C11.4767 65.0116 10.9521 64.9226 10.3688 64.9226C9.79303 64.9226 9.27598 65.0097 8.81765 65.1839C8.35932 65.3544 7.99757 65.612 7.73242 65.9567C7.46727 66.2976 7.33469 66.7237 7.33469 67.2351C7.33469 67.7275 7.46159 68.1442 7.71538 68.4851C7.96916 68.8222 8.32333 69.0779 8.77788 69.2521C9.23242 69.4264 9.76272 69.5135 10.3688 69.5135Z" fill="white"/>
</svg>
