<svg width="25" height="25" viewBox="0 0 25 25" fill="none" xmlns="http://www.w3.org/2000/svg">
<path d="M23.5811 5.72839C23.4731 5.661 23.3498 5.6222 23.2227 5.61564C23.0956 5.60908 22.9689 5.63497 22.8545 5.69089C18.8298 7.65964 15.9555 6.73714 12.917 5.76401C9.72953 4.74307 6.42484 3.68839 1.85922 5.91776C1.73165 5.97895 1.624 6.07498 1.54868 6.19475C1.47337 6.31452 1.43347 6.45315 1.43359 6.59464V17.8381C1.43358 17.9653 1.46594 18.0905 1.52763 18.2018C1.58932 18.3131 1.67832 18.4069 1.78624 18.4743C1.89417 18.5417 2.01747 18.5805 2.14455 18.5872C2.27163 18.5938 2.39831 18.568 2.51266 18.5121C6.53734 16.5434 9.41172 17.4659 12.4548 18.439C14.2586 19.0156 16.0961 19.6034 18.1736 19.6034C19.7758 19.6034 21.5233 19.2546 23.5089 18.2853C23.635 18.2237 23.7413 18.128 23.8157 18.009C23.8902 17.89 23.9297 17.7525 23.9298 17.6121V6.3687C23.931 6.24112 23.8995 6.11536 23.8385 6.00331C23.7775 5.89127 23.6889 5.79664 23.5811 5.72839ZM22.4336 17.1349C18.6273 18.8384 15.8477 17.9496 12.9123 17.0112C11.1086 16.4346 9.27109 15.8468 7.19359 15.8468C5.734 15.8539 4.28926 16.1403 2.93734 16.6906V7.07182C6.74359 5.36839 9.52328 6.25714 12.4586 7.19557C15.3939 8.13401 18.4155 9.10339 22.4336 7.51807V17.1349ZM12.6836 9.10339C12.0903 9.10339 11.5102 9.27933 11.0169 9.60898C10.5235 9.93862 10.139 10.4072 9.91195 10.9553C9.68489 11.5035 9.62548 12.1067 9.74124 12.6887C9.85699 13.2706 10.1427 13.8052 10.5623 14.2247C10.9818 14.6443 11.5164 14.93 12.0983 15.0457C12.6803 15.1615 13.2835 15.1021 13.8316 14.875C14.3798 14.648 14.8484 14.2634 15.178 13.7701C15.5076 13.2768 15.6836 12.6967 15.6836 12.1034C15.6836 11.3077 15.3675 10.5447 14.8049 9.98207C14.2423 9.41946 13.4792 9.10339 12.6836 9.10339ZM12.6836 13.6034C12.3869 13.6034 12.0969 13.5154 11.8502 13.3506C11.6036 13.1858 11.4113 12.9515 11.2978 12.6774C11.1842 12.4033 11.1545 12.1017 11.2124 11.8108C11.2703 11.5198 11.4132 11.2525 11.6229 11.0427C11.8327 10.8329 12.1 10.6901 12.391 10.6322C12.6819 10.5743 12.9835 10.604 13.2576 10.7176C13.5317 10.8311 13.766 11.0234 13.9308 11.27C14.0956 11.5167 14.1836 11.8067 14.1836 12.1034C14.1836 12.5012 14.0256 12.8827 13.7443 13.164C13.4629 13.4454 13.0814 13.6034 12.6836 13.6034ZM5.93359 9.10339V13.6034C5.93359 13.8023 5.85458 13.9931 5.71392 14.1337C5.57327 14.2744 5.38251 14.3534 5.18359 14.3534C4.98468 14.3534 4.79392 14.2744 4.65326 14.1337C4.51261 13.9931 4.43359 13.8023 4.43359 13.6034V9.10339C4.43359 8.90448 4.51261 8.71371 4.65326 8.57306C4.79392 8.43241 4.98468 8.35339 5.18359 8.35339C5.38251 8.35339 5.57327 8.43241 5.71392 8.57306C5.85458 8.71371 5.93359 8.90448 5.93359 9.10339ZM19.4336 15.1034V10.6034C19.4336 10.4045 19.5126 10.2137 19.6533 10.0731C19.7939 9.9324 19.9847 9.85339 20.1836 9.85339C20.3825 9.85339 20.5733 9.9324 20.7139 10.0731C20.8546 10.2137 20.9336 10.4045 20.9336 10.6034V15.1034C20.9336 15.3023 20.8546 15.4931 20.7139 15.6337C20.5733 15.7744 20.3825 15.8534 20.1836 15.8534C19.9847 15.8534 19.7939 15.7744 19.6533 15.6337C19.5126 15.4931 19.4336 15.3023 19.4336 15.1034Z" fill="#667085"/>
</svg>
