<svg width="24" height="24" viewBox="0 0 24 24" fill="none" xmlns="http://www.w3.org/2000/svg">
<g clip-path="url(#clip0_5601_19091)">
<path d="M21.0664 3.95039V8.45039C21.0664 8.6493 20.9874 8.84006 20.8467 8.98072C20.7061 9.12137 20.5153 9.20039 20.3164 9.20039H15.8164C15.6175 9.20039 15.4267 9.12137 15.2861 8.98072C15.1454 8.84006 15.0664 8.6493 15.0664 8.45039C15.0664 8.25147 15.1454 8.06071 15.2861 7.92006C15.4267 7.7794 15.6175 7.70039 15.8164 7.70039H18.5061L17.1345 6.32882C15.7406 4.92858 13.8481 4.13859 11.8723 4.13226H11.8302C9.87094 4.12767 7.98867 4.89452 6.59047 6.26695C6.44724 6.40066 6.25737 6.473 6.06148 6.46851C5.86559 6.46402 5.67924 6.38304 5.54229 6.24291C5.40534 6.10277 5.32867 5.91461 5.32868 5.71867C5.32869 5.52272 5.40538 5.33457 5.54234 5.19445C7.2369 3.53826 9.51623 2.61715 11.8857 2.63101C14.2551 2.64488 16.5235 3.5926 18.1986 5.26851L19.5664 6.64007V3.95039C19.5664 3.75147 19.6454 3.56071 19.7861 3.42006C19.9267 3.2794 20.1175 3.20039 20.3164 3.20039C20.5153 3.20039 20.7061 3.2794 20.8467 3.42006C20.9874 3.56071 21.0664 3.75147 21.0664 3.95039ZM17.5423 16.6338C16.1303 18.0131 14.2315 18.7801 12.2576 18.7686C10.2837 18.757 8.39403 17.9677 6.99828 16.5719L5.62672 15.2004H8.31641C8.51532 15.2004 8.70608 15.1214 8.84674 14.9807C8.98739 14.8401 9.06641 14.6493 9.06641 14.4504C9.06641 14.2515 8.98739 14.0607 8.84674 13.9201C8.70608 13.7794 8.51532 13.7004 8.31641 13.7004H3.81641C3.61749 13.7004 3.42673 13.7794 3.28608 13.9201C3.14542 14.0607 3.06641 14.2515 3.06641 14.4504V18.9504C3.06641 19.1493 3.14542 19.3401 3.28608 19.4807C3.42673 19.6214 3.61749 19.7004 3.81641 19.7004C4.01532 19.7004 4.20608 19.6214 4.34674 19.4807C4.48739 19.3401 4.56641 19.1493 4.56641 18.9504V16.2607L5.93797 17.6323C7.61067 19.3134 9.8824 20.2616 12.2539 20.2685H12.3036C14.6549 20.2746 16.914 19.354 18.5914 17.7063C18.7284 17.5662 18.8051 17.378 18.8051 17.1821C18.8051 16.9862 18.7284 16.798 18.5915 16.6579C18.4545 16.5177 18.2682 16.4368 18.0723 16.4323C17.8764 16.4278 17.6856 16.5001 17.5423 16.6338Z" fill="#00ADFF"/>
</g>
<defs>
<clipPath id="clip0_5601_19091">
<rect width="24" height="24" fill="white"/>
</clipPath>
</defs>
</svg>
