<svg width="22" height="21" viewBox="0 0 22 21" fill="none" xmlns="http://www.w3.org/2000/svg">
<path d="M10.6013 6.18748C9.71124 6.18748 8.84121 6.4514 8.10119 6.94587C7.36117 7.44034 6.78439 8.14314 6.44379 8.96541C6.1032 9.78767 6.01409 10.6925 6.18772 11.5654C6.36135 12.4383 6.78994 13.2401 7.41927 13.8695C8.04861 14.4988 8.85043 14.9274 9.72335 15.101C10.5963 15.2746 11.5011 15.1855 12.3233 14.8449C13.1456 14.5043 13.8484 13.9276 14.3429 13.1875C14.8373 12.4475 15.1013 11.5775 15.1013 10.6875C15.1 9.49439 14.6255 8.35052 13.7819 7.50687C12.9382 6.66323 11.7943 6.18872 10.6013 6.18748ZM10.6013 13.6875C10.0079 13.6875 9.42789 13.5115 8.93454 13.1819C8.44119 12.8522 8.05668 12.3837 7.82961 11.8355C7.60255 11.2874 7.54314 10.6842 7.6589 10.1022C7.77465 9.52027 8.06037 8.98572 8.47993 8.56616C8.89949 8.1466 9.43404 7.86088 10.016 7.74513C10.5979 7.62937 11.2011 7.68878 11.7493 7.91584C12.2975 8.14291 12.766 8.52742 13.0957 9.02077C13.4253 9.51412 13.6013 10.0941 13.6013 10.6875C13.6013 11.4831 13.2852 12.2462 12.7226 12.8088C12.16 13.3714 11.3969 13.6875 10.6013 13.6875ZM20.9081 8.73842C20.8872 8.63281 20.8439 8.53293 20.7809 8.44557C20.718 8.35822 20.637 8.28543 20.5434 8.23217L17.7469 6.63842L17.7356 3.48654C17.7353 3.378 17.7114 3.27081 17.6656 3.1724C17.6198 3.07399 17.5532 2.98669 17.4703 2.91654C16.4559 2.05845 15.2877 1.40086 14.0278 0.978732C13.9286 0.945151 13.8235 0.932723 13.7191 0.94225C13.6148 0.951776 13.5137 0.983046 13.4222 1.03404L10.6013 2.61092L7.7775 1.03123C7.68596 0.979946 7.58467 0.948441 7.48019 0.938751C7.37571 0.929062 7.27035 0.941405 7.17094 0.974982C5.91202 1.40019 4.74515 2.06029 3.73219 2.92029C3.64947 2.99034 3.58292 3.07749 3.53712 3.17573C3.49132 3.27397 3.46735 3.38097 3.46688 3.48936L3.45282 6.64404L0.656253 8.23779C0.562692 8.29106 0.481694 8.36384 0.418767 8.4512C0.355839 8.53855 0.312456 8.63843 0.291565 8.74404C0.0356241 10.0302 0.0356241 11.3542 0.291565 12.6403C0.312456 12.7459 0.355839 12.8458 0.418767 12.9331C0.481694 13.0205 0.562692 13.0933 0.656253 13.1465L3.45282 14.7403L3.46407 17.8922C3.4644 18.0007 3.4883 18.1079 3.53411 18.2063C3.57992 18.3047 3.64654 18.392 3.72938 18.4622C4.74382 19.3203 5.91202 19.9779 7.17188 20.4C7.27109 20.4336 7.37624 20.446 7.48055 20.4365C7.58486 20.4269 7.68601 20.3957 7.7775 20.3447L10.6013 18.764L13.425 20.3437C13.5368 20.406 13.6627 20.4383 13.7906 20.4375C13.8725 20.4375 13.9539 20.4242 14.0316 20.3981C15.2903 19.9735 16.4572 19.314 17.4703 18.4547C17.553 18.3846 17.6196 18.2975 17.6654 18.1992C17.7112 18.101 17.7352 17.994 17.7356 17.8856L17.7497 14.7309L20.5463 13.1372C20.6398 13.0839 20.7208 13.0111 20.7837 12.9238C20.8467 12.8364 20.8901 12.7365 20.9109 12.6309C21.1655 11.3458 21.1645 10.0232 20.9081 8.73842ZM19.5019 12.0112L16.8234 13.5347C16.7061 13.6014 16.6089 13.6986 16.5422 13.8159C16.4878 13.9097 16.4306 14.009 16.3725 14.1028C16.2981 14.221 16.2585 14.3578 16.2581 14.4975L16.2441 17.5209C15.5241 18.0863 14.7221 18.5384 13.8656 18.8615L11.1638 17.3559C11.0516 17.2939 10.9254 17.2616 10.7972 17.2622H10.7794C10.6659 17.2622 10.5516 17.2622 10.4381 17.2622C10.304 17.2588 10.1713 17.2912 10.0538 17.3559L7.35 18.8653C6.49173 18.5446 5.68746 18.0947 4.965 17.5312L4.95469 14.5125C4.95423 14.3725 4.91461 14.2355 4.84032 14.1169C4.78219 14.0231 4.725 13.9294 4.67157 13.83C4.60531 13.7108 4.50815 13.6117 4.39032 13.5431L1.70907 12.0159C1.57031 11.1382 1.57031 10.2442 1.70907 9.36654L4.38281 7.84029C4.50017 7.77357 4.59734 7.6764 4.66406 7.55904C4.71844 7.46529 4.77563 7.36592 4.83375 7.27217C4.90816 7.15394 4.94779 7.01717 4.94813 6.87748L4.96219 3.85404C5.68212 3.28868 6.48418 2.83659 7.34063 2.51342L10.0388 4.01904C10.1562 4.08413 10.2889 4.11651 10.4231 4.11279C10.5366 4.11279 10.6509 4.11279 10.7644 4.11279C10.8985 4.11615 11.0312 4.08379 11.1488 4.01904L13.8525 2.50967C14.7108 2.83036 15.515 3.28024 16.2375 3.84373L16.2478 6.86248C16.2483 7.00245 16.2879 7.13949 16.3622 7.25811C16.4203 7.35186 16.4775 7.44561 16.5309 7.54498C16.5972 7.66415 16.6944 7.76325 16.8122 7.83186L19.4934 9.35905C19.634 10.2374 19.6356 11.1324 19.4981 12.0112H19.5019Z" fill="#667085"/>
</svg>
