<svg width="22" height="22" viewBox="0 0 22 22" fill="none" xmlns="http://www.w3.org/2000/svg">
<path d="M12.7674 12.3411C12.6977 12.2713 12.615 12.216 12.524 12.1783C12.4329 12.1405 12.3353 12.1211 12.2367 12.1211C12.1382 12.1211 12.0406 12.1405 11.9495 12.1783C11.8585 12.216 11.7758 12.2713 11.7061 12.3411L9.98674 14.0614L8.04706 12.1217L9.76737 10.4023C9.9081 10.2616 9.98716 10.0707 9.98716 9.87168C9.98716 9.67266 9.9081 9.48179 9.76737 9.34106C9.62664 9.20033 9.43577 9.12127 9.23674 9.12127C9.03772 9.12127 8.84685 9.20033 8.70612 9.34106L6.98674 11.0614L5.26737 9.34106C5.12664 9.20033 4.93577 9.12127 4.73674 9.12127C4.53772 9.12127 4.34685 9.20033 4.20612 9.34106C4.06539 9.48179 3.98633 9.67266 3.98633 9.87168C3.98633 10.0707 4.06539 10.2616 4.20612 10.4023L4.80143 10.9967L2.61518 13.182C2.33653 13.4606 2.11549 13.7913 1.96469 14.1553C1.81388 14.5194 1.73626 14.9095 1.73626 15.3036C1.73626 15.6976 1.81388 16.0877 1.96469 16.4518C2.11549 16.8158 2.33653 17.1465 2.61518 17.4251L3.11956 17.9286L0.45612 20.5911C0.386438 20.6607 0.331162 20.7435 0.29345 20.8345C0.255738 20.9256 0.236328 21.0231 0.236328 21.1217C0.236328 21.2202 0.255738 21.3178 0.29345 21.4089C0.331162 21.4999 0.386438 21.5826 0.45612 21.6523C0.596851 21.793 0.787722 21.8721 0.986745 21.8721C1.08529 21.8721 1.18287 21.8527 1.27392 21.815C1.36496 21.7773 1.44769 21.722 1.51737 21.6523L4.17987 18.9889L4.68331 19.4932C4.96189 19.7719 5.29264 19.9929 5.65666 20.1437C6.02068 20.2945 6.41085 20.3722 6.80487 20.3722C7.19889 20.3722 7.58906 20.2945 7.95308 20.1437C8.3171 19.9929 8.64785 19.7719 8.92643 19.4932L11.1117 17.307L11.7061 17.9023C11.7758 17.972 11.8585 18.0273 11.9496 18.065C12.0406 18.1027 12.1382 18.1221 12.2367 18.1221C12.3353 18.1221 12.4329 18.1027 12.5239 18.065C12.615 18.0273 12.6977 17.972 12.7674 17.9023C12.8371 17.8326 12.8923 17.7499 12.93 17.6589C12.9678 17.5678 12.9872 17.4702 12.9872 17.3717C12.9872 17.2731 12.9678 17.1756 12.93 17.0845C12.8923 16.9935 12.8371 16.9107 12.7674 16.8411L11.0471 15.1217L12.7674 13.4023C12.8371 13.3327 12.8924 13.2499 12.9302 13.1589C12.9679 13.0678 12.9873 12.9702 12.9873 12.8717C12.9873 12.7731 12.9679 12.6755 12.9302 12.5845C12.8924 12.4934 12.8371 12.4107 12.7674 12.3411ZM7.86518 18.4348C7.58391 18.7159 7.20252 18.8738 6.80487 18.8738C6.40722 18.8738 6.02583 18.7159 5.74456 18.4348L3.67643 16.3639C3.39534 16.0826 3.23744 15.7012 3.23744 15.3036C3.23744 14.9059 3.39534 14.5245 3.67643 14.2432L5.86174 12.057L10.0514 16.2467L7.86518 18.4348ZM21.0174 1.09106C20.9477 1.02133 20.865 0.966007 20.774 0.928264C20.6829 0.890521 20.5853 0.871094 20.4867 0.871094C20.3882 0.871094 20.2906 0.890521 20.1995 0.928264C20.1085 0.966007 20.0258 1.02133 19.9561 1.09106L17.2936 3.7545L16.7902 3.25012C16.2269 2.68851 15.464 2.37314 14.6686 2.37314C13.8732 2.37314 13.1103 2.68851 12.5471 3.25012L10.3617 5.43637L9.76737 4.84106C9.62664 4.70033 9.43577 4.62127 9.23674 4.62127C9.03772 4.62127 8.84685 4.70033 8.70612 4.84106C8.56539 4.98179 8.48633 5.17266 8.48633 5.37168C8.48633 5.57071 8.56539 5.76158 8.70612 5.90231L16.2061 13.4023C16.2758 13.472 16.3585 13.5273 16.4496 13.565C16.5406 13.6027 16.6382 13.6221 16.7367 13.6221C16.8353 13.6221 16.9329 13.6027 17.0239 13.565C17.115 13.5273 17.1977 13.472 17.2674 13.4023C17.3371 13.3326 17.3923 13.2499 17.43 13.1589C17.4678 13.0678 17.4872 12.9702 17.4872 12.8717C17.4872 12.7731 17.4678 12.6756 17.43 12.5845C17.3923 12.4935 17.3371 12.4107 17.2674 12.3411L16.6721 11.7467L18.8583 9.56137C19.137 9.28279 19.358 8.95204 19.5088 8.58802C19.6596 8.224 19.7372 7.83383 19.7372 7.43981C19.7372 7.04579 19.6596 6.65562 19.5088 6.2916C19.358 5.92758 19.137 5.59683 18.8583 5.31825L18.3539 4.81481L21.0174 2.15231C21.0871 2.08265 21.1424 1.99994 21.1802 1.90889C21.2179 1.81784 21.2373 1.72025 21.2373 1.62168C21.2373 1.52312 21.2179 1.42553 21.1802 1.33448C21.1424 1.24343 21.0871 1.16071 21.0174 1.09106ZM17.7971 8.49731L15.6117 10.6864L11.4221 6.49668L13.6083 4.31137C13.8896 4.03028 14.271 3.87238 14.6686 3.87238C15.0663 3.87238 15.4477 4.03028 15.7289 4.31137L17.7971 6.37387C17.9371 6.51325 18.0482 6.67892 18.124 6.86136C18.1998 7.0438 18.2389 7.23943 18.2389 7.437C18.2389 7.63457 18.1998 7.83019 18.124 8.01263C18.0482 8.19508 17.9371 8.36074 17.7971 8.50012V8.49731Z" fill="white"/>
</svg>
