<svg width="74" height="58" viewBox="0 0 74 58" fill="none" xmlns="http://www.w3.org/2000/svg">
<path d="M62.7396 5.7201C71.097 18.0078 75.2243 31.868 73.6814 47.8242C73.6749 47.8917 73.6398 47.9537 73.5843 47.9944C67.2554 52.6416 61.1236 55.4619 55.0778 57.3322C55.0308 57.3465 54.9804 57.3457 54.9338 57.33C54.8872 57.3142 54.8467 57.2843 54.8179 57.2444C53.4212 55.3009 52.1521 53.2521 51.0402 51.1005C50.9764 50.9738 51.0347 50.8212 51.166 50.7712C53.1816 50.0118 55.0982 49.1016 56.9417 48.024C57.0869 47.9389 57.0962 47.7308 56.9621 47.6309C56.5708 47.3404 56.1832 47.0352 55.8123 46.7299C55.7429 46.6735 55.6495 46.6624 55.5709 46.7003C43.6023 52.2272 30.4914 52.2272 18.3813 46.7003C18.3027 46.6652 18.2092 46.6772 18.1417 46.7327C17.7717 47.0379 17.3832 47.3404 16.9956 47.6309C16.8615 47.7308 16.8726 47.9389 17.0188 48.024C18.8623 49.0812 20.7789 50.0118 22.7917 50.7749C22.9221 50.8249 22.9841 50.9738 22.9193 51.1005C21.8315 53.2548 20.5624 55.3037 19.1398 57.2471C19.0778 57.3258 18.9761 57.3618 18.8799 57.3322C12.8628 55.4619 6.73094 52.6416 0.402099 47.9944C0.349375 47.9537 0.31145 47.8889 0.3059 47.8214C-0.983548 34.0195 1.64437 20.0446 11.2375 5.71732C11.2607 5.6794 11.2958 5.6498 11.3365 5.63222C16.0568 3.46588 21.1137 1.87211 26.3992 0.961907C26.4954 0.947107 26.5916 0.991507 26.6415 1.07661C27.2946 2.23286 28.0411 3.71563 28.5461 4.92738C34.1174 4.07638 39.7756 4.07638 45.4634 4.92738C45.9684 3.74153 46.689 2.23286 47.3393 1.07661C47.3625 1.03439 47.3984 1.00057 47.4419 0.979969C47.4854 0.959371 47.5343 0.953049 47.5816 0.961907C52.8699 1.87488 57.9268 3.46865 62.6434 5.63222C62.685 5.6498 62.7192 5.6794 62.7396 5.7201ZM31.3785 31.9623C31.4367 27.8821 28.4619 24.5059 24.7277 24.5059C21.024 24.5059 18.0779 27.8525 18.0779 31.9623C18.0779 36.0711 21.0823 39.4178 24.7277 39.4178C28.4323 39.4178 31.3785 36.0711 31.3785 31.9623ZM55.9668 31.9623C56.025 27.8821 53.0502 24.5059 49.3169 24.5059C45.6123 24.5059 42.6662 27.8525 42.6662 31.9623C42.6662 36.0711 45.6706 39.4178 49.3169 39.4178C53.0502 39.4178 55.9668 36.0711 55.9668 31.9623Z" fill="white"/>
</svg>
