<svg width="80" height="80" viewBox="0 0 80 80" fill="none" xmlns="http://www.w3.org/2000/svg">
<path d="M72.9553 43.2177C72.4242 49.3926 70.1405 55.2874 66.3729 60.2085C62.6054 65.1296 57.5107 68.8723 51.6883 70.9963C45.8659 73.1203 39.558 73.5372 33.5067 72.198C27.4554 70.8588 21.9125 67.8192 17.53 63.4367C13.1476 59.0543 10.1079 53.5113 8.7687 47.46C7.42948 41.4087 7.8464 35.1008 9.9704 29.2784C12.0944 23.456 15.8371 18.3613 20.7582 14.5938C25.6794 10.8262 31.5741 8.54257 37.7491 8.01142C38.0774 7.98434 38.4078 8.02218 38.7215 8.1228C39.0351 8.22341 39.3259 8.38482 39.5772 8.59782C39.8285 8.81081 40.0354 9.07122 40.1861 9.36416C40.3367 9.65711 40.4282 9.97687 40.4553 10.3052C40.4824 10.6335 40.4445 10.9639 40.3439 11.2776C40.2433 11.5913 40.0819 11.8821 39.8689 12.1333C39.6559 12.3846 39.3955 12.5915 39.1026 12.7422C38.8096 12.8929 38.4899 12.9843 38.1616 13.0114C32.9353 13.4605 27.9459 15.3929 23.7806 18.5813C19.6153 21.7697 16.4474 26.0815 14.6494 31.0093C12.8515 35.9371 12.4985 41.2759 13.6318 46.3976C14.7652 51.5192 17.3378 56.2106 21.0469 59.9198C24.7561 63.629 29.4475 66.2016 34.5691 67.3349C39.6908 68.4683 45.0296 68.1152 49.9574 66.3173C54.8852 64.5194 59.197 61.3514 62.3854 57.1861C65.5738 53.0208 67.5063 48.0315 67.9553 42.8052C68.01 42.1421 68.3259 41.528 68.8334 41.0978C69.3409 40.6677 69.9985 40.4567 70.6616 40.5114C71.3246 40.5661 71.9387 40.882 72.3689 41.3895C72.7991 41.897 73.01 42.5546 72.9553 43.2177ZM37.9553 23.0114V40.5114C37.9553 41.1745 38.2187 41.8104 38.6875 42.2792C39.1564 42.748 39.7923 43.0114 40.4553 43.0114H57.9553C58.6183 43.0114 59.2542 42.748 59.7231 42.2792C60.1919 41.8104 60.4553 41.1745 60.4553 40.5114C60.4553 39.8484 60.1919 39.2125 59.7231 38.7437C59.2542 38.2748 58.6183 38.0114 57.9553 38.0114H42.9553V23.0114C42.9553 22.3484 42.6919 21.7125 42.2231 21.2437C41.7542 20.7748 41.1183 20.5114 40.4553 20.5114C39.7923 20.5114 39.1564 20.7748 38.6875 21.2437C38.2187 21.7125 37.9553 22.3484 37.9553 23.0114ZM50.4553 15.5114C51.197 15.5114 51.922 15.2915 52.5387 14.8794C53.1554 14.4674 53.636 13.8817 53.9198 13.1965C54.2037 12.5113 54.2779 11.7573 54.1332 11.0298C53.9886 10.3024 53.6314 9.63422 53.1069 9.10977C52.5825 8.58533 51.9143 8.22817 51.1869 8.08348C50.4595 7.93878 49.7055 8.01305 49.0202 8.29688C48.335 8.5807 47.7493 9.06135 47.3373 9.67803C46.9252 10.2947 46.7053 11.0197 46.7053 11.7614C46.7053 12.756 47.1004 13.7098 47.8037 14.4131C48.5069 15.1163 49.4607 15.5114 50.4553 15.5114ZM61.7053 23.0114C62.447 23.0114 63.172 22.7915 63.7887 22.3794C64.4054 21.9674 64.886 21.3817 65.1698 20.6965C65.4537 20.0113 65.5279 19.2573 65.3832 18.5298C65.2386 17.8024 64.8814 17.1342 64.3569 16.6098C63.8325 16.0853 63.1643 15.7282 62.4369 15.5835C61.7095 15.4388 60.9555 15.513 60.2702 15.7969C59.585 16.0807 58.9993 16.5614 58.5873 17.178C58.1752 17.7947 57.9553 18.5197 57.9553 19.2614C57.9553 20.256 58.3504 21.2098 59.0537 21.9131C59.7569 22.6163 60.7107 23.0114 61.7053 23.0114ZM69.2053 34.2614C69.947 34.2614 70.672 34.0415 71.2887 33.6294C71.9054 33.2174 72.386 32.6317 72.6698 31.9465C72.9537 31.2613 73.0279 30.5073 72.8832 29.7798C72.7385 29.0524 72.3814 28.3842 71.8569 27.8598C71.3325 27.3353 70.6643 26.9782 69.9369 26.8335C69.2095 26.6888 68.4555 26.763 67.7702 27.0469C67.085 27.3307 66.4993 27.8114 66.0873 28.428C65.6752 29.0447 65.4553 29.7697 65.4553 30.5114C65.4553 31.506 65.8504 32.4598 66.5537 33.1631C67.2569 33.8663 68.2107 34.2614 69.2053 34.2614Z" fill="#00ADFF"/>
</svg>
