<svg width="40" height="40" viewBox="0 0 40 40" fill="none" xmlns="http://www.w3.org/2000/svg">
<path d="M32.4972 14.9974C32.4972 14.6266 32.6072 14.2641 32.8132 13.9557C33.0192 13.6474 33.312 13.4071 33.6547 13.2651C33.9973 13.1232 34.3743 13.0861 34.738 13.1584C35.1017 13.2308 35.4358 13.4094 35.698 13.6716C35.9602 13.9338 36.1388 14.2679 36.2112 14.6316C36.2835 14.9953 36.2464 15.3723 36.1045 15.7149C35.9625 16.0576 35.7222 16.3504 35.4139 16.5564C35.1055 16.7624 34.743 16.8724 34.3722 16.8724C33.8749 16.8724 33.398 16.6749 33.0464 16.3232C32.6947 15.9716 32.4972 15.4947 32.4972 14.9974ZM30.6222 11.2474C30.993 11.2474 31.3555 11.1374 31.6639 10.9314C31.9722 10.7254 32.2125 10.4326 32.3545 10.0899C32.4964 9.74733 32.5335 9.37033 32.4612 9.00662C32.3888 8.6429 32.2102 8.30881 31.948 8.04659C31.6858 7.78436 31.3517 7.60579 30.988 7.53344C30.6243 7.46109 30.2473 7.49822 29.9047 7.64014C29.562 7.78205 29.2692 8.02237 29.0632 8.33072C28.8572 8.63906 28.7472 9.00157 28.7472 9.37241C28.7472 9.86969 28.9447 10.3466 29.2964 10.6982C29.648 11.0499 30.1249 11.2474 30.6222 11.2474ZM35.1003 19.9974C34.7701 19.9702 34.4425 20.0752 34.1896 20.2894C33.9368 20.5035 33.7793 20.8094 33.7519 21.1396C33.5282 23.7528 32.5627 26.2478 30.9692 28.3309C29.3756 30.4141 27.2202 31.9988 24.7566 32.8985C22.293 33.7982 19.6237 33.9756 17.0627 33.4097C14.5017 32.8438 12.1555 31.5583 10.3004 29.7043C8.44521 27.8503 7.15817 25.505 6.59069 22.9443C6.02321 20.3837 6.1989 17.7142 7.09708 15.2501C7.99527 12.7859 9.57858 10.6295 11.6607 9.03462C13.7429 7.43975 16.2372 6.47275 18.8503 6.24741C19.0145 6.23387 19.1743 6.18813 19.3208 6.1128C19.4673 6.03747 19.5975 5.93402 19.704 5.80837C19.8105 5.68272 19.8912 5.53733 19.9415 5.38049C19.9918 5.22365 20.0107 5.05844 19.9972 4.89429C19.9836 4.73013 19.9379 4.57026 19.8626 4.42378C19.7872 4.27731 19.6838 4.1471 19.5581 4.04061C19.4325 3.93411 19.2871 3.8534 19.1303 3.8031C18.9734 3.75279 18.8082 3.73387 18.6441 3.74741C15.5566 4.01298 12.6092 5.15482 10.1487 7.03859C7.68809 8.92236 5.81673 11.4697 4.75473 14.3809C3.69273 17.2921 3.48427 20.4461 4.15388 23.4717C4.82349 26.4974 6.34332 29.2688 8.53454 31.4601C10.7258 33.6513 13.4972 35.1711 16.5229 35.8407C19.5485 36.5103 22.7025 36.3019 25.6137 35.2399C28.5249 34.1779 31.0722 32.3065 32.956 29.8459C34.8398 27.3854 35.9816 24.438 36.2472 21.3505C36.2613 21.1863 36.2428 21.0208 36.1927 20.8638C36.1426 20.7067 36.0619 20.5611 35.9553 20.4353C35.8487 20.3095 35.7183 20.2061 35.5716 20.1309C35.4248 20.0558 35.2647 20.0104 35.1003 19.9974ZM19.9972 8.74741C22.2222 8.74741 24.3973 9.40721 26.2473 10.6434C28.0974 11.8795 29.5393 13.6366 30.3908 15.6922C31.2423 17.7479 31.4651 20.0099 31.031 22.1922C30.5969 24.3745 29.5255 26.379 27.9521 27.9524C26.3788 29.5257 24.3742 30.5972 22.1919 31.0312C20.0097 31.4653 17.7477 31.2425 15.692 30.3911C13.6363 29.5396 11.8793 28.0976 10.6431 26.2476C9.40698 24.3975 8.74718 22.2225 8.74718 19.9974C8.75049 17.0147 9.93682 14.1552 12.0459 12.0461C14.155 9.93705 17.0145 8.75072 19.9972 8.74741ZM18.7472 19.9974C18.7472 20.3289 18.8789 20.6469 19.1133 20.8813C19.3477 21.1157 19.6657 21.2474 19.9972 21.2474H27.4972C27.8287 21.2474 28.1466 21.1157 28.3811 20.8813C28.6155 20.6469 28.7472 20.3289 28.7472 19.9974C28.7472 19.6659 28.6155 19.3479 28.3811 19.1135C28.1466 18.8791 27.8287 18.7474 27.4972 18.7474H21.2472V12.4974C21.2472 12.1659 21.1155 11.8479 20.8811 11.6135C20.6466 11.3791 20.3287 11.2474 19.9972 11.2474C19.6657 11.2474 19.3477 11.3791 19.1133 11.6135C18.8789 11.8479 18.7472 12.1659 18.7472 12.4974V19.9974ZM24.9972 7.49741C25.368 7.49741 25.7305 7.38744 26.0389 7.18142C26.3472 6.97539 26.5875 6.68255 26.7295 6.33994C26.8714 5.99733 26.9085 5.62033 26.8362 5.25662C26.7638 4.8929 26.5852 4.55881 26.323 4.29659C26.0608 4.03436 25.7267 3.85579 25.363 3.78344C24.9993 3.71109 24.6223 3.74822 24.2797 3.89014C23.937 4.03205 23.6442 4.27237 23.4382 4.58072C23.2322 4.88906 23.1222 5.25157 23.1222 5.62241C23.1222 6.11969 23.3197 6.59661 23.6714 6.94824C24.023 7.29987 24.4999 7.49741 24.9972 7.49741Z" fill="#00ADFF"/>
</svg>
