<svg width="69" height="64" viewBox="0 0 69 64" fill="none" xmlns="http://www.w3.org/2000/svg">
<path d="M46.668 3.99902C45.4815 3.99878 44.3099 4.26243 43.2379 4.77087C42.166 5.27931 41.2205 6.01982 40.4701 6.93875C39.7196 7.85767 39.1829 8.93201 38.8989 10.0839C38.6149 11.2359 38.5907 12.4366 38.828 13.599C38.8925 13.9069 38.8835 14.2257 38.8017 14.5295C38.7199 14.8332 38.5675 15.1134 38.3571 15.3472C38.1466 15.5811 37.884 15.762 37.5905 15.8752C37.297 15.9885 36.9809 16.0309 36.668 15.999C35.348 15.999 34.1 16.319 33.004 16.887C32.4048 15.6832 31.6562 14.5596 30.776 13.543C31.985 12.8612 33.3033 12.3942 34.672 12.163V11.999C34.672 10.4232 34.9824 8.86273 35.5854 7.40682C36.1885 5.95092 37.0724 4.62805 38.1867 3.51374C39.301 2.39944 40.6239 1.51553 42.0798 0.912469C43.5357 0.309413 45.0961 -0.000976562 46.672 -0.000976562C48.2478 -0.000976562 49.8083 0.309413 51.2642 0.912469C52.7201 1.51553 54.0429 2.39944 55.1572 3.51374C56.2716 4.62805 57.1555 5.95092 57.7585 7.40682C58.3616 8.86273 58.672 10.4232 58.672 11.999L58.668 12.163C60.2394 12.4359 61.7406 13.0194 63.084 13.8792C64.4273 14.7391 65.5857 15.8581 66.4915 17.1709C67.3974 18.4836 68.0324 19.9638 68.3595 21.5248C68.6866 23.0859 68.6993 24.6965 68.3967 26.2624C68.0942 27.8284 67.4825 29.3184 66.5974 30.6452C65.7123 31.9721 64.5716 33.1091 63.2419 33.99C61.9123 34.8708 60.4204 35.4778 58.8534 35.7753C57.2865 36.0729 55.676 36.0551 54.116 35.723L54.996 39.351C55.2455 40.3811 55.2579 41.4544 55.0321 42.4899C54.8064 43.5254 54.3485 44.4962 53.6929 45.3289C53.0373 46.1617 52.2012 46.8347 51.2476 47.2973C50.294 47.7598 49.2478 47.9997 48.188 47.999H45.14C44.0799 47.9988 43.0338 47.7579 42.0805 47.2944C41.1271 46.8309 40.2915 46.1569 39.6367 45.3233C38.9818 44.4897 38.5249 43.5183 38.3002 42.4824C38.0756 41.4464 38.0892 40.373 38.34 39.343L40.14 31.935C40.202 31.6797 40.3136 31.4392 40.4686 31.227C40.6235 31.0149 40.8188 30.8353 41.0431 30.6987C41.2675 30.562 41.5165 30.4708 41.7761 30.4304C42.0357 30.3899 42.3007 30.401 42.556 30.463C42.8113 30.525 43.0518 30.6367 43.264 30.7916C43.4761 30.9466 43.6557 31.1418 43.7923 31.3662C43.929 31.5905 44.0202 31.8396 44.0606 32.0992C44.101 32.3587 44.09 32.6237 44.028 32.879L42.228 40.291C42.1208 40.7321 42.1152 41.1918 42.2115 41.6354C42.3078 42.079 42.5035 42.4949 42.7838 42.8519C43.0642 43.2089 43.4219 43.4976 43.83 43.6963C44.2382 43.895 44.686 43.9985 45.14 43.999H48.188C48.6426 43.9997 49.0914 43.8971 49.5005 43.699C49.9096 43.5008 50.2684 43.2122 50.5496 42.8551C50.8309 42.4979 51.0273 42.0815 51.124 41.6373C51.2207 41.1931 51.2153 40.7328 51.108 40.291L49.308 32.875C49.2148 32.4867 49.24 32.0793 49.3803 31.7054C49.5207 31.3314 49.7698 31.0081 50.0956 30.777C50.4213 30.5459 50.8088 30.4177 51.2081 30.4088C51.6074 30.3999 52.0002 30.5107 52.336 30.727C53.3872 31.4028 54.5822 31.8229 55.825 31.9536C57.0679 32.0844 58.3241 31.9221 59.493 31.4799C60.6618 31.0376 61.7108 30.3277 62.5559 29.4069C63.4009 28.4862 64.0185 27.3803 64.3591 26.1779C64.6997 24.9755 64.7539 23.71 64.5173 22.4829C64.2806 21.2558 63.7598 20.1011 62.9966 19.1116C62.2333 18.122 61.2488 17.325 60.122 16.7845C58.9952 16.244 57.7575 15.975 56.508 15.999C56.208 16.0051 55.9105 15.9436 55.6375 15.8191C55.3646 15.6946 55.1231 15.5103 54.931 15.2798C54.739 15.0493 54.6012 14.7786 54.528 14.4876C54.4547 14.1967 54.4479 13.893 54.508 13.599C54.6146 13.0817 54.668 12.547 54.668 11.995C54.668 9.87329 53.8251 7.83846 52.3248 6.33817C50.8245 4.83788 48.7897 3.99902 46.668 3.99902ZM10.668 23.995C10.668 22.7274 10.9692 21.4779 11.5468 20.3496C12.1244 19.2212 12.9619 18.2463 13.9903 17.5051C15.0186 16.7639 16.2084 16.2777 17.4615 16.0865C18.7146 15.8954 19.9952 16.0047 21.1978 16.4056C22.4004 16.8064 23.4905 17.4873 24.3782 18.3921C25.266 19.2969 25.9261 20.3997 26.3041 21.6097C26.682 22.8196 26.7671 24.1021 26.5522 25.3514C26.3372 26.6006 25.8285 27.7809 25.068 28.795C24.8451 29.0922 24.7094 29.4455 24.676 29.8154C24.6427 30.1853 24.713 30.5572 24.8791 30.8895C25.0452 31.2217 25.3006 31.5011 25.6165 31.6963C25.9325 31.8916 26.2965 31.995 26.668 31.995H28.668C29.1984 31.995 29.7071 32.2057 30.0822 32.5808C30.4573 32.9559 30.668 33.4646 30.668 33.995C30.668 34.5255 30.4573 35.0342 30.0822 35.4092C29.7071 35.7843 29.1984 35.995 28.668 35.995H24.24C23.9572 35.9952 23.6777 36.0554 23.4199 36.1716C23.1621 36.2878 22.9318 36.4573 22.7443 36.669C22.5569 36.8806 22.4164 37.1297 22.3322 37.3996C22.248 37.6696 22.222 37.9543 22.256 38.235C23.464 48.115 28.692 53.787 31.616 56.235C32.316 56.819 32.668 57.555 32.668 58.191C32.6685 58.4281 32.6222 58.6629 32.5317 58.882C32.4412 59.1011 32.3084 59.3002 32.1408 59.4678C31.9731 59.6354 31.7741 59.7683 31.555 59.8588C31.3358 59.9493 31.101 59.9956 30.864 59.995H6.46797C5.99058 59.995 5.53274 59.8054 5.19518 59.4678C4.85761 59.1303 4.66797 58.6724 4.66797 58.195C4.66797 57.555 5.01997 56.823 5.71597 56.239C8.64397 53.791 13.876 48.119 15.08 38.239C15.1139 37.9583 15.0879 37.6736 15.0037 37.4036C14.9196 37.1337 14.7791 36.8846 14.5916 36.673C14.4041 36.4613 14.1739 36.2918 13.9161 36.1756C13.6583 36.0594 13.3787 35.9992 13.096 35.999H8.66797C8.13754 35.999 7.62883 35.7883 7.25376 35.4132C6.87868 35.0382 6.66797 34.5295 6.66797 33.999C6.66797 33.4686 6.87868 32.9599 7.25376 32.5848C7.62883 32.2097 8.13754 31.999 8.66797 31.999H10.668C11.0394 31.999 11.4035 31.8956 11.7194 31.7003C12.0354 31.5051 12.2907 31.2257 12.4568 30.8935C12.6229 30.5612 12.6932 30.1893 12.6599 29.8194C12.6265 29.4495 12.4908 29.0962 12.268 28.799C11.2294 27.4143 10.668 25.726 10.668 23.995ZM18.668 11.999C16.7357 11.9985 14.8319 12.4646 13.1184 13.3577C11.4049 14.2507 9.93239 15.5444 8.8261 17.1286C7.71981 18.7128 7.01245 20.5408 6.76415 22.457C6.51586 24.3733 6.73398 26.3212 7.39997 28.135C5.95301 28.4485 4.67303 29.2858 3.80619 30.486C2.93934 31.6862 2.54684 33.1645 2.70418 34.6367C2.86152 36.1088 3.55758 37.4708 4.6585 38.4607C5.75942 39.4506 7.18746 39.9985 8.66797 39.999H10.748C9.25997 47.191 5.33597 51.343 3.14797 53.171C1.76397 54.331 0.667969 56.115 0.667969 58.195C0.667969 61.399 3.26797 63.999 6.47197 63.999H30.868C34.068 63.999 36.668 61.399 36.668 58.195C36.668 56.115 35.572 54.331 34.188 53.171C32 51.343 28.076 47.191 26.588 39.999H28.668C30.1485 39.9985 31.5765 39.4506 32.6774 38.4607C33.7784 37.4708 34.4744 36.1088 34.6318 34.6367C34.7891 33.1645 34.3966 31.6862 33.5298 30.486C32.6629 29.2858 31.3829 28.4485 29.936 28.135C30.602 26.3212 30.8201 24.3733 30.5718 22.457C30.3235 20.5408 29.6161 18.7128 28.5098 17.1286C27.4035 15.5444 25.9311 14.2507 24.2176 13.3577C22.5041 12.4646 20.6002 11.9985 18.668 11.999Z" fill="#00ADFF"/>
</svg>
