<svg width="20" height="20" viewBox="0 0 20 20" fill="none" xmlns="http://www.w3.org/2000/svg">
<g clip-path="url(#clip0_114_29463)">
<path d="M10.2903 6.16135C10.2903 5.30332 9.9495 4.48044 9.34279 3.87373C8.73607 3.26701 7.91319 2.92616 7.05517 2.92616H2.20239V15.0581H7.86396C8.50748 15.0581 9.12464 15.3137 9.57968 15.7688C10.0347 16.2238 10.2903 16.841 10.2903 17.4845M10.2903 6.16135V17.4845M10.2903 6.16135C10.2903 5.30332 10.6312 4.48044 11.2379 3.87373C11.8446 3.26701 12.6675 2.92616 13.5255 2.92616H18.3783V15.0581H12.7167C12.0732 15.0581 11.4561 15.3137 11.001 15.7688C10.546 16.2238 10.2903 16.841 10.2903 17.4845" stroke="#D0D5DD" stroke-width="1.61759" stroke-linecap="round" stroke-linejoin="round"/>
</g>
<defs>
<clipPath id="clip0_114_29463">
<rect width="19.4111" height="19.4111" fill="white" transform="translate(0.584717 0.499778)"/>
</clipPath>
</defs>
</svg>
