<svg width="20" height="20" viewBox="0 0 20 20" fill="none" xmlns="http://www.w3.org/2000/svg">
<g clip-path="url(#clip0_114_29477)">
<path d="M7.93675 7.32002C8.1269 6.77947 8.50222 6.32367 8.99624 6.03333C9.49025 5.74299 10.0711 5.63686 10.6358 5.73374C11.2006 5.83061 11.7129 6.12423 12.0819 6.5626C12.4509 7.00097 12.6529 7.5558 12.652 8.12881C12.652 9.7464 10.2256 10.5552 10.2256 10.5552M10.2903 13.7904H10.2984M18.3783 9.7464C18.3783 14.2133 14.7572 17.8344 10.2903 17.8344C5.82349 17.8344 2.20239 14.2133 2.20239 9.7464C2.20239 5.27955 5.82349 1.65845 10.2903 1.65845C14.7572 1.65845 18.3783 5.27955 18.3783 9.7464Z" stroke="#F2F4F7" stroke-width="1.61759" stroke-linecap="round" stroke-linejoin="round"/>
</g>
<defs>
<clipPath id="clip0_114_29477">
<rect width="19.4111" height="19.4111" fill="white" transform="translate(0.584717 0.040863)"/>
</clipPath>
</defs>
</svg>
