<svg width="20" height="21" viewBox="0 0 20 21" fill="none" xmlns="http://www.w3.org/2000/svg">
<g clip-path="url(#clip0_114_29481)">
<path d="M10.2903 13.0542C11.6304 13.0542 12.7167 11.9679 12.7167 10.6279C12.7167 9.2878 11.6304 8.20147 10.2903 8.20147C8.95025 8.20147 7.86392 9.2878 7.86392 10.6279C7.86392 11.9679 8.95025 13.0542 10.2903 13.0542Z" stroke="#D0D5DD" stroke-width="1.61759" stroke-linecap="round" stroke-linejoin="round"/>
<path d="M16.2754 13.0542C16.1677 13.2982 16.1356 13.5688 16.1832 13.8312C16.2308 14.0935 16.3558 14.3356 16.5423 14.5263L16.5908 14.5748C16.7412 14.725 16.8605 14.9034 16.9419 15.0998C17.0233 15.2962 17.0652 15.5067 17.0652 15.7192C17.0652 15.9318 17.0233 16.1423 16.9419 16.3387C16.8605 16.535 16.7412 16.7134 16.5908 16.8637C16.4406 17.0141 16.2622 17.1334 16.0658 17.2148C15.8694 17.2962 15.659 17.3381 15.4464 17.3381C15.2338 17.3381 15.0233 17.2962 14.8269 17.2148C14.6306 17.1334 14.4522 17.0141 14.3019 16.8637L14.2534 16.8151C14.0628 16.6287 13.8207 16.5036 13.5583 16.456C13.2959 16.4085 13.0253 16.4406 12.7814 16.5482C12.5422 16.6508 12.3382 16.821 12.1945 17.038C12.0508 17.255 11.9736 17.5093 11.9726 17.7695V17.907C11.9726 18.336 11.8022 18.7475 11.4988 19.0508C11.1955 19.3542 10.784 19.5246 10.355 19.5246C9.926 19.5246 9.51456 19.3542 9.2112 19.0508C8.90784 18.7475 8.73742 18.336 8.73742 17.907V17.8342C8.73116 17.5665 8.6445 17.3069 8.48872 17.0891C8.33294 16.8713 8.11524 16.7054 7.86392 16.6129C7.61997 16.5053 7.34937 16.4732 7.087 16.5207C6.82463 16.5683 6.58253 16.6934 6.39191 16.8798L6.34338 16.9284C6.19315 17.0788 6.01475 17.1981 5.81838 17.2795C5.62201 17.3609 5.41151 17.4028 5.19894 17.4028C4.98636 17.4028 4.77587 17.3609 4.5795 17.2795C4.38312 17.1981 4.20472 17.0788 4.05449 16.9284C3.90409 16.7781 3.78478 16.5997 3.70338 16.4034C3.62197 16.207 3.58007 15.9965 3.58007 15.7839C3.58007 15.5714 3.62197 15.3609 3.70338 15.1645C3.78478 14.9681 3.90409 14.7897 4.05449 14.6395L4.10302 14.591C4.28948 14.4003 4.41456 14.1582 4.46213 13.8959C4.5097 13.6335 4.47758 13.3629 4.36992 13.119C4.2674 12.8797 4.09716 12.6757 3.88017 12.532C3.66318 12.3883 3.4089 12.3112 3.14864 12.3102H3.01115C2.58213 12.3102 2.17069 12.1397 1.86734 11.8364C1.56398 11.533 1.39355 11.1216 1.39355 10.6926C1.39355 10.2636 1.56398 9.85211 1.86734 9.54875C2.17069 9.2454 2.58213 9.07497 3.01115 9.07497H3.08394C3.35164 9.06871 3.61128 8.98206 3.82908 8.82628C4.04688 8.6705 4.21279 8.45279 4.30522 8.20147C4.41288 7.95753 4.445 7.68692 4.39742 7.42455C4.34985 7.16218 4.22477 6.92008 4.03832 6.72947L3.98979 6.68094C3.83939 6.53071 3.72008 6.35231 3.63867 6.15593C3.55727 5.95956 3.51537 5.74907 3.51537 5.53649C3.51537 5.32392 3.55727 5.11342 3.63867 4.91705C3.72008 4.72068 3.83939 4.54228 3.98979 4.39205C4.14002 4.24165 4.31842 4.12234 4.51479 4.04093C4.71117 3.95953 4.92166 3.91763 5.13423 3.91763C5.34681 3.91763 5.5573 3.95953 5.75367 4.04093C5.95005 4.12234 6.12845 4.24165 6.27868 4.39205L6.32721 4.44057C6.51782 4.62703 6.75993 4.75211 7.0223 4.79968C7.28466 4.84726 7.55527 4.81514 7.79922 4.70748H7.86392C8.10314 4.60495 8.30715 4.43472 8.45086 4.21772C8.59456 4.00073 8.67168 3.74646 8.67271 3.4862V3.3487C8.67271 2.91969 8.84314 2.50825 9.1465 2.20489C9.44985 1.90153 9.86129 1.73111 10.2903 1.73111C10.7193 1.73111 11.1308 1.90153 11.4341 2.20489C11.7375 2.50825 11.9079 2.91969 11.9079 3.3487V3.42149C11.9089 3.68175 11.9861 3.93603 12.1298 4.15302C12.2735 4.37001 12.4775 4.54025 12.7167 4.64277C12.9606 4.75044 13.2312 4.78255 13.4936 4.73498C13.756 4.68741 13.9981 4.56233 14.1887 4.37587L14.2372 4.32734C14.3875 4.17695 14.5659 4.05763 14.7622 3.97623C14.9586 3.89483 15.1691 3.85293 15.3817 3.85293C15.5942 3.85293 15.8047 3.89483 16.0011 3.97623C16.1975 4.05763 16.3759 4.17695 16.5261 4.32734C16.6765 4.47757 16.7958 4.65598 16.8772 4.85235C16.9586 5.04872 17.0005 5.25921 17.0005 5.47179C17.0005 5.68437 16.9586 5.89486 16.8772 6.09123C16.7958 6.2876 16.6765 6.466 16.5261 6.61623L16.4776 6.66476C16.2911 6.85538 16.1661 7.09748 16.1185 7.35985C16.0709 7.62222 16.103 7.89282 16.2107 8.13677V8.20147C16.3132 8.44069 16.4835 8.64471 16.7004 8.78841C16.9174 8.93211 17.1717 9.00923 17.432 9.01027H17.5695C17.9985 9.01027 18.4099 9.18069 18.7133 9.48405C19.0166 9.78741 19.1871 10.1988 19.1871 10.6279C19.1871 11.0569 19.0166 11.4683 18.7133 11.7717C18.4099 12.075 17.9985 12.2455 17.5695 12.2455H17.4967C17.2364 12.2465 16.9821 12.3236 16.7651 12.4673C16.5482 12.611 16.3779 12.815 16.2754 13.0542Z" stroke="#D0D5DD" stroke-width="1.61759" stroke-linecap="round" stroke-linejoin="round"/>
</g>
<defs>
<clipPath id="clip0_114_29481">
<rect width="19.4111" height="19.4111" fill="white" transform="translate(0.584717 0.922302)"/>
</clipPath>
</defs>
</svg>
