<svg width="20" height="21" viewBox="0 0 20 21" fill="none" xmlns="http://www.w3.org/2000/svg">
<path d="M19 13.1133V16.8633C19 17.2611 18.842 17.6426 18.5607 17.9239C18.2794 18.2052 17.8978 18.3633 17.5 18.3633H2.5C2.10218 18.3633 1.72064 18.2052 1.43934 17.9239C1.15804 17.6426 1 17.2611 1 16.8633V13.1133C1 12.7155 1.15804 12.3339 1.43934 12.0526C1.72064 11.7713 2.10218 11.6133 2.5 11.6133H17.5C17.8978 11.6133 18.2794 11.7713 18.5607 12.0526C18.842 12.3339 19 12.7155 19 13.1133ZM17.5 3.36328H2.5C2.10218 3.36328 1.72064 3.52132 1.43934 3.80262C1.15804 4.08393 1 4.46546 1 4.86328V8.61328C1 9.01111 1.15804 9.39264 1.43934 9.67394C1.72064 9.95525 2.10218 10.1133 2.5 10.1133H17.5C17.8978 10.1133 18.2794 9.95525 18.5607 9.67394C18.842 9.39264 19 9.01111 19 8.61328V4.86328C19 4.46546 18.842 4.08393 18.5607 3.80262C18.2794 3.52132 17.8978 3.36328 17.5 3.36328Z" fill="#596184"/>
</svg>
