<svg width="20" height="21" viewBox="0 0 20 21" fill="none" xmlns="http://www.w3.org/2000/svg">
<g clip-path="url(#clip0_1646_3991)">
<path d="M10.0002 4.42328C12.3214 4.42328 14.4077 5.22453 15.8127 6.66578C16.9684 6.81756 18.0586 7.2895 18.9602 8.02828C17.3839 4.71578 14.1189 2.86328 10.0002 2.86328C5.93768 2.86328 2.65018 4.71328 1.05518 8.01578C1.88172 7.34267 2.86668 6.89215 3.91643 6.70703C5.29518 5.20328 7.46768 4.42328 10.0002 4.42328Z" fill="#596184"/>
<path d="M15 17.8633C13.6997 17.8632 12.4505 17.3565 11.5175 16.4508L11.515 16.4483C11.4074 16.3673 11.2918 16.2973 11.17 16.2395C10.8032 16.0709 10.4038 15.9851 10 15.9883C9.48255 15.9883 9.0888 16.117 8.8313 16.2395C8.70913 16.2972 8.59312 16.3672 8.48505 16.4483L8.48255 16.4508C7.89482 17.0214 7.17591 17.4388 6.38903 17.6664C5.60215 17.894 4.7714 17.9248 3.96983 17.7561C3.16826 17.5873 2.42042 17.2242 1.79207 16.6987C1.16372 16.1732 0.674099 15.5014 0.366264 14.7423C0.0584284 13.9832 -0.0581941 13.1601 0.0266506 12.3454C0.111495 11.5307 0.395209 10.7493 0.852844 10.0699C1.31048 9.3905 1.92802 8.83396 2.65117 8.4492C3.37431 8.06444 4.18091 7.86323 5.00005 7.86328H15C16.3261 7.86328 17.5979 8.39007 18.5356 9.32775C19.4733 10.2654 20 11.5372 20 12.8633C20 14.1894 19.4733 15.4611 18.5356 16.3988C17.5979 17.3365 16.3261 17.8633 15 17.8633Z" fill="#596184"/>
</g>
<defs>
<clipPath id="clip0_1646_3991">
<rect width="20" height="20" fill="white" transform="translate(0 0.363281)"/>
</clipPath>
</defs>
</svg>
