<svg width="15" height="16" viewBox="0 0 15 16" fill="none" xmlns="http://www.w3.org/2000/svg">
<path d="M7 10.1133V13.8633C7 14.2611 6.86172 14.6426 6.61558 14.9239C6.36944 15.2052 6.0356 15.3633 5.6875 15.3633H1.3125C0.964403 15.3633 0.630564 15.2052 0.384422 14.9239C0.138281 14.6426 0 14.2611 0 13.8633V10.1133C0 9.71546 0.138281 9.33393 0.384422 9.05262C0.630564 8.77132 0.964403 8.61328 1.3125 8.61328H5.6875C6.0356 8.61328 6.36944 8.77132 6.61558 9.05262C6.86172 9.33393 7 9.71546 7 10.1133ZM5.6875 0.363281H1.3125C0.964403 0.363281 0.630564 0.521316 0.384422 0.802621C0.138281 1.08393 0 1.46546 0 1.86328V5.61328C0 6.01111 0.138281 6.39264 0.384422 6.67394C0.630564 6.95525 0.964403 7.11328 1.3125 7.11328H5.6875C6.0356 7.11328 6.36944 6.95525 6.61558 6.67394C6.86172 6.39264 7 6.01111 7 5.61328V1.86328C7 1.46546 6.86172 1.08393 6.61558 0.802621C6.36944 0.521316 6.0356 0.363281 5.6875 0.363281Z" fill="white"/>
<path d="M15 10.1133V13.8633C15 14.2611 14.8617 14.6426 14.6156 14.9239C14.3694 15.2052 14.0356 15.3633 13.6875 15.3633H9.3125C8.9644 15.3633 8.63056 15.2052 8.38442 14.9239C8.13828 14.6426 8 14.2611 8 13.8633V10.1133C8 9.71546 8.13828 9.33393 8.38442 9.05262C8.63056 8.77132 8.9644 8.61328 9.3125 8.61328H13.6875C14.0356 8.61328 14.3694 8.77132 14.6156 9.05262C14.8617 9.33393 15 9.71546 15 10.1133ZM13.6875 0.363281H9.3125C8.9644 0.363281 8.63056 0.521316 8.38442 0.802621C8.13828 1.08393 8 1.46546 8 1.86328V5.61328C8 6.01111 8.13828 6.39264 8.38442 6.67394C8.63056 6.95525 8.9644 7.11328 9.3125 7.11328H13.6875C14.0356 7.11328 14.3694 6.95525 14.6156 6.67394C14.8617 6.39264 15 6.01111 15 5.61328V1.86328C15 1.46546 14.8617 1.08393 14.6156 0.802621C14.3694 0.521316 14.0356 0.363281 13.6875 0.363281Z" fill="white"/>
</svg>
