<svg width="21" height="21" viewBox="0 0 21 21" fill="none" xmlns="http://www.w3.org/2000/svg">
<path fill-rule="evenodd" clip-rule="evenodd" d="M5.25815 0.370443C5.42815 0.37835 7.71723 0.821141 10.6942 1.42207C15.1538 2.31952 15.8456 2.4658 16.0156 2.63184L16.0117 7.92162C16.0117 10.8274 16.0235 13.2074 16.0433 13.2074C16.0591 13.2074 16.1777 13.1877 16.3082 13.164C16.4386 13.1442 16.7905 13.0612 17.091 12.9861C17.3875 12.9109 17.7117 12.8516 17.8105 12.8516C17.9093 12.8516 18.1268 12.8793 18.2968 12.9149C18.4628 12.9465 18.7356 13.0414 18.8977 13.1205C19.1152 13.2233 19.2733 13.3419 19.4907 13.5593C19.6647 13.7333 19.8426 13.9586 19.9138 14.097C19.9849 14.2275 20.068 14.4568 20.1075 14.6109C20.1549 14.8047 20.1747 15.0735 20.1787 15.5005C20.1826 16.0105 20.1668 16.1884 19.9928 17.0226L20.0521 17.9319C20.0956 18.5486 20.1035 18.9123 20.0798 19.0586C20.06 19.1772 20.0007 19.363 19.9533 19.4737C19.9019 19.5805 19.7991 19.7426 19.724 19.8256C19.6489 19.9126 19.5026 20.0391 19.3919 20.1063C19.2852 20.1735 19.1152 20.2605 19.0163 20.2961C18.9175 20.3317 18.7317 20.3633 18.6012 20.3633C18.4589 20.3633 18.2691 20.3277 18.1268 20.2763C17.9963 20.2328 17.8263 20.1537 17.7512 20.1063C17.6761 20.0589 17.5377 19.9324 17.4428 19.8256C17.3479 19.7189 17.2333 19.5449 17.1859 19.4342C17.1384 19.3275 16.9645 18.9519 16.5019 17.9714L16.0117 17.9516V18.2284C16.0117 18.5012 16.0156 18.513 16.4663 19.4144C16.7154 19.9126 16.921 20.3317 16.921 20.3435C16.921 20.3554 13.1138 20.3633 8.46049 20.3633C2.84652 20.3633 0 20.3514 0 20.3237C0 20.3 0.193721 19.8928 0.86977 18.5447V9.73628C0.873723 2.87696 0.88163 0.916025 0.921165 0.868583C0.948839 0.833002 1.00814 0.78556 1.05954 0.761839C1.10698 0.734164 1.99652 0.643234 3.03629 0.556257C4.0721 0.46928 4.93001 0.386257 4.94187 0.374396C4.95373 0.362536 5.09606 0.358582 5.25815 0.370443ZM3.76768 1.18486L3.63722 1.18882C3.63722 6.87395 3.64117 7.03999 3.70838 7.03999C3.74396 7.03999 4.04838 7.01627 4.38048 6.99255L4.98141 6.94116C4.98141 2.39068 4.97745 1.07417 4.9735 1.07417C4.96559 1.07812 4.72048 1.10184 4.42792 1.13347C4.13536 1.16114 3.83489 1.18486 3.76768 1.18486ZM5.69304 6.96092C5.95397 6.99255 8.09281 7.2772 10.6151 7.61325C13.1375 7.9493 15.2328 8.22604 15.2724 8.22604C15.3356 8.22604 15.3396 8.07581 15.3396 5.64836V3.06673C7.93862 1.58021 5.76815 1.14928 5.74048 1.14928C5.7049 1.14928 5.69304 1.75812 5.69304 4.0551V6.96092ZM1.56163 1.36672L1.54186 7.23767C1.83442 7.20604 2.12303 7.17837 2.3721 7.1586C2.62117 7.13883 2.85047 7.11906 2.87815 7.11906C2.91373 7.11906 2.92559 6.50627 2.92559 4.19348V1.26789C2.63303 1.27579 2.32861 1.29951 2.05582 1.32324L1.56163 1.36672ZM3.66885 7.74767C3.64908 7.75162 3.63722 10.1277 3.63722 13.0295V18.3075H4.98141V7.63302C4.81141 7.64092 4.5228 7.66465 4.23024 7.69627C3.93768 7.72395 3.68466 7.74767 3.66885 7.74767ZM5.69304 18.3075C9.35793 18.3075 9.80863 18.2956 9.82444 18.2561C9.83235 18.2323 9.85607 17.924 9.87584 17.5761C9.90747 16.987 9.90351 16.9158 9.82049 16.5284C9.74933 16.2082 9.72956 15.9947 9.72956 15.5795C9.72956 15.287 9.75328 14.9035 9.78491 14.7295C9.82049 14.5358 9.89956 14.2986 9.99049 14.1168C10.0893 13.9112 10.2158 13.7412 10.3977 13.5633C10.5479 13.413 10.7733 13.247 10.9314 13.16C11.0856 13.0809 11.3149 12.9861 11.4454 12.9465C11.6114 12.8951 11.8131 12.8754 12.1175 12.8754C12.4733 12.8754 12.6433 12.8991 13.0663 13.0019C13.347 13.073 13.7384 13.1561 13.9361 13.1877C14.1298 13.2193 14.5291 13.2588 14.8177 13.2747L15.3396 13.3063V8.93767C15.1419 8.91 13.007 8.62535 10.4689 8.28535C7.92676 7.9493 5.8156 7.67255 5.77211 7.67255C5.69304 7.67255 5.69304 7.70023 5.69304 12.99V18.3075ZM1.67233 7.90581L1.54186 7.90976L1.56163 18.2877L2.92559 18.3075C2.92559 10.1553 2.91373 7.79511 2.89791 7.79511C2.87815 7.79907 2.62512 7.82279 2.33256 7.85441C2.04 7.88209 1.73954 7.90581 1.67233 7.90581ZM11.3584 13.7214C11.22 13.7847 11.0184 13.923 10.9077 14.0258C10.7891 14.1405 10.6626 14.3105 10.5954 14.4528C10.5242 14.5951 10.4649 14.8126 10.4372 14.9944C10.4175 15.1644 10.3977 15.4491 10.3977 15.627C10.3977 15.8326 10.4372 16.1172 10.4965 16.39C10.5519 16.6272 10.5954 16.9316 10.5954 17.0621C10.5954 17.1926 10.5677 17.6551 10.5361 18.09C10.4965 18.6435 10.4926 18.9282 10.5203 19.0389C10.54 19.1258 10.6151 19.2682 10.6863 19.3512C10.7535 19.4382 10.884 19.541 10.971 19.5805C11.0579 19.6161 11.22 19.6517 11.3268 19.6517C11.4375 19.6517 11.5956 19.62 11.6826 19.5805C11.7696 19.541 11.8921 19.4461 11.9514 19.371C12.0107 19.2958 12.1451 19.0507 12.2519 18.8214C12.3547 18.5921 12.5484 18.1849 12.6828 17.9121C12.8172 17.6393 12.9675 17.3784 13.0149 17.3309L13.1058 17.24L16.9328 17.2598C17.4468 18.3628 17.6761 18.8491 17.771 19.0468C17.9331 19.3828 17.9686 19.4263 18.1584 19.533C18.3403 19.6398 18.3917 19.6556 18.621 19.6437C18.8147 19.6319 18.9135 19.6042 19.0242 19.533C19.1033 19.4777 19.218 19.363 19.2773 19.2761C19.3366 19.1891 19.3919 19.0468 19.4038 18.9598C19.4117 18.8728 19.3998 18.4814 19.3721 18.09C19.3484 17.6986 19.3247 17.2361 19.3287 17.0621C19.3287 16.8763 19.3642 16.5996 19.4156 16.39C19.4789 16.1172 19.4987 15.9235 19.4947 15.5598C19.4947 15.2989 19.471 14.9786 19.4473 14.8482C19.4235 14.7177 19.3563 14.52 19.301 14.4133C19.2456 14.3026 19.1112 14.1286 19.0005 14.0219C18.8898 13.9191 18.6921 13.7807 18.5617 13.7175C18.4233 13.6542 18.2059 13.5909 18.0477 13.5712C17.858 13.5475 17.7038 13.5514 17.5535 13.583C17.4349 13.6107 17.1938 13.67 17.0198 13.7135C16.8459 13.7609 16.5414 13.8281 16.3477 13.8637C16.1421 13.8993 15.6717 13.9349 15.2407 13.9468C14.6754 13.9626 14.3749 13.9507 14.0349 13.9033C13.7858 13.8677 13.3589 13.7847 13.0861 13.7175C12.8133 13.6502 12.4851 13.583 12.3547 13.5672C12.2203 13.5554 11.9989 13.5554 11.8605 13.5712C11.7103 13.5909 11.5007 13.6502 11.3584 13.7214ZM13.347 18.09C13.3114 18.1651 13.2838 18.2442 13.2838 18.2679C13.2838 18.2916 13.6514 18.3075 14.3117 18.3075H15.3396V17.9516H13.4142L13.347 18.09ZM1.26117 19.2958C1.17419 19.4698 1.10303 19.62 1.10303 19.6319C1.10303 19.6437 2.08349 19.6517 3.27745 19.6517C4.47536 19.6517 5.45187 19.6437 5.45187 19.6319C5.45187 19.62 5.38071 19.4698 5.29373 19.2958L5.13559 18.9796H1.42326L1.26117 19.2958ZM6.08443 19.3354L6.24257 19.6517H10.0379C9.91933 19.4223 9.86793 19.2721 9.84421 19.1693L9.80072 18.9796C6.79606 18.9796 5.92629 18.9875 5.92629 18.9993C5.92629 19.0112 5.99746 19.1614 6.08443 19.3354ZM12.837 19.1891C12.7856 19.3037 12.7144 19.454 12.6789 19.5251L12.6077 19.6517H15.81L15.474 18.9796H12.924L12.837 19.1891ZM12.1728 14.1642C12.2954 14.1602 12.4812 14.1879 12.5879 14.2195C12.6986 14.2551 12.841 14.3144 12.9042 14.354C12.9714 14.3975 13.1058 14.5161 13.2047 14.6188C13.3154 14.7335 13.4221 14.9035 13.4735 15.0379C13.5289 15.1842 13.5565 15.3542 13.5565 15.5123C13.5565 15.6507 13.5368 15.8326 13.5131 15.9195C13.4893 16.0065 13.4103 16.1686 13.3351 16.2833C13.264 16.3979 13.1177 16.5521 13.0149 16.6272C12.9121 16.7063 12.7382 16.7972 12.6275 16.8328C12.5207 16.8684 12.3151 16.8961 12.1728 16.8961C12.0068 16.8961 11.8368 16.8644 11.6786 16.8051C11.5205 16.7419 11.3782 16.647 11.2437 16.5126C11.137 16.4019 11.0026 16.224 10.9512 16.1172C10.88 15.9709 10.8484 15.8326 10.8405 15.6033C10.8247 15.3423 10.8405 15.2435 10.9117 15.0498C10.963 14.9154 11.0737 14.7375 11.1647 14.6386C11.2517 14.5437 11.3782 14.4291 11.4414 14.3816C11.5086 14.3382 11.651 14.267 11.7577 14.2314C11.8684 14.1958 12.0542 14.1642 12.1728 14.1642ZM11.7814 14.9905C11.7063 15.0458 11.6154 15.1605 11.5758 15.2475C11.5363 15.3344 11.5047 15.4609 11.5047 15.5321C11.5047 15.6033 11.5244 15.7179 11.5561 15.7891C11.5837 15.8602 11.6747 15.9749 11.7537 16.0461C11.8368 16.1212 11.9593 16.1844 12.0463 16.2002C12.1293 16.2121 12.2558 16.2121 12.331 16.2002C12.41 16.1844 12.5128 16.1489 12.5603 16.1172C12.6077 16.0816 12.6986 15.9907 12.7579 15.9077C12.8172 15.8247 12.8726 15.6902 12.8805 15.6033C12.891 15.4978 12.8686 15.3819 12.8133 15.2554C12.7579 15.1328 12.6749 15.034 12.58 14.9747C12.497 14.9233 12.3705 14.8719 12.2914 14.86C12.2163 14.8482 12.1017 14.8521 12.0344 14.8679C11.9712 14.8837 11.8565 14.9391 11.7814 14.9905ZM17.8066 14.1681C18.02 14.18 18.1466 14.2116 18.3403 14.3065C18.4984 14.3816 18.6566 14.4923 18.7514 14.5991C18.8345 14.694 18.9333 14.8323 18.9728 14.9114C19.0124 14.9865 19.0677 15.1644 19.0954 15.3068C19.131 15.5005 19.131 15.6151 19.0993 15.7812C19.0717 15.8998 19.0124 16.0737 18.9649 16.1647C18.9175 16.2556 18.8028 16.4058 18.7159 16.4968C18.6289 16.5837 18.4786 16.6984 18.3798 16.7498C18.2849 16.7972 18.107 16.8565 17.9845 16.8802C17.85 16.904 17.684 16.9079 17.5417 16.8842C17.4152 16.8644 17.2293 16.8051 17.1266 16.7537C17.0238 16.6984 16.8656 16.5798 16.7707 16.4849C16.6798 16.39 16.5572 16.2082 16.4979 16.0777C16.4149 15.8958 16.3912 15.7772 16.3872 15.5637C16.3872 15.4016 16.4149 15.204 16.4545 15.0893C16.49 14.9786 16.5849 14.8086 16.664 14.7098C16.7431 14.6149 16.8814 14.4805 16.9684 14.4133C17.0593 14.35 17.2214 14.267 17.3321 14.2275C17.4705 14.18 17.6168 14.1602 17.8066 14.1681ZM17.2807 15.0379C17.2293 15.0893 17.1621 15.1802 17.1266 15.2475C17.087 15.3265 17.0725 15.4385 17.0831 15.5835C17.0949 15.7219 17.1305 15.8444 17.1859 15.9275C17.2333 15.9986 17.344 16.0935 17.431 16.137C17.5179 16.1805 17.6603 16.2161 17.7473 16.2161C17.8342 16.2161 17.9766 16.1805 18.0635 16.137C18.1505 16.0935 18.2612 15.9986 18.3126 15.9275C18.36 15.8563 18.4075 15.7179 18.4154 15.6033C18.4273 15.4807 18.4114 15.3502 18.3798 15.2712C18.3482 15.1961 18.2652 15.0854 18.194 15.0221C18.1228 14.9628 18.0003 14.8916 17.9173 14.8719C17.8342 14.8482 17.7512 14.8323 17.7275 14.8323C17.7077 14.8323 17.6168 14.86 17.5298 14.8916C17.4428 14.9233 17.3321 14.9905 17.2807 15.0379ZM14.3077 14.5161C14.3986 14.5161 14.4777 14.5477 14.537 14.603C14.5884 14.6544 14.6279 14.7256 14.6279 14.7612C14.624 14.8244 14.6675 14.8323 14.9798 14.8323C15.304 14.8323 15.3396 14.8244 15.3554 14.7533C15.3672 14.7098 15.4186 14.6386 15.4661 14.5951C15.5175 14.5477 15.6084 14.5121 15.6835 14.5161C15.7666 14.5161 15.8456 14.5477 15.9089 14.6149C15.9998 14.7019 16.0077 14.7454 16.0117 15.0182C16.0117 15.2989 16.0038 15.3344 15.9089 15.4254C15.8061 15.5202 15.7942 15.5242 15.047 15.5361C14.4935 15.544 14.2603 15.5321 14.1772 15.4965C14.114 15.4689 14.0389 15.3937 14.0072 15.3344C13.9796 15.2751 13.9519 15.1288 13.9519 15.0102C13.9519 14.8877 13.9756 14.7533 13.9993 14.7019C14.0231 14.6544 14.0745 14.5912 14.11 14.5675C14.1417 14.5398 14.2326 14.5161 14.3077 14.5161Z" fill="white"/>
</svg>
