<svg width="16" height="15" viewBox="0 0 16 15" fill="none" xmlns="http://www.w3.org/2000/svg">
<path fill-rule="evenodd" clip-rule="evenodd" d="M0 1.11328C0 0.699068 0.335786 0.363281 0.75 0.363281H15.25C15.6642 0.363281 16 0.699068 16 1.11328C16 1.52749 15.6642 1.86328 15.25 1.86328H0.75C0.335786 1.86328 0 1.52749 0 1.11328ZM0 5.27995C0 4.86573 0.335786 4.52995 0.75 4.52995H15.25C15.6642 4.52995 16 4.86573 16 5.27995C16 5.69416 15.6642 6.02995 15.25 6.02995H0.75C0.335786 6.02995 0 5.69416 0 5.27995ZM0 9.44661C0 9.0324 0.335786 8.69661 0.75 8.69661H15.25C15.6642 8.69661 16 9.0324 16 9.44661C16 9.86083 15.6642 10.1966 15.25 10.1966H0.75C0.335786 10.1966 0 9.86083 0 9.44661ZM0 13.6133C0 13.1991 0.335786 12.8633 0.75 12.8633H15.25C15.6642 12.8633 16 13.1991 16 13.6133C16 14.0275 15.6642 14.3633 15.25 14.3633H0.75C0.335786 14.3633 0 14.0275 0 13.6133Z" fill="white"/>
</svg>
