<svg width="18" height="21" viewBox="0 0 18 21" fill="none" xmlns="http://www.w3.org/2000/svg">
<path d="M14.2397 13.3755C14.0452 14.4618 13.5226 15.4624 12.7422 16.2426C11.9618 17.0229 10.961 17.5453 9.87469 17.7395C9.83344 17.7461 9.79176 17.7495 9.75 17.7498C9.56187 17.7498 9.38063 17.679 9.24222 17.5516C9.10381 17.4242 9.01834 17.2494 9.00277 17.0619C8.9872 16.8745 9.04265 16.688 9.15814 16.5394C9.27362 16.3909 9.44071 16.2913 9.62625 16.2602C11.1797 15.9986 12.4978 14.6805 12.7612 13.1242C12.7946 12.928 12.9045 12.7531 13.0667 12.638C13.229 12.5228 13.4304 12.4768 13.6266 12.5102C13.8227 12.5435 13.9976 12.6534 14.1128 12.8156C14.228 12.9779 14.2739 13.1793 14.2406 13.3755H14.2397ZM17.25 12.4998C17.25 14.6879 16.3808 16.7863 14.8336 18.3335C13.2865 19.8807 11.188 20.7498 9 20.7498C6.81196 20.7498 4.71354 19.8807 3.16637 18.3335C1.61919 16.7863 0.75 14.6879 0.75 12.4998C0.75 9.88235 1.78125 7.20579 3.81188 4.54516C3.87615 4.46091 3.95755 4.39124 4.05071 4.34074C4.14387 4.29024 4.24667 4.26005 4.35235 4.25217C4.45802 4.24429 4.56417 4.25889 4.66379 4.29501C4.76341 4.33113 4.85425 4.38795 4.93031 4.46172L7.19156 6.65641L9.25406 0.992973C9.29527 0.880017 9.36303 0.778624 9.45163 0.697341C9.54023 0.616058 9.64707 0.557268 9.76315 0.525927C9.87923 0.494586 10.0011 0.491613 10.1186 0.517259C10.2361 0.542905 10.3457 0.596418 10.4381 0.673286C12.4884 2.37485 17.25 6.92641 17.25 12.4998ZM15.75 12.4998C15.75 8.17891 12.3947 4.44485 10.2928 2.53141L8.205 8.25672C8.16215 8.37431 8.09055 8.47931 7.99674 8.56215C7.90292 8.64499 7.78986 8.70303 7.66787 8.73099C7.54588 8.75895 7.41883 8.75593 7.2983 8.72222C7.17777 8.68851 7.0676 8.62517 6.97781 8.53797L4.50562 6.13985C3.00844 8.30079 2.25 10.4373 2.25 12.4998C2.25 14.2901 2.96116 16.0069 4.22703 17.2728C5.4929 18.5387 7.20979 19.2498 9 19.2498C10.7902 19.2498 12.5071 18.5387 13.773 17.2728C15.0388 16.0069 15.75 14.2901 15.75 12.4998Z" fill="white"/>
</svg>
