<svg width="15" height="14" viewBox="0 0 15 14" fill="none" xmlns="http://www.w3.org/2000/svg">
<g clip-path="url(#clip0_5588_12416)">
<path d="M10.4519 6.01562H9.1394C9.05237 6.01562 8.96891 5.98105 8.90738 5.91952C8.84584 5.85798 8.81127 5.77452 8.81127 5.6875C8.81127 5.60048 8.84584 5.51702 8.90738 5.45548C8.96891 5.39395 9.05237 5.35938 9.1394 5.35938H10.4519C10.5389 5.35938 10.6224 5.39395 10.6839 5.45548C10.7455 5.51702 10.78 5.60048 10.78 5.6875C10.78 5.77452 10.7455 5.85798 10.6839 5.91952C10.6224 5.98105 10.5389 6.01562 10.4519 6.01562ZM6.5144 5.35938H5.96752V4.8125C5.96752 4.72548 5.93295 4.64202 5.87142 4.58048C5.80988 4.51895 5.72642 4.48438 5.6394 4.48438C5.55238 4.48438 5.46892 4.51895 5.40738 4.58048C5.34584 4.64202 5.31127 4.72548 5.31127 4.8125V5.35938H4.7644C4.67738 5.35938 4.59392 5.39395 4.53238 5.45548C4.47084 5.51702 4.43627 5.60048 4.43627 5.6875C4.43627 5.77452 4.47084 5.85798 4.53238 5.91952C4.59392 5.98105 4.67738 6.01562 4.7644 6.01562H5.31127V6.5625C5.31127 6.64952 5.34584 6.73298 5.40738 6.79452C5.46892 6.85605 5.55238 6.89062 5.6394 6.89062C5.72642 6.89062 5.80988 6.85605 5.87142 6.79452C5.93295 6.73298 5.96752 6.64952 5.96752 6.5625V6.01562H6.5144C6.60142 6.01562 6.68488 5.98105 6.74642 5.91952C6.80795 5.85798 6.84252 5.77452 6.84252 5.6875C6.84252 5.60048 6.80795 5.51702 6.74642 5.45548C6.68488 5.39395 6.60142 5.35938 6.5144 5.35938ZM13.9431 10.9102C13.7718 11.1549 13.5439 11.3548 13.2789 11.4929C13.0139 11.6309 12.7195 11.703 12.4206 11.7031C11.9285 11.702 11.4567 11.5064 11.1081 11.159L11.0939 11.1437L8.88674 8.64062H6.76706L4.5626 11.1431L4.54565 11.1562C4.19788 11.5052 3.72582 11.7019 3.23315 11.7031C2.96171 11.7029 2.69361 11.6433 2.44766 11.5285C2.20172 11.4136 1.9839 11.2463 1.80951 11.0383C1.63512 10.8303 1.50839 10.5867 1.43821 10.3245C1.36804 10.0622 1.35612 9.78785 1.40331 9.52055C1.40331 9.52055 1.40331 9.51727 1.40331 9.51508L2.29799 4.91531C2.42672 4.18208 2.80972 3.51767 3.3797 3.0388C3.94968 2.55993 4.67019 2.29724 5.41463 2.29688H10.2331C10.9757 2.29782 11.6944 2.55892 12.2644 3.03479C12.8344 3.51066 13.2196 4.17122 13.3531 4.90164C13.3531 4.90547 13.3531 4.9082 13.3531 4.91203L14.2505 9.51562C14.2505 9.51562 14.2505 9.51945 14.2505 9.52164C14.2936 9.76191 14.2887 10.0083 14.2359 10.2467C14.1832 10.485 14.0837 10.7105 13.9431 10.9102ZM10.2331 7.98438C10.9003 7.98438 11.5402 7.71934 12.012 7.24757C12.4837 6.77579 12.7488 6.13594 12.7488 5.46875C12.7488 4.80156 12.4837 4.16171 12.012 3.68993C11.5402 3.21816 10.9003 2.95312 10.2331 2.95312H5.41463C4.82415 2.95358 4.25272 3.16218 3.80082 3.54226C3.34892 3.92235 3.04548 4.44957 2.94385 5.03125C2.9436 5.03306 2.9436 5.0349 2.94385 5.03672L2.04807 9.63758C2.00435 9.88866 2.04148 10.1471 2.15413 10.3758C2.26677 10.6044 2.44911 10.7913 2.67484 10.9096C2.90058 11.0279 3.15805 11.0715 3.41015 11.0341C3.66224 10.9966 3.89593 10.8801 4.07752 10.7013L6.3744 8.09539C6.40535 8.06079 6.44329 8.03315 6.48571 8.01429C6.52813 7.99544 6.57407 7.9858 6.62049 7.98602L10.2331 7.98438ZM13.6057 9.63758L13.0703 6.88406C12.807 7.41131 12.4022 7.85488 11.9011 8.16511C11.4 8.47534 10.8225 8.63999 10.2331 8.64062H9.7612L11.5763 10.7013C11.7579 10.8801 11.9916 10.9966 12.2437 11.0341C12.4957 11.0715 12.7532 11.0279 12.979 10.9096C13.2047 10.7913 13.387 10.6044 13.4997 10.3758C13.6123 10.1471 13.6495 9.88866 13.6057 9.63758Z" fill="white"/>
</g>
<defs>
<clipPath id="clip0_5588_12416">
<rect width="14" height="14" fill="white" transform="translate(0.5)"/>
</clipPath>
</defs>
</svg>
