<svg width="20" height="16" viewBox="0 0 20 16" fill="none" xmlns="http://www.w3.org/2000/svg">
<path d="M7.44556 0.183594C8.32478 0.347171 9.16312 0.572091 10.0219 0.817456C10.5126 0.960586 11.0034 1.10372 11.4736 1.26729C12.2302 1.51266 12.9867 1.77847 13.6819 2.18741C13.9886 2.37144 14.2749 2.57591 14.5407 2.84172C14.8065 3.10753 15.0314 3.43469 15.195 3.76184C15.5017 4.3957 15.604 5.09091 15.6244 5.76566C15.6449 6.2155 15.6449 6.66534 15.5631 7.11518C15.5017 7.50367 15.379 7.87172 15.1541 8.21932C14.9701 8.50558 14.7247 8.77139 14.418 8.93497C14.1318 9.09855 13.7842 9.15989 13.457 9.15989C12.9458 9.15989 12.4551 8.99631 12.0053 8.79184C12.0053 7.27875 12.0053 5.76566 12.0053 4.27302C12.0053 4.00721 12.0257 3.72095 11.9644 3.45514C11.9235 3.25066 11.8417 3.04619 11.6781 2.90306C11.5759 2.80083 11.4327 2.75993 11.2896 2.71904C11.1465 2.69859 11.0034 2.75993 10.9011 2.86217C10.758 3.04619 10.7171 3.29156 10.7171 3.51648C10.7171 7.56501 10.7171 11.5931 10.7171 15.6416C9.6334 15.294 8.5497 14.9464 7.466 14.5988C7.44556 9.79375 7.44556 4.98867 7.44556 0.183594Z" fill="#596184"/>
<path d="M2.55872 10.4076C3.96957 9.89644 5.38043 9.40571 6.81173 8.89453C6.81173 9.4466 6.81173 9.99868 6.81173 10.5712C6.81173 10.653 6.81173 10.7143 6.81173 10.7961C5.68714 11.1846 4.58299 11.5936 3.4584 12.0025C3.29482 12.0638 3.15169 12.1252 3.02901 12.2479C2.96767 12.3092 2.92677 12.391 2.96766 12.4728C3.00856 12.575 3.1108 12.6159 3.19258 12.6568C3.43795 12.759 3.70376 12.7795 3.96958 12.7795C4.25584 12.7795 4.56254 12.759 4.8488 12.6977C5.03283 12.6568 5.2373 12.5955 5.42132 12.5341C5.89161 12.3705 6.38234 12.1865 6.85262 12.0229C6.85262 12.4932 6.85262 12.9635 6.85262 13.4338C6.85262 13.536 6.85262 13.6178 6.85262 13.7201C6.25965 13.8223 5.66669 13.9041 5.07372 13.9041C3.86734 13.9245 2.66096 13.7405 1.51592 13.3725C1.14787 13.2702 0.759375 13.1271 0.452668 12.8817C0.289091 12.7386 0.125514 12.575 0.0437251 12.3705C-0.0176163 12.1865 -0.0176166 12.0025 0.0641719 11.8185C0.14596 11.6549 0.289091 11.5118 0.432221 11.4095C0.779822 11.1642 1.16832 10.9801 1.55681 10.8166C1.86352 10.653 2.21112 10.5303 2.55872 10.4076Z" fill="#596184"/>
<path d="M13.9677 9.77228C14.2949 9.73138 14.622 9.73138 14.9287 9.71094C15.992 9.71094 17.0552 9.85407 18.0776 10.1608C18.282 10.2221 18.4661 10.3039 18.6705 10.3652C19.0181 10.4879 19.3862 10.6515 19.6724 10.8969C19.836 11.0604 19.9996 11.2649 19.9996 11.5103C19.9996 11.7148 19.9178 11.8988 19.7951 12.0419C19.5498 12.3077 19.2431 12.4917 18.9159 12.6553C18.5683 12.8189 18.2207 12.9416 17.8527 13.0643C15.6853 13.8413 13.5179 14.6182 11.33 15.3952C11.33 14.7818 11.33 14.1889 11.33 13.5754C11.33 13.555 11.33 13.5141 11.3505 13.4937C13.0067 12.9007 14.6629 12.3077 16.2987 11.7352C16.5236 11.6534 16.769 11.5921 16.953 11.4489C17.0348 11.3876 17.1166 11.2854 17.0757 11.1831C17.0348 11.1013 16.9325 11.04 16.8507 10.9991C16.6054 10.8969 16.3396 10.8764 16.0738 10.8764C15.6648 10.8764 15.2559 10.9378 14.8469 11.0604C13.661 11.4694 12.4955 11.8988 11.3096 12.3077C11.3096 11.6534 11.3096 10.9991 11.3096 10.3448C12.1683 10.0585 13.068 9.87451 13.9677 9.77228Z" fill="#596184"/>
</svg>
