<svg width="22" height="22" viewBox="0 0 22 22" fill="none" xmlns="http://www.w3.org/2000/svg">
<g clip-path="url(#clip0_5_74120)">
<path d="M8.52659 1.29784C7.44126 1.31618 6.15059 1.59118 4.54734 2.25484L2.45459 9.54143C4.14676 8.84384 5.48967 8.52026 6.61351 8.53309C8.06863 8.58899 9.46961 9.09969 10.6193 9.99334L12.724 2.73334C11.569 1.94959 10.3343 1.26759 8.52567 1.29784H8.52659ZM13.7974 3.50793L11.7294 10.7945C13.5774 12.0476 15.7994 13.0807 19.8942 11.2464L21.9998 3.97268H21.9613C17.6978 5.74276 15.6308 4.74818 13.7965 3.50793H13.7974ZM6.06534 9.87326C4.98001 9.88976 3.69026 10.162 2.09159 10.8211L-0.000244141 18.1315C4.26226 16.3623 6.29084 17.3954 8.13792 18.6357L10.2701 11.3115C9.11509 10.5278 7.87484 9.84484 6.06626 9.87234L6.06534 9.87326ZM11.3673 12.0219L11.3774 12.0293L11.3802 12.0219H11.3673ZM11.3774 12.0293L9.27459 19.2691C11.1217 20.5222 13.1759 21.5177 17.4384 19.7476L19.544 12.4876C15.2898 14.254 13.2355 13.2668 11.3774 12.0293Z" fill="#090A16"/>
</g>
<defs>
<clipPath id="clip0_5_74120">
<rect width="22" height="22" fill="white" transform="translate(-0.000244141)"/>
</clipPath>
</defs>
</svg>
