<svg width="23" height="23" viewBox="0 0 23 23" fill="none" xmlns="http://www.w3.org/2000/svg">
<g clip-path="url(#clip0_5_73384)">
<path d="M8.92539 1.73364C7.84006 1.75197 6.54939 2.02697 4.94614 2.69064L2.85339 9.97722C4.54556 9.27964 5.88848 8.95605 7.01231 8.96888C8.46743 9.02478 9.86841 9.53548 11.0181 10.4291L13.1228 3.16914C11.9678 2.38539 10.7331 1.70339 8.92448 1.73364H8.92539ZM14.1962 3.94372L12.1282 11.2303C13.9762 12.4834 16.1982 13.5165 20.293 11.6822L22.3986 4.40847H22.3601C18.0966 6.17855 16.0296 5.18397 14.1953 3.94372H14.1962ZM6.46414 10.3091C5.37881 10.3256 4.08906 10.5978 2.49039 11.2569L0.39856 18.5673C4.66106 16.7981 6.68964 17.8312 8.53673 19.0715L10.6689 11.7473C9.51389 10.9636 8.27364 10.2806 6.46506 10.3081L6.46414 10.3091ZM11.7661 12.4577L11.7762 12.4651L11.779 12.4577H11.7661ZM11.7762 12.4651L9.67339 19.7049C11.5205 20.958 13.5747 21.9535 17.8372 20.1834L19.9428 12.9234C15.6886 14.6898 13.6343 13.7026 11.7762 12.4651Z" fill="white"/>
</g>
<defs>
<clipPath id="clip0_5_73384">
<rect width="22" height="22" fill="currentColor" transform="translate(0.39856 0.436523)"/>
</clipPath>
</defs>
</svg>
