<svg width="29" height="22" viewBox="0 0 29 22" fill="none" xmlns="http://www.w3.org/2000/svg">
<path d="M10.5964 0C11.8478 0.232804 13.0409 0.552912 14.2631 0.902118C14.9615 1.10582 15.6599 1.30952 16.3292 1.54233C17.406 1.89154 18.4827 2.26984 19.4721 2.85185C19.9086 3.11376 20.316 3.40476 20.6943 3.78307C21.0726 4.16138 21.3927 4.62698 21.6255 5.09259C22.062 5.99471 22.2075 6.98413 22.2366 7.94444C22.2657 8.58466 22.2657 9.22487 22.1493 9.86508C22.062 10.418 21.8874 10.9418 21.5673 11.4365C21.3054 11.8439 20.9562 12.2222 20.5197 12.455C20.1123 12.6878 19.6176 12.7751 19.152 12.7751C18.4245 12.7751 17.7261 12.5423 17.0859 12.2513C17.0859 10.0979 17.0859 7.94444 17.0859 5.82011C17.0859 5.4418 17.115 5.03439 17.0277 4.65608C16.9695 4.36508 16.8531 4.07407 16.6202 3.87037C16.4747 3.72487 16.271 3.66667 16.0673 3.60847C15.8636 3.57937 15.6599 3.66667 15.5144 3.81217C15.3107 4.07408 15.2525 4.42328 15.2525 4.74339C15.2525 10.5053 15.2525 16.2381 15.2525 22C13.7102 21.5053 12.1679 21.0106 10.6255 20.5159C10.5964 13.6772 10.5964 6.83862 10.5964 0Z" fill="#090A16"/>
<path d="M3.64159 14.5499C5.64953 13.8224 7.65747 13.124 9.6945 12.3965C9.6945 13.1822 9.6945 13.9679 9.6945 14.7827C9.6945 14.8991 9.6945 14.9864 9.6945 15.1028C8.09398 15.6557 6.52255 16.2378 4.92202 16.8198C4.68921 16.9071 4.48551 16.9944 4.31091 17.169C4.22361 17.2563 4.1654 17.3727 4.2236 17.4891C4.28181 17.6346 4.42731 17.6928 4.54371 17.751C4.89292 17.8965 5.27122 17.9256 5.64953 17.9256C6.05694 17.9256 6.49345 17.8965 6.90085 17.8092C7.16276 17.751 7.45376 17.6637 7.71567 17.5764C8.38498 17.3436 9.08339 17.0817 9.7527 16.8489C9.7527 17.5182 9.7527 18.1875 9.7527 18.8568C9.7527 19.0023 9.7527 19.1187 9.7527 19.2642C8.90879 19.4097 8.06487 19.5261 7.22096 19.5261C5.50403 19.5552 3.7871 19.2933 2.15747 18.7695C1.63366 18.624 1.08075 18.4203 0.64424 18.0711C0.411436 17.8674 0.178632 17.6346 0.0622299 17.3436C-0.0250717 17.0817 -0.0250721 16.8198 0.09133 16.5579C0.207732 16.3251 0.411437 16.1213 0.61514 15.9758C1.10985 15.6266 1.66276 15.3647 2.21567 15.1319C2.65218 14.8991 3.14688 14.7245 3.64159 14.5499Z" fill="#090A16"/>
<path d="M19.8795 13.6485C20.3451 13.5903 20.8107 13.5903 21.2472 13.5612C22.7605 13.5612 24.2737 13.765 25.7287 14.2015C26.0197 14.2888 26.2816 14.4052 26.5726 14.4925C27.0673 14.6671 27.5911 14.8999 27.9985 15.2491C28.2314 15.4819 28.4642 15.7729 28.4642 16.1221C28.4642 16.4131 28.3478 16.675 28.1732 16.8787C27.8239 17.257 27.3874 17.5189 26.9218 17.7517C26.4271 17.9845 25.9324 18.1591 25.4086 18.3337C22.3239 19.4396 19.2393 20.5454 16.1255 21.6512C16.1255 20.7782 16.1255 19.9343 16.1255 19.0612C16.1255 19.0321 16.1255 18.9739 16.1546 18.9448C18.5118 18.1009 20.8689 17.257 23.197 16.4422C23.5171 16.3258 23.8663 16.2385 24.1282 16.0348C24.2446 15.9475 24.361 15.802 24.3028 15.6565C24.2446 15.5401 24.0991 15.4528 23.9827 15.3946C23.6335 15.2491 23.2552 15.22 22.8769 15.22C22.2948 15.22 21.7128 15.3073 21.1308 15.4819C19.443 16.0639 17.7843 16.675 16.0964 17.257C16.0964 16.3258 16.0964 15.3946 16.0964 14.4634C17.3187 14.056 18.5991 13.794 19.8795 13.6485Z" fill="#090A16"/>
</svg>
