<svg width="30" height="23" viewBox="0 0 30 23" fill="none" xmlns="http://www.w3.org/2000/svg">
<path d="M11.531 0.436523C12.7823 0.669328 13.9754 0.989435 15.1977 1.33864C15.8961 1.54235 16.5945 1.74605 17.2638 1.97885C18.3405 2.32806 19.4173 2.70637 20.4067 3.28838C20.8432 3.55028 21.2506 3.84128 21.6289 4.21959C22.0072 4.5979 22.3273 5.06351 22.5601 5.52912C22.9966 6.43123 23.1421 7.42065 23.1712 8.38097C23.2003 9.02118 23.2003 9.66139 23.0839 10.3016C22.9966 10.8545 22.822 11.3783 22.5019 11.873C22.24 12.2804 21.8908 12.6587 21.4543 12.8915C21.0469 13.1244 20.5522 13.2117 20.0866 13.2117C19.359 13.2117 18.6606 12.9789 18.0204 12.6878C18.0204 10.5344 18.0204 8.38097 18.0204 6.25663C18.0204 5.87832 18.0495 5.47091 17.9622 5.09261C17.904 4.8016 17.7876 4.5106 17.5548 4.30689C17.4093 4.16139 17.2056 4.10319 17.0019 4.04499C16.7982 4.01589 16.5945 4.10319 16.449 4.24869C16.2453 4.5106 16.1871 4.8598 16.1871 5.17991C16.1871 10.9418 16.1871 16.6746 16.1871 22.4365C14.6448 21.9418 13.1024 21.4471 11.5601 20.9524C11.531 14.1138 11.531 7.27515 11.531 0.436523Z" fill="rgba(255,255,255, 0.3)"/>
<path d="M4.57616 14.9864C6.5841 14.2589 8.59204 13.5605 10.6291 12.833C10.6291 13.6187 10.6291 14.4044 10.6291 15.2193C10.6291 15.3357 10.6291 15.423 10.6291 15.5394C9.02855 16.0923 7.45712 16.6743 5.85659 17.2563C5.62378 17.3436 5.42008 17.4309 5.24548 17.6055C5.15818 17.6928 5.09997 17.8092 5.15817 17.9256C5.21638 18.0711 5.36188 18.1293 5.47828 18.1875C5.82749 18.333 6.20579 18.3621 6.5841 18.3621C6.99151 18.3621 7.42802 18.333 7.83542 18.2457C8.09733 18.1875 8.38833 18.1002 8.65024 18.0129C9.31955 17.7801 10.018 17.5182 10.6873 17.2854C10.6873 17.9547 10.6873 18.624 10.6873 19.2933C10.6873 19.4388 10.6873 19.5552 10.6873 19.7007C9.84336 19.8462 8.99944 19.9626 8.15553 19.9626C6.4386 19.9917 4.72167 19.7298 3.09204 19.206C2.56823 19.0605 2.01532 18.8568 1.57881 18.5076C1.34601 18.3039 1.1132 18.0711 0.9968 17.7801C0.909499 17.5182 0.909498 17.2563 1.0259 16.9944C1.1423 16.7616 1.34601 16.5579 1.54971 16.4124C2.04442 16.0632 2.59733 15.8013 3.15024 15.5685C3.58675 15.3357 4.08145 15.161 4.57616 14.9864Z" fill="rgba(255,255,255, 0.3)"/>
<path d="M20.8141 14.085C21.2797 14.0268 21.7453 14.0268 22.1818 13.9977C23.695 13.9977 25.2083 14.2014 26.6633 14.638C26.9543 14.7253 27.2162 14.8417 27.5072 14.929C28.0019 15.1036 28.5257 15.3364 28.9331 15.6856C29.1659 15.9184 29.3987 16.2094 29.3987 16.5586C29.3987 16.8496 29.2823 17.1115 29.1077 17.3152C28.7585 17.6935 28.322 17.9554 27.8564 18.1882C27.3617 18.421 26.867 18.5956 26.3432 18.7702C23.2585 19.876 20.1739 20.9819 17.0601 22.0877C17.0601 21.2147 17.0601 20.3708 17.0601 19.4977C17.0601 19.4686 17.0601 19.4104 17.0892 19.3813C19.4463 18.5374 21.8035 17.6935 24.1315 16.8787C24.4516 16.7623 24.8008 16.675 25.0628 16.4713C25.1792 16.384 25.2956 16.2385 25.2374 16.093C25.1792 15.9766 25.0337 15.8893 24.9173 15.8311C24.568 15.6856 24.1897 15.6565 23.8114 15.6565C23.2294 15.6565 22.6474 15.7438 22.0654 15.9184C20.3776 16.5004 18.7188 17.1115 17.031 17.6935C17.031 16.7623 17.031 15.8311 17.031 14.8999C18.2532 14.4925 19.5337 14.2305 20.8141 14.085Z" fill="rgba(255,255,255, 0.3)"/>
</svg>
