<svg width="22" height="22" viewBox="0 0 22 22" fill="none" xmlns="http://www.w3.org/2000/svg">
<g clip-path="url(#clip0_5_74139)">
<path d="M12.9937 22H16.3615C19.4562 22 21.999 19.4572 21.999 16.3625V5.6375C21.999 2.54375 19.4562 0 16.3615 0H12.924C12.8562 0 12.7865 0.0678333 12.7865 0.1375V21.8625C12.7856 21.9322 12.8553 22 12.9937 22ZM17.1865 9.90092C18.4249 9.90092 19.3856 10.9322 19.3856 12.0991C19.3856 13.3384 18.3544 14.2991 17.1865 14.2991C15.949 14.2991 14.9865 13.3375 14.9865 12.0991C14.9178 10.8625 15.949 9.90092 17.1865 9.90092ZM10.449 0H5.63652C2.54277 0 -0.000976562 2.54375 -0.000976562 5.6375V16.3625C-0.000976562 19.4572 2.54277 22 5.63652 22H10.449C10.5169 22 10.5865 21.9322 10.5865 21.8634V0.1375C10.5874 0.0678333 10.5178 0 10.449 0ZM8.86869 20.2134H5.63652C3.50436 20.2134 1.78561 18.4947 1.78561 16.3625V5.6375C1.78561 3.50533 3.50436 1.78658 5.63652 1.78658H8.79902L8.86869 20.2134ZM3.43652 6.59908C3.43652 7.76783 4.33027 8.66158 5.49902 8.66158C6.66777 8.66158 7.56152 7.76783 7.56152 6.59908C7.56152 5.43217 6.66777 4.53658 5.49902 4.53658C4.33027 4.53658 3.43652 5.43217 3.43652 6.59908Z" fill="#090A16"/>
</g>
<defs>
<clipPath id="clip0_5_74139">
<rect width="22" height="22" fill="white" transform="translate(-0.000976562)"/>
</clipPath>
</defs>
</svg>
