<svg width="25" height="25" viewBox="0 0 25 25" fill="none" xmlns="http://www.w3.org/2000/svg">
    <g clip-path="url(#clip0_5_73390)">
        <path d="M14.5746 24.4365H18.2486C21.6246 24.4365 24.3986 21.6625 24.3986 18.2865V6.58652C24.3986 3.21152 21.6246 0.436523 18.2486 0.436523H14.4986C14.4246 0.436523 14.3486 0.510523 14.3486 0.586523V24.2865C14.3476 24.3625 14.4236 24.4365 14.5746 24.4365ZM19.1486 11.2375C20.4996 11.2375 21.5476 12.3625 21.5476 13.6355C21.5476 14.9875 20.4226 16.0355 19.1486 16.0355C17.7986 16.0355 16.7486 14.9865 16.7486 13.6355C16.6736 12.2865 17.7986 11.2375 19.1486 11.2375ZM11.7986 0.436523H6.54856C3.17356 0.436523 0.39856 3.21152 0.39856 6.58652V18.2865C0.39856 21.6625 3.17356 24.4365 6.54856 24.4365H11.7986C11.8726 24.4365 11.9486 24.3625 11.9486 24.2875V0.586523C11.9496 0.510523 11.8736 0.436523 11.7986 0.436523ZM10.0746 22.4875H6.54856C4.22256 22.4875 2.34756 20.6125 2.34756 18.2865V6.58652C2.34756 4.26052 4.22256 2.38552 6.54856 2.38552H9.99856L10.0746 22.4875ZM4.14856 7.63552C4.14856 8.91052 5.12356 9.88552 6.39856 9.88552C7.67356 9.88552 8.64856 8.91052 8.64856 7.63552C8.64856 6.36252 7.67356 5.38552 6.39856 5.38552C5.12356 5.38552 4.14856 6.36252 4.14856 7.63552Z" fill="white"/>
    </g>
    <defs>
        <clipPath id="clip0_5_73390">
            <rect width="24" height="24" fill="white" transform="translate(0.39856 0.436523)"/>
        </clipPath>
    </defs>
</svg>
