<svg width="22" height="22" viewBox="0 0 22 22" fill="none" xmlns="http://www.w3.org/2000/svg">
<path d="M7.8801 6.17316C6.89503 4.9254 5.25324 3.34928 3.48011 3.02092H3.41444C1.31294 5.05674 -0.000488281 7.88062 -0.000488281 10.9672C-0.000488281 13.5284 0.918914 15.8926 2.36369 17.797C1.90399 13.8567 6.63234 8.20898 8.01145 6.43585C7.94578 6.37017 7.94578 6.3045 7.8801 6.17316Z" fill="#090A16"/>
<path d="M12.2143 9.91643C11.8203 9.58807 11.4263 9.25971 11.0323 8.86568C10.5726 9.25971 10.1785 9.58807 9.85017 9.91643C7.09196 12.4776 3.41435 15.8269 3.48002 18.9134V18.9791C5.45017 20.8179 8.07703 22 11.0323 22C13.9875 22 16.6143 20.8179 18.5845 18.9791C18.5845 15.8269 14.9726 12.4776 12.2143 9.91643Z" fill="#090A16"/>
<path d="M10.9667 0C8.7995 0 6.76368 0.656716 5.05622 1.70746H5.18756C7.55174 1.64179 9.58756 2.69254 10.9667 3.48059C12.2801 2.69254 14.3816 1.64179 16.7458 1.70746H16.8771C15.1696 0.656716 13.1338 0 10.9667 0Z" fill="#090A16"/>
<path d="M18.519 3.02092C16.7459 3.34928 15.0384 4.9254 14.119 6.17316C14.0534 6.23883 14.0534 6.3045 13.9877 6.43585C15.3668 8.20898 20.0295 13.8567 19.5698 17.797C21.0802 15.9582 21.934 13.594 21.934 11.0329C21.934 7.88062 20.6205 5.05674 18.519 3.02092Z" fill="#090A16"/>
</svg>
