<svg width="22" height="23" viewBox="0 0 22 23" fill="none" xmlns="http://www.w3.org/2000/svg">
<path d="M7.88059 6.60968C6.89552 5.36192 5.25373 3.7858 3.4806 3.45745H3.41492C1.31343 5.49326 0 8.31714 0 11.4037C0 13.9649 0.919402 16.3291 2.36418 18.2336C1.90448 14.2933 6.63283 8.6455 8.01194 6.87237C7.94626 6.8067 7.94626 6.74102 7.88059 6.60968Z" fill="white"/>
<path d="M12.2148 10.3529C11.8208 10.0246 11.4268 9.69623 11.0327 9.3022C10.573 9.69623 10.179 10.0246 9.85065 10.3529C7.09245 12.9141 3.41484 16.2634 3.48051 19.35V19.4156C5.45066 21.2544 8.07752 22.4365 11.0327 22.4365C13.988 22.4365 16.6148 21.2544 18.585 19.4156C18.585 16.2634 14.973 12.9141 12.2148 10.3529Z" fill="white"/>
<path d="M10.9672 0.436523C8.79999 0.436523 6.76417 1.09324 5.0567 2.14398H5.18805C7.55223 2.07831 9.58805 3.12906 10.9672 3.91712C12.2806 3.12906 14.3821 2.07831 16.7463 2.14398H16.8776C15.1701 1.09324 13.1343 0.436523 10.9672 0.436523Z" fill="white"/>
<path d="M18.5195 3.45745C16.7464 3.7858 15.0389 5.36192 14.1195 6.60968C14.0538 6.67535 14.0538 6.74103 13.9882 6.87237C15.3673 8.6455 20.03 14.2933 19.5703 18.2336C21.0807 16.3948 21.9344 14.0306 21.9344 11.4694C21.9344 8.31714 20.621 5.49326 18.5195 3.45745Z" fill="white"/>
</svg>
