<svg width="33" height="32" viewBox="0 0 33 32" fill="none" xmlns="http://www.w3.org/2000/svg">
<g clip-path="url(#clip0_2074_6934)">
<path d="M16.3997 21.7559H16.4127M16.3997 17.4384V10.2426M16.86 3.04688H15.9625C12.4361 3.04688 10.6729 3.04688 9.23106 3.84273C7.78778 4.63714 6.93224 6.08061 5.21971 8.96899L4.36561 10.4081C2.74573 13.1411 1.93506 14.5069 1.93506 15.9993C1.93506 17.4917 2.74573 18.8574 4.36706 21.5904L5.21971 23.0295C6.93224 25.9179 7.78778 27.3614 9.22961 28.1572C10.6729 28.9516 12.4361 28.9516 15.961 28.9516H16.8615C20.3864 28.9516 22.1496 28.9516 23.5929 28.1572C25.0347 27.3614 25.8903 25.9179 27.6028 23.0295L28.4569 21.5904C30.0768 18.8574 30.8874 17.4917 30.8874 15.9993C30.8874 14.5069 30.0768 13.1411 28.4554 10.4081L27.6028 8.96899C25.8903 6.08061 25.0347 4.63714 23.5929 3.84273C22.1496 3.04688 20.3864 3.04688 16.86 3.04688Z" stroke="#00ADFF" stroke-width="2" stroke-linecap="round" stroke-linejoin="round"/>
</g>
<defs>
<clipPath id="clip0_2074_6934">
<rect width="32" height="32" fill="white" transform="translate(0.411133)"/>
</clipPath>
</defs>
</svg>
