<svg width="32" height="32" viewBox="0 0 32 32" fill="none" xmlns="http://www.w3.org/2000/svg">
<path d="M2.87379 20.7132C2.8591 22.4134 4.09734 23.4403 5.23527 23.6905C5.57067 23.764 5.92026 23.7987 6.26376 23.7992C10.173 23.8065 14.0823 23.8075 17.9916 23.7992C18.48 23.7982 18.8909 23.9391 19.2749 24.2472M2.87379 20.7132L26.9653 23.5589C26.5311 23.7019 26.0589 23.7941 25.605 23.7894C24.6768 23.7801 24.3368 23.9587 24.3804 25.0603C24.4046 25.6691 24.3987 26.2791 24.3928 26.8891C24.3901 27.1598 24.3875 27.4304 24.3875 27.7009V28.1697C24.3631 28.1518 24.3411 28.1359 24.321 28.1212C24.3092 28.1127 24.2981 28.1046 24.2875 28.0968M2.87379 20.7132C2.89805 17.9276 2.8941 15.1415 2.89016 12.3554C2.88834 11.0677 2.88651 9.77997 2.88747 8.49233M2.87379 20.7132L2.94422 7.74658C2.88838 7.97788 2.88794 8.22612 2.88752 8.46744C2.88751 8.47574 2.88749 8.48404 2.88747 8.49233M19.2749 24.2472C20.4914 25.2229 21.7136 26.1905 22.9359 27.1582C23.3284 27.469 23.721 27.7798 24.1134 28.0909C24.158 28.1263 24.2038 28.1597 24.2645 28.2038C24.272 28.2092 24.2796 28.2148 24.2875 28.2206V28.2199V28.2185V28.2171V28.2158V28.2144V28.213V28.2117V28.2103V28.2089V28.2076V28.2062V28.2048V28.2035V28.2021V28.2008V28.1994V28.198V28.1967V28.1953V28.194V28.1926V28.1913V28.1899V28.1886V28.1873V28.1859V28.1846V28.1832V28.1819V28.1806V28.1792V28.1779V28.1766V28.1753V28.1739V28.1726V28.1713V28.17V28.1686V28.1673V28.166V28.1647V28.1634V28.1621V28.1607V28.1594V28.1581V28.1568V28.1555V28.1542V28.1529V28.1516V28.1503V28.149V28.1477V28.1464V28.1451V28.1438V28.1425V28.1412V28.14V28.1387V28.1374V28.1361V28.1348V28.1335V28.1323V28.131V28.1297V28.1284V28.1272V28.1259V28.1246V28.1233V28.1221V28.1208V28.1195V28.1183V28.117V28.1157V28.1145V28.1132V28.112V28.1107V28.1095V28.1082V28.107V28.1057V28.1045V28.1032V28.102V28.1007V28.0995V28.0982V28.097V28.0968M19.2749 24.2472L19.3375 24.1692M19.2749 24.2472L19.3375 24.1692C19.3375 24.1692 19.3375 24.1692 19.3375 24.1692M24.2875 28.0968C24.2447 28.0656 24.2101 28.04 24.1756 28.0126L24.1755 28.0125C23.7831 27.7014 23.3905 27.3906 22.998 27.0798C21.7757 26.1121 20.5537 25.1447 19.3375 24.1692M24.2875 28.0968V28.0957V28.0945V28.0933V28.092V28.0908V28.0896V28.0883V28.0871V28.0859V28.0846V28.0834V28.0822V28.0809V28.0797V28.0785V28.0773V28.0761V28.0748V28.0736V28.0724V28.0712V28.07V28.0688V28.0676V28.0663V28.0651V28.0639V28.0627V28.0615V28.0603V28.0591V28.0579V28.0567V28.0555V28.0543V28.0531V28.0519V28.0507V28.0495V28.0483V28.0471V28.0459V28.0448V28.0436V28.0424V28.0412V28.04V28.0388V28.0376V28.0365V28.0353V28.0341V28.0329V28.0317V28.0306V28.0294V28.0282V28.0271V28.0259V28.0247V28.0235V28.0224V28.0212V28.02V28.0189V28.0177V28.0165V28.0154V28.0142V28.0131V28.0119V28.0107V28.0096V28.0084V28.0073V28.0061V28.005V28.0038V28.0027V28.0015V28.0004V27.9992V27.9981V27.9969V27.9958V27.9947V27.9935V27.9924V27.9912V27.9901V27.989V27.9878V27.9867V27.9855V27.9844V27.9833V27.9821V27.981V27.9799V27.9788V27.9776V27.9765V27.9754V27.9742V27.9731V27.972V27.9709V27.9697V27.9686V27.9675V27.9664V27.9653V27.9642V27.963V27.9619V27.9608V27.9597V27.9586V27.9575V27.9564V27.9552V27.9541V27.953V27.9519V27.9508V27.9497V27.9486V27.9475V27.9464V27.9453V27.9442V27.9431V27.942V27.9409V27.9398V27.9387V27.9376V27.9365V27.9354V27.9343V27.9332V27.9321V27.931V27.9299V27.9289V27.9278V27.9267V27.9256V27.9245V27.9234V27.9223V27.9212V27.9202V27.9191V27.918V27.9169V27.9158V27.9147V27.9137V27.9126V27.9115V27.9104V27.9094V27.9083V27.9072V27.9061V27.9051V27.904V27.9029V27.9018V27.9008V27.8997V27.8986V27.8976V27.8965V27.8954V27.8944V27.8933V27.8922V27.8912V27.8901V27.889V27.888V27.8869V27.8859V27.8848V27.8837V27.8827V27.8816V27.8806V27.8795V27.8784V27.8774V27.8763V27.8753V27.8742V27.8732V27.8721V27.8711V27.87V27.869V27.8679V27.8669V27.8658V27.8648V27.8637V27.8627V27.8616V27.8606V27.8595V27.8585V27.8574V27.8564V27.8553V27.8543V27.8532V27.8522V27.8512V27.8501V27.8491V27.848V27.847V27.846V27.8449V27.8439V27.8428V27.8418V27.8408V27.8397V27.8387V27.8377V27.8366V27.8356V27.8346V27.8335V27.8325V27.8315V27.8304V27.8294V27.8284V27.8273V27.8263V27.8253V27.8243V27.8232V27.8222V27.8212V27.8201V27.8191V27.8181V27.8171V27.816V27.815V27.814V27.813V27.8119V27.8109V27.8099V27.8089V27.8078V27.8068V27.8058V27.8048V27.8038V27.8027V27.8017V27.8007V27.7997V27.7987V27.7976V27.7966V27.7956V27.7946V27.7936V27.7925V27.7915V27.7905V27.7895V27.7885V27.7875V27.7865V27.7854V27.7844V27.7834V27.7824V27.7814V27.7804V27.7794V27.7783V27.7773V27.7763V27.7753V27.7743V27.7733V27.7723V27.7713V27.7702V27.7692V27.7682V27.7672V27.7662V27.7652V27.7642V27.7632V27.7622V27.7612V27.7602V27.7591V27.7581V27.7571V27.7561V27.7551V27.7541V27.7531V27.7521V27.7511V27.7501V27.7491V27.7481V27.7471V27.7461V27.7451V27.744V27.743V27.742V27.741V27.74V27.739V27.738V27.737V27.736V27.735V27.734V27.733V27.732V27.731V27.73V27.729V27.728V27.727V27.726V27.725V27.724V27.723V27.722V27.721V27.72V27.719V27.718V27.717V27.716V27.715V27.714V27.7129V27.7119V27.7109V27.7099V27.7089V27.7079V27.7069V27.7059V27.7049V27.7039V27.7029V27.7019V27.7009C24.2875 27.4283 24.2902 27.1565 24.2928 26.8853C24.2987 26.2764 24.3046 25.6705 24.2805 25.0642L24.2805 25.0642C24.2587 24.512 24.3291 24.1492 24.5603 23.9349C24.7886 23.7234 25.1457 23.6848 25.606 23.6894C26.0464 23.6939 26.5075 23.6044 26.9341 23.464L26.9341 23.4639C27.8446 23.1647 28.7974 22.2135 28.7875 20.7501L28.7847 20.337C28.7582 16.4359 28.7316 12.532 28.7987 8.63043C28.8326 6.65559 27.2995 5.49604 25.7268 5.49956C24.8711 5.50163 24.0152 5.50094 23.1596 5.50025C22.7319 5.49991 22.3042 5.49956 21.8766 5.49956H21.8555H21.8345H21.8135H21.7925H21.7716H21.7507H21.7298H21.7089H21.6881H21.6673H21.6465H21.6258H21.6051H21.5844H21.5638H21.5432H21.5226H21.502H21.4815H21.461H21.4405H21.42H21.3996H21.3792H21.3589H21.3385H21.3182H21.2979H21.2777H21.2575H21.2373H21.2171H21.1969H21.1768H21.1567H21.1366H21.1166H21.0966H21.0766H21.0566H21.0367H21.0168H20.9969H20.977H20.9572H20.9374H20.9176H20.8978H20.8781H20.8584H20.8387H20.819H20.7994H20.7798H20.7602H20.7406H20.7211H20.7016H20.6821H20.6626H20.6431H20.6237H20.6043H20.5849H20.5656H20.5463H20.5269H20.5077H20.4884H20.4691H20.4499H20.4307H20.4115H20.3924H20.3733H20.3541H20.3351H20.316H20.2969H20.2779H20.2589H20.2399H20.221H20.202H20.1831H20.1642H20.1453H20.1264H20.1076H20.0888H20.07H20.0512H20.0324H20.0137H19.995H19.9762H19.9576H19.9389H19.9202H19.9016H19.883H19.8644H19.8458H19.8273H19.8087H19.7902H19.7717H19.7532H19.7348H19.7163H19.6979H19.6795H19.6611H19.6427H19.6243H19.606H19.5877H19.5693H19.551H19.5328H19.5145H19.4963H19.478H19.4598H19.4416H19.4234H19.4052H19.3871H19.369H19.3508H19.3327H19.3146H19.2966H19.2785H19.2604H19.2424H19.2244H19.2064H19.1884H19.1704H19.1524H19.1345H19.1165H19.0986H19.0807H19.0628H19.0449H19.0271H19.0092H18.9914H18.9735H18.9557H18.9379H18.9201H18.9023H18.8845H18.8668H18.849H18.8313H18.8136H18.7959H18.7782H18.7605H18.7428H18.7251H18.7075H18.6898H18.6722H18.6545H18.6369H18.6193H18.6017H18.5841H18.5666H18.549H18.5315H18.5139H18.4964H18.4788H18.4613H18.4438H18.4263H18.4088H18.3913H18.3739H18.3564H18.3389H18.3215H18.304H18.2866H18.2692H18.2518H18.2344H18.217H18.1996H18.1822H18.1648H18.1474H18.1301H18.1127H18.0953H18.078H18.0607H18.0433H18.026H18.0087H17.9914H17.974H17.9567H17.9394H17.9222H17.9049H17.8876H17.8703H17.853H17.8358H17.8185H17.8012H17.784H17.7667H17.7495H17.7323H17.715H17.6978H17.6806H17.6633H17.6461H17.6289H17.6117H17.5945H17.5773H17.5601H17.5429H17.5257H17.5085H17.4913H17.4741H17.4569H17.4397H17.4225H17.4053H17.3881H17.371H17.3538H17.3366H17.3194H17.3023H17.2851H17.2679H17.2507H17.2336H17.2164H17.1992H17.182H17.1649H17.1477H17.1305H17.1134H17.0962H17.079H17.0619H17.0447H17.0275H17.0103H16.9932H16.976H16.9588H16.9416H16.9245H16.9073H16.8901H16.8729H16.8557H16.8385H16.8214H16.8042H16.787H16.7698H16.7526H16.7354H16.7182H16.701H16.6837H16.6665H16.6493H16.6321H16.6149H16.5976H16.5804H16.5632H16.5459H16.5287H16.5114H16.4942H16.4769H16.4597H16.4424H16.4251H16.4078H16.3906H16.3733H16.356H16.3387H16.3214H16.3041H16.2867H16.2694H16.2521H16.2348H16.2174H16.2001H16.1827H16.1654H16.148H16.1306H16.1132H16.0959H16.0785H16.0611H16.0436H16.0262H16.0088H15.9914H15.9739H15.9565H15.939H15.9216H15.9041H15.8866H15.8691H15.8516H15.8341H15.8166H15.7991H15.7815H15.764H15.7464H15.7288H15.7113H15.6937H15.6761H15.6585H15.6409H15.6232H15.6056H15.588H15.5703H15.5526H15.535H15.5173H15.4996H15.4819H15.4641H15.4464H15.4286H15.4109H15.3931H15.3753H15.3575H15.3397H15.3219H15.3041H15.2862H15.2684H15.2505H15.2326H15.2147H15.1968H15.1789H15.1609H15.143H15.125H15.107H15.089H15.071H15.053H15.035H15.0169H14.9989H14.9808H14.9627H14.9446H14.9265H14.9083H14.8902H14.872H14.8538H14.8356H14.8174H14.7992H14.7809H14.7627H14.7444H14.7261H14.7078H14.6894H14.6711H14.6527H14.6343H14.6159H14.5975H14.5791H14.5607H14.5422H14.5237H14.5052H14.4867H14.4681H14.4496H14.431H14.4124H14.3938H14.3752H14.3565H14.3379H14.3192H14.3005H14.2817H14.263H14.2442H14.2255H14.2066H14.1878H14.169H14.1501H14.1312H14.1123H14.0934H14.0745H14.0555H14.0365H14.0175H13.9985H13.9794H13.9604H13.9413H13.9222H13.903H13.8839H13.8647H13.8455H13.8263H13.807H13.7878H13.7685H13.7492H13.7298H13.7105H13.6911H13.6717H13.6523H13.6328H13.6134H13.5939H13.5743H13.5548H13.5352H13.5156H13.496H13.4764H13.4567H13.437H13.4173H13.3976H13.3778H13.358H13.3382H13.3184H13.2985H13.2786H13.2587H13.2388H13.2188H13.1988H13.1788H13.1588H13.1387H13.1186H13.0985H13.0783H13.0582H13.038H13.0177H12.9975H12.9772H12.9569H12.9366H12.9162H12.8958H12.8754H12.8549H12.8344H12.8139H12.7934H12.7728H12.7523H12.7316H12.711H12.6903H12.6696H12.6489H12.6281H12.6073H12.5865H12.5656H12.5448H12.5239H12.5029H12.4819H12.4609H12.4399H12.4188C12.1727 5.49956 11.972 5.45778 11.8313 5.35499C11.684 5.24742 11.6191 5.0859 11.6197 4.88916C11.6203 4.69287 11.6885 4.53139 11.8357 4.42319C11.9771 4.31921 12.1773 4.2752 12.4209 4.2752C13.842 4.2752 15.1494 4.27423 16.4096 4.27329C19.4614 4.27102 22.2361 4.26895 25.6783 4.28141C26.5604 4.28457 27.3477 4.4774 28.0179 4.87998C28.6885 5.28275 29.2361 5.89196 29.644 6.71836L29.644 6.71839C29.8743 7.18551 29.9811 7.6892 29.9811 8.21267C29.9811 9.40658 29.9816 10.6005 29.9822 11.7945C29.9836 14.8642 29.9851 17.934 29.977 21.0035C29.9729 22.6525 28.8284 24.1562 27.1891 24.6765L27.1891 24.6766C26.7836 24.8051 26.3508 24.8523 25.934 24.8977C25.8653 24.9052 25.797 24.9126 25.7293 24.9204L25.7293 24.9204C25.7038 24.9233 25.6811 24.9257 25.6606 24.9279C25.6128 24.9331 25.5775 24.9369 25.5484 24.942C25.5187 24.9473 25.5079 24.9523 25.5049 24.9539C25.5034 24.9571 25.4997 24.9671 25.4968 24.9916C25.4922 25.0309 25.4918 25.0869 25.4917 25.1749M25.3917 25.1747V28.7481C25.3917 28.7636 25.3917 28.7792 25.3917 28.7947C25.3918 28.8569 25.3919 28.919 25.3907 28.9811C25.3841 29.2717 25.2716 29.5016 25.0102 29.6331M25.3917 25.1747L25.4917 25.1749M25.3917 25.1747H25.4917V25.1749M25.3917 25.1747C25.3922 24.8563 25.3948 24.856 25.6539 24.8281C25.6737 24.8259 25.695 24.8236 25.718 24.821C25.7867 24.8131 25.8556 24.8056 25.9247 24.7981C26.3421 24.7525 26.7637 24.7065 27.1589 24.5812C28.7594 24.0732 29.873 22.6061 29.877 21.0032C29.885 17.9339 29.8836 14.8643 29.8822 11.7947C29.8816 10.6007 29.8811 9.40667 29.8811 8.21267C29.8811 7.70308 29.7772 7.21472 29.5543 6.76261L24.2786 29.5239C24.5035 29.7025 24.7452 29.7667 25.0102 29.6331M25.4917 25.1749V25.1817V25.1887V25.1957V25.2026V25.2096V25.2166V25.2236V25.2306V25.2375V25.2445V25.2515V25.2585V25.2655V25.2724V25.2794V25.2864V25.2934V25.3003V25.3073V25.3143V25.3213V25.3283V25.3352V25.3422V25.3492V25.3562V25.3632V25.3701V25.3771V25.3841V25.3911V25.3981V25.405V25.412V25.419V25.426V25.433V25.4399V25.4469V25.4539V25.4609V25.4678V25.4748V25.4818V25.4888V25.4958V25.5027V25.5097V25.5167V25.5237V25.5307V25.5376V25.5446V25.5516V25.5586V25.5656V25.5725V25.5795V25.5865V25.5935V25.6005V25.6074V25.6144V25.6214V25.6284V25.6354V25.6423V25.6493V25.6563V25.6633V25.6702V25.6772V25.6842V25.6912V25.6982V25.7051V25.7121V25.7191V25.7261V25.7331V25.74V25.747V25.754V25.761V25.768V25.7749V25.7819V25.7889V25.7959V25.8029V25.8098V25.8168V25.8238V25.8308V25.8377V25.8447V25.8517V25.8587V25.8657V25.8726V25.8796V25.8866V25.8936V25.9006V25.9075V25.9145V25.9215V25.9285V25.9355V25.9424V25.9494V25.9564V25.9634V25.9704V25.9773V25.9843V25.9913V25.9983V26.0052V26.0122V26.0192V26.0262V26.0332V26.0401V26.0471V26.0541V26.0611V26.0681V26.075V26.082V26.089V26.096V26.103V26.1099V26.1169V26.1239V26.1309V26.1379V26.1448V26.1518V26.1588V26.1658V26.1728V26.1797V26.1867V26.1937V26.2007V26.2076V26.2146V26.2216V26.2286V26.2356V26.2425V26.2495V26.2565V26.2635V26.2705V26.2774V26.2844V26.2914V26.2984V26.3054V26.3123V26.3193V26.3263V26.3333V26.3403V26.3472V26.3542V26.3612V26.3682V26.3751V26.3821V26.3891V26.3961V26.4031V26.41V26.417V26.424V26.431V26.438V26.4449V26.4519V26.4589V26.4659V26.4729V26.4798V26.4868V26.4938V26.5008V26.5078V26.5147V26.5217V26.5287V26.5357V26.5426V26.5496V26.5566V26.5636V26.5706V26.5775V26.5845V26.5915V26.5985V26.6055V26.6124V26.6194V26.6264V26.6334V26.6404V26.6473V26.6543V26.6613V26.6683V26.6753V26.6822V26.6892V26.6962V26.7032V26.7101V26.7171V26.7241V26.7311V26.7381V26.745V26.752V26.759V26.766V26.773V26.7799V26.7869V26.7939V26.8009V26.8079V26.8148V26.8218V26.8288V26.8358V26.8428V26.8497V26.8567V26.8637V26.8707V26.8777V26.8846V26.8916V26.8986V26.9056V26.9125V26.9195V26.9265V26.9335V26.9405V26.9474V26.9544V26.9614V26.9684V26.9754V26.9823V26.9893V26.9963V27.0033V27.0103V27.0172V27.0242V27.0312V27.0382V27.0452V27.0521V27.0591V27.0661V27.0731V27.08V27.087V27.094V27.101V27.108V27.1149V27.1219V27.1289V27.1359V27.1429V27.1498V27.1568V27.1638V27.1708V27.1778V27.1847V27.1917V27.1987V27.2057V27.2127V27.2196V27.2266V27.2336V27.2406V27.2475V27.2545V27.2615V27.2685V27.2755V27.2824V27.2894V27.2964V27.3034V27.3104V27.3173V27.3243V27.3313V27.3383V27.3453V27.3522V27.3592V27.3662V27.3732V27.3802V27.3871V27.3941V27.4011V27.4081V27.415V27.422V27.429V27.436V27.443V27.4499V27.4569V27.4639V27.4709V27.4779V27.4848V27.4918V27.4988V27.5058V27.5128V27.5197V27.5267V27.5337V27.5407V27.5477V27.5546V27.5616V27.5686V27.5756V27.5826V27.5895V27.5965V27.6035V27.6105V27.6174V27.6244V27.6314V27.6384V27.6454V27.6523V27.6593V27.6663V27.6733V27.6803V27.6872V27.6942V27.7012V27.7082V27.7152V27.7221V27.7291V27.7361V27.7431V27.7501V27.757V27.764V27.771V27.778V27.7849V27.7919V27.7989V27.8059V27.8129V27.8198V27.8268V27.8338V27.8408V27.8478V27.8547V27.8617V27.8687V27.8757V27.8827V27.8896V27.8966V27.9036V27.9106V27.9176V27.9245V27.9315V27.9385V27.9455V27.9524V27.9594V27.9664V27.9734V27.9804V27.9873V27.9943V28.0013V28.0083V28.0153V28.0222V28.0292V28.0362V28.0432V28.0502V28.0571V28.0641V28.0711V28.0781V28.0851V28.092V28.099V28.106V28.113V28.1199V28.1269V28.1339V28.1409V28.1479V28.1548V28.1618V28.1688V28.1758V28.1828V28.1897V28.1967V28.2037V28.2107V28.2177V28.2246V28.2316V28.2386V28.2456V28.2526V28.2595V28.2665V28.2735V28.2805V28.2875V28.2944V28.3014V28.3084V28.3154V28.3223V28.3293V28.3363V28.3433V28.3503V28.3572V28.3642V28.3712V28.3782V28.3852V28.3921V28.3991V28.4061V28.4131V28.4201V28.427V28.434V28.441V28.448V28.455V28.4619V28.4689V28.4759V28.4829V28.4898V28.4968V28.5038V28.5108V28.5178V28.5247V28.5317V28.5387V28.5457V28.5527V28.5596V28.5666V28.5736V28.5806V28.5876V28.5945V28.6015V28.6085V28.6155V28.6225V28.6294V28.6364V28.6434V28.6504V28.6573V28.6643V28.6713V28.6783V28.6853V28.6922V28.6992V28.7062V28.7132V28.7202V28.7271V28.7341V28.7411V28.7481C25.4917 28.7633 25.4917 28.7787 25.4917 28.7941C25.4918 28.8563 25.4919 28.9198 25.4907 28.9831L25.4906 28.9834C25.4834 29.3021 25.3568 29.5707 25.0552 29.7224M25.0552 29.7224L25.0102 29.6331M25.0552 29.7224C25.0552 29.7224 25.0552 29.7224 25.0551 29.7225L25.0102 29.6331M25.0552 29.7224C24.9048 29.7983 24.7562 29.8198 24.6118 29.7941C24.4691 29.7686 24.3375 29.6983 24.2164 29.6022L24.2164 29.6022C23.5409 29.0654 22.8652 28.5294 22.1894 27.9933C21.8317 27.7095 21.474 27.4257 21.1162 27.1417L21.1162 27.1417C20.9044 26.9735 20.6923 26.8055 20.4801 26.6374C19.8517 26.1395 19.2229 25.6414 18.599 25.137C18.414 24.9874 18.2252 24.9241 17.9882 24.9241C15.0883 24.9279 12.1884 24.9278 9.28854 24.9277C8.25376 24.9277 7.21899 24.9276 6.18422 24.9277C4.79512 24.9277 3.59846 24.4514 2.67486 23.3589C2.08666 22.6641 1.7833 21.8499 1.7833 20.9235V20.9234C1.78391 19.2388 1.78371 17.554 1.7835 15.8693C1.7832 13.3422 1.7829 10.815 1.78533 8.28819C1.78689 6.67969 2.79503 5.25405 4.33229 4.61989C5.17442 4.27208 6.04823 4.24561 6.91575 4.28462L6.91577 4.28462C7.09173 4.29256 7.23839 4.36679 7.33794 4.48611C7.43676 4.60454 7.48447 4.76156 7.47572 4.92886L7.47571 4.92901C7.46708 5.08919 7.40456 5.22762 7.29683 5.32866C7.18976 5.42907 7.04431 5.48682 6.87843 5.49878L6.87839 5.49879C6.70351 5.51133 6.5235 5.51689 6.34589 5.52239C6.23351 5.52586 6.12209 5.52931 6.01355 5.53447C5.72864 5.54802 5.45228 5.57353 5.18842 5.64046L5.18842 5.64046C4.08753 5.91965 3.32123 6.60799 3.04144 7.76999L3.04143 7.77005C2.98842 7.98963 2.98797 8.22736 2.98751 8.47258C2.9875 8.47922 2.98749 8.48587 2.98747 8.49253L2.88747 8.49233M2.88747 8.49233L2.98747 8.4924C2.98651 9.77957 2.98834 11.067 2.99016 12.3546C2.9941 15.141 2.99805 17.9279 2.97379 20.7141C2.95959 22.3572 4.15468 23.3506 5.25674 23.5928C5.58451 23.6647 5.9269 23.6987 6.26391 23.6992H6.26395C10.1731 23.7065 14.0823 23.7075 17.9914 23.6992C18.5023 23.6982 18.9354 23.8466 19.3375 24.1692" fill="#00ADFF" stroke="#00ADFF" stroke-width="0.2"/>
<path d="M9.66317 21.1704L9.66316 21.1704C9.1195 21.5361 8.53313 21.8639 7.8329 21.9035L7.83285 21.9035C7.13146 21.9427 6.60448 21.6242 6.23428 21.057L9.66317 21.1704ZM9.66317 21.1704C10.6799 20.4863 11.5487 19.6352 12.3908 18.7682C12.7606 18.3876 13.1893 18.1309 13.6978 18.0719M9.66317 21.1704L15.643 17.926C15.4889 17.9369 15.3225 17.9468 15.1476 17.9573C14.7013 17.984 14.1987 18.014 13.6978 18.0719M5.71491 19.2034L5.71491 19.2034C5.64604 17.9461 5.85476 16.7236 6.1752 15.5234L6.1752 15.5234C6.63763 13.7919 7.29608 12.1403 8.32759 10.6528L8.3276 10.6528C8.76677 10.0197 9.26285 9.42544 9.90927 8.9723L9.90928 8.97229C10.4325 8.60561 10.9719 8.40706 11.5243 8.37609C12.0766 8.34513 12.6351 8.482 13.1964 8.77545C13.3387 8.84981 13.4764 8.93478 13.6103 9.01745C13.6386 9.0349 13.6667 9.05226 13.6946 9.06938C13.8568 9.16872 14.0154 9.26172 14.1819 9.33331L14.182 9.33334C14.4796 9.46158 14.8068 9.55232 15.1256 9.58185L15.1256 9.58185C15.4381 9.61105 15.7502 9.60455 16.0689 9.59792C16.2113 9.59496 16.355 9.59197 16.5006 9.59212C16.9613 9.59212 17.3529 9.38919 17.7706 9.1596C17.8537 9.11391 17.9375 9.06633 18.0222 9.01826C18.3751 8.81797 18.743 8.60911 19.1347 8.49254L5.71491 19.2034ZM5.71491 19.2034C5.75029 19.8462 5.86327 20.4888 6.23426 21.057L5.71491 19.2034ZM23.496 11.1605L23.5817 11.109C24.964 13.41 25.7807 15.8951 25.9016 18.5915C25.9312 19.251 25.8703 19.9095 25.6343 20.5441L25.5406 20.5093L25.6343 20.5441C25.4118 21.1423 25.0395 21.5645 24.5659 21.7713C24.0922 21.9783 23.5315 21.9635 22.9447 21.7158C22.0569 21.3413 21.3267 20.7372 20.6303 20.1162C20.6303 20.1162 20.6303 20.1162 20.6302 20.1162L20.6968 20.0415L23.496 11.1605ZM23.496 11.1605L23.5817 11.109C23.0906 10.2917 22.4964 9.54665 21.7076 8.97422C20.9303 8.41013 20.0552 8.21766 19.1347 8.49253L23.496 11.1605ZM13.6978 18.0719L13.6863 17.9726L13.6978 18.0719C13.6978 18.0719 13.6978 18.0719 13.6978 18.0719ZM21.8365 19.7298C22.3086 20.1149 22.8362 20.4504 23.3818 20.7218C23.9857 21.0222 24.431 20.8171 24.6304 20.1709L21.8997 19.6524M21.8365 19.7298L21.8997 19.6524M21.8365 19.7298C21.1791 19.1935 20.5631 18.6033 19.9626 18.0023L21.8365 19.7298ZM21.8997 19.6524C22.3658 20.0325 22.887 20.364 23.4263 20.6322L23.4263 20.6322C23.7127 20.7747 23.9422 20.788 24.117 20.71C24.2926 20.6316 24.4399 20.4492 24.5348 20.1414L24.5349 20.1413C24.6363 19.8134 24.6839 19.475 24.7235 19.1937C24.7386 19.0869 24.7524 18.9884 24.7676 18.9018M21.8997 19.6524C21.2463 19.1192 20.633 18.5317 20.0333 17.9316L20.0333 17.9316C19.3563 17.2546 18.5363 16.8886 17.604 16.8516M24.7676 18.9018C24.6217 16.3505 23.9663 14.146 22.8141 12.089L22.9014 12.0401L22.8141 12.089C22.3846 11.3221 21.8724 10.6206 21.198 10.0551C20.7078 9.64429 20.1656 9.42871 19.5578 9.59225C19.1875 9.69199 18.8216 9.87116 18.4922 10.0822C17.7524 10.5561 16.9644 10.8256 16.068 10.7604C15.8142 10.7421 15.5584 10.7489 15.2972 10.7558C15.2659 10.7566 15.2345 10.7574 15.203 10.7582C14.5615 10.7743 13.9821 10.586 13.4428 10.2663L13.4428 10.2663C13.3662 10.2209 13.2909 10.1751 13.2162 10.1296C12.9796 9.98553 12.7486 9.84495 12.5028 9.73305L12.5027 9.73301C11.847 9.43386 11.2066 9.46123 10.6319 9.90179L10.6318 9.90183C10.2964 10.1586 9.97083 10.4408 9.72001 10.7651L9.71998 10.7652C7.87346 13.1511 6.99388 15.8859 6.87498 18.8843L24.7676 18.9018ZM24.7676 18.9018L17.604 16.8516M17.604 16.8516C17.604 16.8516 17.604 16.8516 17.604 16.8516L17.6 16.9515L17.604 16.8516ZM17.604 16.8516C16.4129 16.8039 15.2176 16.8043 14.0266 16.8521M17.604 16.8516L7.12363 20.2817M7.12363 20.2817L7.12364 20.2817C7.23196 20.5041 7.3614 20.642 7.5071 20.7065C7.65068 20.7699 7.82776 20.7698 8.04961 20.6792L8.04965 20.6792C8.45588 20.5136 8.86175 20.3228 9.18597 20.0562L9.24949 20.1334L9.18597 20.0562C10.002 19.3852 10.7959 18.6839 11.5547 17.9503C12.2526 17.2753 13.0761 16.8901 14.0266 16.8521M7.12363 20.2817C6.91119 19.8456 6.85591 19.3698 6.87498 18.8844L7.12363 20.2817ZM14.0266 16.8521L14.0306 16.952L14.0266 16.8521C14.0266 16.8521 14.0266 16.8521 14.0266 16.8521Z" fill="#00ADFF" stroke="#00ADFF" stroke-width="0.2"/>
<path d="M10.4498 4.74427L10.4498 4.74421C10.4624 4.26474 10.05 3.8319 9.56611 3.81905L10.4498 4.74427ZM10.4498 4.74427C10.4371 5.23588 10.0228 5.62868 9.52428 5.61856C9.02738 5.60847 8.63849 5.20101 8.65031 4.70131L10.4498 4.74427ZM8.65031 4.7013C8.66216 4.20493 9.07794 3.80627 9.56608 3.81905L8.65031 4.7013Z" fill="#00ADFF" stroke="#00ADFF" stroke-width="0.2"/>
<path d="M13.9797 13.6769L13.9788 13.7195C13.9757 13.8768 13.9192 14.0163 13.8146 14.1187C13.7103 14.2207 13.5654 14.2789 13.397 14.288L13.397 14.288C13.1695 14.3002 12.9358 14.3063 12.7035 14.2878C12.6005 14.2797 12.5715 14.3003 12.5627 14.3102C12.5507 14.3236 12.5352 14.3603 12.5423 14.4607L12.5423 14.4608C12.5578 14.6845 12.5512 14.9091 12.5434 15.1272M13.9797 13.6769L12.5434 15.1272M13.9797 13.6769L13.9773 13.6745C13.9639 13.3781 13.7539 13.1491 13.4434 13.1333L13.4431 13.1333C13.209 13.1221 12.9655 13.1125 12.725 13.1336L12.7338 13.2332M13.9797 13.6769L12.5439 12.3199M12.5434 15.1272C12.5315 15.4731 12.2903 15.7296 11.9595 15.7254C11.6423 15.7218 11.4032 15.4785 11.3867 15.1432C11.3867 15.1432 11.3867 15.1432 11.3867 15.1432L12.5434 15.1272ZM11.4856 14.4337L11.3858 14.428C11.3909 14.3379 11.3726 14.3135 11.3653 14.3069C11.3556 14.298 11.326 14.2831 11.2373 14.2885L11.2313 14.1886M11.4856 14.4337L10.6282 14.2908C10.8278 14.296 11.0329 14.3012 11.2376 14.2884L11.2313 14.1886M11.4856 14.4337C11.4968 14.2368 11.4185 14.1774 11.2313 14.1886M11.4856 14.4337L11.3858 14.4279C11.3719 14.6663 11.3749 14.9064 11.3867 15.1431L10.5997 14.1901C10.6096 14.1903 10.6195 14.1906 10.6294 14.1908C10.8301 14.196 11.0312 14.2011 11.2313 14.1886M12.4415 12.9293C12.4556 12.7638 12.4511 12.5959 12.4466 12.4287C12.4457 12.3931 12.4447 12.3575 12.444 12.322M12.4415 12.9293L12.544 12.3201L12.444 12.322M12.4415 12.9293C12.4221 13.1568 12.4897 13.2541 12.7338 13.2332M12.4415 12.9293L12.7338 13.2332M12.444 12.322L12.5439 12.3198C12.5439 12.3199 12.5439 12.3199 12.5439 12.3199M12.444 12.322L12.5439 12.3199M12.5439 12.3199C12.5447 12.3543 12.5456 12.3891 12.5466 12.4242C12.551 12.5915 12.5557 12.7661 12.5412 12.9377L12.5412 12.9378C12.5317 13.0482 12.5483 13.0909 12.5633 13.1076C12.5753 13.1211 12.6108 13.1434 12.7252 13.1336L12.7338 13.2332M12.5439 12.3199C12.5404 12.1389 12.4877 11.9815 12.3863 11.8676C12.2837 11.7524 12.1392 11.6908 11.9724 11.6891L11.9722 11.6891C11.8051 11.6877 11.6582 11.747 11.5523 11.8596C11.4472 11.9712 11.3899 12.1272 11.3842 12.3072L11.3842 12.3073L11.3842 12.3079C11.3779 12.517 11.3714 12.7336 11.3858 12.9486L11.4856 12.9419M12.5439 12.3199L11.4856 12.9419M11.4856 12.9419L11.3858 12.9485C11.3927 13.053 11.378 13.0949 11.3639 13.1114C11.3549 13.122 11.3252 13.1447 11.2159 13.1332L11.2159 13.1332C11.0595 13.1169 10.8986 13.1213 10.7455 13.1255C10.695 13.1269 10.6454 13.1282 10.597 13.1288C10.4109 13.131 10.2475 13.1847 10.129 13.2866C10.009 13.3897 9.94248 13.5361 9.94248 13.7053C9.94248 13.8738 10.0099 14.0206 10.1295 14.1251C10.2478 14.2285 10.411 14.2855 10.5972 14.2901L11.4856 12.9419Z" fill="#00ADFF" stroke="#00ADFF" stroke-width="0.2"/>
<path d="M17.7145 13.7161C17.7179 14.1059 18.0361 14.4149 18.4262 14.4069L18.4114 13.0094C18.0224 13.0099 17.7111 13.327 17.7145 13.7161ZM19.1086 13.6873C19.0967 13.308 18.7898 13.0088 18.4114 13.0094L19.1086 13.6873Z" fill="#00ADFF" stroke="#00ADFF" stroke-width="0.2"/>
<path d="M20.3425 12.4767C20.3454 12.0858 20.0326 11.7733 19.6416 11.775L19.6416 11.775C19.2519 11.7767 18.9429 12.0912 18.9469 12.4819L18.9469 12.4819L19.6352 13.0682L19.6335 13.1682C20.027 13.175 20.3397 12.8698 20.3425 12.4767ZM20.3425 12.4767L20.2425 12.476L20.3425 12.4767C20.3425 12.4767 20.3425 12.4767 20.3425 12.4767Z" fill="#00ADFF" stroke="#00ADFF" stroke-width="0.2"/>
<path d="M19.6245 15.6364L19.6245 15.6364C19.2326 15.6251 18.9327 15.3059 18.9469 14.9134L18.9469 14.9134C18.9605 14.5354 19.2702 14.2415 19.6498 14.2438L19.6245 15.6364ZM19.6245 15.6364C20.0172 15.6478 20.3356 15.3453 20.3424 14.9533M19.6245 15.6364L20.3424 14.9533M20.3424 14.9533C20.3492 14.5627 20.0401 14.246 19.6498 14.2438L20.3424 14.9533Z" fill="#00ADFF" stroke="#00ADFF" stroke-width="0.2"/>
<path d="M21.5725 13.7093V13.7093C21.5741 13.351 21.3167 13.059 20.9745 13.0124V13.0049L20.8739 13.0055C20.4858 13.0077 20.1753 13.3264 20.1798 13.7149L20.1798 13.7149C20.1844 14.1038 20.5052 14.4131 20.8943 14.404L20.8944 14.404C21.2762 14.3949 21.5709 14.0921 21.5725 13.7093Z" fill="#00ADFF" stroke="#00ADFF" stroke-width="0.2"/>
</svg>
