<svg width="32" height="32" viewBox="0 0 32 32" fill="none" xmlns="http://www.w3.org/2000/svg">
<g clip-path="url(#clip0_2074_6655)">
<path d="M10.3721 7.74988H21.7493C21.7138 7.70415 21.6783 7.65843 21.6429 7.6127C21.9037 7.33836 22.1257 7.00457 22.4335 6.79996C23.2115 6.28556 24.0341 5.8409 24.8258 5.34593C25.2423 5.08531 25.5146 5.1699 25.7606 5.58256C27.78 8.96728 29.8039 12.3486 31.837 15.7253C32.0967 16.1562 32.059 16.4477 31.6059 16.7061C30.7627 17.1873 29.9275 17.6846 29.1037 18.2001C28.6918 18.4573 28.336 18.5568 28.0568 18.0435C27.4928 18.6779 27.4962 18.7305 28.0866 19.2095C28.963 19.9193 29.1701 20.9333 28.6266 21.8523C28.1049 22.7359 27.0672 23.0423 26.0352 22.6182C25.9345 22.5771 25.8338 22.5382 25.7297 22.4982C25.1965 24.2014 24.0307 24.7592 22.3545 23.9876C22.2275 24.7215 21.8694 25.3068 21.1898 25.6326C20.4965 25.9641 19.8191 25.8772 19.1235 25.436C19.0606 25.6188 19.008 25.7697 18.9588 25.9206C18.5423 27.1849 17.1362 27.7187 15.9955 27.0283C15.5573 26.7631 15.1465 26.4533 14.6466 26.1104C14.1523 26.9654 13.4406 27.4592 12.4395 27.3049C11.4442 27.1517 10.951 26.4636 10.7325 25.5503C9.03806 25.4542 8.61931 25.1616 8.17196 23.7464C6.83333 23.8905 5.95121 23.3246 5.60683 21.9415C4.55767 22.0707 3.695 21.7666 3.25337 20.7538C2.85407 19.837 3.16527 19.046 3.75793 18.4585C3.46961 18.367 3.12866 18.3144 2.84606 18.1567C2.01428 17.6926 1.21225 17.1759 0.386195 16.7027C-0.0359866 16.4603 -0.110355 16.1848 0.140208 15.7687C2.18247 12.3749 4.22015 8.97757 6.25097 5.57798C6.47751 5.19847 6.71434 5.07273 7.12852 5.33107C8.0175 5.88662 8.93623 6.39187 9.81492 6.96228C10.0323 7.10288 10.1387 7.41266 10.3687 7.75102L10.3721 7.74988ZM6.9466 19.1878C8.5049 18.0961 9.56664 18.5785 10.3813 19.7547C11.1684 18.8505 12.126 18.5419 13.1661 19.2232C14.269 19.9456 14.2473 20.9961 13.7438 22.0844C15.5504 22.7462 15.8982 23.5247 15.2392 25.4325C15.5699 25.6634 15.9074 25.9081 16.2541 26.1401C16.9382 26.5973 17.5801 26.5345 17.9645 25.9801C18.3661 25.3994 18.1933 24.7775 17.4943 24.2848C16.9497 23.9008 16.3856 23.5384 15.8742 23.1143C15.7415 23.0034 15.7712 22.6971 15.7266 22.4799C15.9314 22.4593 16.1602 22.3724 16.3364 22.4342C16.5801 22.5199 16.7861 22.7142 17.0046 22.8663C17.8947 23.4881 18.7803 24.1168 19.675 24.7329C20.0903 25.0187 20.5354 25.037 20.961 24.7535C21.3706 24.4803 21.5388 24.0608 21.4015 23.6093C21.3145 23.3258 21.0994 23.0331 20.8591 22.8548C19.818 22.0844 18.7379 21.3665 17.6979 20.5949C17.5538 20.4886 17.5515 20.1914 17.484 19.9822C17.7174 19.9502 17.9519 19.8896 18.1842 19.8988C18.2963 19.9033 18.4039 20.0382 18.5137 20.1148C19.9484 21.1207 21.3694 22.1484 22.8293 23.1177C23.144 23.3269 23.6394 23.4675 23.9792 23.3749C24.2835 23.2915 24.5856 22.8823 24.7148 22.5485C24.8979 22.0752 24.6348 21.6649 24.2229 21.3768C23.0513 20.5583 21.8786 19.7422 20.7081 18.9226C20.2711 18.6173 19.8169 18.3304 19.4153 17.9829C19.2963 17.8789 19.3329 17.5966 19.2974 17.3954C19.4988 17.3634 19.7024 17.2994 19.9004 17.3119C20.0148 17.3188 20.1235 17.4468 20.2322 17.5234C22.1829 18.8894 24.1325 20.2566 26.0844 21.6214C26.7674 22.0992 27.4562 22.0307 27.8429 21.4568C28.2216 20.8955 28.0488 20.26 27.3978 19.7936C25.5398 18.463 23.6565 17.1633 21.8362 15.7825C20.9781 15.1309 20.1281 14.7914 19.0217 14.8405C17.4783 14.908 16.1133 13.7603 15.6831 12.2834C15.6271 12.0914 15.4635 11.8479 15.293 11.7885C14.9692 11.6764 14.6958 11.7953 14.507 12.152C14.1969 12.7395 13.8445 13.3088 13.4681 13.8575C12.5219 15.2383 10.6547 15.7127 9.20853 14.9629C8.66164 14.6794 8.60329 14.4976 8.90992 13.9866C9.6044 12.8264 10.3012 11.6684 10.9957 10.5082C11.3503 9.91606 11.7004 9.32279 12.0986 8.65178C11.8114 8.65178 11.6192 8.68151 11.4384 8.64721C10.0289 8.37401 9.22341 8.95585 8.55524 10.2327C7.41112 12.4229 6.04389 14.4965 4.77277 16.6192C4.53136 17.0227 4.74645 17.9029 5.15147 17.9589C5.97181 18.0721 6.56675 18.4665 6.94775 19.1866L6.9466 19.1878ZM9.81034 14.2301C10.9796 14.6668 12.1638 14.2804 12.8102 13.2825C13.0585 12.8996 13.34 12.5223 13.5036 12.1017C13.9143 11.0466 14.6546 10.7162 15.7392 10.866C16.1957 10.9288 16.4131 11.0386 16.4588 11.5301C16.5916 12.975 17.6853 13.9615 19.1281 13.9878C19.4896 13.9946 19.8603 13.9421 20.2127 14.0004C20.5891 14.0632 21.0045 14.1455 21.3076 14.3559C22.9815 15.5184 24.6267 16.7244 26.2823 17.9121C26.4459 18.0298 26.6198 18.1327 26.7743 18.2321C27.4161 17.5131 27.4688 16.9061 26.9356 16.0762C25.4539 13.7717 24.089 11.3918 22.6909 9.03472C22.5261 8.75695 22.3557 8.63807 22.0193 8.64035C19.4462 8.65636 16.8719 8.65864 14.2987 8.64721C13.4933 8.64378 12.9178 8.97528 12.5162 9.66457C11.9888 10.5688 11.4373 11.4592 10.903 12.3589C10.5357 12.9761 10.1776 13.5991 9.81149 14.229L9.81034 14.2301ZM3.28083 17.3999C5.25559 14.1021 7.19716 10.8603 9.16277 7.57841C8.38248 7.10974 7.65825 6.67536 6.89512 6.21812C4.91006 9.5354 2.97192 12.775 1.01432 16.0465C1.79919 16.5152 2.49825 16.9336 3.28083 17.4011V17.3999ZM25.1107 6.22155C24.3304 6.68565 23.6039 7.11888 22.8373 7.57613C24.8235 10.8888 26.7651 14.1284 28.7261 17.3988C29.5167 16.9244 30.2284 16.4969 30.9915 16.0385C29.0202 12.7475 27.0775 9.50454 25.1107 6.22155ZM9.09412 23.4229C9.109 24.0768 9.35269 24.4437 9.84009 24.5981C10.3664 24.7649 10.824 24.6163 11.149 24.158C11.7531 23.3029 12.3549 22.4456 12.9418 21.578C13.3411 20.987 13.2359 20.3206 12.7176 19.9616C12.1867 19.5936 11.5437 19.7159 11.1238 20.2954C10.5208 21.1276 9.92819 21.9689 9.35269 22.8205C9.20968 23.032 9.14675 23.2972 9.09527 23.4229H9.09412ZM7.75664 22.8891C7.88936 22.8274 8.21887 22.7748 8.37904 22.5828C8.79894 22.0752 9.19023 21.5323 9.50715 20.9561C9.76801 20.4829 9.53461 19.9079 9.08039 19.6233C8.60444 19.3238 8.01292 19.3901 7.64452 19.8462C7.28869 20.2874 6.95347 20.7538 6.67544 21.2453C6.25898 21.9826 6.78185 22.8651 7.75778 22.8891H7.75664ZM13.4406 23.0332C13.3239 23.0869 13.0127 23.1349 12.8652 23.3166C12.4475 23.8299 12.0528 24.3729 11.7348 24.9513C11.4716 25.4279 11.705 26.0006 12.1661 26.2876C12.6134 26.5665 13.2267 26.5059 13.5688 26.0852C13.9395 25.6291 14.2965 25.1502 14.5802 24.6381C14.9909 23.8962 14.4315 23.032 13.4406 23.0343V23.0332ZM5.06337 21.0784C5.70179 21.0899 6.19834 20.6109 6.1972 19.9845C6.19606 19.3524 5.70866 18.862 5.08282 18.8631C4.48445 18.8631 3.99362 19.3409 3.97646 19.9365C3.95815 20.5721 4.42953 21.067 5.06337 21.0784Z" fill="#00ADFF"/>
<path d="M16.4396 1.56834C16.4396 1.94785 16.4819 2.33307 16.4213 2.70229C16.3927 2.87833 16.1696 3.02236 16.0357 3.18125C15.8801 3.02465 15.6009 2.8749 15.5906 2.70915C15.5415 1.95356 15.546 1.1934 15.5884 0.436665C15.5975 0.283489 15.8572 0.145174 16.0014 0C16.1478 0.16232 16.3847 0.307494 16.4213 0.491534C16.4888 0.839037 16.4407 1.20826 16.4396 1.56834Z" fill="#00ADFF"/>
<path d="M16.442 30.4207C16.442 30.7807 16.4912 31.15 16.4226 31.4963C16.3859 31.6838 16.1491 31.8324 16.0027 31.9981C15.8562 31.8312 15.5965 31.6712 15.5851 31.4952C15.5381 30.7602 15.5381 30.0183 15.5885 29.2833C15.5999 29.1198 15.8791 28.9746 16.0358 28.8203C16.1708 28.9758 16.3951 29.1164 16.4226 29.2878C16.482 29.6571 16.4409 30.0423 16.4409 30.4207C16.4409 30.4207 16.442 30.4207 16.4431 30.4207H16.442Z" fill="#00ADFF"/>
<path d="M10.1551 1.17736C10.2237 1.25052 10.3885 1.36026 10.456 1.51115C10.7523 2.16958 11.0498 2.82915 11.2775 3.51272C11.3347 3.68533 11.1345 3.94367 11.0521 4.16315C10.8633 4.04884 10.5853 3.97911 10.5018 3.81221C10.1894 3.18465 9.92969 2.52965 9.67455 1.87466C9.51781 1.47228 9.69858 1.1625 10.1539 1.17622L10.1551 1.17736Z" fill="#00ADFF"/>
<path d="M11.4104 28.1981C11.3017 28.4702 11.2182 28.6805 11.1312 28.8909C10.9127 29.4178 10.7228 29.9597 10.4573 30.4615C10.3727 30.6215 10.0855 30.6764 9.891 30.7793C9.8132 30.5758 9.62213 30.3335 9.6759 30.1746C9.91274 29.4739 10.1999 28.7868 10.5203 28.1193C10.5923 27.9684 10.8692 27.8495 11.0546 27.8438C11.1701 27.8404 11.2937 28.0758 11.4093 28.1993L11.4104 28.1981Z" fill="#00ADFF"/>
<path d="M22.4428 1.5786C22.3364 1.84609 22.2551 2.05756 22.167 2.26561C21.9474 2.79143 21.7552 3.33098 21.4886 3.83051C21.4028 3.99055 21.1202 4.04656 20.9268 4.14944C20.8513 3.94368 20.6648 3.7002 20.7186 3.53902C20.9554 2.83944 21.2414 2.15244 21.5607 1.48601C21.6339 1.33398 21.9096 1.2151 22.0972 1.20709C22.2082 1.20252 22.3284 1.44829 22.4428 1.5786Z" fill="#00ADFF"/>
<path d="M21.8777 30.8332C21.7735 30.7178 21.5985 30.5932 21.5218 30.4229C21.2381 29.8022 20.9566 29.1769 20.7415 28.531C20.6775 28.339 20.761 27.9618 20.9074 27.8657C21.2152 27.6623 21.4246 27.9206 21.5459 28.2087C21.817 28.8557 22.0928 29.5015 22.3479 30.1554C22.4875 30.5132 22.3456 30.7406 21.8788 30.8321L21.8777 30.8332Z" fill="#00ADFF"/>
<path d="M4.91477 27.4661C4.82209 27.3861 4.65505 27.3118 4.62073 27.1963C4.57725 27.0546 4.58412 26.8237 4.67336 26.7288C5.21682 26.1481 5.77744 25.58 6.36666 25.045C6.4662 24.9547 6.77855 24.989 6.91126 25.0816C7.00966 25.1513 7.06458 25.4885 6.99021 25.5674C6.40899 26.1904 5.79346 26.7825 5.18249 27.3769C5.13444 27.4238 5.04291 27.4238 4.91477 27.4638V27.4661Z" fill="#00ADFF"/>
<path d="M25.356 24.8711C25.5151 24.9694 25.6569 25.0277 25.7588 25.126C26.2622 25.6153 26.7782 26.0954 27.2358 26.6258C27.3594 26.7698 27.2919 27.0784 27.3113 27.3116C27.0825 27.2773 26.7839 27.323 26.6363 27.1962C26.1066 26.7378 25.6135 26.2337 25.1398 25.7158C25.0254 25.5912 24.9933 25.3443 25.0117 25.1626C25.0219 25.062 25.2176 24.982 25.356 24.8711Z" fill="#00ADFF"/>
<path d="M4.00323 15.3524C3.86136 15.7639 3.69432 15.9811 3.34307 15.8108C3.03874 15.6633 2.73783 15.493 2.46896 15.2895C2.17721 15.0689 2.19208 14.7009 2.50443 14.6174C2.77101 14.5465 3.13255 14.7283 3.41744 14.8689C3.64741 14.9821 3.82589 15.2015 4.00323 15.3524Z" fill="#00ADFF"/>
<path d="M29.722 14.7884C29.7117 15.3211 28.618 16.0001 28.2999 15.8126C28.0356 15.6572 27.9063 15.3885 28.1718 15.1645C28.4692 14.913 28.8193 14.6924 29.1832 14.5632C29.3342 14.5095 29.5825 14.7244 29.722 14.7884Z" fill="#00ADFF"/>
</g>
<defs>
<clipPath id="clip0_2074_6655">
<rect width="32" height="32" fill="white"/>
</clipPath>
</defs>
</svg>
