<svg width="33" height="33" viewBox="0 0 33 33" fill="none" xmlns="http://www.w3.org/2000/svg">
<path d="M25.7231 5H7.79301C7.31747 5 6.86142 5.19386 6.52516 5.53892C6.18891 5.88399 6 6.352 6 6.83999V13.28C6 19.3428 8.85985 23.017 11.2591 25.0318C13.8433 27.2007 16.414 27.9367 16.5261 27.9677C16.6802 28.0108 16.8427 28.0108 16.9968 27.9677C17.1088 27.9367 19.6762 27.2007 22.2637 25.0318C24.6563 23.017 27.5161 19.3428 27.5161 13.28V6.83999C27.5161 6.352 27.3272 5.88399 26.991 5.53892C26.6547 5.19386 26.1987 5 25.7231 5ZM25.7231 13.28C25.7231 17.543 24.1923 21.0034 21.1734 23.5632C19.8592 24.6738 18.3645 25.538 16.7581 26.1162C15.1726 25.5481 13.6964 24.6992 12.3966 23.6081C9.34172 21.0436 7.79301 17.5695 7.79301 13.28V6.83999H25.7231V13.28ZM11.6413 16.6909C11.473 16.5182 11.3785 16.2841 11.3785 16.04C11.3785 15.7958 11.473 15.5617 11.6413 15.3891C11.8095 15.2164 12.0376 15.1195 12.2755 15.1195C12.5134 15.1195 12.7416 15.2164 12.9098 15.3891L14.9651 17.4993L20.6063 11.7091C20.6896 11.6236 20.7885 11.5558 20.8973 11.5095C21.0062 11.4633 21.1228 11.4395 21.2406 11.4395C21.3584 11.4395 21.475 11.4633 21.5839 11.5095C21.6927 11.5558 21.7916 11.6236 21.8749 11.7091C21.9582 11.7946 22.0242 11.896 22.0693 12.0077C22.1144 12.1194 22.1376 12.2391 22.1376 12.36C22.1376 12.4809 22.1144 12.6006 22.0693 12.7122C22.0242 12.8239 21.9582 12.9254 21.8749 13.0109L15.5993 19.4509C15.5161 19.5364 15.4172 19.6043 15.3084 19.6506C15.1995 19.6969 15.0829 19.7207 14.9651 19.7207C14.8472 19.7207 14.7306 19.6969 14.6217 19.6506C14.5129 19.6043 14.414 19.5364 14.3308 19.4509L11.6413 16.6909Z" fill="#00ADFF"/>
</svg>
