<svg width="33" height="31" viewBox="0 0 33 31" fill="none" xmlns="http://www.w3.org/2000/svg">
<g clip-path="url(#clip0_2074_6928)">
<mask id="path-1-inside-1_2074_6928" fill="white">
<path fill-rule="evenodd" clip-rule="evenodd" d="M22.2525 0.0171922C23.0652 0.000260999 23.6578 0.11878 24.5382 0.457404C25.4864 0.812959 25.9435 1.13465 26.8409 2.01508C27.6705 2.84471 28.0599 3.3865 28.3478 4.14841C28.6356 4.91031 28.7372 5.51984 28.7372 6.51878C28.7372 7.53465 28.6356 8.12724 28.3308 8.88915C28.0769 9.5664 27.6197 10.2436 26.9763 10.9209C26.4515 11.4796 25.9435 12.1061 25.825 12.3093C25.6557 12.6648 25.6896 12.6987 26.0959 12.7833C26.3668 12.8172 26.7901 13.0712 27.0441 13.3251C27.4165 13.6976 27.5181 13.9516 27.5012 14.5103C27.5012 14.9167 27.4165 15.3907 27.3319 15.577C27.2303 15.7632 26.9255 16.0341 26.6546 16.1696C26.3668 16.305 25.9943 16.4235 25.8081 16.4235C25.5372 16.4235 25.4695 16.5421 25.4695 17.0161C25.4695 17.3378 25.3509 17.8288 25.2155 18.1167C25.08 18.4045 24.7076 18.7431 24.3689 18.8786C23.9964 19.0479 23.2345 19.1325 22.2525 19.1325C21.2367 19.1325 20.5594 19.0479 20.2208 18.8786C19.9329 18.7431 19.5943 18.4553 19.4589 18.2352C19.3234 18.032 19.2049 17.541 19.2049 17.1347C19.2049 16.4574 19.188 16.4235 18.697 16.4235C18.3753 16.4235 18.0028 16.2542 17.698 15.9495C17.4271 15.6955 17.1562 15.2553 17.0885 14.9844C17.0208 14.6796 17.0546 14.2394 17.1901 13.8839C17.3594 13.4606 17.6303 13.1897 18.1552 12.9526C18.5446 12.7664 18.8663 12.5294 18.8663 12.4447C18.8832 12.3431 18.4261 11.8182 17.9012 11.2595C17.3594 10.7008 16.7329 9.90502 16.5298 9.48174C16.3266 9.05846 16.0726 8.26269 15.9541 7.70396C15.8017 6.92513 15.8017 6.43412 15.9541 5.58756C16.0726 4.97804 16.3435 4.09762 16.5636 3.64047C16.7837 3.1664 17.3086 2.43836 17.715 2.01508C18.1044 1.5918 18.7139 1.10079 19.0356 0.931478C19.3573 0.762166 19.9668 0.491266 20.3901 0.321954C20.8134 0.169573 21.643 0.0171922 22.2525 0.0171922ZM19.7298 1.79497C19.2388 2.06587 18.5954 2.55687 18.3076 2.87857C18.0197 3.20026 17.5964 3.89444 17.3594 4.40238C17.0546 5.09656 16.9361 5.62142 16.9361 6.51878C16.9361 7.46693 17.0208 7.90714 17.3933 8.66904C17.6472 9.21084 18.2229 10.0574 18.68 10.5315C19.1372 11.0225 19.6451 11.7167 19.7806 12.0722C19.9668 12.4955 20.1531 12.6987 20.3901 12.6987C20.7118 12.6987 20.7287 12.5802 20.7287 10.8701C20.7118 9.31243 20.7626 8.99074 21.0673 8.58439C21.2705 8.31349 21.6261 8.09338 21.9478 8.02566C22.2695 7.97486 22.7097 8.02566 22.9975 8.16111C23.2684 8.27963 23.5901 8.58439 23.7086 8.83836C23.861 9.14312 23.9456 9.92195 23.9456 11.0056C23.9456 12.5802 23.9626 12.6987 24.2843 12.6987C24.5213 12.6987 24.6737 12.5294 24.7753 12.1399C24.8769 11.8521 25.4017 11.1071 25.9774 10.4976C26.6885 9.75264 27.1287 9.09232 27.3488 8.46587C27.6197 7.75476 27.6874 7.22989 27.6367 6.26481C27.6028 5.41825 27.4673 4.741 27.2134 4.23307C27.0102 3.80978 26.5192 3.14947 26.1128 2.74312C25.7065 2.33677 24.9954 1.82883 24.5382 1.60873C24.0642 1.38862 23.3531 1.18545 22.9298 1.13465C22.5065 1.10079 21.8292 1.11772 21.406 1.18545C20.9827 1.25317 20.2377 1.52407 19.7298 1.79497ZM21.7107 11.0394L21.7446 12.6987H22.7605C22.8282 9.39709 22.8113 9.16005 22.5404 9.07539C22.388 9.0246 22.2356 8.97381 22.2017 8.97381C22.1679 8.97381 22.0494 9.05846 21.9139 9.17698C21.7277 9.32936 21.6769 9.7865 21.7107 11.0394ZM13.2959 10.6669C13.516 10.7854 13.5837 10.9209 13.4991 11.1241C13.4314 11.2934 13.3467 13.3759 13.3128 15.7463C13.279 18.4891 13.3128 20.3008 13.4314 20.6902C13.5329 21.0458 13.8377 21.5198 14.1255 21.7569C14.6165 22.1802 14.6843 22.1802 17.5118 22.1802C19.0864 22.1802 20.5086 22.214 20.6441 22.2648C20.7795 22.3156 20.898 22.5526 20.898 22.8066C20.898 23.0775 20.9827 23.5685 21.0673 23.9071C21.1689 24.2627 21.4398 24.7876 21.6938 25.0754C21.9647 25.3802 22.371 25.7188 22.625 25.8373C22.8959 25.9727 23.116 26.0743 23.1329 26.0743C23.1668 26.0743 23.1499 25.668 23.1329 25.1939C23.0991 24.7029 23.1499 23.9918 23.2515 23.6193C23.3531 23.2468 23.5901 22.7727 23.7763 22.5526C24.098 22.1971 24.2165 22.1802 30.0409 22.1802L31.1414 21.1981L31.2261 16.6436C31.2769 14.1548 31.243 11.8352 31.1753 11.5135C31.0568 11.0225 31.0906 10.887 31.3446 10.7008C31.5986 10.5315 31.7001 10.5484 31.988 10.8362C32.3097 11.1579 32.3266 11.4458 32.4113 20.9103L31.988 21.6214C31.7509 22.0278 31.243 22.5526 30.8536 22.8066C30.1594 23.2638 30.0917 23.2807 24.4536 23.3653L24.2843 23.9071C24.1827 24.2119 24.115 24.669 24.115 24.923C24.115 25.1939 24.2335 25.6849 24.3859 26.0235C24.5382 26.3791 24.606 26.8193 24.5552 27.0056C24.4536 27.3103 24.352 27.3272 23.5562 27.2087C23.0652 27.141 22.3541 26.904 21.9478 26.6669C21.5583 26.4299 21.0335 25.9897 20.3054 25.0754L19.7467 25.5833C19.4589 25.8542 19.0187 26.1421 18.7816 26.2436C18.5446 26.3452 16.8007 26.413 11.3319 26.413L11.1118 27.2087C11.0102 27.6659 10.6885 28.3262 10.4176 28.6987C10.1298 29.0881 9.52025 29.596 8.94459 29.9177C8.38586 30.2225 7.70861 30.4595 7.43771 30.4764C7.14988 30.4764 6.81125 30.3918 6.67581 30.3071C6.4557 30.1717 6.4557 30.0532 6.74353 29.2574C6.98057 28.5971 7.03136 28.1569 6.9467 27.5981C6.87898 27.1749 6.74353 26.7347 6.62501 26.6161C6.48956 26.4638 5.89697 26.396 4.67792 26.413C3.27263 26.413 2.81549 26.3452 2.27369 26.0743C1.9012 25.8881 1.46099 25.5325 1.29168 25.2616C1.10543 25.0077 0.885328 24.5336 0.76681 24.2119C0.648291 23.8225 0.580566 22.1294 0.580566 19.1664C0.580566 15.1368 0.614429 14.6796 0.90226 14.087C1.07157 13.7484 1.4102 13.2913 1.6303 13.0881C1.83348 12.8849 2.30755 12.5971 2.64617 12.4616C3.17104 12.2415 4.10226 12.1907 12.2631 12.1907L12.3478 11.5981C12.3986 11.2765 12.5509 10.887 12.7033 10.7516C12.8896 10.5653 13.0419 10.5484 13.2959 10.6669ZM20.2208 16.9653C20.2208 17.2701 20.3054 17.6257 20.424 17.7442C20.5763 17.8796 21.2028 17.9473 22.3372 17.9473C23.4772 17.9473 24.115 17.874 24.2504 17.7272C24.3689 17.6257 24.4536 17.2701 24.4536 16.9653V16.4235H20.2208V16.9653ZM31.0398 5.90926C31.5986 5.90926 32.0726 5.99391 32.2081 6.12936C32.3266 6.24788 32.3774 6.46799 32.3266 6.6373C32.2589 6.89127 32.0388 6.92513 31.0568 6.92513C30.1594 6.92513 29.8546 6.87434 29.7869 6.67116C29.7361 6.53571 29.7869 6.3156 29.8885 6.16322C30.024 5.99391 30.3964 5.90926 31.0398 5.90926ZM18.1552 14.3071C18.0705 14.5103 18.1213 14.7812 18.2737 15.0182C18.5277 15.3907 18.5785 15.3907 22.1679 15.3907C24.2504 15.3907 25.9605 15.323 26.1467 15.2214C26.3725 15.1086 26.4853 14.8828 26.4853 14.5442C26.4853 14.1717 26.3837 14.0024 26.062 13.8669C25.825 13.7823 24.1658 13.7145 22.3033 13.7145C20.4578 13.7145 18.7986 13.7823 18.6123 13.8669C18.4261 13.9347 18.2229 14.1378 18.1552 14.3071ZM2.03665 14.2733C1.69803 14.7304 1.6811 14.9675 1.6811 19.3526C1.6811 22.705 1.74882 24.0595 1.9012 24.3304C2.01972 24.5336 2.30755 24.8384 2.56152 25.0077C2.91707 25.2278 3.50967 25.3294 5.152 25.3802L7.2684 25.4648C7.86099 26.6331 7.94565 27.1579 7.94565 28.0384C7.94565 29.0373 7.99644 29.2235 8.19961 29.1558C8.33506 29.105 8.63983 28.9357 8.87686 28.7664C9.1139 28.614 9.46946 28.2246 9.67263 27.9198C9.8758 27.5981 10.079 26.9886 10.1128 26.5653C10.1467 26.159 10.2314 25.7188 10.2991 25.6003C10.3837 25.4479 11.3488 25.3802 14.261 25.3802C16.97 25.3802 18.2229 25.3294 18.5107 25.177C18.7308 25.0585 19.0525 24.7706 19.2218 24.5336C19.3911 24.3135 19.5605 23.941 19.6113 23.7378C19.7128 23.3653 19.7128 23.3484 17.4779 23.3484C16.2419 23.3484 14.9382 23.2807 14.5996 23.1791C14.2441 23.0944 13.7192 22.8066 13.4144 22.5526C13.1266 22.2987 12.7541 21.7738 12.5848 21.4013C12.3139 20.8257 12.28 20.2331 12.2631 16.9653V13.1897C4.08533 13.2066 3.4758 13.2405 2.96787 13.4944C2.64618 13.6638 2.22289 14.0024 2.03665 14.2733ZM13.8546 2.69232C13.9562 2.69232 14.4134 2.96322 14.8536 3.28492C15.2938 3.62354 15.6494 3.9791 15.6663 4.09762C15.6663 4.21613 15.5478 4.41931 15.3954 4.55476C15.1753 4.7918 15.0737 4.77486 14.515 4.36851C14.1594 4.11455 13.7192 3.75899 13.5329 3.55582C13.2451 3.26799 13.2282 3.18333 13.4314 2.96322C13.5499 2.81084 13.7531 2.69232 13.8546 2.69232ZM30.8874 2.74312C31.0398 2.77698 31.1414 2.96322 31.1414 3.20026C31.1414 3.48809 30.9213 3.75899 30.3456 4.16534C29.9054 4.48703 29.4144 4.69021 29.279 4.63941C29.1435 4.60555 29.025 4.38545 29.025 4.18227C29.025 3.9283 29.279 3.62354 29.8377 3.25105C30.2779 2.94629 30.752 2.70926 30.8874 2.74312ZM13.6345 5.90926C14.4134 5.90926 14.6673 5.97698 14.7859 6.21402C14.8705 6.38333 14.9044 6.60344 14.8705 6.72195C14.8197 6.8574 14.4303 6.92513 13.6176 6.92513C12.7202 6.92513 12.4155 6.87434 12.3478 6.67116C12.297 6.53571 12.3478 6.3156 12.4494 6.16322C12.5848 5.99391 12.9573 5.90926 13.6345 5.90926ZM15.2261 8.33042C15.4123 8.34735 15.5986 8.51666 15.6155 8.70291C15.6663 8.95687 15.4292 9.22777 14.7689 9.68492C14.0747 10.159 13.8038 10.2775 13.5837 10.1421C13.4144 10.0574 13.262 9.87116 13.2451 9.73571C13.2282 9.58333 13.5837 9.21084 14.0578 8.88915C14.515 8.55053 15.0398 8.31349 15.2261 8.33042ZM29.4822 8.27963C29.6007 8.27963 30.0578 8.53359 30.4642 8.83836C30.8874 9.14312 31.2769 9.48174 31.3107 9.60026C31.3615 9.71878 31.2769 9.92195 31.1414 10.0574C31.006 10.2098 30.8028 10.2606 30.6843 10.2098C30.5658 10.1421 30.1425 9.87116 29.7531 9.61719C29.3467 9.34629 29.0081 8.99074 28.9911 8.82142C28.9911 8.65211 29.0419 8.46587 29.1097 8.39814C29.1943 8.33042 29.3467 8.27963 29.4822 8.27963Z"/>
</mask>
<path fill-rule="evenodd" clip-rule="evenodd" d="M22.2525 0.0171922C23.0652 0.000260999 23.6578 0.11878 24.5382 0.457404C25.4864 0.812959 25.9435 1.13465 26.8409 2.01508C27.6705 2.84471 28.0599 3.3865 28.3478 4.14841C28.6356 4.91031 28.7372 5.51984 28.7372 6.51878C28.7372 7.53465 28.6356 8.12724 28.3308 8.88915C28.0769 9.5664 27.6197 10.2436 26.9763 10.9209C26.4515 11.4796 25.9435 12.1061 25.825 12.3093C25.6557 12.6648 25.6896 12.6987 26.0959 12.7833C26.3668 12.8172 26.7901 13.0712 27.0441 13.3251C27.4165 13.6976 27.5181 13.9516 27.5012 14.5103C27.5012 14.9167 27.4165 15.3907 27.3319 15.577C27.2303 15.7632 26.9255 16.0341 26.6546 16.1696C26.3668 16.305 25.9943 16.4235 25.8081 16.4235C25.5372 16.4235 25.4695 16.5421 25.4695 17.0161C25.4695 17.3378 25.3509 17.8288 25.2155 18.1167C25.08 18.4045 24.7076 18.7431 24.3689 18.8786C23.9964 19.0479 23.2345 19.1325 22.2525 19.1325C21.2367 19.1325 20.5594 19.0479 20.2208 18.8786C19.9329 18.7431 19.5943 18.4553 19.4589 18.2352C19.3234 18.032 19.2049 17.541 19.2049 17.1347C19.2049 16.4574 19.188 16.4235 18.697 16.4235C18.3753 16.4235 18.0028 16.2542 17.698 15.9495C17.4271 15.6955 17.1562 15.2553 17.0885 14.9844C17.0208 14.6796 17.0546 14.2394 17.1901 13.8839C17.3594 13.4606 17.6303 13.1897 18.1552 12.9526C18.5446 12.7664 18.8663 12.5294 18.8663 12.4447C18.8832 12.3431 18.4261 11.8182 17.9012 11.2595C17.3594 10.7008 16.7329 9.90502 16.5298 9.48174C16.3266 9.05846 16.0726 8.26269 15.9541 7.70396C15.8017 6.92513 15.8017 6.43412 15.9541 5.58756C16.0726 4.97804 16.3435 4.09762 16.5636 3.64047C16.7837 3.1664 17.3086 2.43836 17.715 2.01508C18.1044 1.5918 18.7139 1.10079 19.0356 0.931478C19.3573 0.762166 19.9668 0.491266 20.3901 0.321954C20.8134 0.169573 21.643 0.0171922 22.2525 0.0171922ZM19.7298 1.79497C19.2388 2.06587 18.5954 2.55687 18.3076 2.87857C18.0197 3.20026 17.5964 3.89444 17.3594 4.40238C17.0546 5.09656 16.9361 5.62142 16.9361 6.51878C16.9361 7.46693 17.0208 7.90714 17.3933 8.66904C17.6472 9.21084 18.2229 10.0574 18.68 10.5315C19.1372 11.0225 19.6451 11.7167 19.7806 12.0722C19.9668 12.4955 20.1531 12.6987 20.3901 12.6987C20.7118 12.6987 20.7287 12.5802 20.7287 10.8701C20.7118 9.31243 20.7626 8.99074 21.0673 8.58439C21.2705 8.31349 21.6261 8.09338 21.9478 8.02566C22.2695 7.97486 22.7097 8.02566 22.9975 8.16111C23.2684 8.27963 23.5901 8.58439 23.7086 8.83836C23.861 9.14312 23.9456 9.92195 23.9456 11.0056C23.9456 12.5802 23.9626 12.6987 24.2843 12.6987C24.5213 12.6987 24.6737 12.5294 24.7753 12.1399C24.8769 11.8521 25.4017 11.1071 25.9774 10.4976C26.6885 9.75264 27.1287 9.09232 27.3488 8.46587C27.6197 7.75476 27.6874 7.22989 27.6367 6.26481C27.6028 5.41825 27.4673 4.741 27.2134 4.23307C27.0102 3.80978 26.5192 3.14947 26.1128 2.74312C25.7065 2.33677 24.9954 1.82883 24.5382 1.60873C24.0642 1.38862 23.3531 1.18545 22.9298 1.13465C22.5065 1.10079 21.8292 1.11772 21.406 1.18545C20.9827 1.25317 20.2377 1.52407 19.7298 1.79497ZM21.7107 11.0394L21.7446 12.6987H22.7605C22.8282 9.39709 22.8113 9.16005 22.5404 9.07539C22.388 9.0246 22.2356 8.97381 22.2017 8.97381C22.1679 8.97381 22.0494 9.05846 21.9139 9.17698C21.7277 9.32936 21.6769 9.7865 21.7107 11.0394ZM13.2959 10.6669C13.516 10.7854 13.5837 10.9209 13.4991 11.1241C13.4314 11.2934 13.3467 13.3759 13.3128 15.7463C13.279 18.4891 13.3128 20.3008 13.4314 20.6902C13.5329 21.0458 13.8377 21.5198 14.1255 21.7569C14.6165 22.1802 14.6843 22.1802 17.5118 22.1802C19.0864 22.1802 20.5086 22.214 20.6441 22.2648C20.7795 22.3156 20.898 22.5526 20.898 22.8066C20.898 23.0775 20.9827 23.5685 21.0673 23.9071C21.1689 24.2627 21.4398 24.7876 21.6938 25.0754C21.9647 25.3802 22.371 25.7188 22.625 25.8373C22.8959 25.9727 23.116 26.0743 23.1329 26.0743C23.1668 26.0743 23.1499 25.668 23.1329 25.1939C23.0991 24.7029 23.1499 23.9918 23.2515 23.6193C23.3531 23.2468 23.5901 22.7727 23.7763 22.5526C24.098 22.1971 24.2165 22.1802 30.0409 22.1802L31.1414 21.1981L31.2261 16.6436C31.2769 14.1548 31.243 11.8352 31.1753 11.5135C31.0568 11.0225 31.0906 10.887 31.3446 10.7008C31.5986 10.5315 31.7001 10.5484 31.988 10.8362C32.3097 11.1579 32.3266 11.4458 32.4113 20.9103L31.988 21.6214C31.7509 22.0278 31.243 22.5526 30.8536 22.8066C30.1594 23.2638 30.0917 23.2807 24.4536 23.3653L24.2843 23.9071C24.1827 24.2119 24.115 24.669 24.115 24.923C24.115 25.1939 24.2335 25.6849 24.3859 26.0235C24.5382 26.3791 24.606 26.8193 24.5552 27.0056C24.4536 27.3103 24.352 27.3272 23.5562 27.2087C23.0652 27.141 22.3541 26.904 21.9478 26.6669C21.5583 26.4299 21.0335 25.9897 20.3054 25.0754L19.7467 25.5833C19.4589 25.8542 19.0187 26.1421 18.7816 26.2436C18.5446 26.3452 16.8007 26.413 11.3319 26.413L11.1118 27.2087C11.0102 27.6659 10.6885 28.3262 10.4176 28.6987C10.1298 29.0881 9.52025 29.596 8.94459 29.9177C8.38586 30.2225 7.70861 30.4595 7.43771 30.4764C7.14988 30.4764 6.81125 30.3918 6.67581 30.3071C6.4557 30.1717 6.4557 30.0532 6.74353 29.2574C6.98057 28.5971 7.03136 28.1569 6.9467 27.5981C6.87898 27.1749 6.74353 26.7347 6.62501 26.6161C6.48956 26.4638 5.89697 26.396 4.67792 26.413C3.27263 26.413 2.81549 26.3452 2.27369 26.0743C1.9012 25.8881 1.46099 25.5325 1.29168 25.2616C1.10543 25.0077 0.885328 24.5336 0.76681 24.2119C0.648291 23.8225 0.580566 22.1294 0.580566 19.1664C0.580566 15.1368 0.614429 14.6796 0.90226 14.087C1.07157 13.7484 1.4102 13.2913 1.6303 13.0881C1.83348 12.8849 2.30755 12.5971 2.64617 12.4616C3.17104 12.2415 4.10226 12.1907 12.2631 12.1907L12.3478 11.5981C12.3986 11.2765 12.5509 10.887 12.7033 10.7516C12.8896 10.5653 13.0419 10.5484 13.2959 10.6669ZM20.2208 16.9653C20.2208 17.2701 20.3054 17.6257 20.424 17.7442C20.5763 17.8796 21.2028 17.9473 22.3372 17.9473C23.4772 17.9473 24.115 17.874 24.2504 17.7272C24.3689 17.6257 24.4536 17.2701 24.4536 16.9653V16.4235H20.2208V16.9653ZM31.0398 5.90926C31.5986 5.90926 32.0726 5.99391 32.2081 6.12936C32.3266 6.24788 32.3774 6.46799 32.3266 6.6373C32.2589 6.89127 32.0388 6.92513 31.0568 6.92513C30.1594 6.92513 29.8546 6.87434 29.7869 6.67116C29.7361 6.53571 29.7869 6.3156 29.8885 6.16322C30.024 5.99391 30.3964 5.90926 31.0398 5.90926ZM18.1552 14.3071C18.0705 14.5103 18.1213 14.7812 18.2737 15.0182C18.5277 15.3907 18.5785 15.3907 22.1679 15.3907C24.2504 15.3907 25.9605 15.323 26.1467 15.2214C26.3725 15.1086 26.4853 14.8828 26.4853 14.5442C26.4853 14.1717 26.3837 14.0024 26.062 13.8669C25.825 13.7823 24.1658 13.7145 22.3033 13.7145C20.4578 13.7145 18.7986 13.7823 18.6123 13.8669C18.4261 13.9347 18.2229 14.1378 18.1552 14.3071ZM2.03665 14.2733C1.69803 14.7304 1.6811 14.9675 1.6811 19.3526C1.6811 22.705 1.74882 24.0595 1.9012 24.3304C2.01972 24.5336 2.30755 24.8384 2.56152 25.0077C2.91707 25.2278 3.50967 25.3294 5.152 25.3802L7.2684 25.4648C7.86099 26.6331 7.94565 27.1579 7.94565 28.0384C7.94565 29.0373 7.99644 29.2235 8.19961 29.1558C8.33506 29.105 8.63983 28.9357 8.87686 28.7664C9.1139 28.614 9.46946 28.2246 9.67263 27.9198C9.8758 27.5981 10.079 26.9886 10.1128 26.5653C10.1467 26.159 10.2314 25.7188 10.2991 25.6003C10.3837 25.4479 11.3488 25.3802 14.261 25.3802C16.97 25.3802 18.2229 25.3294 18.5107 25.177C18.7308 25.0585 19.0525 24.7706 19.2218 24.5336C19.3911 24.3135 19.5605 23.941 19.6113 23.7378C19.7128 23.3653 19.7128 23.3484 17.4779 23.3484C16.2419 23.3484 14.9382 23.2807 14.5996 23.1791C14.2441 23.0944 13.7192 22.8066 13.4144 22.5526C13.1266 22.2987 12.7541 21.7738 12.5848 21.4013C12.3139 20.8257 12.28 20.2331 12.2631 16.9653V13.1897C4.08533 13.2066 3.4758 13.2405 2.96787 13.4944C2.64618 13.6638 2.22289 14.0024 2.03665 14.2733ZM13.8546 2.69232C13.9562 2.69232 14.4134 2.96322 14.8536 3.28492C15.2938 3.62354 15.6494 3.9791 15.6663 4.09762C15.6663 4.21613 15.5478 4.41931 15.3954 4.55476C15.1753 4.7918 15.0737 4.77486 14.515 4.36851C14.1594 4.11455 13.7192 3.75899 13.5329 3.55582C13.2451 3.26799 13.2282 3.18333 13.4314 2.96322C13.5499 2.81084 13.7531 2.69232 13.8546 2.69232ZM30.8874 2.74312C31.0398 2.77698 31.1414 2.96322 31.1414 3.20026C31.1414 3.48809 30.9213 3.75899 30.3456 4.16534C29.9054 4.48703 29.4144 4.69021 29.279 4.63941C29.1435 4.60555 29.025 4.38545 29.025 4.18227C29.025 3.9283 29.279 3.62354 29.8377 3.25105C30.2779 2.94629 30.752 2.70926 30.8874 2.74312ZM13.6345 5.90926C14.4134 5.90926 14.6673 5.97698 14.7859 6.21402C14.8705 6.38333 14.9044 6.60344 14.8705 6.72195C14.8197 6.8574 14.4303 6.92513 13.6176 6.92513C12.7202 6.92513 12.4155 6.87434 12.3478 6.67116C12.297 6.53571 12.3478 6.3156 12.4494 6.16322C12.5848 5.99391 12.9573 5.90926 13.6345 5.90926ZM15.2261 8.33042C15.4123 8.34735 15.5986 8.51666 15.6155 8.70291C15.6663 8.95687 15.4292 9.22777 14.7689 9.68492C14.0747 10.159 13.8038 10.2775 13.5837 10.1421C13.4144 10.0574 13.262 9.87116 13.2451 9.73571C13.2282 9.58333 13.5837 9.21084 14.0578 8.88915C14.515 8.55053 15.0398 8.31349 15.2261 8.33042ZM29.4822 8.27963C29.6007 8.27963 30.0578 8.53359 30.4642 8.83836C30.8874 9.14312 31.2769 9.48174 31.3107 9.60026C31.3615 9.71878 31.2769 9.92195 31.1414 10.0574C31.006 10.2098 30.8028 10.2606 30.6843 10.2098C30.5658 10.1421 30.1425 9.87116 29.7531 9.61719C29.3467 9.34629 29.0081 8.99074 28.9911 8.82142C28.9911 8.65211 29.0419 8.46587 29.1097 8.39814C29.1943 8.33042 29.3467 8.27963 29.4822 8.27963Z" fill="#00ADFF" stroke="#00ADFF" stroke-width="2" mask="url(#path-1-inside-1_2074_6928)"/>
</g>
<defs>
<clipPath id="clip0_2074_6928">
<rect width="32" height="30.4762" fill="white" transform="translate(0.411133)"/>
</clipPath>
</defs>
</svg>
