<svg width="33" height="33" viewBox="0 0 33 33" fill="none" xmlns="http://www.w3.org/2000/svg">
<path d="M30.3003 23.6285L19.3691 4.64477C19.0959 4.17968 18.7059 3.79404 18.2378 3.5261C17.7697 3.25815 17.2397 3.11719 16.7003 3.11719C16.1609 3.11719 15.6309 3.25815 15.1628 3.5261C14.6947 3.79404 14.3047 4.17968 14.0316 4.64477L3.10032 23.6285C2.83749 24.0784 2.69897 24.59 2.69897 25.111C2.69897 25.632 2.83749 26.1437 3.10032 26.5935C3.36998 27.0614 3.75928 27.4492 4.22827 27.7169C4.69726 27.9847 5.22904 28.1229 5.76907 28.1173H27.6316C28.1712 28.1224 28.7024 27.984 29.1709 27.7163C29.6395 27.4485 30.0284 27.0611 30.2978 26.5935C30.561 26.1439 30.7 25.6324 30.7004 25.1114C30.7008 24.5904 30.5628 24.0786 30.3003 23.6285ZM28.5666 25.5923C28.4713 25.7548 28.3345 25.8891 28.1702 25.9814C28.0059 26.0736 27.82 26.1205 27.6316 26.1173H5.76907C5.58066 26.1205 5.39478 26.0736 5.23048 25.9814C5.06617 25.8891 4.92936 25.7548 4.83407 25.5923C4.74775 25.4461 4.70221 25.2795 4.70221 25.1098C4.70221 24.94 4.74775 24.7734 4.83407 24.6273L15.7653 5.64352C15.8625 5.48174 16 5.34786 16.1642 5.25492C16.3285 5.16198 16.5141 5.11314 16.7028 5.11314C16.8916 5.11314 17.0771 5.16198 17.2414 5.25492C17.4057 5.34786 17.5431 5.48174 17.6403 5.64352L28.5716 24.6273C28.6571 24.7739 28.7018 24.9407 28.7009 25.1105C28.7 25.2802 28.6536 25.4466 28.5666 25.5923ZM15.7003 18.1173V13.1173C15.7003 12.8521 15.8057 12.5977 15.9932 12.4102C16.1807 12.2226 16.4351 12.1173 16.7003 12.1173C16.9655 12.1173 17.2199 12.2226 17.4074 12.4102C17.595 12.5977 17.7003 12.8521 17.7003 13.1173V18.1173C17.7003 18.3825 17.595 18.6368 17.4074 18.8244C17.2199 19.0119 16.9655 19.1173 16.7003 19.1173C16.4351 19.1173 16.1807 19.0119 15.9932 18.8244C15.8057 18.6368 15.7003 18.3825 15.7003 18.1173ZM18.2003 22.6173C18.2003 22.9139 18.1123 23.204 17.9475 23.4506C17.7827 23.6973 17.5484 23.8896 17.2743 24.0031C17.0003 24.1166 16.6987 24.1463 16.4077 24.0884C16.1167 24.0306 15.8494 23.8877 15.6397 23.6779C15.4299 23.4682 15.287 23.2009 15.2291 22.9099C15.1713 22.6189 15.201 22.3173 15.3145 22.0432C15.428 21.7692 15.6203 21.5349 15.867 21.3701C16.1136 21.2052 16.4036 21.1173 16.7003 21.1173C17.0981 21.1173 17.4797 21.2753 17.761 21.5566C18.0423 21.8379 18.2003 22.2194 18.2003 22.6173Z" fill="#00ADFF"/>
</svg>
